%TF.GenerationSoftware,KiCad,Pcbnew,10.0.3*%
%TF.CreationDate,2026-07-30T12:17:15-07:00*%
%TF.ProjectId,BMS_Board_Prototype,424d535f-426f-4617-9264-5f50726f746f,rev?*%
%TF.SameCoordinates,Original*%
%TF.FileFunction,Paste,Bot*%
%TF.FilePolarity,Positive*%
%FSLAX46Y46*%
G04 Gerber Fmt 4.6, Leading zero omitted, Abs format (unit mm)*
G04 Created by KiCad (PCBNEW 10.0.3) date 2026-07-30 12:17:15*
%MOMM*%
%LPD*%
G01*
G04 APERTURE LIST*
G04 Aperture macros list*
%AMRoundRect*
0 Rectangle with rounded corners*
0 $1 Rounding radius*
0 $2 $3 $4 $5 $6 $7 $8 $9 X,Y pos of 4 corners*
0 Add a 4 corners polygon primitive as box body*
4,1,4,$2,$3,$4,$5,$6,$7,$8,$9,$2,$3,0*
0 Add four circle primitives for the rounded corners*
1,1,$1+$1,$2,$3*
1,1,$1+$1,$4,$5*
1,1,$1+$1,$6,$7*
1,1,$1+$1,$8,$9*
0 Add four rect primitives between the rounded corners*
20,1,$1+$1,$2,$3,$4,$5,0*
20,1,$1+$1,$4,$5,$6,$7,0*
20,1,$1+$1,$6,$7,$8,$9,0*
20,1,$1+$1,$8,$9,$2,$3,0*%
G04 Aperture macros list end*
%ADD10RoundRect,0.135000X-0.135000X-0.185000X0.135000X-0.185000X0.135000X0.185000X-0.135000X0.185000X0*%
%ADD11RoundRect,0.250000X-0.475000X0.250000X-0.475000X-0.250000X0.475000X-0.250000X0.475000X0.250000X0*%
%ADD12RoundRect,0.250000X0.450000X-0.262500X0.450000X0.262500X-0.450000X0.262500X-0.450000X-0.262500X0*%
%ADD13RoundRect,0.250000X1.425000X-0.362500X1.425000X0.362500X-1.425000X0.362500X-1.425000X-0.362500X0*%
%ADD14RoundRect,0.250000X0.475000X-0.250000X0.475000X0.250000X-0.475000X0.250000X-0.475000X-0.250000X0*%
%ADD15RoundRect,0.250000X0.362500X1.425000X-0.362500X1.425000X-0.362500X-1.425000X0.362500X-1.425000X0*%
%ADD16RoundRect,0.250000X-0.262500X-0.450000X0.262500X-0.450000X0.262500X0.450000X-0.262500X0.450000X0*%
%ADD17RoundRect,0.140000X0.170000X-0.140000X0.170000X0.140000X-0.170000X0.140000X-0.170000X-0.140000X0*%
%ADD18R,2.489200X0.939800*%
%ADD19R,5.918200X5.511800*%
%ADD20RoundRect,0.135000X0.185000X-0.135000X0.185000X0.135000X-0.185000X0.135000X-0.185000X-0.135000X0*%
%ADD21RoundRect,0.200000X0.200000X0.275000X-0.200000X0.275000X-0.200000X-0.275000X0.200000X-0.275000X0*%
%ADD22RoundRect,0.250000X0.262500X0.450000X-0.262500X0.450000X-0.262500X-0.450000X0.262500X-0.450000X0*%
%ADD23R,1.475000X0.450000*%
%ADD24RoundRect,0.140000X-0.170000X0.140000X-0.170000X-0.140000X0.170000X-0.140000X0.170000X0.140000X0*%
%ADD25RoundRect,0.200000X-0.200000X-0.275000X0.200000X-0.275000X0.200000X0.275000X-0.200000X0.275000X0*%
%ADD26R,7.442200X1.600200*%
%ADD27RoundRect,0.250000X-0.312500X-0.625000X0.312500X-0.625000X0.312500X0.625000X-0.312500X0.625000X0*%
%ADD28RoundRect,0.225000X0.375000X-0.225000X0.375000X0.225000X-0.375000X0.225000X-0.375000X-0.225000X0*%
%ADD29RoundRect,0.250000X0.250000X0.475000X-0.250000X0.475000X-0.250000X-0.475000X0.250000X-0.475000X0*%
%ADD30RoundRect,0.200000X0.275000X-0.200000X0.275000X0.200000X-0.275000X0.200000X-0.275000X-0.200000X0*%
G04 APERTURE END LIST*
D10*
%TO.C,R41*%
X55000000Y-100750000D03*
X56020000Y-100750000D03*
%TD*%
D11*
%TO.C,C24*%
X72500000Y-91050000D03*
X72500000Y-92950000D03*
%TD*%
D12*
%TO.C,R35*%
X69500000Y-99250000D03*
X69500000Y-97425000D03*
%TD*%
D13*
%TO.C,R34*%
X104500000Y-90712500D03*
X104500000Y-84787500D03*
%TD*%
D14*
%TO.C,C26*%
X73750000Y-96950000D03*
X73750000Y-95050000D03*
%TD*%
D15*
%TO.C,R59*%
X33050508Y-66976494D03*
X27125508Y-66976494D03*
%TD*%
D16*
%TO.C,R40*%
X55087500Y-98000000D03*
X56912500Y-98000000D03*
%TD*%
D17*
%TO.C,C28*%
X62000000Y-86730000D03*
X62000000Y-85770000D03*
%TD*%
D18*
%TO.C,Q6*%
X100503800Y-76719999D03*
X100503800Y-81280001D03*
D19*
X92210700Y-79000000D03*
%TD*%
D20*
%TO.C,R37*%
X53250000Y-82760000D03*
X53250000Y-81740000D03*
%TD*%
D21*
%TO.C,R33*%
X76250000Y-92000000D03*
X74600000Y-92000000D03*
%TD*%
D18*
%TO.C,Q10*%
X52753800Y-93219999D03*
X52753800Y-97780001D03*
D19*
X44460700Y-95500000D03*
%TD*%
D22*
%TO.C,R38*%
X53000000Y-91250000D03*
X51175000Y-91250000D03*
%TD*%
D11*
%TO.C,C25*%
X78000000Y-94550000D03*
X78000000Y-96450000D03*
%TD*%
D23*
%TO.C,IC1*%
X69500000Y-88600000D03*
X69500000Y-89250000D03*
X69500000Y-89900000D03*
X69500000Y-90550000D03*
X69500000Y-91200000D03*
X69500000Y-91850000D03*
X69500000Y-92500000D03*
X69500000Y-93150000D03*
X69500000Y-93800000D03*
X69500000Y-94450000D03*
X69500000Y-95100000D03*
X69500000Y-95750000D03*
X62424000Y-95750000D03*
X62424000Y-95100000D03*
X62424000Y-94450000D03*
X62424000Y-93800000D03*
X62424000Y-93150000D03*
X62424000Y-92500000D03*
X62424000Y-91850000D03*
X62424000Y-91200000D03*
X62424000Y-90550000D03*
X62424000Y-89900000D03*
X62424000Y-89250000D03*
X62424000Y-88600000D03*
%TD*%
D24*
%TO.C,C29*%
X59500000Y-91270000D03*
X59500000Y-92230000D03*
%TD*%
D18*
%TO.C,Q9*%
X53500000Y-84250000D03*
X53500000Y-88810002D03*
D19*
X45206900Y-86530001D03*
%TD*%
D25*
%TO.C,R32*%
X107750000Y-84250000D03*
X109400000Y-84250000D03*
%TD*%
D12*
%TO.C,R36*%
X59250000Y-85912500D03*
X59250000Y-84087500D03*
%TD*%
D24*
%TO.C,C30*%
X59500000Y-93520000D03*
X59500000Y-94480000D03*
%TD*%
D26*
%TO.C,R31*%
X79750000Y-83117100D03*
X79750000Y-88882900D03*
%TD*%
D18*
%TO.C,Q8*%
X52500000Y-100750000D03*
X52500000Y-105310002D03*
D19*
X44206900Y-103030001D03*
%TD*%
D10*
%TO.C,R39*%
X54740000Y-93250000D03*
X55760000Y-93250000D03*
%TD*%
D27*
%TO.C,R30*%
X88037500Y-94500000D03*
X90962500Y-94500000D03*
%TD*%
D28*
%TO.C,D10*%
X63500000Y-83400000D03*
X63500000Y-80100000D03*
%TD*%
D29*
%TO.C,C43*%
X30200000Y-62000000D03*
X28300000Y-62000000D03*
%TD*%
D30*
%TO.C,R29*%
X67750000Y-87075000D03*
X67750000Y-85425000D03*
%TD*%
D14*
%TO.C,C27*%
X65750000Y-83200000D03*
X65750000Y-81300000D03*
%TD*%
D18*
%TO.C,Q5*%
X87753800Y-99469999D03*
X87753800Y-104030001D03*
D19*
X79460700Y-101750000D03*
%TD*%
D18*
%TO.C,Q7*%
X97253800Y-83969999D03*
X97253800Y-88530001D03*
D19*
X88960700Y-86250000D03*
%TD*%
M02*
