%TF.GenerationSoftware,KiCad,Pcbnew,10.0.3*%
%TF.CreationDate,2026-07-29T13:38:45-07:00*%
%TF.ProjectId,BMS_Board_Prototype,424d535f-426f-4617-9264-5f50726f746f,rev?*%
%TF.SameCoordinates,Original*%
%TF.FileFunction,Soldermask,Bot*%
%TF.FilePolarity,Negative*%
%FSLAX46Y46*%
G04 Gerber Fmt 4.6, Leading zero omitted, Abs format (unit mm)*
G04 Created by KiCad (PCBNEW 10.0.3) date 2026-07-29 13:38:45*
%MOMM*%
%LPD*%
G01*
G04 APERTURE LIST*
G04 Aperture macros list*
%AMRoundRect*
0 Rectangle with rounded corners*
0 $1 Rounding radius*
0 $2 $3 $4 $5 $6 $7 $8 $9 X,Y pos of 4 corners*
0 Add a 4 corners polygon primitive as box body*
4,1,4,$2,$3,$4,$5,$6,$7,$8,$9,$2,$3,0*
0 Add four circle primitives for the rounded corners*
1,1,$1+$1,$2,$3*
1,1,$1+$1,$4,$5*
1,1,$1+$1,$6,$7*
1,1,$1+$1,$8,$9*
0 Add four rect primitives between the rounded corners*
20,1,$1+$1,$2,$3,$4,$5,0*
20,1,$1+$1,$4,$5,$6,$7,0*
20,1,$1+$1,$6,$7,$8,$9,0*
20,1,$1+$1,$8,$9,$2,$3,0*%
G04 Aperture macros list end*
%ADD10RoundRect,0.250000X0.250000X0.475000X-0.250000X0.475000X-0.250000X-0.475000X0.250000X-0.475000X0*%
%ADD11RoundRect,0.250001X1.149999X1.149999X-1.149999X1.149999X-1.149999X-1.149999X1.149999X-1.149999X0*%
%ADD12C,2.800000*%
%ADD13RoundRect,0.249999X0.850001X-0.850001X0.850001X0.850001X-0.850001X0.850001X-0.850001X-0.850001X0*%
%ADD14C,2.200000*%
%ADD15C,1.000000*%
%ADD16RoundRect,0.250000X-0.600000X-0.750000X0.600000X-0.750000X0.600000X0.750000X-0.600000X0.750000X0*%
%ADD17O,1.700000X2.000000*%
%ADD18RoundRect,0.250000X0.600000X0.725000X-0.600000X0.725000X-0.600000X-0.725000X0.600000X-0.725000X0*%
%ADD19O,1.700000X1.950000*%
%ADD20R,2.800000X2.800000*%
%ADD21RoundRect,0.250000X-0.600000X-0.725000X0.600000X-0.725000X0.600000X0.725000X-0.600000X0.725000X0*%
%ADD22C,0.650000*%
%ADD23O,2.100000X1.000000*%
%ADD24O,1.600000X1.000000*%
%ADD25RoundRect,0.250001X1.099999X1.099999X-1.099999X1.099999X-1.099999X-1.099999X1.099999X-1.099999X0*%
%ADD26C,2.700000*%
%ADD27C,3.600000*%
%ADD28RoundRect,0.250000X0.750000X-0.600000X0.750000X0.600000X-0.750000X0.600000X-0.750000X-0.600000X0*%
%ADD29O,2.000000X1.700000*%
%ADD30RoundRect,0.250001X-1.099999X-1.099999X1.099999X-1.099999X1.099999X1.099999X-1.099999X1.099999X0*%
%ADD31RoundRect,0.135000X-0.135000X-0.185000X0.135000X-0.185000X0.135000X0.185000X-0.135000X0.185000X0*%
%ADD32RoundRect,0.250000X-0.475000X0.250000X-0.475000X-0.250000X0.475000X-0.250000X0.475000X0.250000X0*%
%ADD33RoundRect,0.250000X0.450000X-0.262500X0.450000X0.262500X-0.450000X0.262500X-0.450000X-0.262500X0*%
%ADD34RoundRect,0.250000X1.425000X-0.362500X1.425000X0.362500X-1.425000X0.362500X-1.425000X-0.362500X0*%
%ADD35RoundRect,0.250000X0.475000X-0.250000X0.475000X0.250000X-0.475000X0.250000X-0.475000X-0.250000X0*%
%ADD36RoundRect,0.250000X0.362500X1.425000X-0.362500X1.425000X-0.362500X-1.425000X0.362500X-1.425000X0*%
%ADD37RoundRect,0.250000X-0.262500X-0.450000X0.262500X-0.450000X0.262500X0.450000X-0.262500X0.450000X0*%
%ADD38RoundRect,0.140000X0.170000X-0.140000X0.170000X0.140000X-0.170000X0.140000X-0.170000X-0.140000X0*%
%ADD39R,2.489200X0.939800*%
%ADD40R,5.918200X5.511800*%
%ADD41RoundRect,0.135000X0.185000X-0.135000X0.185000X0.135000X-0.185000X0.135000X-0.185000X-0.135000X0*%
%ADD42RoundRect,0.200000X0.200000X0.275000X-0.200000X0.275000X-0.200000X-0.275000X0.200000X-0.275000X0*%
%ADD43RoundRect,0.250000X0.262500X0.450000X-0.262500X0.450000X-0.262500X-0.450000X0.262500X-0.450000X0*%
%ADD44R,1.475000X0.450000*%
%ADD45RoundRect,0.140000X-0.170000X0.140000X-0.170000X-0.140000X0.170000X-0.140000X0.170000X0.140000X0*%
%ADD46RoundRect,0.200000X-0.200000X-0.275000X0.200000X-0.275000X0.200000X0.275000X-0.200000X0.275000X0*%
%ADD47R,7.442200X1.600200*%
%ADD48RoundRect,0.250000X-0.312500X-0.625000X0.312500X-0.625000X0.312500X0.625000X-0.312500X0.625000X0*%
%ADD49RoundRect,0.225000X0.375000X-0.225000X0.375000X0.225000X-0.375000X0.225000X-0.375000X-0.225000X0*%
%ADD50RoundRect,0.200000X0.275000X-0.200000X0.275000X0.200000X-0.275000X0.200000X-0.275000X-0.200000X0*%
G04 APERTURE END LIST*
D10*
%TO.C,C43*%
X30200000Y-62000000D03*
X28300000Y-62000000D03*
%TD*%
D11*
%TO.C,J1*%
X116500000Y-75000000D03*
D12*
X111500000Y-75000000D03*
%TD*%
D13*
%TO.C,D3*%
X37337100Y-39850000D03*
D14*
X37337100Y-27150000D03*
%TD*%
D15*
%TO.C,TP5*%
X75706900Y-105719999D03*
%TD*%
%TO.C,TP15*%
X119500000Y-59750000D03*
%TD*%
D16*
%TO.C,J28*%
X60250000Y-34975000D03*
D17*
X62750000Y-34975000D03*
%TD*%
D15*
%TO.C,TP2*%
X35500000Y-51750000D03*
%TD*%
D16*
%TO.C,J12*%
X44500000Y-113250000D03*
D17*
X47000000Y-113250000D03*
%TD*%
D18*
%TO.C,J10*%
X114900000Y-66025000D03*
D19*
X112400000Y-66025000D03*
X109900000Y-66025000D03*
X107400000Y-66025000D03*
X104900000Y-66025000D03*
X102400000Y-66025000D03*
X99900000Y-66025000D03*
X97400000Y-66025000D03*
%TD*%
D15*
%TO.C,TP6*%
X101500000Y-106750000D03*
%TD*%
%TO.C,TP18*%
X69232314Y-75116068D03*
%TD*%
D20*
%TO.C,J14*%
X29000000Y-106120000D03*
D12*
X29000000Y-101040000D03*
X29000000Y-95960000D03*
X29000000Y-90880000D03*
%TD*%
D21*
%TO.C,J9*%
X56500000Y-71475000D03*
D19*
X59000000Y-71475000D03*
X61500000Y-71475000D03*
X64000000Y-71475000D03*
%TD*%
D22*
%TO.C,J27*%
X114400000Y-36890000D03*
X114400000Y-31110000D03*
D23*
X113870000Y-38320000D03*
D24*
X118050000Y-38320000D03*
D23*
X113870000Y-29680000D03*
D24*
X118050000Y-29680000D03*
%TD*%
D25*
%TO.C,J30*%
X84500000Y-28500000D03*
D26*
X79500000Y-28500000D03*
%TD*%
D15*
%TO.C,TP3*%
X57732314Y-101116068D03*
%TD*%
D21*
%TO.C,J31*%
X51500000Y-59000000D03*
D19*
X54000000Y-59000000D03*
X56500000Y-59000000D03*
X59000000Y-59000000D03*
%TD*%
D27*
%TO.C,J6*%
X118750000Y-113500000D03*
%TD*%
D15*
%TO.C,TP13*%
X68350000Y-58750000D03*
%TD*%
D18*
%TO.C,J3*%
X91250000Y-66000000D03*
D19*
X88750000Y-66000000D03*
X86250000Y-66000000D03*
X83750000Y-66000000D03*
X81250000Y-66000000D03*
X78750000Y-66000000D03*
X76250000Y-66000000D03*
X73750000Y-66000000D03*
%TD*%
D15*
%TO.C,TP11*%
X119500000Y-63000000D03*
%TD*%
D27*
%TO.C,J7*%
X118500000Y-23500000D03*
%TD*%
D15*
%TO.C,TP19*%
X76000000Y-97250000D03*
%TD*%
%TO.C,TP7*%
X69250000Y-79500000D03*
%TD*%
%TO.C,TP10*%
X68500000Y-62000000D03*
%TD*%
D18*
%TO.C,J15*%
X115000000Y-58775000D03*
D19*
X112500000Y-58775000D03*
X110000000Y-58775000D03*
X107500000Y-58775000D03*
X105000000Y-58775000D03*
X102500000Y-58775000D03*
X100000000Y-58775000D03*
X97500000Y-58775000D03*
%TD*%
D27*
%TO.C,J8*%
X28500000Y-23500000D03*
%TD*%
D28*
%TO.C,J4*%
X28750000Y-34500000D03*
D29*
X28750000Y-32000000D03*
%TD*%
D15*
%TO.C,TP17*%
X69232314Y-77366068D03*
%TD*%
%TO.C,TP14*%
X68250000Y-55500000D03*
%TD*%
%TO.C,TP9*%
X68500000Y-65250000D03*
%TD*%
%TO.C,TP4*%
X57337100Y-29050000D03*
%TD*%
D30*
%TO.C,J29*%
X98722500Y-47450000D03*
D26*
X103722500Y-47450000D03*
%TD*%
D15*
%TO.C,TP16*%
X119250000Y-56500000D03*
%TD*%
D18*
%TO.C,J11*%
X86232314Y-77616068D03*
D19*
X83732314Y-77616068D03*
X81232314Y-77616068D03*
X78732314Y-77616068D03*
X76232314Y-77616068D03*
X73732314Y-77616068D03*
%TD*%
D27*
%TO.C,J5*%
X28750000Y-113500000D03*
%TD*%
D18*
%TO.C,J13*%
X91200000Y-58800000D03*
D19*
X88700000Y-58800000D03*
X86200000Y-58800000D03*
X83700000Y-58800000D03*
X81200000Y-58800000D03*
X78700000Y-58800000D03*
X76200000Y-58800000D03*
X73700000Y-58800000D03*
%TD*%
D15*
%TO.C,TP1*%
X48482314Y-108116068D03*
%TD*%
D16*
%TO.C,J2*%
X56500000Y-113250000D03*
D17*
X59000000Y-113250000D03*
%TD*%
D15*
%TO.C,TP20*%
X82500000Y-96000000D03*
%TD*%
%TO.C,TP12*%
X119500000Y-66250000D03*
%TD*%
D31*
%TO.C,R41*%
X55000000Y-100750000D03*
X56020000Y-100750000D03*
%TD*%
D32*
%TO.C,C24*%
X72500000Y-91050000D03*
X72500000Y-92950000D03*
%TD*%
D33*
%TO.C,R35*%
X69500000Y-99250000D03*
X69500000Y-97425000D03*
%TD*%
D34*
%TO.C,R34*%
X104500000Y-90712500D03*
X104500000Y-84787500D03*
%TD*%
D35*
%TO.C,C26*%
X73750000Y-96950000D03*
X73750000Y-95050000D03*
%TD*%
D36*
%TO.C,R59*%
X33050508Y-66976494D03*
X27125508Y-66976494D03*
%TD*%
D37*
%TO.C,R40*%
X55087500Y-98000000D03*
X56912500Y-98000000D03*
%TD*%
D38*
%TO.C,C28*%
X62000000Y-86730000D03*
X62000000Y-85770000D03*
%TD*%
D39*
%TO.C,Q6*%
X100503800Y-76719999D03*
X100503800Y-81280001D03*
D40*
X92210700Y-79000000D03*
%TD*%
D41*
%TO.C,R37*%
X53250000Y-82760000D03*
X53250000Y-81740000D03*
%TD*%
D42*
%TO.C,R33*%
X76250000Y-92000000D03*
X74600000Y-92000000D03*
%TD*%
D39*
%TO.C,Q10*%
X52753800Y-93219999D03*
X52753800Y-97780001D03*
D40*
X44460700Y-95500000D03*
%TD*%
D43*
%TO.C,R38*%
X53000000Y-91250000D03*
X51175000Y-91250000D03*
%TD*%
D32*
%TO.C,C25*%
X78000000Y-94550000D03*
X78000000Y-96450000D03*
%TD*%
D44*
%TO.C,IC1*%
X69500000Y-88600000D03*
X69500000Y-89250000D03*
X69500000Y-89900000D03*
X69500000Y-90550000D03*
X69500000Y-91200000D03*
X69500000Y-91850000D03*
X69500000Y-92500000D03*
X69500000Y-93150000D03*
X69500000Y-93800000D03*
X69500000Y-94450000D03*
X69500000Y-95100000D03*
X69500000Y-95750000D03*
X62424000Y-95750000D03*
X62424000Y-95100000D03*
X62424000Y-94450000D03*
X62424000Y-93800000D03*
X62424000Y-93150000D03*
X62424000Y-92500000D03*
X62424000Y-91850000D03*
X62424000Y-91200000D03*
X62424000Y-90550000D03*
X62424000Y-89900000D03*
X62424000Y-89250000D03*
X62424000Y-88600000D03*
%TD*%
D45*
%TO.C,C29*%
X59500000Y-91270000D03*
X59500000Y-92230000D03*
%TD*%
D39*
%TO.C,Q9*%
X53500000Y-84250000D03*
X53500000Y-88810002D03*
D40*
X45206900Y-86530001D03*
%TD*%
D46*
%TO.C,R32*%
X107750000Y-84250000D03*
X109400000Y-84250000D03*
%TD*%
D33*
%TO.C,R36*%
X59250000Y-85912500D03*
X59250000Y-84087500D03*
%TD*%
D45*
%TO.C,C30*%
X59500000Y-93520000D03*
X59500000Y-94480000D03*
%TD*%
D47*
%TO.C,R31*%
X79750000Y-83117100D03*
X79750000Y-88882900D03*
%TD*%
D39*
%TO.C,Q8*%
X52500000Y-100750000D03*
X52500000Y-105310002D03*
D40*
X44206900Y-103030001D03*
%TD*%
D31*
%TO.C,R39*%
X54740000Y-93250000D03*
X55760000Y-93250000D03*
%TD*%
D48*
%TO.C,R30*%
X88037500Y-94500000D03*
X90962500Y-94500000D03*
%TD*%
D49*
%TO.C,D10*%
X63500000Y-83400000D03*
X63500000Y-80100000D03*
%TD*%
D15*
%TO.C,TP8*%
X72000000Y-99500000D03*
%TD*%
D50*
%TO.C,R29*%
X67750000Y-87075000D03*
X67750000Y-85425000D03*
%TD*%
D35*
%TO.C,C27*%
X65750000Y-83200000D03*
X65750000Y-81300000D03*
%TD*%
D39*
%TO.C,Q5*%
X87753800Y-99469999D03*
X87753800Y-104030001D03*
D40*
X79460700Y-101750000D03*
%TD*%
D39*
%TO.C,Q7*%
X97253800Y-83969999D03*
X97253800Y-88530001D03*
D40*
X88960700Y-86250000D03*
%TD*%
M02*
