%TF.GenerationSoftware,KiCad,Pcbnew,10.0.3*%
%TF.CreationDate,2026-07-30T12:17:14-07:00*%
%TF.ProjectId,BMS_Board_Prototype,424d535f-426f-4617-9264-5f50726f746f,rev?*%
%TF.SameCoordinates,Original*%
%TF.FileFunction,Paste,Top*%
%TF.FilePolarity,Positive*%
%FSLAX46Y46*%
G04 Gerber Fmt 4.6, Leading zero omitted, Abs format (unit mm)*
G04 Created by KiCad (PCBNEW 10.0.3) date 2026-07-30 12:17:14*
%MOMM*%
%LPD*%
G01*
G04 APERTURE LIST*
G04 Aperture macros list*
%AMRoundRect*
0 Rectangle with rounded corners*
0 $1 Rounding radius*
0 $2 $3 $4 $5 $6 $7 $8 $9 X,Y pos of 4 corners*
0 Add a 4 corners polygon primitive as box body*
4,1,4,$2,$3,$4,$5,$6,$7,$8,$9,$2,$3,0*
0 Add four circle primitives for the rounded corners*
1,1,$1+$1,$2,$3*
1,1,$1+$1,$4,$5*
1,1,$1+$1,$6,$7*
1,1,$1+$1,$8,$9*
0 Add four rect primitives between the rounded corners*
20,1,$1+$1,$2,$3,$4,$5,0*
20,1,$1+$1,$4,$5,$6,$7,0*
20,1,$1+$1,$6,$7,$8,$9,0*
20,1,$1+$1,$8,$9,$2,$3,0*%
%AMRotRect*
0 Rectangle, with rotation*
0 The origin of the aperture is its center*
0 $1 length*
0 $2 width*
0 $3 Rotation angle, in degrees counterclockwise*
0 Add horizontal line*
21,1,$1,$2,0,0,$3*%
G04 Aperture macros list end*
%ADD10C,0.000000*%
%ADD11RoundRect,0.250000X0.325000X0.650000X-0.325000X0.650000X-0.325000X-0.650000X0.325000X-0.650000X0*%
%ADD12R,1.200000X3.700000*%
%ADD13RoundRect,0.250000X0.312500X0.625000X-0.312500X0.625000X-0.312500X-0.625000X0.312500X-0.625000X0*%
%ADD14RoundRect,0.250000X-0.312500X-0.625000X0.312500X-0.625000X0.312500X0.625000X-0.312500X0.625000X0*%
%ADD15RoundRect,0.200000X-0.275000X0.200000X-0.275000X-0.200000X0.275000X-0.200000X0.275000X0.200000X0*%
%ADD16RoundRect,0.160000X0.245000X0.160000X-0.245000X0.160000X-0.245000X-0.160000X0.245000X-0.160000X0*%
%ADD17RoundRect,0.093750X0.093750X0.106250X-0.093750X0.106250X-0.093750X-0.106250X0.093750X-0.106250X0*%
%ADD18RoundRect,0.225000X-0.250000X0.225000X-0.250000X-0.225000X0.250000X-0.225000X0.250000X0.225000X0*%
%ADD19RoundRect,0.250000X0.262500X0.450000X-0.262500X0.450000X-0.262500X-0.450000X0.262500X-0.450000X0*%
%ADD20R,0.750000X0.300000*%
%ADD21R,0.300000X0.750000*%
%ADD22R,1.800000X4.850000*%
%ADD23RoundRect,0.250000X0.625000X-0.312500X0.625000X0.312500X-0.625000X0.312500X-0.625000X-0.312500X0*%
%ADD24RoundRect,0.250000X-1.000000X-0.650000X1.000000X-0.650000X1.000000X0.650000X-1.000000X0.650000X0*%
%ADD25RoundRect,0.250000X-0.250000X-0.475000X0.250000X-0.475000X0.250000X0.475000X-0.250000X0.475000X0*%
%ADD26RoundRect,0.237500X0.237500X-0.250000X0.237500X0.250000X-0.237500X0.250000X-0.237500X-0.250000X0*%
%ADD27RoundRect,0.250000X1.075000X-0.312500X1.075000X0.312500X-1.075000X0.312500X-1.075000X-0.312500X0*%
%ADD28R,3.700000X1.200000*%
%ADD29R,1.473200X0.355600*%
%ADD30RoundRect,0.250000X-0.262500X-0.450000X0.262500X-0.450000X0.262500X0.450000X-0.262500X0.450000X0*%
%ADD31RotRect,0.304800X0.762000X225.000000*%
%ADD32RotRect,0.304800X0.762000X135.000000*%
%ADD33RotRect,3.352800X3.352800X135.000000*%
%ADD34RoundRect,0.140000X0.219203X0.021213X0.021213X0.219203X-0.219203X-0.021213X-0.021213X-0.219203X0*%
%ADD35RoundRect,0.150000X-0.150000X0.587500X-0.150000X-0.587500X0.150000X-0.587500X0.150000X0.587500X0*%
%ADD36RoundRect,0.140000X0.170000X-0.140000X0.170000X0.140000X-0.170000X0.140000X-0.170000X-0.140000X0*%
%ADD37RoundRect,0.147500X-0.147500X-0.172500X0.147500X-0.172500X0.147500X0.172500X-0.147500X0.172500X0*%
%ADD38RoundRect,0.250000X-0.325000X-0.650000X0.325000X-0.650000X0.325000X0.650000X-0.325000X0.650000X0*%
%ADD39RoundRect,0.250000X-0.475000X0.250000X-0.475000X-0.250000X0.475000X-0.250000X0.475000X0.250000X0*%
%ADD40RoundRect,0.160000X0.197500X0.160000X-0.197500X0.160000X-0.197500X-0.160000X0.197500X-0.160000X0*%
%ADD41RoundRect,0.250000X-1.425000X0.362500X-1.425000X-0.362500X1.425000X-0.362500X1.425000X0.362500X0*%
%ADD42RoundRect,0.225000X0.250000X-0.225000X0.250000X0.225000X-0.250000X0.225000X-0.250000X-0.225000X0*%
%ADD43RoundRect,0.150000X0.700000X-0.150000X0.700000X0.150000X-0.700000X0.150000X-0.700000X-0.150000X0*%
%ADD44RoundRect,0.250000X1.100000X-0.250000X1.100000X0.250000X-1.100000X0.250000X-1.100000X-0.250000X0*%
%ADD45R,2.489200X0.939800*%
%ADD46R,5.918200X5.511800*%
%ADD47RoundRect,0.140000X0.140000X0.170000X-0.140000X0.170000X-0.140000X-0.170000X0.140000X-0.170000X0*%
%ADD48RoundRect,0.250000X1.425000X-0.362500X1.425000X0.362500X-1.425000X0.362500X-1.425000X-0.362500X0*%
%ADD49RoundRect,0.150000X0.575000X-0.150000X0.575000X0.150000X-0.575000X0.150000X-0.575000X-0.150000X0*%
%ADD50RoundRect,0.075000X0.650000X-0.075000X0.650000X0.075000X-0.650000X0.075000X-0.650000X-0.075000X0*%
%ADD51RoundRect,0.250000X-0.325000X-1.100000X0.325000X-1.100000X0.325000X1.100000X-0.325000X1.100000X0*%
%ADD52R,1.981200X0.558800*%
%ADD53RoundRect,0.200000X0.200000X0.275000X-0.200000X0.275000X-0.200000X-0.275000X0.200000X-0.275000X0*%
%ADD54R,4.200000X1.400000*%
%ADD55R,6.299200X5.562600*%
%ADD56R,2.700000X3.600000*%
%ADD57RoundRect,0.135000X0.185000X-0.135000X0.185000X0.135000X-0.185000X0.135000X-0.185000X-0.135000X0*%
%ADD58RoundRect,0.200000X0.275000X-0.200000X0.275000X0.200000X-0.275000X0.200000X-0.275000X-0.200000X0*%
%ADD59RoundRect,0.250000X-0.625000X0.312500X-0.625000X-0.312500X0.625000X-0.312500X0.625000X0.312500X0*%
%ADD60RoundRect,0.147500X0.147500X0.172500X-0.147500X0.172500X-0.147500X-0.172500X0.147500X-0.172500X0*%
%ADD61RoundRect,0.250000X0.325000X1.100000X-0.325000X1.100000X-0.325000X-1.100000X0.325000X-1.100000X0*%
%ADD62RoundRect,0.237500X-0.237500X0.250000X-0.237500X-0.250000X0.237500X-0.250000X0.237500X0.250000X0*%
%ADD63RoundRect,0.250000X0.650000X2.450000X-0.650000X2.450000X-0.650000X-2.450000X0.650000X-2.450000X0*%
%ADD64RoundRect,0.140000X-0.140000X-0.170000X0.140000X-0.170000X0.140000X0.170000X-0.140000X0.170000X0*%
%ADD65RoundRect,0.250000X0.475000X-0.250000X0.475000X0.250000X-0.475000X0.250000X-0.475000X-0.250000X0*%
%ADD66R,0.431800X1.333500*%
%ADD67RoundRect,0.250000X-0.362500X-1.425000X0.362500X-1.425000X0.362500X1.425000X-0.362500X1.425000X0*%
%ADD68RoundRect,0.250000X-0.431335X0.000000X0.000000X-0.431335X0.431335X0.000000X0.000000X0.431335X0*%
%ADD69RoundRect,0.062500X-0.282843X0.194454X0.194454X-0.282843X0.282843X-0.194454X-0.194454X0.282843X0*%
%ADD70RoundRect,0.062500X-0.282843X-0.194454X-0.194454X-0.282843X0.282843X0.194454X0.194454X0.282843X0*%
%ADD71RoundRect,0.250000X-1.100000X0.325000X-1.100000X-0.325000X1.100000X-0.325000X1.100000X0.325000X0*%
%ADD72RoundRect,0.225000X0.375000X-0.225000X0.375000X0.225000X-0.375000X0.225000X-0.375000X-0.225000X0*%
%ADD73RoundRect,0.200000X-0.200000X-0.275000X0.200000X-0.275000X0.200000X0.275000X-0.200000X0.275000X0*%
%ADD74RoundRect,0.150000X-0.150000X0.512500X-0.150000X-0.512500X0.150000X-0.512500X0.150000X0.512500X0*%
%ADD75RoundRect,0.225000X-0.375000X0.225000X-0.375000X-0.225000X0.375000X-0.225000X0.375000X0.225000X0*%
%ADD76RoundRect,0.150000X-0.587500X-0.150000X0.587500X-0.150000X0.587500X0.150000X-0.587500X0.150000X0*%
G04 APERTURE END LIST*
D10*
%TO.C,U5*%
G36*
X88750964Y-85892385D02*
G01*
X87706991Y-86936357D01*
X86663019Y-85892385D01*
X87706991Y-84848413D01*
X88750964Y-85892385D01*
G37*
G36*
X89936357Y-84706991D02*
G01*
X88892385Y-85750964D01*
X87848413Y-84706991D01*
X88892385Y-83663019D01*
X89936357Y-84706991D01*
G37*
G36*
X89936357Y-87077779D02*
G01*
X88892385Y-88121751D01*
X87848413Y-87077779D01*
X88892385Y-86033806D01*
X89936357Y-87077779D01*
G37*
G36*
X91121751Y-85892385D02*
G01*
X90077779Y-86936357D01*
X89033806Y-85892385D01*
X90077779Y-84848413D01*
X91121751Y-85892385D01*
G37*
%TO.C,U3*%
G36*
X43150000Y-52776300D02*
G01*
X41876800Y-52776300D01*
X41876800Y-51223700D01*
X43150000Y-51223700D01*
X43150000Y-52776300D01*
G37*
G36*
X44623200Y-52776300D02*
G01*
X43350000Y-52776300D01*
X43350000Y-51223700D01*
X44623200Y-51223700D01*
X44623200Y-52776300D01*
G37*
%TD*%
D11*
%TO.C,C1*%
X38587500Y-97887500D03*
X35637500Y-97887500D03*
%TD*%
D12*
%TO.C,L5*%
X47412500Y-104137500D03*
X44612500Y-104137500D03*
%TD*%
D13*
%TO.C,R22*%
X95373649Y-103270000D03*
X92448649Y-103270000D03*
%TD*%
D14*
%TO.C,R18*%
X104494400Y-112219999D03*
X107419400Y-112219999D03*
%TD*%
D15*
%TO.C,R72*%
X100012652Y-26223941D03*
X100012652Y-27873941D03*
%TD*%
D16*
%TO.C,U1*%
X75149400Y-49264000D03*
X75149400Y-48464000D03*
D17*
X76036900Y-49514000D03*
X76036900Y-48864000D03*
X76036900Y-48214000D03*
X74261900Y-48214000D03*
X74261900Y-48864000D03*
X74261900Y-49514000D03*
%TD*%
D18*
%TO.C,C18*%
X96956900Y-110444999D03*
X96956900Y-111994999D03*
%TD*%
D19*
%TO.C,R45*%
X78894814Y-91116068D03*
X77069814Y-91116068D03*
%TD*%
D20*
%TO.C,U2*%
X41193750Y-94862500D03*
X41193750Y-95362500D03*
X41193750Y-95862500D03*
X41193750Y-96362500D03*
X41193750Y-96862500D03*
X41193750Y-97362500D03*
X41193750Y-97862500D03*
X41193750Y-98362500D03*
X41193750Y-98862500D03*
X41193750Y-99362500D03*
D21*
X41943750Y-100112500D03*
X42443750Y-100112500D03*
X42943750Y-100112500D03*
X43443750Y-100112500D03*
D20*
X44193750Y-99362500D03*
X44193750Y-98862500D03*
X44193750Y-98362500D03*
X44193750Y-97862500D03*
X44193750Y-97362500D03*
X44193750Y-96862500D03*
X44193750Y-96362500D03*
X44193750Y-95862500D03*
X44193750Y-95362500D03*
X44193750Y-94862500D03*
D21*
X43443750Y-94112500D03*
X42943750Y-94112500D03*
X42443750Y-94112500D03*
X41943750Y-94112500D03*
D22*
X42693750Y-97112500D03*
%TD*%
D23*
%TO.C,R27*%
X96206900Y-94144999D03*
X96206900Y-91219999D03*
%TD*%
D24*
%TO.C,D21*%
X82000000Y-49000000D03*
X86000000Y-49000000D03*
%TD*%
D25*
%TO.C,C4*%
X74361900Y-46264000D03*
X76261900Y-46264000D03*
%TD*%
D15*
%TO.C,R73*%
X97512652Y-33723941D03*
X97512652Y-35373941D03*
%TD*%
D26*
%TO.C,R70*%
X103512652Y-27461441D03*
X103512652Y-25636441D03*
%TD*%
D27*
%TO.C,R15*%
X56500000Y-25962500D03*
X56500000Y-23037500D03*
%TD*%
D28*
%TO.C,L2*%
X49293750Y-97662500D03*
X49293750Y-94862500D03*
%TD*%
D29*
%TO.C,U4*%
X103582149Y-102470001D03*
X103582149Y-101820000D03*
X103582149Y-101169999D03*
X103582149Y-100520000D03*
X103582149Y-99870001D03*
X103582149Y-99220000D03*
X103582149Y-98570001D03*
X97740149Y-98569999D03*
X97740149Y-99220000D03*
X97740149Y-99869999D03*
X97740149Y-100520000D03*
X97740149Y-101169999D03*
X97740149Y-101820000D03*
X97740149Y-102469999D03*
%TD*%
D30*
%TO.C,R44*%
X71319814Y-90866068D03*
X73144814Y-90866068D03*
%TD*%
D31*
%TO.C,U5*%
X89688375Y-88526853D03*
X90147995Y-88067233D03*
X90607614Y-87607614D03*
X91067233Y-87147995D03*
X91526853Y-86688375D03*
D32*
X91526853Y-85096395D03*
X91067233Y-84636775D03*
X90607614Y-84177156D03*
X90147995Y-83717537D03*
X89688375Y-83257917D03*
D31*
X88096395Y-83257917D03*
X87636775Y-83717537D03*
X87177156Y-84177156D03*
X86717537Y-84636775D03*
X86257917Y-85096395D03*
D32*
X86257917Y-86688375D03*
X86717537Y-87147995D03*
X87177156Y-87607614D03*
X87636775Y-88067233D03*
X88096395Y-88526853D03*
D33*
X88892385Y-85892385D03*
%TD*%
D34*
%TO.C,C20*%
X92306096Y-83981796D03*
X91627274Y-83302974D03*
%TD*%
D35*
%TO.C,Q27*%
X103962652Y-36111441D03*
X102062652Y-36111441D03*
X103012652Y-37986441D03*
%TD*%
D30*
%TO.C,R42*%
X72319814Y-82366068D03*
X74144814Y-82366068D03*
%TD*%
D36*
%TO.C,C8*%
X45743750Y-97842500D03*
X45743750Y-96882500D03*
%TD*%
D37*
%TO.C,D6*%
X53265000Y-21500000D03*
X54235000Y-21500000D03*
%TD*%
D13*
%TO.C,R23*%
X95373649Y-100520000D03*
X92448649Y-100520000D03*
%TD*%
D23*
%TO.C,R9*%
X44693750Y-92050000D03*
X44693750Y-89125000D03*
%TD*%
D24*
%TO.C,D18*%
X82000000Y-36500000D03*
X86000000Y-36500000D03*
%TD*%
D38*
%TO.C,C41*%
X49637500Y-104287500D03*
X52587500Y-104287500D03*
%TD*%
D39*
%TO.C,C55*%
X109512652Y-35598941D03*
X109512652Y-37498941D03*
%TD*%
D40*
%TO.C,R3*%
X39347500Y-51500000D03*
X38152500Y-51500000D03*
%TD*%
D41*
%TO.C,R14*%
X53750000Y-38287500D03*
X53750000Y-44212500D03*
%TD*%
D42*
%TO.C,C61*%
X108012652Y-27323941D03*
X108012652Y-25773941D03*
%TD*%
D43*
%TO.C,J20*%
X116150000Y-51125000D03*
X116150000Y-49875000D03*
D44*
X119350000Y-52975000D03*
X119350000Y-48025000D03*
%TD*%
D45*
%TO.C,Q3*%
X115210700Y-109750000D03*
X115210700Y-105189998D03*
D46*
X106917600Y-107469999D03*
%TD*%
D47*
%TO.C,C22*%
X100936900Y-96719999D03*
X99976900Y-96719999D03*
%TD*%
D48*
%TO.C,R6*%
X48943750Y-93078568D03*
X48943750Y-87153568D03*
%TD*%
D39*
%TO.C,C58*%
X95012652Y-33098941D03*
X95012652Y-34998941D03*
%TD*%
D49*
%TO.C,J27*%
X112955000Y-37250000D03*
X112955000Y-36450000D03*
D50*
X112955000Y-35250000D03*
X112955000Y-34250000D03*
X112955000Y-33750000D03*
X112955000Y-32750000D03*
D49*
X112955000Y-31550000D03*
X112955000Y-30750000D03*
X112955000Y-30750000D03*
X112955000Y-31550000D03*
D50*
X112955000Y-32250000D03*
X112955000Y-33250000D03*
X112955000Y-34750000D03*
X112955000Y-35750000D03*
D49*
X112955000Y-36450000D03*
X112955000Y-37250000D03*
%TD*%
D36*
%TO.C,C17*%
X105456900Y-99199999D03*
X105456900Y-98239999D03*
%TD*%
D24*
%TO.C,D19*%
X82000000Y-45000000D03*
X86000000Y-45000000D03*
%TD*%
D51*
%TO.C,C5*%
X73936900Y-42664000D03*
X76886900Y-42664000D03*
%TD*%
D52*
%TO.C,U7*%
X72768514Y-84711068D03*
X72768514Y-85981068D03*
X72768514Y-87251068D03*
X72768514Y-88521068D03*
X77696114Y-88521068D03*
X77696114Y-87251068D03*
X77696114Y-85981068D03*
X77696114Y-84711068D03*
%TD*%
D53*
%TO.C,R49*%
X54325000Y-53000000D03*
X52675000Y-53000000D03*
%TD*%
D54*
%TO.C,L1*%
X69361900Y-45964000D03*
X69361900Y-42264000D03*
%TD*%
D14*
%TO.C,R10*%
X60519814Y-100866068D03*
X63444814Y-100866068D03*
%TD*%
D39*
%TO.C,C19*%
X103456900Y-94819999D03*
X103456900Y-96719999D03*
%TD*%
D38*
%TO.C,C6*%
X69525000Y-31500000D03*
X72475000Y-31500000D03*
%TD*%
D45*
%TO.C,D5*%
X28470800Y-44714000D03*
X28470800Y-49286000D03*
D55*
X36624200Y-47000000D03*
%TD*%
D27*
%TO.C,R8*%
X42124400Y-59828650D03*
X42124400Y-56903650D03*
%TD*%
D45*
%TO.C,D4*%
X50779200Y-30536000D03*
X50779200Y-25964000D03*
D55*
X42625800Y-28250000D03*
%TD*%
D13*
%TO.C,R25*%
X87623649Y-100270000D03*
X84698649Y-100270000D03*
%TD*%
D27*
%TO.C,R5*%
X38624400Y-59878650D03*
X38624400Y-56953650D03*
%TD*%
D56*
%TO.C,L3*%
X41850000Y-39500000D03*
X50150000Y-39500000D03*
%TD*%
D57*
%TO.C,R21*%
X106706900Y-99229999D03*
X106706900Y-98209999D03*
%TD*%
D58*
%TO.C,R71*%
X103512652Y-24048941D03*
X103512652Y-22398941D03*
%TD*%
D59*
%TO.C,R13*%
X47500000Y-50787500D03*
X47500000Y-53712500D03*
%TD*%
D11*
%TO.C,C42*%
X38787500Y-101837500D03*
X35837500Y-101837500D03*
%TD*%
D39*
%TO.C,C56*%
X107512652Y-35598941D03*
X107512652Y-37498941D03*
%TD*%
D60*
%TO.C,D8*%
X109206900Y-95469999D03*
X108236900Y-95469999D03*
%TD*%
D15*
%TO.C,R12*%
X53500000Y-49675000D03*
X53500000Y-51325000D03*
%TD*%
D61*
%TO.C,C13*%
X53475000Y-47250000D03*
X50525000Y-47250000D03*
%TD*%
D15*
%TO.C,C31*%
X82232314Y-84216068D03*
X82232314Y-85866068D03*
%TD*%
D27*
%TO.C,R20*%
X93956900Y-112432499D03*
X93956900Y-109507499D03*
%TD*%
D62*
%TO.C,R69*%
X105512652Y-35636441D03*
X105512652Y-37461441D03*
%TD*%
D63*
%TO.C,C9*%
X64300000Y-89750000D03*
X59200000Y-89750000D03*
%TD*%
D24*
%TO.C,D7*%
X82456900Y-107719999D03*
X86456900Y-107719999D03*
%TD*%
D64*
%TO.C,C23*%
X94726900Y-96719999D03*
X95686900Y-96719999D03*
%TD*%
D58*
%TO.C,R50*%
X51000000Y-52325000D03*
X51000000Y-50675000D03*
%TD*%
D63*
%TO.C,C11*%
X64300000Y-95750000D03*
X59200000Y-95750000D03*
%TD*%
D65*
%TO.C,C59*%
X111512652Y-27498941D03*
X111512652Y-25598941D03*
%TD*%
D48*
%TO.C,R2*%
X69611900Y-39464000D03*
X69611900Y-33539000D03*
%TD*%
D66*
%TO.C,U3*%
X41624400Y-54216150D03*
X42274640Y-54216150D03*
X42924880Y-54216150D03*
X43575120Y-54216150D03*
X44225360Y-54216150D03*
X44875600Y-54216150D03*
X44875600Y-49783850D03*
X44225360Y-49783850D03*
X43575120Y-49783850D03*
X42924880Y-49783850D03*
X42274640Y-49783850D03*
X41624400Y-49783850D03*
%TD*%
D14*
%TO.C,R57*%
X76994400Y-107969999D03*
X79919400Y-107969999D03*
%TD*%
D43*
%TO.C,J21*%
X115900000Y-93875000D03*
X115900000Y-92625000D03*
D44*
X119100000Y-95725000D03*
X119100000Y-90775000D03*
%TD*%
D67*
%TO.C,R28*%
X104494400Y-91219999D03*
X110419400Y-91219999D03*
%TD*%
D25*
%TO.C,C2*%
X37131250Y-94237500D03*
X39031250Y-94237500D03*
%TD*%
D23*
%TO.C,R16*%
X102206900Y-115932499D03*
X102206900Y-113007499D03*
%TD*%
D68*
%TO.C,U11*%
X105000000Y-30500000D03*
X104024193Y-31475807D03*
X105975807Y-31475807D03*
X105000000Y-32451614D03*
D69*
X104487348Y-29195388D03*
X104133794Y-29548941D03*
X103780241Y-29902494D03*
X103426687Y-30256048D03*
X103073134Y-30609601D03*
X102719581Y-30963155D03*
D70*
X102719581Y-31988459D03*
X103073134Y-32342013D03*
X103426687Y-32695566D03*
X103780241Y-33049120D03*
X104133794Y-33402673D03*
X104487348Y-33756226D03*
D69*
X105512652Y-33756226D03*
X105866206Y-33402673D03*
X106219759Y-33049120D03*
X106573313Y-32695566D03*
X106926866Y-32342013D03*
X107280419Y-31988459D03*
D70*
X107280419Y-30963155D03*
X106926866Y-30609601D03*
X106573313Y-30256048D03*
X106219759Y-29902494D03*
X105866206Y-29548941D03*
X105512652Y-29195388D03*
%TD*%
D25*
%TO.C,C3*%
X37181250Y-92237500D03*
X39081250Y-92237500D03*
%TD*%
D23*
%TO.C,R58*%
X41562500Y-105500000D03*
X41562500Y-102575000D03*
%TD*%
D71*
%TO.C,C7*%
X34000000Y-56525000D03*
X34000000Y-59475000D03*
%TD*%
D72*
%TO.C,D15*%
X90161149Y-100520000D03*
X90161149Y-97220000D03*
%TD*%
D23*
%TO.C,R26*%
X99750000Y-94212500D03*
X99750000Y-91287500D03*
%TD*%
D73*
%TO.C,R11*%
X46175000Y-49000000D03*
X47825000Y-49000000D03*
%TD*%
D39*
%TO.C,C57*%
X106012652Y-25598941D03*
X106012652Y-27498941D03*
%TD*%
D15*
%TO.C,C32*%
X79982314Y-84216068D03*
X79982314Y-85866068D03*
%TD*%
D42*
%TO.C,C60*%
X109512652Y-27323941D03*
X109512652Y-25773941D03*
%TD*%
D13*
%TO.C,R4*%
X39962500Y-54500000D03*
X37037500Y-54500000D03*
%TD*%
D73*
%TO.C,R75*%
X98675000Y-31500000D03*
X100325000Y-31500000D03*
%TD*%
D74*
%TO.C,Q1*%
X101156900Y-109832499D03*
X99256900Y-109832499D03*
X100206900Y-112107499D03*
%TD*%
D75*
%TO.C,D9*%
X90161149Y-103370000D03*
X90161149Y-106670000D03*
%TD*%
D24*
%TO.C,D20*%
X82000000Y-41000000D03*
X86000000Y-41000000D03*
%TD*%
D45*
%TO.C,Q2*%
X74206900Y-114780001D03*
X74206900Y-110219999D03*
D46*
X65913800Y-112500000D03*
%TD*%
D60*
%TO.C,D2*%
X66534814Y-100866068D03*
X65564814Y-100866068D03*
%TD*%
D13*
%TO.C,R19*%
X97169400Y-114969999D03*
X94244400Y-114969999D03*
%TD*%
D27*
%TO.C,R7*%
X45724400Y-59828650D03*
X45724400Y-56903650D03*
%TD*%
D47*
%TO.C,C21*%
X98186900Y-96719999D03*
X97226900Y-96719999D03*
%TD*%
D73*
%TO.C,R74*%
X98687652Y-29548941D03*
X100337652Y-29548941D03*
%TD*%
D42*
%TO.C,C10*%
X52443750Y-92787500D03*
X52443750Y-91237500D03*
%TD*%
D19*
%TO.C,R43*%
X78057314Y-82366068D03*
X76232314Y-82366068D03*
%TD*%
D45*
%TO.C,Q4*%
X109706900Y-98219999D03*
X109706900Y-102780001D03*
D46*
X118000000Y-100500000D03*
%TD*%
D14*
%TO.C,R17*%
X76994400Y-112469999D03*
X79919400Y-112469999D03*
%TD*%
D58*
%TO.C,R1*%
X40693750Y-90612500D03*
X40693750Y-88962500D03*
%TD*%
D76*
%TO.C,Q28*%
X99575152Y-33098941D03*
X99575152Y-34998941D03*
X101450152Y-34048941D03*
%TD*%
D25*
%TO.C,C12*%
X41300000Y-47250000D03*
X43200000Y-47250000D03*
%TD*%
D13*
%TO.C,R24*%
X87623649Y-103270000D03*
X84698649Y-103270000D03*
%TD*%
M02*
