%TF.GenerationSoftware,KiCad,Pcbnew,10.0.3*%
%TF.CreationDate,2026-10-06T17:16:21-07:00*%
%TF.ProjectId,CADENCE Inhibit System Test Board,43414445-4e43-4452-9049-6e6869626974,rev?*%
%TF.SameCoordinates,Original*%
%TF.FileFunction,Paste,Top*%
%TF.FilePolarity,Positive*%
%FSLAX46Y46*%
G04 Gerber Fmt 4.6, Leading zero omitted, Abs format (unit mm)*
G04 Created by KiCad (PCBNEW 10.0.3) date 2026-10-06 17:16:21*
%MOMM*%
%LPD*%
G01*
G04 APERTURE LIST*
G04 Aperture macros list*
%AMRoundRect*
0 Rectangle with rounded corners*
0 $1 Rounding radius*
0 $2 $3 $4 $5 $6 $7 $8 $9 X,Y pos of 4 corners*
0 Add a 4 corners polygon primitive as box body*
4,1,4,$2,$3,$4,$5,$6,$7,$8,$9,$2,$3,0*
0 Add four circle primitives for the rounded corners*
1,1,$1+$1,$2,$3*
1,1,$1+$1,$4,$5*
1,1,$1+$1,$6,$7*
1,1,$1+$1,$8,$9*
0 Add four rect primitives between the rounded corners*
20,1,$1+$1,$2,$3,$4,$5,0*
20,1,$1+$1,$4,$5,$6,$7,0*
20,1,$1+$1,$6,$7,$8,$9,0*
20,1,$1+$1,$8,$9,$2,$3,0*%
G04 Aperture macros list end*
%ADD10RoundRect,0.250000X-0.625000X0.312500X-0.625000X-0.312500X0.625000X-0.312500X0.625000X0.312500X0*%
%ADD11RoundRect,0.225000X0.250000X-0.225000X0.250000X0.225000X-0.250000X0.225000X-0.250000X-0.225000X0*%
%ADD12R,0.279400X1.397000*%
%ADD13R,1.879600X1.676400*%
%ADD14RoundRect,0.200000X0.275000X-0.200000X0.275000X0.200000X-0.275000X0.200000X-0.275000X-0.200000X0*%
%ADD15RoundRect,0.250000X0.475000X-0.250000X0.475000X0.250000X-0.475000X0.250000X-0.475000X-0.250000X0*%
%ADD16R,1.460500X0.533400*%
%ADD17R,0.533400X1.460500*%
%ADD18RoundRect,0.250000X0.625000X-0.312500X0.625000X0.312500X-0.625000X0.312500X-0.625000X-0.312500X0*%
%ADD19RoundRect,0.225000X0.225000X0.250000X-0.225000X0.250000X-0.225000X-0.250000X0.225000X-0.250000X0*%
%ADD20RoundRect,0.250000X-1.125000X1.275000X-1.125000X-1.275000X1.125000X-1.275000X1.125000X1.275000X0*%
%ADD21RoundRect,0.250000X-0.350000X0.850000X-0.350000X-0.850000X0.350000X-0.850000X0.350000X0.850000X0*%
%ADD22R,1.422400X0.558800*%
%ADD23RoundRect,0.250000X0.312500X0.625000X-0.312500X0.625000X-0.312500X-0.625000X0.312500X-0.625000X0*%
%ADD24RoundRect,0.225000X-0.250000X0.225000X-0.250000X-0.225000X0.250000X-0.225000X0.250000X0.225000X0*%
%ADD25RoundRect,0.112500X0.187500X0.112500X-0.187500X0.112500X-0.187500X-0.112500X0.187500X-0.112500X0*%
%ADD26R,0.558800X1.422400*%
%ADD27R,1.397000X0.279400*%
%ADD28R,1.676400X1.879600*%
%ADD29RoundRect,0.200000X0.200000X0.275000X-0.200000X0.275000X-0.200000X-0.275000X0.200000X-0.275000X0*%
%ADD30RoundRect,0.225000X-0.225000X-0.250000X0.225000X-0.250000X0.225000X0.250000X-0.225000X0.250000X0*%
%ADD31RoundRect,0.250000X-0.475000X0.250000X-0.475000X-0.250000X0.475000X-0.250000X0.475000X0.250000X0*%
%ADD32RoundRect,0.250000X1.125000X-1.275000X1.125000X1.275000X-1.125000X1.275000X-1.125000X-1.275000X0*%
%ADD33RoundRect,0.250000X0.350000X-0.850000X0.350000X0.850000X-0.350000X0.850000X-0.350000X-0.850000X0*%
%ADD34RoundRect,0.112500X-0.112500X0.187500X-0.112500X-0.187500X0.112500X-0.187500X0.112500X0.187500X0*%
%ADD35RoundRect,0.250000X0.250000X0.475000X-0.250000X0.475000X-0.250000X-0.475000X0.250000X-0.475000X0*%
G04 APERTURE END LIST*
D10*
%TO.C,R9*%
X185500000Y-59037500D03*
X185500000Y-61962500D03*
%TD*%
D11*
%TO.C,C9*%
X183500000Y-61775000D03*
X183500000Y-60225000D03*
%TD*%
D12*
%TO.C,IC2*%
X187000000Y-65500000D03*
X186499998Y-65500000D03*
X185999999Y-65500000D03*
X185500000Y-65500000D03*
X184999998Y-65500000D03*
X184999998Y-69868800D03*
X185500000Y-69868800D03*
X185999999Y-69868800D03*
X186499998Y-69868800D03*
X187000000Y-69868800D03*
D13*
X185999999Y-67684400D03*
%TD*%
D14*
%TO.C,R2*%
X151500000Y-79650000D03*
X151500000Y-78000000D03*
%TD*%
D12*
%TO.C,IC1*%
X172601316Y-83728521D03*
X173101318Y-83728521D03*
X173601317Y-83728521D03*
X174101316Y-83728521D03*
X174601318Y-83728521D03*
X174601318Y-79359721D03*
X174101316Y-79359721D03*
X173601317Y-79359721D03*
X173101318Y-79359721D03*
X172601316Y-79359721D03*
D13*
X173601317Y-81544121D03*
%TD*%
D15*
%TO.C,C4*%
X155000000Y-71400000D03*
X155000000Y-69500000D03*
%TD*%
D16*
%TO.C,U1*%
X139275850Y-68095000D03*
X139275850Y-69365000D03*
X139275850Y-70635000D03*
X139275850Y-71905000D03*
X144724150Y-71905000D03*
X144724150Y-70635000D03*
X144724150Y-69365000D03*
X144724150Y-68095000D03*
%TD*%
D17*
%TO.C,U2*%
X148460000Y-75448300D03*
X149730000Y-75448300D03*
X151000000Y-75448300D03*
X152270000Y-75448300D03*
X152270000Y-70000000D03*
X151000000Y-70000000D03*
X149730000Y-70000000D03*
X148460000Y-70000000D03*
%TD*%
D18*
%TO.C,R6*%
X161000000Y-88962500D03*
X161000000Y-86037500D03*
%TD*%
D11*
%TO.C,C2*%
X143000000Y-60275000D03*
X143000000Y-58725000D03*
%TD*%
D19*
%TO.C,C8*%
X158869999Y-50390600D03*
X157319999Y-50390600D03*
%TD*%
D20*
%TO.C,Q5*%
X181525000Y-53325000D03*
X178475000Y-53325000D03*
X181525000Y-56675000D03*
X178475000Y-56675000D03*
D21*
X182280000Y-48700000D03*
X177720000Y-48700000D03*
%TD*%
D22*
%TO.C,D3*%
X137000000Y-62405000D03*
X135069600Y-61452500D03*
X137000000Y-60500000D03*
%TD*%
D10*
%TO.C,R7*%
X181525000Y-67675000D03*
X181525000Y-70600000D03*
%TD*%
D20*
%TO.C,Q1*%
X153805000Y-63125000D03*
X150755000Y-63125000D03*
X153805000Y-66475000D03*
X150755000Y-66475000D03*
D21*
X154560000Y-58500000D03*
X150000000Y-58500000D03*
%TD*%
D23*
%TO.C,R4*%
X172500000Y-62500000D03*
X169575000Y-62500000D03*
%TD*%
D20*
%TO.C,Q6*%
X181305000Y-82625000D03*
X178255000Y-82625000D03*
X181305000Y-85975000D03*
X178255000Y-85975000D03*
D21*
X182060000Y-78000000D03*
X177500000Y-78000000D03*
%TD*%
D24*
%TO.C,C10*%
X158500000Y-65225000D03*
X158500000Y-66775000D03*
%TD*%
D25*
%TO.C,D5*%
X145550000Y-65000000D03*
X143450000Y-65000000D03*
%TD*%
D14*
%TO.C,R5*%
X151400000Y-83325000D03*
X151400000Y-81675000D03*
%TD*%
D23*
%TO.C,R3*%
X166962500Y-63500000D03*
X164037500Y-63500000D03*
%TD*%
D12*
%TO.C,IC5*%
X158999999Y-73184400D03*
X159500001Y-73184400D03*
X160000000Y-73184400D03*
X160499999Y-73184400D03*
X161000001Y-73184400D03*
X161000001Y-68815600D03*
X160499999Y-68815600D03*
X160000000Y-68815600D03*
X159500001Y-68815600D03*
X158999999Y-68815600D03*
D13*
X160000000Y-71000000D03*
%TD*%
D26*
%TO.C,D4*%
X132905000Y-73000000D03*
X131952500Y-74930400D03*
X131000000Y-73000000D03*
%TD*%
D18*
%TO.C,R10*%
X184500000Y-75462500D03*
X184500000Y-72537500D03*
%TD*%
%TO.C,R11*%
X160500000Y-66962500D03*
X160500000Y-64037500D03*
%TD*%
D26*
%TO.C,D2*%
X129000000Y-73000000D03*
X128047500Y-74930400D03*
X127095000Y-73000000D03*
%TD*%
D10*
%TO.C,R8*%
X161094999Y-47428100D03*
X161094999Y-50353100D03*
%TD*%
D19*
%TO.C,C6*%
X173550000Y-77359721D03*
X172000000Y-77359721D03*
%TD*%
D12*
%TO.C,IC3*%
X158595000Y-57443800D03*
X159095002Y-57443800D03*
X159595001Y-57443800D03*
X160095000Y-57443800D03*
X160595002Y-57443800D03*
X160595002Y-53075000D03*
X160095000Y-53075000D03*
X159595001Y-53075000D03*
X159095002Y-53075000D03*
X158595000Y-53075000D03*
D13*
X159595001Y-55259400D03*
%TD*%
D27*
%TO.C,IC4*%
X177315600Y-60499999D03*
X177315600Y-61000001D03*
X177315600Y-61500000D03*
X177315600Y-61999999D03*
X177315600Y-62500001D03*
X181684400Y-62500001D03*
X181684400Y-61999999D03*
X181684400Y-61500000D03*
X181684400Y-61000001D03*
X181684400Y-60499999D03*
D28*
X179500000Y-61500000D03*
%TD*%
D20*
%TO.C,Q3*%
X178050000Y-71000000D03*
X175000000Y-71000000D03*
X178050000Y-74350000D03*
X175000000Y-74350000D03*
D21*
X178805000Y-66375000D03*
X174245000Y-66375000D03*
%TD*%
D29*
%TO.C,R1*%
X144825000Y-74500000D03*
X143175000Y-74500000D03*
%TD*%
D30*
%TO.C,C7*%
X186725000Y-72500000D03*
X188275000Y-72500000D03*
%TD*%
D31*
%TO.C,C5*%
X158000000Y-86050000D03*
X158000000Y-87950000D03*
%TD*%
D22*
%TO.C,D1*%
X137400000Y-57905000D03*
X135469600Y-56952500D03*
X137400000Y-56000000D03*
%TD*%
D32*
%TO.C,Q7*%
X165475000Y-82675000D03*
X168525000Y-82675000D03*
X165475000Y-79325000D03*
X168525000Y-79325000D03*
D33*
X164720000Y-87300000D03*
X169280000Y-87300000D03*
%TD*%
D34*
%TO.C,D6*%
X155000000Y-73450000D03*
X155000000Y-75550000D03*
%TD*%
D35*
%TO.C,C3*%
X140950000Y-63000000D03*
X139050000Y-63000000D03*
%TD*%
D11*
%TO.C,C1*%
X145000000Y-60275000D03*
X145000000Y-58725000D03*
%TD*%
D20*
%TO.C,Q2*%
X168805000Y-71625000D03*
X165755000Y-71625000D03*
X168805000Y-74975000D03*
X165755000Y-74975000D03*
D21*
X169560000Y-67000000D03*
X165000000Y-67000000D03*
%TD*%
D20*
%TO.C,Q4*%
X170525000Y-53325000D03*
X167475000Y-53325000D03*
X170525000Y-56675000D03*
X167475000Y-56675000D03*
D21*
X171280000Y-48700000D03*
X166720000Y-48700000D03*
%TD*%
M02*
