M48
; DRILL file KiCad 10.0.3 date 2026-10-06T17:16:21
; FORMAT={-:-/ absolute / inch / decimal}
; #@! TF.CreationDate,2026-10-06T17:16:21-07:00
; #@! TF.GenerationSoftware,Kicad,Pcbnew,10.0.3
; #@! TF.FileFunction,Plated,1,2,PTH
FMAT,2
INCH
; #@! TA.AperFunction,Plated,PTH,ViaDrill
T1C0.0118
; #@! TA.AperFunction,Plated,PTH,ComponentDrill
T2C0.0197
; #@! TA.AperFunction,Plated,PTH,ComponentDrill
T3C0.0335
; #@! TA.AperFunction,Plated,PTH,ComponentDrill
T4C0.0374
; #@! TA.AperFunction,Plated,PTH,ComponentDrill
T5C0.0394
; #@! TA.AperFunction,Plated,PTH,ComponentDrill
T6C0.1260
%
G90
G05
T1
X5.1811Y-3.2913
X5.1969Y-2.2047
X5.2362Y-2.3819
X5.2559Y-2.126
X5.2559Y-3.4055
X5.2559Y-3.622
X5.2776Y-2.6063
X5.3465Y-3.2992
X5.4236Y-2.6059
X5.4528Y-3.6811
X5.4803Y-2.9134
X5.4882Y-3.2992
X5.4921Y-2.3622
X5.5709Y-2.5984
X5.5748Y-3.2913
X5.5906Y-2.9921
X5.5906Y-3.2047
X5.6102Y-2.1457
X5.6102Y-2.6969
X5.6102Y-2.7756
X5.6496Y-2.4409
X5.6693Y-2.1654
X5.7087Y-2.2244
X5.748Y-1.8307
X5.748Y-2.6181
X5.7874Y-2.4409
X5.8071Y-2.5394
X5.8071Y-3.3268
X5.8268Y-2.1063
X5.8858Y-2.0276
X5.8858Y-2.1654
X5.9055Y-2.8543
X5.9843Y-2.3622
X6.0039Y-2.8937
X6.0236Y-3.189
X6.0433Y-2.7165
X6.0433Y-3.3268
X6.063Y-3.0906
X6.063Y-3.248
X6.122Y-2.2047
X6.1417Y-3.4646
X6.1614Y-2.185
X6.1614Y-2.4803
X6.1614Y-2.4803
X6.1811Y-2.6575
X6.1811Y-2.7362
X6.1811Y-2.9134
X6.1811Y-2.9921
X6.2008Y-2.5984
X6.2205Y-2.1457
X6.2402Y-2.3622
X6.2402Y-2.9921
X6.2776Y-2.935
X6.3583Y-2.1457
X6.3583Y-2.185
X6.3583Y-2.815
X6.3583Y-3.0118
X6.378Y-3.3268
X6.3976Y-3.2087
X6.4173Y-3.0709
X6.4567Y-2.2047
X6.4677Y-3.3465
X6.4764Y-1.9173
X6.4961Y-2.0079
X6.5354Y-3.3661
X6.5551Y-3.4252
X6.5748Y-2.6181
X6.5748Y-2.6969
X6.6014Y-2.4144
X6.6535Y-1.9685
X6.752Y-2.7953
X6.752Y-2.9528
X6.752Y-3.1102
X6.7717Y-3.1873
X6.7717Y-3.2244
X6.7913Y-2.3228
X6.7913Y-3.4449
X6.8504Y-1.8307
X6.8504Y-2.0472
X6.8504Y-2.6969
X6.8504Y-3.3622
X6.8583Y-2.1417
X6.8915Y-3.1676
X6.9055Y-2.2598
X6.9094Y-2.4016
X6.9094Y-2.4409
X6.9094Y-2.4803
X6.9094Y-3.1102
X6.9291Y-3.0118
X6.9364Y-2.5896
X7.0177Y-2.5098
X7.0472Y-2.3622
X7.0669Y-3.0315
X7.0787Y-1.9213
X7.0866Y-2.3465
X7.0866Y-2.5197
X7.0866Y-3.1102
X7.0945Y-1.9843
X7.126Y-2.5787
X7.126Y-2.8937
X7.126Y-3.0118
X7.126Y-3.1496
X7.185Y-2.5787
X7.185Y-2.5787
X7.185Y-2.7165
X7.2441Y-3.1102
X7.2835Y-1.9291
X7.3425Y-2.5
X7.3622Y-3.1102
X7.4016Y-2.0276
X7.4213Y-2.7165
T2
X5.0394Y-3.3268
X5.187Y-1.7618
X5.3346Y-3.7008
X5.6496Y-1.752
X5.6496Y-3.7008
X5.8465Y-1.752
X5.9449Y-3.7008
X6.0433Y-1.752
X7.3819Y-2.9921
T3
X5.0945Y-2.3465
X5.0945Y-2.4252
X5.0945Y-2.6299
X5.0945Y-2.7087
X5.1378Y-3.1102
X5.1378Y-3.189
X5.1732Y-2.3465
X5.1732Y-2.4252
X5.1732Y-2.6299
X5.1732Y-2.7087
X5.2165Y-3.1102
X5.2165Y-3.189
X5.3937Y-3.4449
X5.3937Y-3.5236
X5.4134Y-3.1102
X5.4134Y-3.189
X5.4724Y-3.4449
X5.4724Y-3.5236
X5.4921Y-3.1102
X5.4921Y-3.189
X5.6693Y-3.4449
X5.6693Y-3.5236
X5.689Y-3.1102
X5.689Y-3.189
X5.748Y-3.4449
X5.748Y-3.5236
X5.7677Y-3.1102
X5.7677Y-3.189
X5.9449Y-3.4449
X5.9449Y-3.5236
X6.0236Y-3.4449
X6.0236Y-3.5236
X6.1811Y-3.1299
X6.1811Y-3.2087
X6.2598Y-3.1299
X6.2598Y-3.2087
T4
X5.0886Y-1.998
X5.187Y-1.998
X5.2854Y-1.998
X5.3839Y-1.998
T5
X5.6496Y-1.998
X5.748Y-1.998
T6
X5.0591Y-1.6535
X5.0787Y-3.6417
X7.3228Y-1.6732
X7.3228Y-3.6417
M30
