%TF.GenerationSoftware,KiCad,Pcbnew,10.0.3*%
%TF.CreationDate,2026-10-06T17:16:21-07:00*%
%TF.ProjectId,CADENCE Inhibit System Test Board,43414445-4e43-4452-9049-6e6869626974,rev?*%
%TF.SameCoordinates,Original*%
%TF.FileFunction,Copper,L2,Bot*%
%TF.FilePolarity,Positive*%
%FSLAX46Y46*%
G04 Gerber Fmt 4.6, Leading zero omitted, Abs format (unit mm)*
G04 Created by KiCad (PCBNEW 10.0.3) date 2026-10-06 17:16:21*
%MOMM*%
%LPD*%
G01*
G04 APERTURE LIST*
G04 Aperture macros list*
%AMRoundRect*
0 Rectangle with rounded corners*
0 $1 Rounding radius*
0 $2 $3 $4 $5 $6 $7 $8 $9 X,Y pos of 4 corners*
0 Add a 4 corners polygon primitive as box body*
4,1,4,$2,$3,$4,$5,$6,$7,$8,$9,$2,$3,0*
0 Add four circle primitives for the rounded corners*
1,1,$1+$1,$2,$3*
1,1,$1+$1,$4,$5*
1,1,$1+$1,$6,$7*
1,1,$1+$1,$8,$9*
0 Add four rect primitives between the rounded corners*
20,1,$1+$1,$2,$3,$4,$5,0*
20,1,$1+$1,$4,$5,$6,$7,0*
20,1,$1+$1,$6,$7,$8,$9,0*
20,1,$1+$1,$8,$9,$2,$3,0*%
G04 Aperture macros list end*
%TA.AperFunction,ComponentPad*%
%ADD10C,3.600000*%
%TD*%
%TA.AperFunction,ComponentPad*%
%ADD11RoundRect,0.250000X-0.600000X-0.750000X0.600000X-0.750000X0.600000X0.750000X-0.600000X0.750000X0*%
%TD*%
%TA.AperFunction,ComponentPad*%
%ADD12O,1.700000X2.000000*%
%TD*%
%TA.AperFunction,ComponentPad*%
%ADD13C,1.000000*%
%TD*%
%TA.AperFunction,ComponentPad*%
%ADD14RoundRect,0.250000X0.350000X0.575000X-0.350000X0.575000X-0.350000X-0.575000X0.350000X-0.575000X0*%
%TD*%
%TA.AperFunction,ComponentPad*%
%ADD15O,1.200000X1.650000*%
%TD*%
%TA.AperFunction,ComponentPad*%
%ADD16RoundRect,0.250000X0.575000X-0.350000X0.575000X0.350000X-0.575000X0.350000X-0.575000X-0.350000X0*%
%TD*%
%TA.AperFunction,ComponentPad*%
%ADD17O,1.650000X1.200000*%
%TD*%
%TA.AperFunction,ComponentPad*%
%ADD18RoundRect,0.250000X-0.350000X-0.575000X0.350000X-0.575000X0.350000X0.575000X-0.350000X0.575000X0*%
%TD*%
%TA.AperFunction,ComponentPad*%
%ADD19RoundRect,0.250000X-0.600000X-0.725000X0.600000X-0.725000X0.600000X0.725000X-0.600000X0.725000X0*%
%TD*%
%TA.AperFunction,ComponentPad*%
%ADD20O,1.700000X1.950000*%
%TD*%
%TA.AperFunction,ViaPad*%
%ADD21C,0.600000*%
%TD*%
%TA.AperFunction,Conductor*%
%ADD22C,1.200000*%
%TD*%
%TA.AperFunction,Conductor*%
%ADD23C,0.200000*%
%TD*%
%TA.AperFunction,Conductor*%
%ADD24C,1.700000*%
%TD*%
%TA.AperFunction,Conductor*%
%ADD25C,0.780000*%
%TD*%
G04 APERTURE END LIST*
D10*
%TO.P,H4,1,1_1*%
%TO.N,VSS*%
X129000000Y-92500000D03*
%TD*%
D11*
%TO.P,J11,1,Pin_1_1*%
%TO.N,V_mppt_o*%
X143500000Y-50750000D03*
D12*
%TO.P,J11,2,Pin_2_2*%
%TO.N,V_mppt_i*%
X146000000Y-50750000D03*
%TD*%
D13*
%TO.P,TP1,1,1_1*%
%TO.N,VSS*%
X135500000Y-94000000D03*
%TD*%
D14*
%TO.P,J5,1,Pin_1_1*%
%TO.N,Net-(J3-Pin_2)*%
X153000000Y-89500000D03*
D15*
%TO.P,J5,2,Pin_2_2*%
%TO.N,Net-(J5-Pin_2)*%
X153000000Y-87500000D03*
%TO.P,J5,3,Pin_3_3*%
%TO.N,Net-(J3-Pin_2)*%
X151000000Y-89500000D03*
%TO.P,J5,4,Pin_4_4*%
%TO.N,Net-(J5-Pin_2)*%
X151000000Y-87500000D03*
%TD*%
D10*
%TO.P,H1,1,1_1*%
%TO.N,VSS*%
X128500000Y-42000000D03*
%TD*%
D16*
%TO.P,J9,1,Pin_1_1*%
%TO.N,Cell 1+*%
X129400000Y-61600000D03*
D17*
%TO.P,J9,2,Pin_2_2*%
%TO.N,HIGH_SIDE_PWR*%
X131400000Y-61600000D03*
%TO.P,J9,3,Pin_3_3*%
%TO.N,Cell 1+*%
X129400000Y-59600000D03*
%TO.P,J9,4,Pin_4_4*%
%TO.N,HIGH_SIDE_PWR*%
X131400000Y-59600000D03*
%TD*%
D13*
%TO.P,TP2,1,1_1*%
%TO.N,EN*%
X151000000Y-94000000D03*
%TD*%
D18*
%TO.P,J2,1,Pin_1_1*%
%TO.N,Net-(D3-K)*%
X130500000Y-79000000D03*
D15*
%TO.P,J2,2,Pin_2_2*%
%TO.N,Net-(J2-Pin_2)*%
X130500000Y-81000000D03*
%TO.P,J2,3,Pin_3_3*%
%TO.N,Net-(D3-K)*%
X132500000Y-79000000D03*
%TO.P,J2,4,Pin_4_4*%
%TO.N,Net-(J2-Pin_2)*%
X132500000Y-81000000D03*
%TD*%
D13*
%TO.P,TP6,1,1_1*%
%TO.N,Cell 3-*%
X153500000Y-44500000D03*
%TD*%
D10*
%TO.P,H3,1,1_1*%
%TO.N,VSS*%
X186000000Y-92500000D03*
%TD*%
D13*
%TO.P,TP9,1,1_1*%
%TO.N,V_mppt_i*%
X148500000Y-44500000D03*
%TD*%
%TO.P,TP4,1,1_1*%
%TO.N,Net-(D3-K)*%
X128000000Y-84500000D03*
%TD*%
%TO.P,TP8,1,1_1*%
%TO.N,V_mppt_o*%
X143500000Y-44500000D03*
%TD*%
D18*
%TO.P,J6,1,Pin_1_1*%
%TO.N,Net-(J4-Pin_2)*%
X144500000Y-79000000D03*
D15*
%TO.P,J6,2,Pin_2_2*%
%TO.N,Net-(J5-Pin_2)*%
X144500000Y-81000000D03*
%TO.P,J6,3,Pin_3_3*%
%TO.N,Net-(J4-Pin_2)*%
X146500000Y-79000000D03*
%TO.P,J6,4,Pin_4_4*%
%TO.N,Net-(J5-Pin_2)*%
X146500000Y-81000000D03*
%TD*%
D13*
%TO.P,TP5,1,1_1*%
%TO.N,UNREG*%
X131750000Y-44750000D03*
%TD*%
D10*
%TO.P,H2,1,1_1*%
%TO.N,VSS*%
X186000000Y-42500000D03*
%TD*%
D19*
%TO.P,J10,1,Pin_1_1*%
%TO.N,Cell 1+*%
X129250000Y-50750000D03*
D20*
%TO.P,J10,2,Pin_2_2*%
%TO.N,UNREG*%
X131750000Y-50750000D03*
%TO.P,J10,3,Pin_3_3*%
%TO.N,Cell 3-*%
X134250000Y-50750000D03*
%TO.P,J10,4,Pin_4_4*%
%TO.N,VSS*%
X136750000Y-50750000D03*
%TD*%
D13*
%TO.P,GSE,1,1_1*%
%TO.N,Net-(IC2-TS)*%
X187500000Y-76000000D03*
%TD*%
D18*
%TO.P,J3,1,Pin_1_1*%
%TO.N,Net-(J1-Pin_2)*%
X144000000Y-87500000D03*
D15*
%TO.P,J3,2,Pin_2_2*%
%TO.N,Net-(J3-Pin_2)*%
X144000000Y-89500000D03*
%TO.P,J3,3,Pin_3_3*%
%TO.N,Net-(J1-Pin_2)*%
X146000000Y-87500000D03*
%TO.P,J3,4,Pin_4_4*%
%TO.N,Net-(J3-Pin_2)*%
X146000000Y-89500000D03*
%TD*%
D14*
%TO.P,J1,1,Pin_1_1*%
%TO.N,Net-(D3-K)*%
X139000000Y-89500000D03*
D15*
%TO.P,J1,2,Pin_2_2*%
%TO.N,Net-(J1-Pin_2)*%
X139000000Y-87500000D03*
%TO.P,J1,3,Pin_3_3*%
%TO.N,Net-(D3-K)*%
X137000000Y-89500000D03*
%TO.P,J1,4,Pin_4_4*%
%TO.N,Net-(J1-Pin_2)*%
X137000000Y-87500000D03*
%TD*%
D14*
%TO.P,J4,1,Pin_1_1*%
%TO.N,Net-(J2-Pin_2)*%
X139500000Y-81000000D03*
D15*
%TO.P,J4,2,Pin_2_2*%
%TO.N,Net-(J4-Pin_2)*%
X139500000Y-79000000D03*
%TO.P,J4,3,Pin_3_3*%
%TO.N,Net-(J2-Pin_2)*%
X137500000Y-81000000D03*
%TO.P,J4,4,Pin_4_4*%
%TO.N,Net-(J4-Pin_2)*%
X137500000Y-79000000D03*
%TD*%
D16*
%TO.P,J7,1,Pin_1_1*%
%TO.N,EN*%
X157000000Y-81500000D03*
D17*
%TO.P,J7,2,Pin_2_2*%
%TO.N,Net-(IC5-INP)*%
X159000000Y-81500000D03*
%TO.P,J7,3,Pin_3_3*%
%TO.N,EN*%
X157000000Y-79500000D03*
%TO.P,J7,4,Pin_4_4*%
%TO.N,Net-(IC5-INP)*%
X159000000Y-79500000D03*
%TD*%
D16*
%TO.P,J8,1,Pin_1_1*%
%TO.N,Cell 1+*%
X129400000Y-68800000D03*
D17*
%TO.P,J8,2,Pin_2_2*%
%TO.N,LOW_SIDE_PWR*%
X131400000Y-68800000D03*
%TO.P,J8,3,Pin_3_3*%
%TO.N,Cell 1+*%
X129400000Y-66800000D03*
%TO.P,J8,4,Pin_4_4*%
%TO.N,LOW_SIDE_PWR*%
X131400000Y-66800000D03*
%TD*%
D13*
%TO.P,TP7,1,1_1*%
%TO.N,VSS*%
X143500000Y-94000000D03*
%TD*%
D21*
%TO.N,VSS*%
X171500000Y-71000000D03*
X161500000Y-55500000D03*
X174200000Y-54400000D03*
X175500000Y-61000001D03*
X161500000Y-71500000D03*
X181000000Y-80000000D03*
X157000000Y-74000000D03*
X164280000Y-85000000D03*
X172001317Y-80958221D03*
X142500000Y-70500000D03*
X153500000Y-84500000D03*
X167000000Y-66500000D03*
X135800000Y-83800000D03*
X174000000Y-52000000D03*
X184000000Y-79000000D03*
X179500000Y-77000000D03*
X147500000Y-64500000D03*
X141500000Y-66000000D03*
X154000000Y-82500000D03*
X172001317Y-81899721D03*
X158000000Y-54500000D03*
X157000000Y-76000000D03*
X161500000Y-54500000D03*
X180000000Y-59600000D03*
X179800000Y-48800000D03*
X147500000Y-84500000D03*
X185000000Y-49000000D03*
X171500000Y-79000000D03*
X133500000Y-86500000D03*
X164000000Y-56000000D03*
X149500000Y-55000000D03*
X142500000Y-68500000D03*
X149500000Y-51500000D03*
X169000000Y-50000000D03*
X153000000Y-81000000D03*
X178250000Y-63750000D03*
X138500000Y-93500000D03*
X154000000Y-78500000D03*
X141600000Y-83600000D03*
X156000000Y-88000000D03*
X171500000Y-75000000D03*
X179000000Y-60000000D03*
X158500000Y-76000000D03*
X144000000Y-55000000D03*
X156500000Y-55500000D03*
X175044121Y-80455878D03*
X188000000Y-51500000D03*
X181000000Y-73500000D03*
X180200000Y-50400000D03*
X139200000Y-74000000D03*
X182500000Y-69000000D03*
X133500000Y-92000000D03*
X180000000Y-64000000D03*
X166500000Y-87000000D03*
X182500000Y-65500000D03*
X150000000Y-72500000D03*
X167000000Y-68500000D03*
X143500000Y-62000000D03*
X187000000Y-79000000D03*
X155500000Y-56000000D03*
X165000000Y-51000000D03*
X162000000Y-84500000D03*
X142000000Y-76000000D03*
X182500000Y-65500000D03*
X153500000Y-69000000D03*
X152500000Y-73500000D03*
X174000000Y-68500000D03*
X188500000Y-69000000D03*
X157000000Y-69500000D03*
X131600000Y-83600000D03*
X139400000Y-83800000D03*
X146000000Y-66500000D03*
X175400000Y-57400000D03*
X139500000Y-60000000D03*
X142000000Y-81400000D03*
X152000000Y-60000000D03*
%TO.N,V_mppt_o*%
X146000000Y-46500000D03*
X174000000Y-46500000D03*
%TO.N,V_mppt_i*%
X142500000Y-54500000D03*
X148000000Y-53500000D03*
X164500000Y-48700000D03*
%TO.N,HIGH_SIDE_PWR*%
X133000000Y-60500000D03*
X158500000Y-60000000D03*
X159449999Y-74550001D03*
X186500000Y-63500000D03*
X162500000Y-81500000D03*
X161500000Y-76500000D03*
X166000000Y-85500000D03*
X157500000Y-66000000D03*
X175500000Y-63000000D03*
%TO.N,EN*%
X172500000Y-87500000D03*
X172500000Y-59000000D03*
X181000000Y-65500000D03*
X174000000Y-85400000D03*
X175500000Y-62000000D03*
%TO.N,Net-(IC2-TGDN)*%
X181000000Y-76500000D03*
X180000000Y-79000000D03*
%TO.N,Cell 1+*%
X176185000Y-65775000D03*
X132000000Y-56000000D03*
%TO.N,Net-(IC1-TGDN)*%
X176000000Y-76500000D03*
X175500000Y-79000000D03*
%TO.N,LOW_SIDE_PWR*%
X137760000Y-66190000D03*
X134050000Y-66200000D03*
%TO.N,Net-(Q2-G)*%
X167675000Y-61325000D03*
X157000000Y-67500000D03*
%TO.N,UNREG*%
X147000000Y-62000000D03*
X133500000Y-54000000D03*
X145000000Y-56500000D03*
X156500000Y-63000000D03*
X163000000Y-78000000D03*
X156500000Y-63000000D03*
%TD*%
%TO.N,V_mppt_o*%
D22*
X146000000Y-46500000D02*
X174000000Y-46500000D01*
%TO.N,V_mppt_i*%
X143500000Y-53500000D02*
X148000000Y-53500000D01*
X156000000Y-53500000D02*
X160800000Y-48700000D01*
X160800000Y-48700000D02*
X164500000Y-48700000D01*
X148000000Y-53500000D02*
X156000000Y-53500000D01*
X142500000Y-54500000D02*
X143500000Y-53500000D01*
%TO.N,HIGH_SIDE_PWR*%
D23*
X133000000Y-60500000D02*
X133500000Y-61000000D01*
X176000000Y-63000000D02*
X176100000Y-62900000D01*
X175500000Y-63000000D02*
X176000000Y-63000000D01*
X157000000Y-61000000D02*
X158000000Y-62000000D01*
X176100000Y-62900000D02*
X185900000Y-62900000D01*
X158500000Y-60000000D02*
X158500000Y-61500000D01*
X159899998Y-75000000D02*
X160000000Y-75000000D01*
X133500000Y-61000000D02*
X157000000Y-61000000D01*
X185900000Y-62900000D02*
X186500000Y-63500000D01*
X157500000Y-62500000D02*
X157500000Y-66000000D01*
X158000000Y-62000000D02*
X157500000Y-62500000D01*
X162500000Y-82000000D02*
X162500000Y-81500000D01*
X160000000Y-75000000D02*
X161500000Y-76500000D01*
X159449999Y-74550001D02*
X159899998Y-75000000D01*
X166000000Y-85500000D02*
X162500000Y-82000000D01*
X158500000Y-61500000D02*
X158000000Y-62000000D01*
%TO.N,EN*%
X172500000Y-87500000D02*
X174000000Y-86000000D01*
X175500000Y-62000000D02*
X172500000Y-59000000D01*
X174000000Y-72500000D02*
X181000000Y-65500000D01*
X174000000Y-86000000D02*
X174000000Y-72500000D01*
X174000000Y-86000000D02*
X174000000Y-85400000D01*
%TO.N,Net-(IC2-TGDN)*%
X180000000Y-79000000D02*
X181000000Y-78000000D01*
X181000000Y-78000000D02*
X181000000Y-76500000D01*
%TO.N,Cell 1+*%
D24*
X168910000Y-58500000D02*
X134500000Y-58500000D01*
X176185000Y-65775000D02*
X168910000Y-58500000D01*
X134500000Y-58500000D02*
X132000000Y-56000000D01*
%TO.N,Net-(IC1-TGDN)*%
D23*
X176000000Y-76500000D02*
X176000000Y-78500000D01*
X176000000Y-78500000D02*
X175500000Y-79000000D01*
%TO.N,LOW_SIDE_PWR*%
D22*
X134050000Y-66200000D02*
X135580000Y-66200000D01*
X135580000Y-66200000D02*
X135590000Y-66190000D01*
X135590000Y-66190000D02*
X137760000Y-66190000D01*
%TO.N,Net-(Q2-G)*%
D23*
X163175000Y-61325000D02*
X167675000Y-61325000D01*
X157000000Y-67500000D02*
X163175000Y-61325000D01*
%TO.N,UNREG*%
D25*
X163000000Y-78000000D02*
X163000000Y-69500000D01*
X156390000Y-68390000D02*
X151000000Y-63000000D01*
D22*
X133500000Y-54000000D02*
X136000000Y-56500000D01*
X136000000Y-56500000D02*
X145000000Y-56500000D01*
X151000000Y-63000000D02*
X156500000Y-63000000D01*
D25*
X161890000Y-68390000D02*
X156390000Y-68390000D01*
X163000000Y-69500000D02*
X161890000Y-68390000D01*
D22*
X148000000Y-63000000D02*
X151000000Y-63000000D01*
X147000000Y-62000000D02*
X148000000Y-63000000D01*
%TD*%
%TA.AperFunction,Conductor*%
%TO.N,VSS*%
G36*
X188004418Y-39000816D02*
G01*
X188204561Y-39015130D01*
X188222063Y-39017647D01*
X188413795Y-39059355D01*
X188430760Y-39064336D01*
X188614611Y-39132909D01*
X188630694Y-39140253D01*
X188747495Y-39204032D01*
X188802908Y-39234290D01*
X188817791Y-39243855D01*
X188974864Y-39361438D01*
X188988235Y-39373024D01*
X189126975Y-39511764D01*
X189138561Y-39525135D01*
X189256144Y-39682208D01*
X189265709Y-39697091D01*
X189359743Y-39869300D01*
X189367093Y-39885394D01*
X189435661Y-40069234D01*
X189440645Y-40086209D01*
X189482351Y-40277931D01*
X189484869Y-40295442D01*
X189499184Y-40495580D01*
X189499500Y-40504427D01*
X189499500Y-94495572D01*
X189499184Y-94504419D01*
X189484869Y-94704557D01*
X189482351Y-94722068D01*
X189440645Y-94913790D01*
X189435661Y-94930765D01*
X189367093Y-95114605D01*
X189359743Y-95130699D01*
X189265709Y-95302908D01*
X189256144Y-95317791D01*
X189138561Y-95474864D01*
X189126975Y-95488235D01*
X188988235Y-95626975D01*
X188974864Y-95638561D01*
X188817791Y-95756144D01*
X188802908Y-95765709D01*
X188630699Y-95859743D01*
X188614605Y-95867093D01*
X188430765Y-95935661D01*
X188413790Y-95940645D01*
X188222068Y-95982351D01*
X188204557Y-95984869D01*
X188023779Y-95997799D01*
X188004417Y-95999184D01*
X187995572Y-95999500D01*
X127004428Y-95999500D01*
X126995582Y-95999184D01*
X126973622Y-95997613D01*
X126795442Y-95984869D01*
X126777931Y-95982351D01*
X126586209Y-95940645D01*
X126569234Y-95935661D01*
X126385394Y-95867093D01*
X126369300Y-95859743D01*
X126197091Y-95765709D01*
X126182208Y-95756144D01*
X126025135Y-95638561D01*
X126011764Y-95626975D01*
X125873024Y-95488235D01*
X125861438Y-95474864D01*
X125743855Y-95317791D01*
X125734290Y-95302908D01*
X125640256Y-95130699D01*
X125632909Y-95114611D01*
X125564336Y-94930760D01*
X125559354Y-94913790D01*
X125553446Y-94886632D01*
X125517647Y-94722063D01*
X125515130Y-94704556D01*
X125510354Y-94637785D01*
X125500816Y-94504418D01*
X125500500Y-94495572D01*
X125500500Y-94098543D01*
X149999499Y-94098543D01*
X150037947Y-94291829D01*
X150037950Y-94291839D01*
X150113364Y-94473907D01*
X150113371Y-94473920D01*
X150222860Y-94637781D01*
X150222863Y-94637785D01*
X150362214Y-94777136D01*
X150362218Y-94777139D01*
X150526079Y-94886628D01*
X150526092Y-94886635D01*
X150708160Y-94962049D01*
X150708165Y-94962051D01*
X150708169Y-94962051D01*
X150708170Y-94962052D01*
X150901456Y-95000500D01*
X150901459Y-95000500D01*
X151098543Y-95000500D01*
X151228582Y-94974632D01*
X151291835Y-94962051D01*
X151473914Y-94886632D01*
X151637782Y-94777139D01*
X151777139Y-94637782D01*
X151886632Y-94473914D01*
X151962051Y-94291835D01*
X152000500Y-94098541D01*
X152000500Y-93901459D01*
X152000500Y-93901456D01*
X151962052Y-93708170D01*
X151962051Y-93708169D01*
X151962051Y-93708165D01*
X151962049Y-93708160D01*
X151886635Y-93526092D01*
X151886628Y-93526079D01*
X151777139Y-93362218D01*
X151777136Y-93362214D01*
X151637785Y-93222863D01*
X151637781Y-93222860D01*
X151473920Y-93113371D01*
X151473907Y-93113364D01*
X151291839Y-93037950D01*
X151291829Y-93037947D01*
X151098543Y-92999500D01*
X151098541Y-92999500D01*
X150901459Y-92999500D01*
X150901457Y-92999500D01*
X150708170Y-93037947D01*
X150708160Y-93037950D01*
X150526092Y-93113364D01*
X150526079Y-93113371D01*
X150362218Y-93222860D01*
X150362214Y-93222863D01*
X150222863Y-93362214D01*
X150222860Y-93362218D01*
X150113371Y-93526079D01*
X150113364Y-93526092D01*
X150037950Y-93708160D01*
X150037947Y-93708170D01*
X149999500Y-93901456D01*
X149999500Y-93901459D01*
X149999500Y-94098541D01*
X149999500Y-94098543D01*
X149999499Y-94098543D01*
X125500500Y-94098543D01*
X125500500Y-87188389D01*
X135899500Y-87188389D01*
X135899500Y-87811611D01*
X135926598Y-87982701D01*
X135972834Y-88125001D01*
X135980128Y-88147447D01*
X136058768Y-88301788D01*
X136149823Y-88427114D01*
X136173303Y-88492921D01*
X136157478Y-88560975D01*
X136149823Y-88572886D01*
X136058768Y-88698211D01*
X135980128Y-88852552D01*
X135926597Y-89017302D01*
X135899500Y-89188389D01*
X135899500Y-89811611D01*
X135926598Y-89982701D01*
X135980127Y-90147445D01*
X136058768Y-90301788D01*
X136160586Y-90441928D01*
X136283072Y-90564414D01*
X136423212Y-90666232D01*
X136577555Y-90744873D01*
X136742299Y-90798402D01*
X136913389Y-90825500D01*
X136913390Y-90825500D01*
X137086610Y-90825500D01*
X137086611Y-90825500D01*
X137257701Y-90798402D01*
X137422445Y-90744873D01*
X137576788Y-90666232D01*
X137716928Y-90564414D01*
X137824472Y-90456869D01*
X137885791Y-90423387D01*
X137955483Y-90428371D01*
X138011417Y-90470242D01*
X138017688Y-90479456D01*
X138057285Y-90543652D01*
X138057288Y-90543656D01*
X138181344Y-90667712D01*
X138330666Y-90759814D01*
X138497203Y-90814999D01*
X138599991Y-90825500D01*
X139400008Y-90825499D01*
X139400016Y-90825498D01*
X139400019Y-90825498D01*
X139456302Y-90819748D01*
X139502797Y-90814999D01*
X139669334Y-90759814D01*
X139818656Y-90667712D01*
X139942712Y-90543656D01*
X140034814Y-90394334D01*
X140089999Y-90227797D01*
X140100500Y-90125009D01*
X140100499Y-88874992D01*
X140089999Y-88772203D01*
X140034814Y-88605666D01*
X139942712Y-88456344D01*
X139942704Y-88456336D01*
X139941729Y-88455102D01*
X139941319Y-88454087D01*
X139938920Y-88450197D01*
X139939584Y-88449786D01*
X139915588Y-88390306D01*
X139928628Y-88321664D01*
X139938680Y-88305301D01*
X139941230Y-88301791D01*
X139941888Y-88300500D01*
X140019873Y-88147445D01*
X140073402Y-87982701D01*
X140100500Y-87811611D01*
X140100500Y-87188389D01*
X140073402Y-87017299D01*
X140027160Y-86874983D01*
X142899500Y-86874983D01*
X142899500Y-88125001D01*
X142899501Y-88125018D01*
X142910000Y-88227796D01*
X142910001Y-88227799D01*
X142963851Y-88390306D01*
X142965186Y-88394334D01*
X143057288Y-88543656D01*
X143057294Y-88543662D01*
X143058271Y-88544898D01*
X143058680Y-88545912D01*
X143061080Y-88549803D01*
X143060415Y-88550213D01*
X143084412Y-88609694D01*
X143071372Y-88678336D01*
X143061325Y-88694693D01*
X143058769Y-88698210D01*
X142980128Y-88852552D01*
X142926597Y-89017302D01*
X142899500Y-89188389D01*
X142899500Y-89811611D01*
X142926598Y-89982701D01*
X142980127Y-90147445D01*
X143058768Y-90301788D01*
X143160586Y-90441928D01*
X143283072Y-90564414D01*
X143423212Y-90666232D01*
X143577555Y-90744873D01*
X143742299Y-90798402D01*
X143913389Y-90825500D01*
X143913390Y-90825500D01*
X144086610Y-90825500D01*
X144086611Y-90825500D01*
X144257701Y-90798402D01*
X144422445Y-90744873D01*
X144576788Y-90666232D01*
X144716928Y-90564414D01*
X144839414Y-90441928D01*
X144899682Y-90358975D01*
X144955012Y-90316311D01*
X145024626Y-90310332D01*
X145086421Y-90342938D01*
X145100315Y-90358973D01*
X145160586Y-90441928D01*
X145283072Y-90564414D01*
X145423212Y-90666232D01*
X145577555Y-90744873D01*
X145742299Y-90798402D01*
X145913389Y-90825500D01*
X145913390Y-90825500D01*
X146086610Y-90825500D01*
X146086611Y-90825500D01*
X146257701Y-90798402D01*
X146422445Y-90744873D01*
X146576788Y-90666232D01*
X146716928Y-90564414D01*
X146839414Y-90441928D01*
X146941232Y-90301788D01*
X147019873Y-90147445D01*
X147073402Y-89982701D01*
X147100500Y-89811611D01*
X147100500Y-89188389D01*
X147073402Y-89017299D01*
X147019873Y-88852555D01*
X146941232Y-88698212D01*
X146850175Y-88572883D01*
X146826696Y-88507080D01*
X146842521Y-88439026D01*
X146850168Y-88427126D01*
X146941232Y-88301788D01*
X147019873Y-88147445D01*
X147073402Y-87982701D01*
X147100500Y-87811611D01*
X147100500Y-87188389D01*
X149899500Y-87188389D01*
X149899500Y-87811611D01*
X149926598Y-87982701D01*
X149972834Y-88125001D01*
X149980128Y-88147447D01*
X150058768Y-88301788D01*
X150149823Y-88427114D01*
X150173303Y-88492921D01*
X150157478Y-88560975D01*
X150149823Y-88572886D01*
X150058768Y-88698211D01*
X149980128Y-88852552D01*
X149926597Y-89017302D01*
X149899500Y-89188389D01*
X149899500Y-89811611D01*
X149926598Y-89982701D01*
X149980127Y-90147445D01*
X150058768Y-90301788D01*
X150160586Y-90441928D01*
X150283072Y-90564414D01*
X150423212Y-90666232D01*
X150577555Y-90744873D01*
X150742299Y-90798402D01*
X150913389Y-90825500D01*
X150913390Y-90825500D01*
X151086610Y-90825500D01*
X151086611Y-90825500D01*
X151257701Y-90798402D01*
X151422445Y-90744873D01*
X151576788Y-90666232D01*
X151716928Y-90564414D01*
X151824472Y-90456869D01*
X151885791Y-90423387D01*
X151955483Y-90428371D01*
X152011417Y-90470242D01*
X152017688Y-90479456D01*
X152057285Y-90543652D01*
X152057288Y-90543656D01*
X152181344Y-90667712D01*
X152330666Y-90759814D01*
X152497203Y-90814999D01*
X152599991Y-90825500D01*
X153400008Y-90825499D01*
X153400016Y-90825498D01*
X153400019Y-90825498D01*
X153456302Y-90819748D01*
X153502797Y-90814999D01*
X153669334Y-90759814D01*
X153818656Y-90667712D01*
X153942712Y-90543656D01*
X154034814Y-90394334D01*
X154089999Y-90227797D01*
X154100500Y-90125009D01*
X154100499Y-88874992D01*
X154089999Y-88772203D01*
X154034814Y-88605666D01*
X153942712Y-88456344D01*
X153942704Y-88456336D01*
X153941729Y-88455102D01*
X153941319Y-88454087D01*
X153938920Y-88450197D01*
X153939584Y-88449786D01*
X153915588Y-88390306D01*
X153928628Y-88321664D01*
X153938680Y-88305301D01*
X153941230Y-88301791D01*
X153941888Y-88300500D01*
X154019873Y-88147445D01*
X154073402Y-87982701D01*
X154100500Y-87811611D01*
X154100500Y-87421153D01*
X171699500Y-87421153D01*
X171699500Y-87578846D01*
X171730261Y-87733489D01*
X171730264Y-87733501D01*
X171790602Y-87879172D01*
X171790609Y-87879185D01*
X171878210Y-88010288D01*
X171878213Y-88010292D01*
X171989707Y-88121786D01*
X171989711Y-88121789D01*
X172120814Y-88209390D01*
X172120827Y-88209397D01*
X172266498Y-88269735D01*
X172266503Y-88269737D01*
X172421153Y-88300499D01*
X172421156Y-88300500D01*
X172421158Y-88300500D01*
X172578844Y-88300500D01*
X172578845Y-88300499D01*
X172733497Y-88269737D01*
X172879179Y-88209394D01*
X173010289Y-88121789D01*
X173121789Y-88010289D01*
X173209394Y-87879179D01*
X173269737Y-87733497D01*
X173289113Y-87636085D01*
X173300638Y-87578150D01*
X173333023Y-87516239D01*
X173334520Y-87514714D01*
X174358506Y-86490727D01*
X174358511Y-86490724D01*
X174368714Y-86480520D01*
X174368716Y-86480520D01*
X174480520Y-86368716D01*
X174559577Y-86231784D01*
X174592371Y-86109394D01*
X174600500Y-86079058D01*
X174600500Y-85975031D01*
X174600860Y-85970319D01*
X174611623Y-85941882D01*
X174620185Y-85912726D01*
X174621398Y-85910874D01*
X174634116Y-85891841D01*
X174709394Y-85779179D01*
X174717383Y-85759893D01*
X174769735Y-85633501D01*
X174769737Y-85633497D01*
X174800500Y-85478842D01*
X174800500Y-85321158D01*
X174800500Y-85321155D01*
X174800499Y-85321153D01*
X174769738Y-85166510D01*
X174769737Y-85166503D01*
X174757842Y-85137785D01*
X174709397Y-85020827D01*
X174709390Y-85020814D01*
X174621398Y-84889125D01*
X174600520Y-84822447D01*
X174600500Y-84820234D01*
X174600500Y-79503439D01*
X174620185Y-79436400D01*
X174672989Y-79390645D01*
X174742147Y-79380701D01*
X174805703Y-79409726D01*
X174827602Y-79434548D01*
X174878210Y-79510288D01*
X174878213Y-79510292D01*
X174989707Y-79621786D01*
X174989711Y-79621789D01*
X175120814Y-79709390D01*
X175120827Y-79709397D01*
X175237445Y-79757701D01*
X175266503Y-79769737D01*
X175421153Y-79800499D01*
X175421156Y-79800500D01*
X175421158Y-79800500D01*
X175578844Y-79800500D01*
X175578845Y-79800499D01*
X175733497Y-79769737D01*
X175879179Y-79709394D01*
X176010289Y-79621789D01*
X176121789Y-79510289D01*
X176209394Y-79379179D01*
X176269737Y-79233497D01*
X176285738Y-79153052D01*
X176300638Y-79078151D01*
X176333023Y-79016240D01*
X176334510Y-79014724D01*
X176428082Y-78921153D01*
X179199500Y-78921153D01*
X179199500Y-79078846D01*
X179230261Y-79233489D01*
X179230264Y-79233501D01*
X179290602Y-79379172D01*
X179290609Y-79379185D01*
X179378210Y-79510288D01*
X179378213Y-79510292D01*
X179489707Y-79621786D01*
X179489711Y-79621789D01*
X179620814Y-79709390D01*
X179620827Y-79709397D01*
X179737445Y-79757701D01*
X179766503Y-79769737D01*
X179921153Y-79800499D01*
X179921156Y-79800500D01*
X179921158Y-79800500D01*
X180078844Y-79800500D01*
X180078845Y-79800499D01*
X180233497Y-79769737D01*
X180379179Y-79709394D01*
X180510289Y-79621789D01*
X180621789Y-79510289D01*
X180709394Y-79379179D01*
X180769737Y-79233497D01*
X180789113Y-79136085D01*
X180800638Y-79078150D01*
X180833023Y-79016239D01*
X180834515Y-79014719D01*
X181480520Y-78368716D01*
X181559577Y-78231784D01*
X181600501Y-78079057D01*
X181600501Y-77920942D01*
X181600501Y-77913347D01*
X181600500Y-77913329D01*
X181600500Y-77079765D01*
X181620185Y-77012726D01*
X181621398Y-77010874D01*
X181709390Y-76879185D01*
X181709390Y-76879184D01*
X181709394Y-76879179D01*
X181769737Y-76733497D01*
X181800500Y-76578842D01*
X181800500Y-76421158D01*
X181800500Y-76421155D01*
X181800499Y-76421153D01*
X181769737Y-76266503D01*
X181769735Y-76266498D01*
X181709397Y-76120827D01*
X181709390Y-76120814D01*
X181694509Y-76098543D01*
X186499499Y-76098543D01*
X186537947Y-76291829D01*
X186537950Y-76291839D01*
X186613364Y-76473907D01*
X186613371Y-76473920D01*
X186722860Y-76637781D01*
X186722863Y-76637785D01*
X186862214Y-76777136D01*
X186862218Y-76777139D01*
X187026079Y-76886628D01*
X187026092Y-76886635D01*
X187208160Y-76962049D01*
X187208165Y-76962051D01*
X187208169Y-76962051D01*
X187208170Y-76962052D01*
X187401456Y-77000500D01*
X187401459Y-77000500D01*
X187598543Y-77000500D01*
X187728582Y-76974632D01*
X187791835Y-76962051D01*
X187973914Y-76886632D01*
X188137782Y-76777139D01*
X188277139Y-76637782D01*
X188386632Y-76473914D01*
X188462051Y-76291835D01*
X188496067Y-76120827D01*
X188500500Y-76098543D01*
X188500500Y-75901456D01*
X188462052Y-75708170D01*
X188462051Y-75708169D01*
X188462051Y-75708165D01*
X188416623Y-75598491D01*
X188386635Y-75526092D01*
X188386628Y-75526079D01*
X188277139Y-75362218D01*
X188277136Y-75362214D01*
X188137785Y-75222863D01*
X188137781Y-75222860D01*
X187973920Y-75113371D01*
X187973907Y-75113364D01*
X187791839Y-75037950D01*
X187791829Y-75037947D01*
X187598543Y-74999500D01*
X187598541Y-74999500D01*
X187401459Y-74999500D01*
X187401457Y-74999500D01*
X187208170Y-75037947D01*
X187208160Y-75037950D01*
X187026092Y-75113364D01*
X187026079Y-75113371D01*
X186862218Y-75222860D01*
X186862214Y-75222863D01*
X186722863Y-75362214D01*
X186722860Y-75362218D01*
X186613371Y-75526079D01*
X186613364Y-75526092D01*
X186537950Y-75708160D01*
X186537947Y-75708170D01*
X186499500Y-75901456D01*
X186499500Y-75901459D01*
X186499500Y-76098541D01*
X186499500Y-76098543D01*
X186499499Y-76098543D01*
X181694509Y-76098543D01*
X181621789Y-75989711D01*
X181621786Y-75989707D01*
X181510292Y-75878213D01*
X181510288Y-75878210D01*
X181379185Y-75790609D01*
X181379172Y-75790602D01*
X181233501Y-75730264D01*
X181233489Y-75730261D01*
X181078845Y-75699500D01*
X181078842Y-75699500D01*
X180921158Y-75699500D01*
X180921155Y-75699500D01*
X180766510Y-75730261D01*
X180766498Y-75730264D01*
X180620827Y-75790602D01*
X180620814Y-75790609D01*
X180489711Y-75878210D01*
X180489707Y-75878213D01*
X180378213Y-75989707D01*
X180378210Y-75989711D01*
X180290609Y-76120814D01*
X180290602Y-76120827D01*
X180230264Y-76266498D01*
X180230261Y-76266510D01*
X180199500Y-76421153D01*
X180199500Y-76578846D01*
X180230261Y-76733489D01*
X180230264Y-76733501D01*
X180290602Y-76879172D01*
X180290609Y-76879185D01*
X180378602Y-77010874D01*
X180399480Y-77077551D01*
X180399500Y-77079765D01*
X180399500Y-77699902D01*
X180379815Y-77766941D01*
X180363181Y-77787583D01*
X179985339Y-78165425D01*
X179924016Y-78198910D01*
X179921850Y-78199361D01*
X179766508Y-78230261D01*
X179766498Y-78230264D01*
X179620827Y-78290602D01*
X179620814Y-78290609D01*
X179489711Y-78378210D01*
X179489707Y-78378213D01*
X179378213Y-78489707D01*
X179378210Y-78489711D01*
X179290609Y-78620814D01*
X179290602Y-78620827D01*
X179230264Y-78766498D01*
X179230261Y-78766510D01*
X179199500Y-78921153D01*
X176428082Y-78921153D01*
X176480520Y-78868716D01*
X176487700Y-78856280D01*
X176489556Y-78853066D01*
X176539532Y-78766503D01*
X176559577Y-78731784D01*
X176600501Y-78579057D01*
X176600501Y-78420942D01*
X176600501Y-78413347D01*
X176600500Y-78413329D01*
X176600500Y-77079765D01*
X176620185Y-77012726D01*
X176621398Y-77010874D01*
X176709390Y-76879185D01*
X176709390Y-76879184D01*
X176709394Y-76879179D01*
X176769737Y-76733497D01*
X176800500Y-76578842D01*
X176800500Y-76421158D01*
X176800500Y-76421155D01*
X176800499Y-76421153D01*
X176769737Y-76266503D01*
X176769735Y-76266498D01*
X176709397Y-76120827D01*
X176709390Y-76120814D01*
X176621789Y-75989711D01*
X176621786Y-75989707D01*
X176510292Y-75878213D01*
X176510288Y-75878210D01*
X176379185Y-75790609D01*
X176379172Y-75790602D01*
X176233501Y-75730264D01*
X176233489Y-75730261D01*
X176078845Y-75699500D01*
X176078842Y-75699500D01*
X175921158Y-75699500D01*
X175921155Y-75699500D01*
X175766510Y-75730261D01*
X175766498Y-75730264D01*
X175620827Y-75790602D01*
X175620814Y-75790609D01*
X175489711Y-75878210D01*
X175489707Y-75878213D01*
X175378213Y-75989707D01*
X175378210Y-75989711D01*
X175290609Y-76120814D01*
X175290602Y-76120827D01*
X175230264Y-76266498D01*
X175230261Y-76266510D01*
X175199500Y-76421153D01*
X175199500Y-76578846D01*
X175230261Y-76733489D01*
X175230264Y-76733501D01*
X175290602Y-76879172D01*
X175290609Y-76879185D01*
X175378602Y-77010874D01*
X175399480Y-77077551D01*
X175399500Y-77079765D01*
X175399500Y-78102044D01*
X175379815Y-78169083D01*
X175327011Y-78214838D01*
X175299691Y-78223661D01*
X175266510Y-78230261D01*
X175266498Y-78230264D01*
X175120827Y-78290602D01*
X175120814Y-78290609D01*
X174989711Y-78378210D01*
X174989707Y-78378213D01*
X174878213Y-78489707D01*
X174878210Y-78489711D01*
X174827602Y-78565451D01*
X174773989Y-78610256D01*
X174704664Y-78618963D01*
X174641637Y-78588808D01*
X174604918Y-78529365D01*
X174600500Y-78496560D01*
X174600500Y-72800097D01*
X174620185Y-72733058D01*
X174636819Y-72712416D01*
X177761528Y-69587707D01*
X181014662Y-66334572D01*
X181075983Y-66301089D01*
X181078150Y-66300638D01*
X181148671Y-66286610D01*
X181233497Y-66269737D01*
X181379179Y-66209394D01*
X181510289Y-66121789D01*
X181621789Y-66010289D01*
X181709394Y-65879179D01*
X181769737Y-65733497D01*
X181800500Y-65578842D01*
X181800500Y-65421158D01*
X181800500Y-65421155D01*
X181800499Y-65421153D01*
X181788451Y-65360586D01*
X181769737Y-65266503D01*
X181733959Y-65180127D01*
X181709397Y-65120827D01*
X181709390Y-65120814D01*
X181621789Y-64989711D01*
X181621786Y-64989707D01*
X181510292Y-64878213D01*
X181510288Y-64878210D01*
X181379185Y-64790609D01*
X181379172Y-64790602D01*
X181233501Y-64730264D01*
X181233489Y-64730261D01*
X181078845Y-64699500D01*
X181078842Y-64699500D01*
X180921158Y-64699500D01*
X180921155Y-64699500D01*
X180766510Y-64730261D01*
X180766498Y-64730264D01*
X180620827Y-64790602D01*
X180620814Y-64790609D01*
X180489711Y-64878210D01*
X180489707Y-64878213D01*
X180378213Y-64989707D01*
X180378210Y-64989711D01*
X180290609Y-65120814D01*
X180290602Y-65120827D01*
X180230264Y-65266498D01*
X180230261Y-65266508D01*
X180199361Y-65421850D01*
X180166976Y-65483761D01*
X180165425Y-65485339D01*
X173519481Y-72131282D01*
X173519479Y-72131285D01*
X173469361Y-72218094D01*
X173469359Y-72218096D01*
X173440425Y-72268209D01*
X173440424Y-72268210D01*
X173440423Y-72268215D01*
X173399499Y-72420943D01*
X173399499Y-72420945D01*
X173399499Y-72589046D01*
X173399500Y-72589059D01*
X173399500Y-84820234D01*
X173379815Y-84887273D01*
X173378602Y-84889125D01*
X173290609Y-85020814D01*
X173290602Y-85020827D01*
X173230264Y-85166498D01*
X173230261Y-85166510D01*
X173199500Y-85321153D01*
X173199500Y-85478846D01*
X173230261Y-85633489D01*
X173230264Y-85633501D01*
X173282617Y-85759893D01*
X173290086Y-85829362D01*
X173258811Y-85891841D01*
X173255737Y-85895026D01*
X172485339Y-86665425D01*
X172424016Y-86698910D01*
X172421850Y-86699361D01*
X172266508Y-86730261D01*
X172266498Y-86730264D01*
X172120827Y-86790602D01*
X172120814Y-86790609D01*
X171989711Y-86878210D01*
X171989707Y-86878213D01*
X171878213Y-86989707D01*
X171878210Y-86989711D01*
X171790609Y-87120814D01*
X171790602Y-87120827D01*
X171730264Y-87266498D01*
X171730261Y-87266510D01*
X171699500Y-87421153D01*
X154100500Y-87421153D01*
X154100500Y-87188389D01*
X154073402Y-87017299D01*
X154019873Y-86852555D01*
X153941232Y-86698212D01*
X153839414Y-86558072D01*
X153716928Y-86435586D01*
X153576788Y-86333768D01*
X153422445Y-86255127D01*
X153257701Y-86201598D01*
X153257699Y-86201597D01*
X153257698Y-86201597D01*
X153126271Y-86180781D01*
X153086611Y-86174500D01*
X152913389Y-86174500D01*
X152873728Y-86180781D01*
X152742302Y-86201597D01*
X152577552Y-86255128D01*
X152423211Y-86333768D01*
X152375120Y-86368709D01*
X152283072Y-86435586D01*
X152283070Y-86435588D01*
X152283069Y-86435588D01*
X152160588Y-86558069D01*
X152160581Y-86558078D01*
X152100317Y-86641023D01*
X152044987Y-86683689D01*
X151975374Y-86689667D01*
X151913579Y-86657061D01*
X151899683Y-86641023D01*
X151839418Y-86558078D01*
X151839414Y-86558072D01*
X151716928Y-86435586D01*
X151576788Y-86333768D01*
X151422445Y-86255127D01*
X151257701Y-86201598D01*
X151257699Y-86201597D01*
X151257698Y-86201597D01*
X151126271Y-86180781D01*
X151086611Y-86174500D01*
X150913389Y-86174500D01*
X150873728Y-86180781D01*
X150742302Y-86201597D01*
X150577552Y-86255128D01*
X150423211Y-86333768D01*
X150375120Y-86368709D01*
X150283072Y-86435586D01*
X150283070Y-86435588D01*
X150283069Y-86435588D01*
X150160588Y-86558069D01*
X150160588Y-86558070D01*
X150160586Y-86558072D01*
X150160582Y-86558078D01*
X150058768Y-86698211D01*
X149980128Y-86852552D01*
X149926597Y-87017302D01*
X149926597Y-87017304D01*
X149899500Y-87188389D01*
X147100500Y-87188389D01*
X147073402Y-87017299D01*
X147019873Y-86852555D01*
X146941232Y-86698212D01*
X146839414Y-86558072D01*
X146716928Y-86435586D01*
X146576788Y-86333768D01*
X146422445Y-86255127D01*
X146257701Y-86201598D01*
X146257699Y-86201597D01*
X146257698Y-86201597D01*
X146126271Y-86180781D01*
X146086611Y-86174500D01*
X145913389Y-86174500D01*
X145873728Y-86180781D01*
X145742302Y-86201597D01*
X145577552Y-86255128D01*
X145423211Y-86333768D01*
X145283073Y-86435585D01*
X145175530Y-86543128D01*
X145114207Y-86576612D01*
X145044515Y-86571628D01*
X144988582Y-86529756D01*
X144982310Y-86520543D01*
X144942712Y-86456344D01*
X144818656Y-86332288D01*
X144693559Y-86255128D01*
X144669336Y-86240187D01*
X144669331Y-86240185D01*
X144667862Y-86239698D01*
X144502797Y-86185001D01*
X144502795Y-86185000D01*
X144400010Y-86174500D01*
X143599998Y-86174500D01*
X143599980Y-86174501D01*
X143497203Y-86185000D01*
X143497200Y-86185001D01*
X143330668Y-86240185D01*
X143330663Y-86240187D01*
X143181342Y-86332289D01*
X143057289Y-86456342D01*
X142965187Y-86605663D01*
X142965186Y-86605666D01*
X142910001Y-86772203D01*
X142910001Y-86772204D01*
X142910000Y-86772204D01*
X142899500Y-86874983D01*
X140027160Y-86874983D01*
X140019873Y-86852555D01*
X139941232Y-86698212D01*
X139839414Y-86558072D01*
X139716928Y-86435586D01*
X139576788Y-86333768D01*
X139422445Y-86255127D01*
X139257701Y-86201598D01*
X139257699Y-86201597D01*
X139257698Y-86201597D01*
X139126271Y-86180781D01*
X139086611Y-86174500D01*
X138913389Y-86174500D01*
X138873728Y-86180781D01*
X138742302Y-86201597D01*
X138577552Y-86255128D01*
X138423211Y-86333768D01*
X138375120Y-86368709D01*
X138283072Y-86435586D01*
X138283070Y-86435588D01*
X138283069Y-86435588D01*
X138160588Y-86558069D01*
X138160581Y-86558078D01*
X138100317Y-86641023D01*
X138044987Y-86683689D01*
X137975374Y-86689667D01*
X137913579Y-86657061D01*
X137899683Y-86641023D01*
X137839418Y-86558078D01*
X137839414Y-86558072D01*
X137716928Y-86435586D01*
X137576788Y-86333768D01*
X137422445Y-86255127D01*
X137257701Y-86201598D01*
X137257699Y-86201597D01*
X137257698Y-86201597D01*
X137126271Y-86180781D01*
X137086611Y-86174500D01*
X136913389Y-86174500D01*
X136873728Y-86180781D01*
X136742302Y-86201597D01*
X136577552Y-86255128D01*
X136423211Y-86333768D01*
X136375120Y-86368709D01*
X136283072Y-86435586D01*
X136283070Y-86435588D01*
X136283069Y-86435588D01*
X136160588Y-86558069D01*
X136160588Y-86558070D01*
X136160586Y-86558072D01*
X136160582Y-86558078D01*
X136058768Y-86698211D01*
X135980128Y-86852552D01*
X135926597Y-87017302D01*
X135926597Y-87017304D01*
X135899500Y-87188389D01*
X125500500Y-87188389D01*
X125500500Y-84598543D01*
X126999499Y-84598543D01*
X127037947Y-84791829D01*
X127037950Y-84791839D01*
X127113364Y-84973907D01*
X127113371Y-84973920D01*
X127222860Y-85137781D01*
X127222863Y-85137785D01*
X127362214Y-85277136D01*
X127362218Y-85277139D01*
X127526079Y-85386628D01*
X127526092Y-85386635D01*
X127708160Y-85462049D01*
X127708165Y-85462051D01*
X127708169Y-85462051D01*
X127708170Y-85462052D01*
X127901456Y-85500500D01*
X127901459Y-85500500D01*
X128098543Y-85500500D01*
X128228582Y-85474632D01*
X128291835Y-85462051D01*
X128473914Y-85386632D01*
X128637782Y-85277139D01*
X128777139Y-85137782D01*
X128886632Y-84973914D01*
X128962051Y-84791835D01*
X128980418Y-84699500D01*
X129000500Y-84598543D01*
X129000500Y-84401456D01*
X128962052Y-84208170D01*
X128962051Y-84208169D01*
X128962051Y-84208165D01*
X128962049Y-84208160D01*
X128886635Y-84026092D01*
X128886628Y-84026079D01*
X128777139Y-83862218D01*
X128777136Y-83862214D01*
X128637785Y-83722863D01*
X128637781Y-83722860D01*
X128473920Y-83613371D01*
X128473907Y-83613364D01*
X128291839Y-83537950D01*
X128291829Y-83537947D01*
X128098543Y-83499500D01*
X128098541Y-83499500D01*
X127901459Y-83499500D01*
X127901457Y-83499500D01*
X127708170Y-83537947D01*
X127708160Y-83537950D01*
X127526092Y-83613364D01*
X127526079Y-83613371D01*
X127362218Y-83722860D01*
X127362214Y-83722863D01*
X127222863Y-83862214D01*
X127222860Y-83862218D01*
X127113371Y-84026079D01*
X127113364Y-84026092D01*
X127037950Y-84208160D01*
X127037947Y-84208170D01*
X126999500Y-84401456D01*
X126999500Y-84401459D01*
X126999500Y-84598541D01*
X126999500Y-84598543D01*
X126999499Y-84598543D01*
X125500500Y-84598543D01*
X125500500Y-78374983D01*
X129399500Y-78374983D01*
X129399500Y-79625001D01*
X129399501Y-79625018D01*
X129410000Y-79727796D01*
X129410001Y-79727799D01*
X129463851Y-79890306D01*
X129465186Y-79894334D01*
X129557288Y-80043656D01*
X129557294Y-80043662D01*
X129558271Y-80044898D01*
X129558680Y-80045912D01*
X129561080Y-80049803D01*
X129560415Y-80050213D01*
X129584412Y-80109694D01*
X129571372Y-80178336D01*
X129561325Y-80194693D01*
X129558769Y-80198210D01*
X129480128Y-80352552D01*
X129426597Y-80517302D01*
X129399500Y-80688389D01*
X129399500Y-81311610D01*
X129416850Y-81421158D01*
X129426598Y-81482701D01*
X129480127Y-81647445D01*
X129558768Y-81801788D01*
X129660586Y-81941928D01*
X129783072Y-82064414D01*
X129923212Y-82166232D01*
X130077555Y-82244873D01*
X130242299Y-82298402D01*
X130413389Y-82325500D01*
X130413390Y-82325500D01*
X130586610Y-82325500D01*
X130586611Y-82325500D01*
X130757701Y-82298402D01*
X130922445Y-82244873D01*
X131076788Y-82166232D01*
X131216928Y-82064414D01*
X131339414Y-81941928D01*
X131399682Y-81858975D01*
X131455012Y-81816311D01*
X131524626Y-81810332D01*
X131586421Y-81842938D01*
X131600315Y-81858973D01*
X131660586Y-81941928D01*
X131783072Y-82064414D01*
X131923212Y-82166232D01*
X132077555Y-82244873D01*
X132242299Y-82298402D01*
X132413389Y-82325500D01*
X132413390Y-82325500D01*
X132586610Y-82325500D01*
X132586611Y-82325500D01*
X132757701Y-82298402D01*
X132922445Y-82244873D01*
X133076788Y-82166232D01*
X133216928Y-82064414D01*
X133339414Y-81941928D01*
X133441232Y-81801788D01*
X133519873Y-81647445D01*
X133573402Y-81482701D01*
X133600500Y-81311611D01*
X133600500Y-80688389D01*
X133573402Y-80517299D01*
X133519873Y-80352555D01*
X133441232Y-80198212D01*
X133350175Y-80072883D01*
X133326696Y-80007080D01*
X133342521Y-79939026D01*
X133350168Y-79927126D01*
X133441232Y-79801788D01*
X133519873Y-79647445D01*
X133573402Y-79482701D01*
X133600500Y-79311611D01*
X133600500Y-78688389D01*
X136399500Y-78688389D01*
X136399500Y-79311610D01*
X136419264Y-79436400D01*
X136426598Y-79482701D01*
X136472834Y-79625001D01*
X136480128Y-79647447D01*
X136558768Y-79801788D01*
X136649823Y-79927114D01*
X136673303Y-79992921D01*
X136657478Y-80060975D01*
X136649823Y-80072886D01*
X136558768Y-80198211D01*
X136480128Y-80352552D01*
X136426597Y-80517302D01*
X136399500Y-80688389D01*
X136399500Y-81311610D01*
X136416850Y-81421158D01*
X136426598Y-81482701D01*
X136480127Y-81647445D01*
X136558768Y-81801788D01*
X136660586Y-81941928D01*
X136783072Y-82064414D01*
X136923212Y-82166232D01*
X137077555Y-82244873D01*
X137242299Y-82298402D01*
X137413389Y-82325500D01*
X137413390Y-82325500D01*
X137586610Y-82325500D01*
X137586611Y-82325500D01*
X137757701Y-82298402D01*
X137922445Y-82244873D01*
X138076788Y-82166232D01*
X138216928Y-82064414D01*
X138324472Y-81956869D01*
X138385791Y-81923387D01*
X138455483Y-81928371D01*
X138511417Y-81970242D01*
X138517688Y-81979456D01*
X138557285Y-82043652D01*
X138557288Y-82043656D01*
X138681344Y-82167712D01*
X138830666Y-82259814D01*
X138997203Y-82314999D01*
X139099991Y-82325500D01*
X139900008Y-82325499D01*
X139900016Y-82325498D01*
X139900019Y-82325498D01*
X139966997Y-82318656D01*
X140002797Y-82314999D01*
X140169334Y-82259814D01*
X140318656Y-82167712D01*
X140442712Y-82043656D01*
X140534814Y-81894334D01*
X140589999Y-81727797D01*
X140600500Y-81625009D01*
X140600499Y-80374992D01*
X140589999Y-80272203D01*
X140534814Y-80105666D01*
X140442712Y-79956344D01*
X140442704Y-79956336D01*
X140441729Y-79955102D01*
X140441319Y-79954087D01*
X140438920Y-79950197D01*
X140439584Y-79949786D01*
X140415588Y-79890306D01*
X140428628Y-79821664D01*
X140438680Y-79805301D01*
X140441230Y-79801791D01*
X140441888Y-79800500D01*
X140519873Y-79647445D01*
X140573402Y-79482701D01*
X140600500Y-79311611D01*
X140600500Y-78688389D01*
X140573402Y-78517299D01*
X140527160Y-78374983D01*
X143399500Y-78374983D01*
X143399500Y-79625001D01*
X143399501Y-79625018D01*
X143410000Y-79727796D01*
X143410001Y-79727799D01*
X143463851Y-79890306D01*
X143465186Y-79894334D01*
X143557288Y-80043656D01*
X143557294Y-80043662D01*
X143558271Y-80044898D01*
X143558680Y-80045912D01*
X143561080Y-80049803D01*
X143560415Y-80050213D01*
X143584412Y-80109694D01*
X143571372Y-80178336D01*
X143561325Y-80194693D01*
X143558769Y-80198210D01*
X143480128Y-80352552D01*
X143426597Y-80517302D01*
X143399500Y-80688389D01*
X143399500Y-81311610D01*
X143416850Y-81421158D01*
X143426598Y-81482701D01*
X143480127Y-81647445D01*
X143558768Y-81801788D01*
X143660586Y-81941928D01*
X143783072Y-82064414D01*
X143923212Y-82166232D01*
X144077555Y-82244873D01*
X144242299Y-82298402D01*
X144413389Y-82325500D01*
X144413390Y-82325500D01*
X144586610Y-82325500D01*
X144586611Y-82325500D01*
X144757701Y-82298402D01*
X144922445Y-82244873D01*
X145076788Y-82166232D01*
X145216928Y-82064414D01*
X145339414Y-81941928D01*
X145399682Y-81858975D01*
X145455012Y-81816311D01*
X145524626Y-81810332D01*
X145586421Y-81842938D01*
X145600315Y-81858973D01*
X145660586Y-81941928D01*
X145783072Y-82064414D01*
X145923212Y-82166232D01*
X146077555Y-82244873D01*
X146242299Y-82298402D01*
X146413389Y-82325500D01*
X146413390Y-82325500D01*
X146586610Y-82325500D01*
X146586611Y-82325500D01*
X146757701Y-82298402D01*
X146922445Y-82244873D01*
X147076788Y-82166232D01*
X147216928Y-82064414D01*
X147339414Y-81941928D01*
X147441232Y-81801788D01*
X147519873Y-81647445D01*
X147573402Y-81482701D01*
X147600500Y-81311611D01*
X147600500Y-80688389D01*
X147573402Y-80517299D01*
X147519873Y-80352555D01*
X147441232Y-80198212D01*
X147350175Y-80072883D01*
X147326696Y-80007080D01*
X147342521Y-79939026D01*
X147350168Y-79927126D01*
X147441232Y-79801788D01*
X147519873Y-79647445D01*
X147573402Y-79482701D01*
X147584380Y-79413389D01*
X155674500Y-79413389D01*
X155674500Y-79586611D01*
X155680583Y-79625018D01*
X155696861Y-79727797D01*
X155701598Y-79757701D01*
X155755127Y-79922445D01*
X155833768Y-80076788D01*
X155935586Y-80216928D01*
X155935588Y-80216930D01*
X156043127Y-80324469D01*
X156076612Y-80385792D01*
X156071628Y-80455484D01*
X156029756Y-80511417D01*
X156020544Y-80517688D01*
X155956344Y-80557287D01*
X155832289Y-80681342D01*
X155740187Y-80830663D01*
X155740186Y-80830666D01*
X155685001Y-80997203D01*
X155685001Y-80997204D01*
X155685000Y-80997204D01*
X155674500Y-81099983D01*
X155674500Y-81900001D01*
X155674501Y-81900019D01*
X155685000Y-82002796D01*
X155685001Y-82002799D01*
X155710253Y-82079002D01*
X155740186Y-82169334D01*
X155832288Y-82318656D01*
X155956344Y-82442712D01*
X156105666Y-82534814D01*
X156272203Y-82589999D01*
X156374991Y-82600500D01*
X157625008Y-82600499D01*
X157727797Y-82589999D01*
X157894334Y-82534814D01*
X158043656Y-82442712D01*
X158043667Y-82442700D01*
X158044898Y-82441729D01*
X158045912Y-82441319D01*
X158049803Y-82438920D01*
X158050213Y-82439584D01*
X158109694Y-82415588D01*
X158178336Y-82428628D01*
X158194699Y-82438680D01*
X158198202Y-82441225D01*
X158198212Y-82441232D01*
X158352555Y-82519873D01*
X158517299Y-82573402D01*
X158688389Y-82600500D01*
X158688390Y-82600500D01*
X159311610Y-82600500D01*
X159311611Y-82600500D01*
X159482701Y-82573402D01*
X159647445Y-82519873D01*
X159801788Y-82441232D01*
X159941928Y-82339414D01*
X160064414Y-82216928D01*
X160166232Y-82076788D01*
X160244873Y-81922445D01*
X160298402Y-81757701D01*
X160325500Y-81586611D01*
X160325500Y-81421153D01*
X161699500Y-81421153D01*
X161699500Y-81578846D01*
X161730261Y-81733489D01*
X161730264Y-81733501D01*
X161790602Y-81879172D01*
X161790609Y-81879185D01*
X161878601Y-82010873D01*
X161897467Y-82071124D01*
X161898438Y-82070997D01*
X161899171Y-82076568D01*
X161899479Y-82077550D01*
X161899492Y-82079002D01*
X161899498Y-82079054D01*
X161936442Y-82216930D01*
X161940423Y-82231785D01*
X161956605Y-82259812D01*
X161956606Y-82259815D01*
X161956607Y-82259815D01*
X162002561Y-82339411D01*
X162019479Y-82368714D01*
X162019481Y-82368717D01*
X162138349Y-82487585D01*
X162138355Y-82487590D01*
X165165425Y-85514660D01*
X165198910Y-85575983D01*
X165199361Y-85578149D01*
X165230261Y-85733491D01*
X165230264Y-85733501D01*
X165290602Y-85879172D01*
X165290609Y-85879185D01*
X165378210Y-86010288D01*
X165378213Y-86010292D01*
X165489707Y-86121786D01*
X165489711Y-86121789D01*
X165620814Y-86209390D01*
X165620827Y-86209397D01*
X165695162Y-86240187D01*
X165766503Y-86269737D01*
X165921153Y-86300499D01*
X165921156Y-86300500D01*
X165921158Y-86300500D01*
X166078844Y-86300500D01*
X166078845Y-86300499D01*
X166233497Y-86269737D01*
X166379179Y-86209394D01*
X166510289Y-86121789D01*
X166621789Y-86010289D01*
X166709394Y-85879179D01*
X166769737Y-85733497D01*
X166800500Y-85578842D01*
X166800500Y-85421158D01*
X166800500Y-85421155D01*
X166800499Y-85421153D01*
X166793632Y-85386632D01*
X166769737Y-85266503D01*
X166716421Y-85137785D01*
X166709397Y-85120827D01*
X166709390Y-85120814D01*
X166621789Y-84989711D01*
X166621786Y-84989707D01*
X166510292Y-84878213D01*
X166510288Y-84878210D01*
X166379185Y-84790609D01*
X166379172Y-84790602D01*
X166233501Y-84730264D01*
X166233491Y-84730261D01*
X166078149Y-84699361D01*
X166016238Y-84666976D01*
X166014660Y-84665425D01*
X163273551Y-81924316D01*
X163240066Y-81862993D01*
X163245050Y-81793301D01*
X163246671Y-81789182D01*
X163259711Y-81757701D01*
X163269737Y-81733497D01*
X163300500Y-81578842D01*
X163300500Y-81421158D01*
X163300500Y-81421155D01*
X163300499Y-81421153D01*
X163298955Y-81413389D01*
X163269737Y-81266503D01*
X163259713Y-81242302D01*
X163209397Y-81120827D01*
X163209390Y-81120814D01*
X163121789Y-80989711D01*
X163121786Y-80989707D01*
X163010292Y-80878213D01*
X163010288Y-80878210D01*
X162879185Y-80790609D01*
X162879172Y-80790602D01*
X162733501Y-80730264D01*
X162733489Y-80730261D01*
X162578845Y-80699500D01*
X162578842Y-80699500D01*
X162421158Y-80699500D01*
X162421155Y-80699500D01*
X162266510Y-80730261D01*
X162266498Y-80730264D01*
X162120827Y-80790602D01*
X162120814Y-80790609D01*
X161989711Y-80878210D01*
X161989707Y-80878213D01*
X161878213Y-80989707D01*
X161878210Y-80989711D01*
X161790609Y-81120814D01*
X161790602Y-81120827D01*
X161730264Y-81266498D01*
X161730261Y-81266510D01*
X161699500Y-81421153D01*
X160325500Y-81421153D01*
X160325500Y-81413389D01*
X160298402Y-81242299D01*
X160244873Y-81077555D01*
X160166232Y-80923212D01*
X160064414Y-80783072D01*
X159941928Y-80660586D01*
X159858975Y-80600317D01*
X159816311Y-80544988D01*
X159810332Y-80475374D01*
X159842938Y-80413579D01*
X159858976Y-80399682D01*
X159941928Y-80339414D01*
X160064414Y-80216928D01*
X160166232Y-80076788D01*
X160244873Y-79922445D01*
X160298402Y-79757701D01*
X160325500Y-79586611D01*
X160325500Y-79413389D01*
X160298402Y-79242299D01*
X160244873Y-79077555D01*
X160166232Y-78923212D01*
X160064414Y-78783072D01*
X159941928Y-78660586D01*
X159801788Y-78558768D01*
X159647445Y-78480127D01*
X159482701Y-78426598D01*
X159482699Y-78426597D01*
X159482698Y-78426597D01*
X159351271Y-78405781D01*
X159311611Y-78399500D01*
X158688389Y-78399500D01*
X158648728Y-78405781D01*
X158517302Y-78426597D01*
X158352552Y-78480128D01*
X158198211Y-78558768D01*
X158072886Y-78649823D01*
X158007079Y-78673303D01*
X157939025Y-78657478D01*
X157927114Y-78649823D01*
X157801788Y-78558768D01*
X157647447Y-78480128D01*
X157647446Y-78480127D01*
X157647445Y-78480127D01*
X157482701Y-78426598D01*
X157482699Y-78426597D01*
X157482698Y-78426597D01*
X157351271Y-78405781D01*
X157311611Y-78399500D01*
X156688389Y-78399500D01*
X156648728Y-78405781D01*
X156517302Y-78426597D01*
X156352552Y-78480128D01*
X156198211Y-78558768D01*
X156127345Y-78610256D01*
X156058072Y-78660586D01*
X156058070Y-78660588D01*
X156058069Y-78660588D01*
X155935588Y-78783069D01*
X155935588Y-78783070D01*
X155935586Y-78783072D01*
X155891859Y-78843256D01*
X155833768Y-78923211D01*
X155755128Y-79077552D01*
X155701597Y-79242302D01*
X155690620Y-79311610D01*
X155674500Y-79413389D01*
X147584380Y-79413389D01*
X147600500Y-79311611D01*
X147600500Y-78688389D01*
X147573402Y-78517299D01*
X147519873Y-78352555D01*
X147441232Y-78198212D01*
X147339414Y-78058072D01*
X147216928Y-77935586D01*
X147076788Y-77833768D01*
X146986144Y-77787583D01*
X146922447Y-77755128D01*
X146922446Y-77755127D01*
X146922445Y-77755127D01*
X146757701Y-77701598D01*
X146757699Y-77701597D01*
X146757698Y-77701597D01*
X146626271Y-77680781D01*
X146586611Y-77674500D01*
X146413389Y-77674500D01*
X146373728Y-77680781D01*
X146242302Y-77701597D01*
X146077552Y-77755128D01*
X145923211Y-77833768D01*
X145783073Y-77935585D01*
X145675530Y-78043128D01*
X145614207Y-78076612D01*
X145544515Y-78071628D01*
X145488582Y-78029756D01*
X145482310Y-78020543D01*
X145442712Y-77956344D01*
X145318656Y-77832288D01*
X145193559Y-77755128D01*
X145169336Y-77740187D01*
X145169331Y-77740185D01*
X145167862Y-77739698D01*
X145002797Y-77685001D01*
X145002795Y-77685000D01*
X144900010Y-77674500D01*
X144099998Y-77674500D01*
X144099980Y-77674501D01*
X143997203Y-77685000D01*
X143997200Y-77685001D01*
X143830668Y-77740185D01*
X143830663Y-77740187D01*
X143681342Y-77832289D01*
X143557289Y-77956342D01*
X143465187Y-78105663D01*
X143465186Y-78105666D01*
X143410001Y-78272203D01*
X143410001Y-78272204D01*
X143410000Y-78272204D01*
X143399500Y-78374983D01*
X140527160Y-78374983D01*
X140519873Y-78352555D01*
X140441232Y-78198212D01*
X140339414Y-78058072D01*
X140216928Y-77935586D01*
X140076788Y-77833768D01*
X139986144Y-77787583D01*
X139922447Y-77755128D01*
X139922446Y-77755127D01*
X139922445Y-77755127D01*
X139757701Y-77701598D01*
X139757699Y-77701597D01*
X139757698Y-77701597D01*
X139626271Y-77680781D01*
X139586611Y-77674500D01*
X139413389Y-77674500D01*
X139373728Y-77680781D01*
X139242302Y-77701597D01*
X139077552Y-77755128D01*
X138923211Y-77833768D01*
X138843256Y-77891859D01*
X138783072Y-77935586D01*
X138783070Y-77935588D01*
X138783069Y-77935588D01*
X138660588Y-78058069D01*
X138660581Y-78058078D01*
X138600317Y-78141023D01*
X138544987Y-78183689D01*
X138475374Y-78189667D01*
X138413579Y-78157061D01*
X138399683Y-78141023D01*
X138339418Y-78058078D01*
X138339414Y-78058072D01*
X138216928Y-77935586D01*
X138076788Y-77833768D01*
X137986144Y-77787583D01*
X137922447Y-77755128D01*
X137922446Y-77755127D01*
X137922445Y-77755127D01*
X137757701Y-77701598D01*
X137757699Y-77701597D01*
X137757698Y-77701597D01*
X137626271Y-77680781D01*
X137586611Y-77674500D01*
X137413389Y-77674500D01*
X137373728Y-77680781D01*
X137242302Y-77701597D01*
X137077552Y-77755128D01*
X136923211Y-77833768D01*
X136843256Y-77891859D01*
X136783072Y-77935586D01*
X136783070Y-77935588D01*
X136783069Y-77935588D01*
X136660588Y-78058069D01*
X136660588Y-78058070D01*
X136660586Y-78058072D01*
X136626009Y-78105663D01*
X136558768Y-78198211D01*
X136480128Y-78352552D01*
X136426597Y-78517302D01*
X136399500Y-78688389D01*
X133600500Y-78688389D01*
X133573402Y-78517299D01*
X133519873Y-78352555D01*
X133441232Y-78198212D01*
X133339414Y-78058072D01*
X133216928Y-77935586D01*
X133076788Y-77833768D01*
X132986144Y-77787583D01*
X132922447Y-77755128D01*
X132922446Y-77755127D01*
X132922445Y-77755127D01*
X132757701Y-77701598D01*
X132757699Y-77701597D01*
X132757698Y-77701597D01*
X132626271Y-77680781D01*
X132586611Y-77674500D01*
X132413389Y-77674500D01*
X132373728Y-77680781D01*
X132242302Y-77701597D01*
X132077552Y-77755128D01*
X131923211Y-77833768D01*
X131783073Y-77935585D01*
X131675530Y-78043128D01*
X131614207Y-78076612D01*
X131544515Y-78071628D01*
X131488582Y-78029756D01*
X131482310Y-78020543D01*
X131442712Y-77956344D01*
X131318656Y-77832288D01*
X131193559Y-77755128D01*
X131169336Y-77740187D01*
X131169331Y-77740185D01*
X131167862Y-77739698D01*
X131002797Y-77685001D01*
X131002795Y-77685000D01*
X130900010Y-77674500D01*
X130099998Y-77674500D01*
X130099980Y-77674501D01*
X129997203Y-77685000D01*
X129997200Y-77685001D01*
X129830668Y-77740185D01*
X129830663Y-77740187D01*
X129681342Y-77832289D01*
X129557289Y-77956342D01*
X129465187Y-78105663D01*
X129465186Y-78105666D01*
X129410001Y-78272203D01*
X129410001Y-78272204D01*
X129410000Y-78272204D01*
X129399500Y-78374983D01*
X125500500Y-78374983D01*
X125500500Y-66713389D01*
X128074500Y-66713389D01*
X128074500Y-66886610D01*
X128098701Y-67039414D01*
X128101598Y-67057701D01*
X128155127Y-67222445D01*
X128233768Y-67376788D01*
X128335586Y-67516928D01*
X128335588Y-67516930D01*
X128443127Y-67624469D01*
X128476612Y-67685792D01*
X128471628Y-67755484D01*
X128429756Y-67811417D01*
X128420544Y-67817688D01*
X128356344Y-67857287D01*
X128232289Y-67981342D01*
X128140187Y-68130663D01*
X128140186Y-68130666D01*
X128085001Y-68297203D01*
X128085001Y-68297204D01*
X128085000Y-68297204D01*
X128074500Y-68399983D01*
X128074500Y-69200001D01*
X128074501Y-69200019D01*
X128085000Y-69302796D01*
X128085001Y-69302799D01*
X128089647Y-69316819D01*
X128140186Y-69469334D01*
X128232288Y-69618656D01*
X128356344Y-69742712D01*
X128505666Y-69834814D01*
X128672203Y-69889999D01*
X128774991Y-69900500D01*
X130025008Y-69900499D01*
X130127797Y-69889999D01*
X130294334Y-69834814D01*
X130443656Y-69742712D01*
X130443667Y-69742700D01*
X130444898Y-69741729D01*
X130445912Y-69741319D01*
X130449803Y-69738920D01*
X130450213Y-69739584D01*
X130509694Y-69715588D01*
X130578336Y-69728628D01*
X130594699Y-69738680D01*
X130598202Y-69741225D01*
X130598212Y-69741232D01*
X130752555Y-69819873D01*
X130917299Y-69873402D01*
X131088389Y-69900500D01*
X131088390Y-69900500D01*
X131711610Y-69900500D01*
X131711611Y-69900500D01*
X131882701Y-69873402D01*
X132047445Y-69819873D01*
X132201788Y-69741232D01*
X132341928Y-69639414D01*
X132464414Y-69516928D01*
X132566232Y-69376788D01*
X132644873Y-69222445D01*
X132698402Y-69057701D01*
X132725500Y-68886611D01*
X132725500Y-68713389D01*
X132698402Y-68542299D01*
X132644873Y-68377555D01*
X132566232Y-68223212D01*
X132464414Y-68083072D01*
X132341928Y-67960586D01*
X132258975Y-67900317D01*
X132216311Y-67844988D01*
X132210332Y-67775374D01*
X132242938Y-67713579D01*
X132258976Y-67699682D01*
X132341928Y-67639414D01*
X132464414Y-67516928D01*
X132566232Y-67376788D01*
X132644873Y-67222445D01*
X132698402Y-67057701D01*
X132725500Y-66886611D01*
X132725500Y-66713389D01*
X132698402Y-66542299D01*
X132644873Y-66377555D01*
X132566232Y-66223212D01*
X132556190Y-66209390D01*
X132535858Y-66181405D01*
X132535856Y-66181403D01*
X132523439Y-66164313D01*
X132486441Y-66113389D01*
X132949500Y-66113389D01*
X132949500Y-66286611D01*
X132951700Y-66300500D01*
X132975013Y-66447697D01*
X132976598Y-66457701D01*
X133030127Y-66622445D01*
X133108768Y-66776788D01*
X133210586Y-66916928D01*
X133333072Y-67039414D01*
X133473212Y-67141232D01*
X133627555Y-67219873D01*
X133792299Y-67273402D01*
X133963389Y-67300500D01*
X133963390Y-67300500D01*
X135666615Y-67300500D01*
X135720108Y-67292027D01*
X135739507Y-67290500D01*
X137846610Y-67290500D01*
X137846611Y-67290500D01*
X138017701Y-67263402D01*
X138182445Y-67209873D01*
X138336788Y-67131232D01*
X138476928Y-67029414D01*
X138599414Y-66906928D01*
X138701232Y-66766788D01*
X138779873Y-66612445D01*
X138833402Y-66447701D01*
X138860500Y-66276611D01*
X138860500Y-66103389D01*
X138833402Y-65932299D01*
X138779873Y-65767555D01*
X138701232Y-65613212D01*
X138599414Y-65473072D01*
X138476928Y-65350586D01*
X138336788Y-65248768D01*
X138182445Y-65170127D01*
X138017701Y-65116598D01*
X138017699Y-65116597D01*
X138017698Y-65116597D01*
X137886271Y-65095781D01*
X137846611Y-65089500D01*
X135676611Y-65089500D01*
X135503389Y-65089500D01*
X135503385Y-65089500D01*
X135449892Y-65097973D01*
X135430493Y-65099500D01*
X133963389Y-65099500D01*
X133923728Y-65105781D01*
X133792302Y-65126597D01*
X133627552Y-65180128D01*
X133473211Y-65258768D01*
X133393256Y-65316859D01*
X133333072Y-65360586D01*
X133333070Y-65360588D01*
X133333069Y-65360588D01*
X133210588Y-65483069D01*
X133210588Y-65483070D01*
X133210586Y-65483072D01*
X133188662Y-65513248D01*
X133108768Y-65623211D01*
X133030128Y-65777552D01*
X132976597Y-65942302D01*
X132965829Y-66010289D01*
X132949500Y-66113389D01*
X132486441Y-66113389D01*
X132464414Y-66083072D01*
X132341928Y-65960586D01*
X132201788Y-65858768D01*
X132047445Y-65780127D01*
X131882701Y-65726598D01*
X131882699Y-65726597D01*
X131882698Y-65726597D01*
X131751271Y-65705781D01*
X131711611Y-65699500D01*
X131088389Y-65699500D01*
X131048728Y-65705781D01*
X130917302Y-65726597D01*
X130917299Y-65726598D01*
X130794464Y-65766510D01*
X130752552Y-65780128D01*
X130598211Y-65858768D01*
X130472886Y-65949823D01*
X130407079Y-65973303D01*
X130339025Y-65957478D01*
X130327114Y-65949823D01*
X130201788Y-65858768D01*
X130047447Y-65780128D01*
X130047446Y-65780127D01*
X130047445Y-65780127D01*
X129882701Y-65726598D01*
X129882699Y-65726597D01*
X129882698Y-65726597D01*
X129751271Y-65705781D01*
X129711611Y-65699500D01*
X129088389Y-65699500D01*
X129048728Y-65705781D01*
X128917302Y-65726597D01*
X128917299Y-65726598D01*
X128794464Y-65766510D01*
X128752552Y-65780128D01*
X128598211Y-65858768D01*
X128567217Y-65881287D01*
X128458072Y-65960586D01*
X128458070Y-65960588D01*
X128458069Y-65960588D01*
X128335588Y-66083069D01*
X128335588Y-66083070D01*
X128335586Y-66083072D01*
X128291859Y-66143256D01*
X128233768Y-66223211D01*
X128155128Y-66377552D01*
X128101597Y-66542302D01*
X128074500Y-66713389D01*
X125500500Y-66713389D01*
X125500500Y-59513389D01*
X128074500Y-59513389D01*
X128074500Y-59686611D01*
X128081414Y-59730263D01*
X128095190Y-59817246D01*
X128101598Y-59857701D01*
X128155127Y-60022445D01*
X128233768Y-60176788D01*
X128335586Y-60316928D01*
X128335588Y-60316930D01*
X128443127Y-60424469D01*
X128476612Y-60485792D01*
X128471628Y-60555484D01*
X128429756Y-60611417D01*
X128420544Y-60617688D01*
X128356344Y-60657287D01*
X128232289Y-60781342D01*
X128140187Y-60930663D01*
X128140186Y-60930666D01*
X128085001Y-61097203D01*
X128085001Y-61097204D01*
X128085000Y-61097204D01*
X128074500Y-61199983D01*
X128074500Y-62000001D01*
X128074501Y-62000019D01*
X128085000Y-62102796D01*
X128085001Y-62102799D01*
X128128311Y-62233497D01*
X128140186Y-62269334D01*
X128232288Y-62418656D01*
X128356344Y-62542712D01*
X128505666Y-62634814D01*
X128672203Y-62689999D01*
X128774991Y-62700500D01*
X130025008Y-62700499D01*
X130127797Y-62689999D01*
X130294334Y-62634814D01*
X130443656Y-62542712D01*
X130443667Y-62542700D01*
X130444898Y-62541729D01*
X130445912Y-62541319D01*
X130449803Y-62538920D01*
X130450213Y-62539584D01*
X130509694Y-62515588D01*
X130578336Y-62528628D01*
X130594699Y-62538680D01*
X130598202Y-62541225D01*
X130598212Y-62541232D01*
X130752555Y-62619873D01*
X130917299Y-62673402D01*
X131088389Y-62700500D01*
X131088390Y-62700500D01*
X131711610Y-62700500D01*
X131711611Y-62700500D01*
X131882701Y-62673402D01*
X132047445Y-62619873D01*
X132201788Y-62541232D01*
X132341928Y-62439414D01*
X132464414Y-62316928D01*
X132566232Y-62176788D01*
X132644873Y-62022445D01*
X132698402Y-61857701D01*
X132725500Y-61686611D01*
X132725500Y-61513389D01*
X132712152Y-61429113D01*
X132716057Y-61398895D01*
X132717689Y-61368462D01*
X132720492Y-61364574D01*
X132721107Y-61359820D01*
X132740732Y-61336505D01*
X132758555Y-61311791D01*
X132763015Y-61310036D01*
X132766103Y-61306368D01*
X132795214Y-61297366D01*
X132823573Y-61286209D01*
X132830159Y-61286562D01*
X132832854Y-61285729D01*
X132858812Y-61288098D01*
X132921158Y-61300500D01*
X132921159Y-61300500D01*
X132921848Y-61300637D01*
X132983759Y-61333022D01*
X132985337Y-61334573D01*
X133131284Y-61480520D01*
X133131286Y-61480521D01*
X133131290Y-61480524D01*
X133266345Y-61558497D01*
X133268216Y-61559577D01*
X133420943Y-61600501D01*
X133420945Y-61600501D01*
X133586654Y-61600501D01*
X133586670Y-61600500D01*
X145803872Y-61600500D01*
X145870911Y-61620185D01*
X145916666Y-61672989D01*
X145926610Y-61742147D01*
X145926350Y-61743861D01*
X145899500Y-61913389D01*
X145899500Y-62086611D01*
X145926598Y-62257701D01*
X145980127Y-62422445D01*
X146058768Y-62576788D01*
X146160586Y-62716928D01*
X147160586Y-63716928D01*
X147283072Y-63839414D01*
X147337794Y-63879172D01*
X147423207Y-63941229D01*
X147423209Y-63941230D01*
X147423212Y-63941232D01*
X147500318Y-63980519D01*
X147577550Y-64019871D01*
X147577552Y-64019871D01*
X147577555Y-64019873D01*
X147742299Y-64073403D01*
X147889996Y-64096795D01*
X147913389Y-64100500D01*
X147913390Y-64100500D01*
X148086611Y-64100500D01*
X150789781Y-64100500D01*
X150856820Y-64120185D01*
X150877462Y-64136819D01*
X155695177Y-68954534D01*
X155695206Y-68954565D01*
X155822335Y-69081694D01*
X155822343Y-69081700D01*
X155968187Y-69179150D01*
X156015654Y-69198811D01*
X156130251Y-69246279D01*
X156130255Y-69246279D01*
X156130256Y-69246280D01*
X156302290Y-69280501D01*
X156302293Y-69280501D01*
X156483821Y-69280501D01*
X156483841Y-69280500D01*
X161469781Y-69280500D01*
X161536820Y-69300185D01*
X161557462Y-69316819D01*
X162073181Y-69832538D01*
X162106666Y-69893861D01*
X162109500Y-69920219D01*
X162109500Y-75712513D01*
X162089815Y-75779552D01*
X162037011Y-75825307D01*
X161967853Y-75835251D01*
X161916610Y-75815616D01*
X161879183Y-75790608D01*
X161879172Y-75790602D01*
X161733501Y-75730264D01*
X161733491Y-75730261D01*
X161578149Y-75699361D01*
X161516238Y-75666976D01*
X161514660Y-75665425D01*
X160487590Y-74638355D01*
X160487588Y-74638352D01*
X160368715Y-74519479D01*
X160294676Y-74476734D01*
X160246460Y-74426167D01*
X160235059Y-74393544D01*
X160219736Y-74316504D01*
X160195598Y-74258231D01*
X160159396Y-74170828D01*
X160159389Y-74170815D01*
X160071788Y-74039712D01*
X160071785Y-74039708D01*
X159960291Y-73928214D01*
X159960287Y-73928211D01*
X159829184Y-73840610D01*
X159829171Y-73840603D01*
X159683500Y-73780265D01*
X159683488Y-73780262D01*
X159528844Y-73749501D01*
X159528841Y-73749501D01*
X159371157Y-73749501D01*
X159371154Y-73749501D01*
X159216509Y-73780262D01*
X159216497Y-73780265D01*
X159070826Y-73840603D01*
X159070813Y-73840610D01*
X158939710Y-73928211D01*
X158939706Y-73928214D01*
X158828212Y-74039708D01*
X158828209Y-74039712D01*
X158740608Y-74170815D01*
X158740601Y-74170828D01*
X158680263Y-74316499D01*
X158680260Y-74316511D01*
X158649499Y-74471154D01*
X158649499Y-74628847D01*
X158680260Y-74783490D01*
X158680263Y-74783502D01*
X158740601Y-74929173D01*
X158740608Y-74929186D01*
X158828209Y-75060289D01*
X158828212Y-75060293D01*
X158939706Y-75171787D01*
X158939710Y-75171790D01*
X159070813Y-75259391D01*
X159070826Y-75259398D01*
X159216497Y-75319736D01*
X159216502Y-75319738D01*
X159371157Y-75350501D01*
X159371846Y-75350638D01*
X159433757Y-75383023D01*
X159435336Y-75384574D01*
X159531282Y-75480520D01*
X159531284Y-75480521D01*
X159531288Y-75480524D01*
X159668207Y-75559573D01*
X159668214Y-75559577D01*
X159693669Y-75566397D01*
X159749256Y-75598491D01*
X160665425Y-76514660D01*
X160698910Y-76575983D01*
X160699361Y-76578149D01*
X160730261Y-76733491D01*
X160730264Y-76733501D01*
X160790602Y-76879172D01*
X160790609Y-76879185D01*
X160878210Y-77010288D01*
X160878213Y-77010292D01*
X160989707Y-77121786D01*
X160989711Y-77121789D01*
X161120814Y-77209390D01*
X161120827Y-77209397D01*
X161180148Y-77233968D01*
X161266503Y-77269737D01*
X161355733Y-77287486D01*
X161421153Y-77300499D01*
X161421156Y-77300500D01*
X161421158Y-77300500D01*
X161578844Y-77300500D01*
X161578845Y-77300499D01*
X161733497Y-77269737D01*
X161879179Y-77209394D01*
X161879184Y-77209390D01*
X161879187Y-77209389D01*
X161916608Y-77184385D01*
X161983285Y-77163506D01*
X162050666Y-77181990D01*
X162097356Y-77233968D01*
X162109500Y-77287486D01*
X162109500Y-78087711D01*
X162143719Y-78259741D01*
X162143721Y-78259749D01*
X162210849Y-78421812D01*
X162308299Y-78567656D01*
X162308305Y-78567664D01*
X162432335Y-78691694D01*
X162432343Y-78691700D01*
X162578187Y-78789150D01*
X162625654Y-78808811D01*
X162740251Y-78856279D01*
X162912288Y-78890499D01*
X162912292Y-78890500D01*
X162912293Y-78890500D01*
X163087708Y-78890500D01*
X163087709Y-78890499D01*
X163259749Y-78856279D01*
X163421810Y-78789151D01*
X163421810Y-78789150D01*
X163421812Y-78789150D01*
X163527311Y-78718658D01*
X163567661Y-78691697D01*
X163691697Y-78567661D01*
X163785952Y-78426598D01*
X163789150Y-78421812D01*
X163789151Y-78421810D01*
X163856279Y-78259749D01*
X163890500Y-78087707D01*
X163890500Y-69593841D01*
X163890501Y-69593820D01*
X163890501Y-69412290D01*
X163856280Y-69240256D01*
X163856279Y-69240255D01*
X163856279Y-69240251D01*
X163789151Y-69078190D01*
X163775461Y-69057701D01*
X163691697Y-68932338D01*
X163564565Y-68805206D01*
X163564534Y-68805177D01*
X162586037Y-67826680D01*
X162586017Y-67826658D01*
X162457664Y-67698305D01*
X162457656Y-67698299D01*
X162311812Y-67600849D01*
X162149749Y-67533721D01*
X162149743Y-67533719D01*
X161977709Y-67499499D01*
X161977707Y-67499499D01*
X161802293Y-67499499D01*
X161796179Y-67499499D01*
X161796159Y-67499500D01*
X158149097Y-67499500D01*
X158082058Y-67479815D01*
X158036303Y-67427011D01*
X158026359Y-67357853D01*
X158055384Y-67294297D01*
X158061416Y-67287819D01*
X160649736Y-64699500D01*
X163387417Y-61961819D01*
X163448740Y-61928334D01*
X163475098Y-61925500D01*
X167095234Y-61925500D01*
X167162273Y-61945185D01*
X167164125Y-61946398D01*
X167295814Y-62034390D01*
X167295827Y-62034397D01*
X167421885Y-62086611D01*
X167441503Y-62094737D01*
X167596153Y-62125499D01*
X167596156Y-62125500D01*
X167596158Y-62125500D01*
X167753844Y-62125500D01*
X167753845Y-62125499D01*
X167908497Y-62094737D01*
X168054179Y-62034394D01*
X168185289Y-61946789D01*
X168296789Y-61835289D01*
X168384394Y-61704179D01*
X168444737Y-61558497D01*
X168475500Y-61403842D01*
X168475500Y-61246158D01*
X168475500Y-61246155D01*
X168475499Y-61246153D01*
X168445871Y-61097204D01*
X168444737Y-61091503D01*
X168444735Y-61091498D01*
X168384397Y-60945827D01*
X168384390Y-60945814D01*
X168296789Y-60814711D01*
X168296786Y-60814707D01*
X168185292Y-60703213D01*
X168185288Y-60703210D01*
X168054185Y-60615609D01*
X168054172Y-60615602D01*
X167908501Y-60555264D01*
X167908489Y-60555261D01*
X167753845Y-60524500D01*
X167753842Y-60524500D01*
X167596158Y-60524500D01*
X167596155Y-60524500D01*
X167441510Y-60555261D01*
X167441498Y-60555264D01*
X167295827Y-60615602D01*
X167295814Y-60615609D01*
X167164125Y-60703602D01*
X167097447Y-60724480D01*
X167095234Y-60724500D01*
X163261670Y-60724500D01*
X163261654Y-60724499D01*
X163254058Y-60724499D01*
X163095943Y-60724499D01*
X163019579Y-60744961D01*
X162943214Y-60765423D01*
X162943209Y-60765426D01*
X162806290Y-60844475D01*
X162806282Y-60844481D01*
X158312181Y-65338583D01*
X158250858Y-65372068D01*
X158181166Y-65367084D01*
X158125233Y-65325212D01*
X158100816Y-65259748D01*
X158100500Y-65250902D01*
X158100500Y-62800097D01*
X158120185Y-62733058D01*
X158136819Y-62712416D01*
X158272447Y-62576788D01*
X158480520Y-62368716D01*
X158480521Y-62368714D01*
X158980520Y-61868716D01*
X159059577Y-61731784D01*
X159100501Y-61579057D01*
X159100501Y-61420942D01*
X159100501Y-61413347D01*
X159100500Y-61413329D01*
X159100500Y-60579765D01*
X159120185Y-60512726D01*
X159121398Y-60510874D01*
X159209390Y-60379185D01*
X159209390Y-60379184D01*
X159209394Y-60379179D01*
X159269737Y-60233497D01*
X159300500Y-60078842D01*
X159300500Y-59974500D01*
X159320185Y-59907461D01*
X159372989Y-59861706D01*
X159424500Y-59850500D01*
X168299243Y-59850500D01*
X168366282Y-59870185D01*
X168386924Y-59886819D01*
X175305209Y-66805104D01*
X175477184Y-66930051D01*
X175666588Y-67026557D01*
X175868757Y-67092246D01*
X176078714Y-67125501D01*
X176078715Y-67125501D01*
X176291286Y-67125501D01*
X176291287Y-67125501D01*
X176501243Y-67092246D01*
X176703412Y-67026557D01*
X176892816Y-66930051D01*
X176924642Y-66906928D01*
X177064786Y-66805109D01*
X177064788Y-66805106D01*
X177064792Y-66805104D01*
X177215104Y-66654792D01*
X177215106Y-66654788D01*
X177215109Y-66654786D01*
X177340048Y-66482820D01*
X177340047Y-66482820D01*
X177340051Y-66482816D01*
X177436557Y-66293412D01*
X177502246Y-66091243D01*
X177535501Y-65881287D01*
X177535501Y-65668714D01*
X177502246Y-65458757D01*
X177436557Y-65256588D01*
X177340051Y-65067184D01*
X177215104Y-64895209D01*
X176105792Y-63785897D01*
X176089728Y-63756478D01*
X176072963Y-63727427D01*
X176073035Y-63725908D01*
X176072307Y-63724574D01*
X176074699Y-63691116D01*
X176076301Y-63657637D01*
X176077182Y-63656399D01*
X176077291Y-63654882D01*
X176097390Y-63628032D01*
X176116840Y-63600731D01*
X176118421Y-63599939D01*
X176119163Y-63598949D01*
X176147409Y-63583090D01*
X176154249Y-63580352D01*
X176231785Y-63559577D01*
X176281904Y-63530639D01*
X176289600Y-63526196D01*
X176305336Y-63517112D01*
X176367334Y-63500500D01*
X185582152Y-63500500D01*
X185649191Y-63520185D01*
X185694946Y-63572989D01*
X185703769Y-63600308D01*
X185730261Y-63733491D01*
X185730264Y-63733501D01*
X185790602Y-63879172D01*
X185790609Y-63879185D01*
X185878210Y-64010288D01*
X185878213Y-64010292D01*
X185989707Y-64121786D01*
X185989711Y-64121789D01*
X186120814Y-64209390D01*
X186120827Y-64209397D01*
X186266498Y-64269735D01*
X186266503Y-64269737D01*
X186421153Y-64300499D01*
X186421156Y-64300500D01*
X186421158Y-64300500D01*
X186578844Y-64300500D01*
X186578845Y-64300499D01*
X186733497Y-64269737D01*
X186879179Y-64209394D01*
X187010289Y-64121789D01*
X187121789Y-64010289D01*
X187209394Y-63879179D01*
X187269737Y-63733497D01*
X187300500Y-63578842D01*
X187300500Y-63421158D01*
X187300500Y-63421155D01*
X187300499Y-63421153D01*
X187269738Y-63266510D01*
X187269737Y-63266503D01*
X187269735Y-63266498D01*
X187209397Y-63120827D01*
X187209390Y-63120814D01*
X187121789Y-62989711D01*
X187121786Y-62989707D01*
X187010292Y-62878213D01*
X187010288Y-62878210D01*
X186879185Y-62790609D01*
X186879172Y-62790602D01*
X186733501Y-62730264D01*
X186733491Y-62730261D01*
X186578149Y-62699361D01*
X186561392Y-62690595D01*
X186542914Y-62686576D01*
X186517877Y-62667833D01*
X186516238Y-62666976D01*
X186514660Y-62665425D01*
X186387590Y-62538355D01*
X186387588Y-62538352D01*
X186268717Y-62419481D01*
X186268709Y-62419475D01*
X186180789Y-62368715D01*
X186180788Y-62368715D01*
X186160077Y-62356757D01*
X186131785Y-62340423D01*
X185979057Y-62299499D01*
X185820943Y-62299499D01*
X185813347Y-62299499D01*
X185813331Y-62299500D01*
X176407703Y-62299500D01*
X176340664Y-62279815D01*
X176294909Y-62227011D01*
X176284965Y-62157853D01*
X176286086Y-62151309D01*
X176300499Y-62078846D01*
X176300500Y-62078844D01*
X176300500Y-61921155D01*
X176300499Y-61921153D01*
X176290069Y-61868717D01*
X176269737Y-61766503D01*
X176260374Y-61743898D01*
X176209397Y-61620827D01*
X176209390Y-61620814D01*
X176121789Y-61489711D01*
X176121786Y-61489707D01*
X176010292Y-61378213D01*
X176010288Y-61378210D01*
X175879185Y-61290609D01*
X175879172Y-61290602D01*
X175733501Y-61230264D01*
X175733491Y-61230261D01*
X175578151Y-61199362D01*
X175516241Y-61166977D01*
X175514662Y-61165426D01*
X173334573Y-58985337D01*
X173301088Y-58924014D01*
X173300637Y-58921847D01*
X173292924Y-58883070D01*
X173269737Y-58766503D01*
X173225112Y-58658768D01*
X173209397Y-58620827D01*
X173209390Y-58620814D01*
X173121789Y-58489711D01*
X173121786Y-58489707D01*
X173010292Y-58378213D01*
X173010288Y-58378210D01*
X172879185Y-58290609D01*
X172879172Y-58290602D01*
X172733501Y-58230264D01*
X172733489Y-58230261D01*
X172578845Y-58199500D01*
X172578842Y-58199500D01*
X172421158Y-58199500D01*
X172421155Y-58199500D01*
X172266510Y-58230261D01*
X172266498Y-58230264D01*
X172120827Y-58290602D01*
X172120814Y-58290609D01*
X171989711Y-58378210D01*
X171989707Y-58378213D01*
X171878213Y-58489707D01*
X171878210Y-58489711D01*
X171790609Y-58620814D01*
X171790602Y-58620827D01*
X171730264Y-58766498D01*
X171730261Y-58766510D01*
X171699500Y-58921153D01*
X171699500Y-59080243D01*
X171679815Y-59147282D01*
X171627011Y-59193037D01*
X171557853Y-59202981D01*
X171494297Y-59173956D01*
X171487819Y-59167924D01*
X169944444Y-57624549D01*
X169944435Y-57624539D01*
X169940104Y-57620208D01*
X169789792Y-57469896D01*
X169789788Y-57469893D01*
X169789784Y-57469889D01*
X169617820Y-57344951D01*
X169428414Y-57248444D01*
X169428413Y-57248443D01*
X169428412Y-57248443D01*
X169226243Y-57182754D01*
X169226241Y-57182753D01*
X169226240Y-57182753D01*
X169064957Y-57157208D01*
X169016287Y-57149500D01*
X169016286Y-57149500D01*
X146106533Y-57149500D01*
X146039494Y-57129815D01*
X145993739Y-57077011D01*
X145983795Y-57007853D01*
X145996048Y-56969206D01*
X146019870Y-56922450D01*
X146019873Y-56922445D01*
X146073402Y-56757701D01*
X146100500Y-56586611D01*
X146100500Y-56413389D01*
X146073402Y-56242299D01*
X146019873Y-56077555D01*
X145941232Y-55923212D01*
X145839414Y-55783072D01*
X145716928Y-55660586D01*
X145576788Y-55558768D01*
X145422445Y-55480127D01*
X145257701Y-55426598D01*
X145257699Y-55426597D01*
X145257698Y-55426597D01*
X145126271Y-55405781D01*
X145086611Y-55399500D01*
X145086610Y-55399500D01*
X143456204Y-55399500D01*
X143389165Y-55379815D01*
X143343410Y-55327011D01*
X143333466Y-55257853D01*
X143362491Y-55194297D01*
X143368523Y-55187819D01*
X143919523Y-54636819D01*
X143980846Y-54603334D01*
X144007204Y-54600500D01*
X156086610Y-54600500D01*
X156086611Y-54600500D01*
X156257701Y-54573402D01*
X156422445Y-54519873D01*
X156576788Y-54441232D01*
X156716928Y-54339414D01*
X161219523Y-49836819D01*
X161280846Y-49803334D01*
X161307204Y-49800500D01*
X164586610Y-49800500D01*
X164586611Y-49800500D01*
X164757701Y-49773402D01*
X164922445Y-49719873D01*
X165076788Y-49641232D01*
X165216928Y-49539414D01*
X165339414Y-49416928D01*
X165441232Y-49276788D01*
X165519873Y-49122445D01*
X165573402Y-48957701D01*
X165600500Y-48786611D01*
X165600500Y-48613389D01*
X165573402Y-48442299D01*
X165519873Y-48277555D01*
X165441232Y-48123212D01*
X165339414Y-47983072D01*
X165216928Y-47860586D01*
X165167696Y-47824816D01*
X165125032Y-47769488D01*
X165119053Y-47699874D01*
X165151659Y-47638079D01*
X165212498Y-47603722D01*
X165240583Y-47600500D01*
X174086610Y-47600500D01*
X174086611Y-47600500D01*
X174257701Y-47573402D01*
X174422445Y-47519873D01*
X174576788Y-47441232D01*
X174716928Y-47339414D01*
X174839414Y-47216928D01*
X174941232Y-47076788D01*
X175019873Y-46922445D01*
X175073402Y-46757701D01*
X175100500Y-46586611D01*
X175100500Y-46413389D01*
X175073402Y-46242299D01*
X175019873Y-46077555D01*
X174941232Y-45923212D01*
X174839414Y-45783072D01*
X174716928Y-45660586D01*
X174576788Y-45558768D01*
X174422445Y-45480127D01*
X174257701Y-45426598D01*
X174257699Y-45426597D01*
X174257698Y-45426597D01*
X174126271Y-45405781D01*
X174086611Y-45399500D01*
X174086610Y-45399500D01*
X154314784Y-45399500D01*
X154247745Y-45379815D01*
X154201990Y-45327011D01*
X154192046Y-45257853D01*
X154221071Y-45194297D01*
X154227103Y-45187819D01*
X154277136Y-45137785D01*
X154277139Y-45137782D01*
X154386632Y-44973914D01*
X154462051Y-44791835D01*
X154489974Y-44651459D01*
X154500500Y-44598543D01*
X154500500Y-44401456D01*
X154462052Y-44208170D01*
X154462051Y-44208169D01*
X154462051Y-44208165D01*
X154422307Y-44112214D01*
X154386635Y-44026092D01*
X154386628Y-44026079D01*
X154277139Y-43862218D01*
X154277136Y-43862214D01*
X154137785Y-43722863D01*
X154137781Y-43722860D01*
X153973920Y-43613371D01*
X153973907Y-43613364D01*
X153791839Y-43537950D01*
X153791829Y-43537947D01*
X153598543Y-43499500D01*
X153598541Y-43499500D01*
X153401459Y-43499500D01*
X153401457Y-43499500D01*
X153208170Y-43537947D01*
X153208160Y-43537950D01*
X153026092Y-43613364D01*
X153026079Y-43613371D01*
X152862218Y-43722860D01*
X152862214Y-43722863D01*
X152722863Y-43862214D01*
X152722860Y-43862218D01*
X152613371Y-44026079D01*
X152613364Y-44026092D01*
X152537950Y-44208160D01*
X152537947Y-44208170D01*
X152499500Y-44401456D01*
X152499500Y-44401459D01*
X152499500Y-44598541D01*
X152499500Y-44598543D01*
X152499499Y-44598543D01*
X152537947Y-44791829D01*
X152537950Y-44791839D01*
X152613364Y-44973907D01*
X152613371Y-44973920D01*
X152722860Y-45137781D01*
X152722863Y-45137785D01*
X152772897Y-45187819D01*
X152806382Y-45249142D01*
X152801398Y-45318834D01*
X152759526Y-45374767D01*
X152694062Y-45399184D01*
X152685216Y-45399500D01*
X149314784Y-45399500D01*
X149247745Y-45379815D01*
X149201990Y-45327011D01*
X149192046Y-45257853D01*
X149221071Y-45194297D01*
X149227103Y-45187819D01*
X149277136Y-45137785D01*
X149277139Y-45137782D01*
X149386632Y-44973914D01*
X149462051Y-44791835D01*
X149489974Y-44651459D01*
X149500500Y-44598543D01*
X149500500Y-44401456D01*
X149462052Y-44208170D01*
X149462051Y-44208169D01*
X149462051Y-44208165D01*
X149422307Y-44112214D01*
X149386635Y-44026092D01*
X149386628Y-44026079D01*
X149277139Y-43862218D01*
X149277136Y-43862214D01*
X149137785Y-43722863D01*
X149137781Y-43722860D01*
X148973920Y-43613371D01*
X148973907Y-43613364D01*
X148791839Y-43537950D01*
X148791829Y-43537947D01*
X148598543Y-43499500D01*
X148598541Y-43499500D01*
X148401459Y-43499500D01*
X148401457Y-43499500D01*
X148208170Y-43537947D01*
X148208160Y-43537950D01*
X148026092Y-43613364D01*
X148026079Y-43613371D01*
X147862218Y-43722860D01*
X147862214Y-43722863D01*
X147722863Y-43862214D01*
X147722860Y-43862218D01*
X147613371Y-44026079D01*
X147613364Y-44026092D01*
X147537950Y-44208160D01*
X147537947Y-44208170D01*
X147499500Y-44401456D01*
X147499500Y-44401459D01*
X147499500Y-44598541D01*
X147499500Y-44598543D01*
X147499499Y-44598543D01*
X147537947Y-44791829D01*
X147537950Y-44791839D01*
X147613364Y-44973907D01*
X147613371Y-44973920D01*
X147722860Y-45137781D01*
X147722863Y-45137785D01*
X147772897Y-45187819D01*
X147806382Y-45249142D01*
X147801398Y-45318834D01*
X147759526Y-45374767D01*
X147694062Y-45399184D01*
X147685216Y-45399500D01*
X145913389Y-45399500D01*
X145873728Y-45405781D01*
X145742302Y-45426597D01*
X145577552Y-45480128D01*
X145423211Y-45558768D01*
X145343256Y-45616859D01*
X145283072Y-45660586D01*
X145283070Y-45660588D01*
X145283069Y-45660588D01*
X145160588Y-45783069D01*
X145160588Y-45783070D01*
X145160586Y-45783072D01*
X145116859Y-45843256D01*
X145058768Y-45923211D01*
X144980128Y-46077552D01*
X144926597Y-46242302D01*
X144899500Y-46413389D01*
X144899500Y-46586611D01*
X144926598Y-46757701D01*
X144980127Y-46922445D01*
X145058768Y-47076788D01*
X145160586Y-47216928D01*
X145283072Y-47339414D01*
X145423212Y-47441232D01*
X145577555Y-47519873D01*
X145742299Y-47573402D01*
X145913389Y-47600500D01*
X160059417Y-47600500D01*
X160126456Y-47620185D01*
X160172211Y-47672989D01*
X160182155Y-47742147D01*
X160153130Y-47805703D01*
X160132305Y-47824815D01*
X160083072Y-47860586D01*
X160083070Y-47860588D01*
X160083069Y-47860588D01*
X155580477Y-52363181D01*
X155519154Y-52396666D01*
X155492796Y-52399500D01*
X146538226Y-52399500D01*
X146471187Y-52379815D01*
X146425432Y-52327011D01*
X146415488Y-52257853D01*
X146444513Y-52194297D01*
X146499906Y-52157569D01*
X146518412Y-52151557D01*
X146707816Y-52055051D01*
X146742230Y-52030048D01*
X146879786Y-51930109D01*
X146879788Y-51930106D01*
X146879792Y-51930104D01*
X147030104Y-51779792D01*
X147030106Y-51779788D01*
X147030109Y-51779786D01*
X147155048Y-51607820D01*
X147155047Y-51607820D01*
X147155051Y-51607816D01*
X147251557Y-51418412D01*
X147317246Y-51216243D01*
X147350500Y-51006287D01*
X147350500Y-50493713D01*
X147317246Y-50283757D01*
X147251557Y-50081588D01*
X147155051Y-49892184D01*
X147155049Y-49892181D01*
X147155048Y-49892179D01*
X147030109Y-49720213D01*
X146879786Y-49569890D01*
X146707820Y-49444951D01*
X146518414Y-49348444D01*
X146518413Y-49348443D01*
X146518412Y-49348443D01*
X146316243Y-49282754D01*
X146316241Y-49282753D01*
X146316240Y-49282753D01*
X146154957Y-49257208D01*
X146106287Y-49249500D01*
X145893713Y-49249500D01*
X145845042Y-49257208D01*
X145683760Y-49282753D01*
X145481585Y-49348444D01*
X145292179Y-49444951D01*
X145120215Y-49569889D01*
X144981398Y-49708706D01*
X144920075Y-49742190D01*
X144850383Y-49737206D01*
X144794450Y-49695334D01*
X144788178Y-49686120D01*
X144692712Y-49531344D01*
X144568657Y-49407289D01*
X144568656Y-49407288D01*
X144419334Y-49315186D01*
X144252797Y-49260001D01*
X144252795Y-49260000D01*
X144150010Y-49249500D01*
X142849998Y-49249500D01*
X142849981Y-49249501D01*
X142747203Y-49260000D01*
X142747200Y-49260001D01*
X142580668Y-49315185D01*
X142580663Y-49315187D01*
X142431342Y-49407289D01*
X142307289Y-49531342D01*
X142215187Y-49680663D01*
X142215185Y-49680668D01*
X142193797Y-49745213D01*
X142160001Y-49847203D01*
X142160001Y-49847204D01*
X142160000Y-49847204D01*
X142149500Y-49949983D01*
X142149500Y-51550001D01*
X142149501Y-51550018D01*
X142160000Y-51652796D01*
X142160001Y-51652799D01*
X142205094Y-51788879D01*
X142215186Y-51819334D01*
X142307288Y-51968656D01*
X142431344Y-52092712D01*
X142580666Y-52184814D01*
X142747203Y-52239999D01*
X142849991Y-52250500D01*
X143011726Y-52250499D01*
X143078764Y-52270183D01*
X143124519Y-52322987D01*
X143134463Y-52392145D01*
X143105438Y-52455701D01*
X143068021Y-52484983D01*
X142923215Y-52558766D01*
X142923201Y-52558775D01*
X142821395Y-52632740D01*
X142821396Y-52632741D01*
X142783073Y-52660584D01*
X141660588Y-53783069D01*
X141660588Y-53783070D01*
X141660586Y-53783072D01*
X141616859Y-53843256D01*
X141558768Y-53923211D01*
X141480128Y-54077552D01*
X141426597Y-54242302D01*
X141399500Y-54413389D01*
X141399500Y-54586610D01*
X141425131Y-54748444D01*
X141426598Y-54757701D01*
X141480127Y-54922445D01*
X141558768Y-55076788D01*
X141650187Y-55202616D01*
X141673667Y-55268420D01*
X141657842Y-55336474D01*
X141607736Y-55385169D01*
X141549869Y-55399500D01*
X136507204Y-55399500D01*
X136440165Y-55379815D01*
X136419523Y-55363181D01*
X134216930Y-53160588D01*
X134216928Y-53160586D01*
X134076788Y-53058768D01*
X133922445Y-52980127D01*
X133757701Y-52926598D01*
X133757699Y-52926597D01*
X133757698Y-52926597D01*
X133626271Y-52905781D01*
X133586611Y-52899500D01*
X133413389Y-52899500D01*
X133373728Y-52905781D01*
X133242302Y-52926597D01*
X133077552Y-52980128D01*
X132923211Y-53058768D01*
X132843256Y-53116859D01*
X132783072Y-53160586D01*
X132783070Y-53160588D01*
X132783069Y-53160588D01*
X132660588Y-53283069D01*
X132660588Y-53283070D01*
X132660586Y-53283072D01*
X132616859Y-53343256D01*
X132558768Y-53423211D01*
X132480128Y-53577552D01*
X132426597Y-53742302D01*
X132399500Y-53913389D01*
X132399500Y-54086610D01*
X132424158Y-54242299D01*
X132426598Y-54257701D01*
X132453148Y-54339414D01*
X132480129Y-54422450D01*
X132535682Y-54531480D01*
X132548578Y-54600149D01*
X132522301Y-54664889D01*
X132465195Y-54705146D01*
X132395389Y-54708138D01*
X132386879Y-54705705D01*
X132316240Y-54682753D01*
X132154957Y-54657208D01*
X132106287Y-54649500D01*
X131893713Y-54649500D01*
X131845042Y-54657208D01*
X131683760Y-54682753D01*
X131481585Y-54748444D01*
X131292183Y-54844949D01*
X131120206Y-54969898D01*
X130969898Y-55120206D01*
X130844949Y-55292183D01*
X130748444Y-55481585D01*
X130682753Y-55683760D01*
X130667024Y-55783069D01*
X130649500Y-55893713D01*
X130649500Y-56106287D01*
X130682754Y-56316243D01*
X130748443Y-56518412D01*
X130844949Y-56707816D01*
X130969896Y-56879791D01*
X130969898Y-56879793D01*
X133466770Y-59376665D01*
X133466784Y-59376680D01*
X133469895Y-59379791D01*
X133469896Y-59379792D01*
X133620208Y-59530104D01*
X133620211Y-59530106D01*
X133620214Y-59530109D01*
X133751511Y-59625500D01*
X133751513Y-59625502D01*
X133792179Y-59655048D01*
X133792181Y-59655049D01*
X133792184Y-59655051D01*
X133981588Y-59751557D01*
X134183757Y-59817246D01*
X134393713Y-59850500D01*
X134606287Y-59850500D01*
X157575500Y-59850500D01*
X157642539Y-59870185D01*
X157688294Y-59922989D01*
X157699500Y-59974500D01*
X157699500Y-60078846D01*
X157730261Y-60233489D01*
X157730264Y-60233501D01*
X157790602Y-60379172D01*
X157790609Y-60379185D01*
X157878602Y-60510874D01*
X157884252Y-60528920D01*
X157894477Y-60544830D01*
X157898928Y-60575789D01*
X157899480Y-60577551D01*
X157899500Y-60579765D01*
X157899500Y-60750902D01*
X157879815Y-60817941D01*
X157827011Y-60863696D01*
X157757853Y-60873640D01*
X157694297Y-60844615D01*
X157687819Y-60838583D01*
X157487590Y-60638355D01*
X157487588Y-60638352D01*
X157368717Y-60519481D01*
X157368716Y-60519480D01*
X157281904Y-60469360D01*
X157281904Y-60469359D01*
X157281900Y-60469358D01*
X157231785Y-60440423D01*
X157079057Y-60399499D01*
X156920943Y-60399499D01*
X156913347Y-60399499D01*
X156913331Y-60399500D01*
X133897956Y-60399500D01*
X133830917Y-60379815D01*
X133785162Y-60327011D01*
X133776339Y-60299691D01*
X133769738Y-60266510D01*
X133769737Y-60266503D01*
X133732576Y-60176788D01*
X133709397Y-60120827D01*
X133709390Y-60120814D01*
X133621789Y-59989711D01*
X133621786Y-59989707D01*
X133510292Y-59878213D01*
X133510288Y-59878210D01*
X133379185Y-59790609D01*
X133379172Y-59790602D01*
X133233501Y-59730264D01*
X133233489Y-59730261D01*
X133078845Y-59699500D01*
X133078842Y-59699500D01*
X132921158Y-59699500D01*
X132921153Y-59699500D01*
X132873691Y-59708941D01*
X132804099Y-59702714D01*
X132748922Y-59659851D01*
X132725678Y-59593961D01*
X132725500Y-59587324D01*
X132725500Y-59513389D01*
X132704340Y-59379792D01*
X132698402Y-59342299D01*
X132644873Y-59177555D01*
X132566232Y-59023212D01*
X132464414Y-58883072D01*
X132341928Y-58760586D01*
X132201788Y-58658768D01*
X132047445Y-58580127D01*
X131882701Y-58526598D01*
X131882699Y-58526597D01*
X131882698Y-58526597D01*
X131751271Y-58505781D01*
X131711611Y-58499500D01*
X131088389Y-58499500D01*
X131048728Y-58505781D01*
X130917302Y-58526597D01*
X130752552Y-58580128D01*
X130598211Y-58658768D01*
X130472886Y-58749823D01*
X130407079Y-58773303D01*
X130339025Y-58757478D01*
X130327114Y-58749823D01*
X130201788Y-58658768D01*
X130047447Y-58580128D01*
X130047446Y-58580127D01*
X130047445Y-58580127D01*
X129882701Y-58526598D01*
X129882699Y-58526597D01*
X129882698Y-58526597D01*
X129751271Y-58505781D01*
X129711611Y-58499500D01*
X129088389Y-58499500D01*
X129048728Y-58505781D01*
X128917302Y-58526597D01*
X128752552Y-58580128D01*
X128598211Y-58658768D01*
X128518256Y-58716859D01*
X128458072Y-58760586D01*
X128458070Y-58760588D01*
X128458069Y-58760588D01*
X128335588Y-58883069D01*
X128335588Y-58883070D01*
X128335586Y-58883072D01*
X128307915Y-58921158D01*
X128233768Y-59023211D01*
X128155128Y-59177552D01*
X128101597Y-59342302D01*
X128074991Y-59510289D01*
X128074500Y-59513389D01*
X125500500Y-59513389D01*
X125500500Y-49974983D01*
X127899500Y-49974983D01*
X127899500Y-51525001D01*
X127899501Y-51525018D01*
X127910000Y-51627796D01*
X127910001Y-51627799D01*
X127955894Y-51766294D01*
X127965186Y-51794334D01*
X128057288Y-51943656D01*
X128181344Y-52067712D01*
X128330666Y-52159814D01*
X128497203Y-52214999D01*
X128599991Y-52225500D01*
X129900008Y-52225499D01*
X130002797Y-52214999D01*
X130169334Y-52159814D01*
X130318656Y-52067712D01*
X130442712Y-51943656D01*
X130534814Y-51794334D01*
X130534814Y-51794331D01*
X130538178Y-51788879D01*
X130590126Y-51742154D01*
X130659088Y-51730931D01*
X130723170Y-51758774D01*
X130731398Y-51766294D01*
X130870213Y-51905109D01*
X131042179Y-52030048D01*
X131042181Y-52030049D01*
X131042184Y-52030051D01*
X131231588Y-52126557D01*
X131433757Y-52192246D01*
X131643713Y-52225500D01*
X131643714Y-52225500D01*
X131856286Y-52225500D01*
X131856287Y-52225500D01*
X132066243Y-52192246D01*
X132268412Y-52126557D01*
X132457816Y-52030051D01*
X132479789Y-52014086D01*
X132629786Y-51905109D01*
X132629788Y-51905106D01*
X132629792Y-51905104D01*
X132780104Y-51754792D01*
X132899683Y-51590204D01*
X132955011Y-51547540D01*
X133024624Y-51541561D01*
X133086420Y-51574166D01*
X133100313Y-51590199D01*
X133202560Y-51730931D01*
X133219896Y-51754792D01*
X133370213Y-51905109D01*
X133542179Y-52030048D01*
X133542181Y-52030049D01*
X133542184Y-52030051D01*
X133731588Y-52126557D01*
X133933757Y-52192246D01*
X134143713Y-52225500D01*
X134143714Y-52225500D01*
X134356286Y-52225500D01*
X134356287Y-52225500D01*
X134566243Y-52192246D01*
X134768412Y-52126557D01*
X134957816Y-52030051D01*
X134979789Y-52014086D01*
X135129786Y-51905109D01*
X135129788Y-51905106D01*
X135129792Y-51905104D01*
X135280104Y-51754792D01*
X135280106Y-51754788D01*
X135280109Y-51754786D01*
X135405048Y-51582820D01*
X135405047Y-51582820D01*
X135405051Y-51582816D01*
X135501557Y-51393412D01*
X135567246Y-51191243D01*
X135600500Y-50981287D01*
X135600500Y-50518713D01*
X135567246Y-50308757D01*
X135501557Y-50106588D01*
X135405051Y-49917184D01*
X135405049Y-49917181D01*
X135405048Y-49917179D01*
X135280109Y-49745213D01*
X135129786Y-49594890D01*
X134957820Y-49469951D01*
X134768414Y-49373444D01*
X134768413Y-49373443D01*
X134768412Y-49373443D01*
X134566243Y-49307754D01*
X134566241Y-49307753D01*
X134566240Y-49307753D01*
X134404957Y-49282208D01*
X134356287Y-49274500D01*
X134143713Y-49274500D01*
X134095042Y-49282208D01*
X133933760Y-49307753D01*
X133731585Y-49373444D01*
X133542179Y-49469951D01*
X133370213Y-49594890D01*
X133219894Y-49745209D01*
X133219890Y-49745214D01*
X133100318Y-49909793D01*
X133044989Y-49952459D01*
X132975375Y-49958438D01*
X132913580Y-49925833D01*
X132899682Y-49909793D01*
X132780109Y-49745214D01*
X132780105Y-49745209D01*
X132629786Y-49594890D01*
X132457820Y-49469951D01*
X132268414Y-49373444D01*
X132268413Y-49373443D01*
X132268412Y-49373443D01*
X132066243Y-49307754D01*
X132066241Y-49307753D01*
X132066240Y-49307753D01*
X131904957Y-49282208D01*
X131856287Y-49274500D01*
X131643713Y-49274500D01*
X131595042Y-49282208D01*
X131433760Y-49307753D01*
X131231585Y-49373444D01*
X131042179Y-49469951D01*
X130870215Y-49594889D01*
X130731398Y-49733706D01*
X130670075Y-49767190D01*
X130600383Y-49762206D01*
X130544450Y-49720334D01*
X130538178Y-49711120D01*
X130442712Y-49556344D01*
X130318657Y-49432289D01*
X130318656Y-49432288D01*
X130223253Y-49373443D01*
X130169336Y-49340187D01*
X130169331Y-49340185D01*
X130167862Y-49339698D01*
X130002797Y-49285001D01*
X130002795Y-49285000D01*
X129900010Y-49274500D01*
X128599998Y-49274500D01*
X128599981Y-49274501D01*
X128497203Y-49285000D01*
X128497200Y-49285001D01*
X128330668Y-49340185D01*
X128330663Y-49340187D01*
X128181342Y-49432289D01*
X128057289Y-49556342D01*
X127965187Y-49705663D01*
X127965185Y-49705668D01*
X127953083Y-49742190D01*
X127910001Y-49872203D01*
X127910001Y-49872204D01*
X127910000Y-49872204D01*
X127899500Y-49974983D01*
X125500500Y-49974983D01*
X125500500Y-44848543D01*
X130749499Y-44848543D01*
X130787947Y-45041829D01*
X130787950Y-45041839D01*
X130863364Y-45223907D01*
X130863371Y-45223920D01*
X130972860Y-45387781D01*
X130972863Y-45387785D01*
X131112214Y-45527136D01*
X131112218Y-45527139D01*
X131276079Y-45636628D01*
X131276092Y-45636635D01*
X131458160Y-45712049D01*
X131458165Y-45712051D01*
X131458169Y-45712051D01*
X131458170Y-45712052D01*
X131651456Y-45750500D01*
X131651459Y-45750500D01*
X131848543Y-45750500D01*
X131978582Y-45724632D01*
X132041835Y-45712051D01*
X132223914Y-45636632D01*
X132387782Y-45527139D01*
X132527139Y-45387782D01*
X132636632Y-45223914D01*
X132712051Y-45041835D01*
X132750500Y-44848541D01*
X132750500Y-44651459D01*
X132750500Y-44651456D01*
X132739975Y-44598543D01*
X142499499Y-44598543D01*
X142537947Y-44791829D01*
X142537950Y-44791839D01*
X142613364Y-44973907D01*
X142613371Y-44973920D01*
X142722860Y-45137781D01*
X142722863Y-45137785D01*
X142862214Y-45277136D01*
X142862218Y-45277139D01*
X143026079Y-45386628D01*
X143026092Y-45386635D01*
X143122573Y-45426598D01*
X143208165Y-45462051D01*
X143208169Y-45462051D01*
X143208170Y-45462052D01*
X143401456Y-45500500D01*
X143401459Y-45500500D01*
X143598543Y-45500500D01*
X143728582Y-45474632D01*
X143791835Y-45462051D01*
X143943611Y-45399184D01*
X143973907Y-45386635D01*
X143973907Y-45386634D01*
X143973914Y-45386632D01*
X144137782Y-45277139D01*
X144277139Y-45137782D01*
X144386632Y-44973914D01*
X144462051Y-44791835D01*
X144489974Y-44651459D01*
X144500500Y-44598543D01*
X144500500Y-44401456D01*
X144462052Y-44208170D01*
X144462051Y-44208169D01*
X144462051Y-44208165D01*
X144422307Y-44112214D01*
X144386635Y-44026092D01*
X144386628Y-44026079D01*
X144277139Y-43862218D01*
X144277136Y-43862214D01*
X144137785Y-43722863D01*
X144137781Y-43722860D01*
X143973920Y-43613371D01*
X143973907Y-43613364D01*
X143791839Y-43537950D01*
X143791829Y-43537947D01*
X143598543Y-43499500D01*
X143598541Y-43499500D01*
X143401459Y-43499500D01*
X143401457Y-43499500D01*
X143208170Y-43537947D01*
X143208160Y-43537950D01*
X143026092Y-43613364D01*
X143026079Y-43613371D01*
X142862218Y-43722860D01*
X142862214Y-43722863D01*
X142722863Y-43862214D01*
X142722860Y-43862218D01*
X142613371Y-44026079D01*
X142613364Y-44026092D01*
X142537950Y-44208160D01*
X142537947Y-44208170D01*
X142499500Y-44401456D01*
X142499500Y-44401459D01*
X142499500Y-44598541D01*
X142499500Y-44598543D01*
X142499499Y-44598543D01*
X132739975Y-44598543D01*
X132712052Y-44458170D01*
X132712051Y-44458169D01*
X132712051Y-44458165D01*
X132681034Y-44383284D01*
X132636635Y-44276092D01*
X132636628Y-44276079D01*
X132527139Y-44112218D01*
X132527136Y-44112214D01*
X132387785Y-43972863D01*
X132387781Y-43972860D01*
X132223920Y-43863371D01*
X132223907Y-43863364D01*
X132041839Y-43787950D01*
X132041829Y-43787947D01*
X131848543Y-43749500D01*
X131848541Y-43749500D01*
X131651459Y-43749500D01*
X131651457Y-43749500D01*
X131458170Y-43787947D01*
X131458160Y-43787950D01*
X131276092Y-43863364D01*
X131276079Y-43863371D01*
X131112218Y-43972860D01*
X131112214Y-43972863D01*
X130972863Y-44112214D01*
X130972860Y-44112218D01*
X130863371Y-44276079D01*
X130863364Y-44276092D01*
X130787950Y-44458160D01*
X130787947Y-44458170D01*
X130749500Y-44651456D01*
X130749500Y-44651459D01*
X130749500Y-44848541D01*
X130749500Y-44848543D01*
X130749499Y-44848543D01*
X125500500Y-44848543D01*
X125500500Y-40504427D01*
X125500816Y-40495581D01*
X125515130Y-40295443D01*
X125515131Y-40295434D01*
X125517646Y-40277938D01*
X125559356Y-40086200D01*
X125564335Y-40069242D01*
X125632911Y-39885382D01*
X125640251Y-39869310D01*
X125734294Y-39697083D01*
X125743850Y-39682214D01*
X125861443Y-39525128D01*
X125873017Y-39511771D01*
X126011771Y-39373017D01*
X126025128Y-39361443D01*
X126182214Y-39243850D01*
X126197083Y-39234294D01*
X126369310Y-39140251D01*
X126385382Y-39132911D01*
X126569242Y-39064335D01*
X126586200Y-39059356D01*
X126777938Y-39017646D01*
X126795436Y-39015130D01*
X126995582Y-39000816D01*
X127004428Y-39000500D01*
X127065892Y-39000500D01*
X187934108Y-39000500D01*
X187995572Y-39000500D01*
X188004418Y-39000816D01*
G37*
%TD.AperFunction*%
%TD*%
M02*
