%TF.GenerationSoftware,KiCad,Pcbnew,10.0.3*%
%TF.CreationDate,2026-10-06T17:16:21-07:00*%
%TF.ProjectId,CADENCE Inhibit System Test Board,43414445-4e43-4452-9049-6e6869626974,rev?*%
%TF.SameCoordinates,Original*%
%TF.FileFunction,Copper,L1,Top*%
%TF.FilePolarity,Positive*%
%FSLAX46Y46*%
G04 Gerber Fmt 4.6, Leading zero omitted, Abs format (unit mm)*
G04 Created by KiCad (PCBNEW 10.0.3) date 2026-10-06 17:16:21*
%MOMM*%
%LPD*%
G01*
G04 APERTURE LIST*
G04 Aperture macros list*
%AMRoundRect*
0 Rectangle with rounded corners*
0 $1 Rounding radius*
0 $2 $3 $4 $5 $6 $7 $8 $9 X,Y pos of 4 corners*
0 Add a 4 corners polygon primitive as box body*
4,1,4,$2,$3,$4,$5,$6,$7,$8,$9,$2,$3,0*
0 Add four circle primitives for the rounded corners*
1,1,$1+$1,$2,$3*
1,1,$1+$1,$4,$5*
1,1,$1+$1,$6,$7*
1,1,$1+$1,$8,$9*
0 Add four rect primitives between the rounded corners*
20,1,$1+$1,$2,$3,$4,$5,0*
20,1,$1+$1,$4,$5,$6,$7,0*
20,1,$1+$1,$6,$7,$8,$9,0*
20,1,$1+$1,$8,$9,$2,$3,0*%
G04 Aperture macros list end*
%TA.AperFunction,ComponentPad*%
%ADD10C,3.600000*%
%TD*%
%TA.AperFunction,ConnectorPad*%
%ADD11C,5.600000*%
%TD*%
%TA.AperFunction,SMDPad,CuDef*%
%ADD12RoundRect,0.250000X-0.625000X0.312500X-0.625000X-0.312500X0.625000X-0.312500X0.625000X0.312500X0*%
%TD*%
%TA.AperFunction,SMDPad,CuDef*%
%ADD13RoundRect,0.225000X0.250000X-0.225000X0.250000X0.225000X-0.250000X0.225000X-0.250000X-0.225000X0*%
%TD*%
%TA.AperFunction,ComponentPad*%
%ADD14RoundRect,0.250000X-0.600000X-0.750000X0.600000X-0.750000X0.600000X0.750000X-0.600000X0.750000X0*%
%TD*%
%TA.AperFunction,ComponentPad*%
%ADD15O,1.700000X2.000000*%
%TD*%
%TA.AperFunction,ComponentPad*%
%ADD16C,1.000000*%
%TD*%
%TA.AperFunction,SMDPad,CuDef*%
%ADD17R,0.279400X1.397000*%
%TD*%
%TA.AperFunction,SMDPad,CuDef*%
%ADD18R,1.879600X1.676400*%
%TD*%
%TA.AperFunction,ComponentPad*%
%ADD19RoundRect,0.250000X0.350000X0.575000X-0.350000X0.575000X-0.350000X-0.575000X0.350000X-0.575000X0*%
%TD*%
%TA.AperFunction,ComponentPad*%
%ADD20O,1.200000X1.650000*%
%TD*%
%TA.AperFunction,ComponentPad*%
%ADD21RoundRect,0.250000X0.575000X-0.350000X0.575000X0.350000X-0.575000X0.350000X-0.575000X-0.350000X0*%
%TD*%
%TA.AperFunction,ComponentPad*%
%ADD22O,1.650000X1.200000*%
%TD*%
%TA.AperFunction,SMDPad,CuDef*%
%ADD23RoundRect,0.200000X0.275000X-0.200000X0.275000X0.200000X-0.275000X0.200000X-0.275000X-0.200000X0*%
%TD*%
%TA.AperFunction,ComponentPad*%
%ADD24RoundRect,0.250000X-0.350000X-0.575000X0.350000X-0.575000X0.350000X0.575000X-0.350000X0.575000X0*%
%TD*%
%TA.AperFunction,SMDPad,CuDef*%
%ADD25RoundRect,0.250000X0.475000X-0.250000X0.475000X0.250000X-0.475000X0.250000X-0.475000X-0.250000X0*%
%TD*%
%TA.AperFunction,SMDPad,CuDef*%
%ADD26R,1.460500X0.533400*%
%TD*%
%TA.AperFunction,SMDPad,CuDef*%
%ADD27R,0.533400X1.460500*%
%TD*%
%TA.AperFunction,SMDPad,CuDef*%
%ADD28RoundRect,0.250000X0.625000X-0.312500X0.625000X0.312500X-0.625000X0.312500X-0.625000X-0.312500X0*%
%TD*%
%TA.AperFunction,SMDPad,CuDef*%
%ADD29RoundRect,0.225000X0.225000X0.250000X-0.225000X0.250000X-0.225000X-0.250000X0.225000X-0.250000X0*%
%TD*%
%TA.AperFunction,SMDPad,CuDef*%
%ADD30RoundRect,0.250000X-0.350000X0.850000X-0.350000X-0.850000X0.350000X-0.850000X0.350000X0.850000X0*%
%TD*%
%TA.AperFunction,SMDPad,CuDef*%
%ADD31RoundRect,0.249997X-2.650003X2.950003X-2.650003X-2.950003X2.650003X-2.950003X2.650003X2.950003X0*%
%TD*%
%TA.AperFunction,SMDPad,CuDef*%
%ADD32R,1.422400X0.558800*%
%TD*%
%TA.AperFunction,SMDPad,CuDef*%
%ADD33RoundRect,0.250000X0.312500X0.625000X-0.312500X0.625000X-0.312500X-0.625000X0.312500X-0.625000X0*%
%TD*%
%TA.AperFunction,SMDPad,CuDef*%
%ADD34RoundRect,0.225000X-0.250000X0.225000X-0.250000X-0.225000X0.250000X-0.225000X0.250000X0.225000X0*%
%TD*%
%TA.AperFunction,SMDPad,CuDef*%
%ADD35RoundRect,0.112500X0.187500X0.112500X-0.187500X0.112500X-0.187500X-0.112500X0.187500X-0.112500X0*%
%TD*%
%TA.AperFunction,SMDPad,CuDef*%
%ADD36R,0.558800X1.422400*%
%TD*%
%TA.AperFunction,ComponentPad*%
%ADD37RoundRect,0.250000X-0.600000X-0.725000X0.600000X-0.725000X0.600000X0.725000X-0.600000X0.725000X0*%
%TD*%
%TA.AperFunction,ComponentPad*%
%ADD38O,1.700000X1.950000*%
%TD*%
%TA.AperFunction,SMDPad,CuDef*%
%ADD39R,1.397000X0.279400*%
%TD*%
%TA.AperFunction,SMDPad,CuDef*%
%ADD40R,1.676400X1.879600*%
%TD*%
%TA.AperFunction,SMDPad,CuDef*%
%ADD41RoundRect,0.200000X0.200000X0.275000X-0.200000X0.275000X-0.200000X-0.275000X0.200000X-0.275000X0*%
%TD*%
%TA.AperFunction,SMDPad,CuDef*%
%ADD42RoundRect,0.225000X-0.225000X-0.250000X0.225000X-0.250000X0.225000X0.250000X-0.225000X0.250000X0*%
%TD*%
%TA.AperFunction,SMDPad,CuDef*%
%ADD43RoundRect,0.250000X-0.475000X0.250000X-0.475000X-0.250000X0.475000X-0.250000X0.475000X0.250000X0*%
%TD*%
%TA.AperFunction,SMDPad,CuDef*%
%ADD44RoundRect,0.250000X0.350000X-0.850000X0.350000X0.850000X-0.350000X0.850000X-0.350000X-0.850000X0*%
%TD*%
%TA.AperFunction,SMDPad,CuDef*%
%ADD45RoundRect,0.249997X2.650003X-2.950003X2.650003X2.950003X-2.650003X2.950003X-2.650003X-2.950003X0*%
%TD*%
%TA.AperFunction,SMDPad,CuDef*%
%ADD46RoundRect,0.112500X-0.112500X0.187500X-0.112500X-0.187500X0.112500X-0.187500X0.112500X0.187500X0*%
%TD*%
%TA.AperFunction,SMDPad,CuDef*%
%ADD47RoundRect,0.250000X0.250000X0.475000X-0.250000X0.475000X-0.250000X-0.475000X0.250000X-0.475000X0*%
%TD*%
%TA.AperFunction,ViaPad*%
%ADD48C,0.600000*%
%TD*%
%TA.AperFunction,Conductor*%
%ADD49C,0.200000*%
%TD*%
%TA.AperFunction,Conductor*%
%ADD50C,0.526000*%
%TD*%
%TA.AperFunction,Conductor*%
%ADD51C,0.780000*%
%TD*%
%TA.AperFunction,Conductor*%
%ADD52C,1.200000*%
%TD*%
%TA.AperFunction,Conductor*%
%ADD53C,0.300387*%
%TD*%
%TA.AperFunction,Conductor*%
%ADD54C,1.700000*%
%TD*%
G04 APERTURE END LIST*
D10*
%TO.P,H4,1,1_1*%
%TO.N,VSS*%
X129000000Y-92500000D03*
D11*
X129000000Y-92500000D03*
%TD*%
D12*
%TO.P,R9,1*%
%TO.N,V_mppt_o*%
X185500000Y-59037500D03*
%TO.P,R9,2*%
%TO.N,Net-(IC4-TGDN)*%
X185500000Y-61962500D03*
%TD*%
D13*
%TO.P,C9,1*%
%TO.N,V_mppt_o*%
X183500000Y-61775000D03*
%TO.P,C9,2*%
%TO.N,Net-(IC4-BST)*%
X183500000Y-60225000D03*
%TD*%
D14*
%TO.P,J11,1,Pin_1_1*%
%TO.N,V_mppt_o*%
X143500000Y-50750000D03*
D15*
%TO.P,J11,2,Pin_2_2*%
%TO.N,V_mppt_i*%
X146000000Y-50750000D03*
%TD*%
D16*
%TO.P,TP1,1,1_1*%
%TO.N,VSS*%
X135500000Y-94000000D03*
%TD*%
D17*
%TO.P,IC2,1,VCC_1*%
%TO.N,HIGH_SIDE_PWR*%
X187000000Y-65500000D03*
%TO.P,IC2,2,VCCUV_2*%
%TO.N,VSS*%
X186499998Y-65500000D03*
%TO.P,IC2,3,GND_1_3*%
X185999999Y-65500000D03*
%TO.P,IC2,4,INP_4*%
%TO.N,EN*%
X185500000Y-65500000D03*
%TO.P,IC2,5,OVLO_5*%
%TO.N,VSS*%
X184999998Y-65500000D03*
%TO.P,IC2,6,TGDN_6*%
%TO.N,Net-(IC2-TGDN)*%
X184999998Y-69868800D03*
%TO.P,IC2,7,TGUP_7*%
X185500000Y-69868800D03*
%TO.P,IC2,8,TS_8*%
%TO.N,Net-(IC2-TS)*%
X185999999Y-69868800D03*
%TO.P,IC2,9,BST_9*%
%TO.N,Net-(IC2-BST)*%
X186499998Y-69868800D03*
%TO.P,IC2,10,NC_10*%
%TO.N,unconnected-(IC2-NC-Pad10)*%
X187000000Y-69868800D03*
D18*
%TO.P,IC2,11,GND_2_11*%
%TO.N,VSS*%
X185999999Y-67684400D03*
%TD*%
D19*
%TO.P,J5,1,Pin_1_1*%
%TO.N,Net-(J3-Pin_2)*%
X153000000Y-89500000D03*
D20*
%TO.P,J5,2,Pin_2_2*%
%TO.N,Net-(J5-Pin_2)*%
X153000000Y-87500000D03*
%TO.P,J5,3,Pin_3_3*%
%TO.N,Net-(J3-Pin_2)*%
X151000000Y-89500000D03*
%TO.P,J5,4,Pin_4_4*%
%TO.N,Net-(J5-Pin_2)*%
X151000000Y-87500000D03*
%TD*%
D10*
%TO.P,H1,1,1_1*%
%TO.N,VSS*%
X128500000Y-42000000D03*
D11*
X128500000Y-42000000D03*
%TD*%
D21*
%TO.P,J9,1,Pin_1_1*%
%TO.N,Cell 1+*%
X129400000Y-61600000D03*
D22*
%TO.P,J9,2,Pin_2_2*%
%TO.N,HIGH_SIDE_PWR*%
X131400000Y-61600000D03*
%TO.P,J9,3,Pin_3_3*%
%TO.N,Cell 1+*%
X129400000Y-59600000D03*
%TO.P,J9,4,Pin_4_4*%
%TO.N,HIGH_SIDE_PWR*%
X131400000Y-59600000D03*
%TD*%
D23*
%TO.P,R2,1*%
%TO.N,EN*%
X151500000Y-79650000D03*
%TO.P,R2,2*%
%TO.N,Net-(D6-A)*%
X151500000Y-78000000D03*
%TD*%
D16*
%TO.P,TP2,1,1_1*%
%TO.N,EN*%
X151000000Y-94000000D03*
%TD*%
D24*
%TO.P,J2,1,Pin_1_1*%
%TO.N,Net-(D3-K)*%
X130500000Y-79000000D03*
D20*
%TO.P,J2,2,Pin_2_2*%
%TO.N,Net-(J2-Pin_2)*%
X130500000Y-81000000D03*
%TO.P,J2,3,Pin_3_3*%
%TO.N,Net-(D3-K)*%
X132500000Y-79000000D03*
%TO.P,J2,4,Pin_4_4*%
%TO.N,Net-(J2-Pin_2)*%
X132500000Y-81000000D03*
%TD*%
D17*
%TO.P,IC1,1,VCC_1*%
%TO.N,HIGH_SIDE_PWR*%
X172601316Y-83728521D03*
%TO.P,IC1,2,VCCUV_2*%
%TO.N,VSS*%
X173101318Y-83728521D03*
%TO.P,IC1,3,GND_1_3*%
X173601317Y-83728521D03*
%TO.P,IC1,4,INP_4*%
%TO.N,EN*%
X174101316Y-83728521D03*
%TO.P,IC1,5,OVLO_5*%
%TO.N,VSS*%
X174601318Y-83728521D03*
%TO.P,IC1,6,TGDN_6*%
%TO.N,Net-(IC1-TGDN)*%
X174601318Y-79359721D03*
%TO.P,IC1,7,TGUP_7*%
X174101316Y-79359721D03*
%TO.P,IC1,8,TS_8*%
%TO.N,Net-(IC1-TS)*%
X173601317Y-79359721D03*
%TO.P,IC1,9,BST_9*%
%TO.N,Net-(IC1-BST)*%
X173101318Y-79359721D03*
%TO.P,IC1,10,NC_10*%
%TO.N,unconnected-(IC1-NC-Pad10)*%
X172601316Y-79359721D03*
D18*
%TO.P,IC1,11,GND_2_11*%
%TO.N,VSS*%
X173601317Y-81544121D03*
%TD*%
D25*
%TO.P,C4,1*%
%TO.N,LOW_SIDE_PWR*%
X155000000Y-71400000D03*
%TO.P,C4,2*%
%TO.N,VSS*%
X155000000Y-69500000D03*
%TD*%
D16*
%TO.P,TP6,1,1_1*%
%TO.N,Cell 3-*%
X153500000Y-44500000D03*
%TD*%
D26*
%TO.P,U1,1,NC_1*%
%TO.N,unconnected-(U1-NC-Pad1)*%
X139275850Y-68095000D03*
%TO.P,U1,2,INA_2*%
%TO.N,Net-(D5-A)*%
X139275850Y-69365000D03*
%TO.P,U1,3,GND_3*%
%TO.N,VSS*%
X139275850Y-70635000D03*
%TO.P,U1,4,INB_4*%
X139275850Y-71905000D03*
%TO.P,U1,5,OUTB_5*%
%TO.N,unconnected-(U1-OUTB-Pad5)*%
X144724150Y-71905000D03*
%TO.P,U1,6,V_{S}_6*%
%TO.N,LOW_SIDE_PWR*%
X144724150Y-70635000D03*
%TO.P,U1,7,OUTA_7*%
%TO.N,Net-(Q1-G)*%
X144724150Y-69365000D03*
%TO.P,U1,8,NC_8*%
%TO.N,unconnected-(U1-NC-Pad8)*%
X144724150Y-68095000D03*
%TD*%
D27*
%TO.P,U2,1,NC_1*%
%TO.N,unconnected-(U2-NC-Pad1)*%
X148460000Y-75448300D03*
%TO.P,U2,2,INA_2*%
%TO.N,Net-(D6-A)*%
X149730000Y-75448300D03*
%TO.P,U2,3,GND_3*%
%TO.N,VSS*%
X151000000Y-75448300D03*
%TO.P,U2,4,INB_4*%
X152270000Y-75448300D03*
%TO.P,U2,5,OUTB_5*%
%TO.N,unconnected-(U2-OUTB-Pad5)*%
X152270000Y-70000000D03*
%TO.P,U2,6,V_{S}_6*%
%TO.N,LOW_SIDE_PWR*%
X151000000Y-70000000D03*
%TO.P,U2,7,OUTA_7*%
%TO.N,Net-(Q2-G)*%
X149730000Y-70000000D03*
%TO.P,U2,8,NC_8*%
%TO.N,unconnected-(U2-NC-Pad8)*%
X148460000Y-70000000D03*
%TD*%
D10*
%TO.P,H3,1,1_1*%
%TO.N,VSS*%
X186000000Y-92500000D03*
D11*
X186000000Y-92500000D03*
%TD*%
D28*
%TO.P,R6,1*%
%TO.N,EN*%
X161000000Y-88962500D03*
%TO.P,R6,2*%
%TO.N,VSS*%
X161000000Y-86037500D03*
%TD*%
D13*
%TO.P,C2,1*%
%TO.N,LOW_SIDE_PWR*%
X143000000Y-60275000D03*
%TO.P,C2,2*%
%TO.N,VSS*%
X143000000Y-58725000D03*
%TD*%
D29*
%TO.P,C8,1*%
%TO.N,Net-(IC3-TS)*%
X158869999Y-50390600D03*
%TO.P,C8,2*%
%TO.N,Net-(IC3-BST)*%
X157319999Y-50390600D03*
%TD*%
D30*
%TO.P,Q5,1,S_1*%
%TO.N,V_mppt_o*%
X182280000Y-48700000D03*
D31*
%TO.P,Q5,2,G_2*%
%TO.N,Net-(IC4-TGDN)*%
X180000000Y-55000000D03*
D30*
%TO.P,Q5,3,D_3*%
%TO.N,Net-(IC3-TS)*%
X177720000Y-48700000D03*
%TD*%
D32*
%TO.P,D3,1,K_1*%
%TO.N,Net-(D3-K)*%
X137000000Y-62405000D03*
%TO.P,D3,2,A_2*%
%TO.N,Net-(D1-K)*%
X135069600Y-61452500D03*
%TO.P,D3,3*%
%TO.N,N/C*%
X137000000Y-60500000D03*
%TD*%
D12*
%TO.P,R7,1*%
%TO.N,Net-(IC1-TS)*%
X181525000Y-67675000D03*
%TO.P,R7,2*%
%TO.N,Net-(IC1-TGDN)*%
X181525000Y-70600000D03*
%TD*%
D30*
%TO.P,Q1,1,S_1*%
%TO.N,Net-(Q1-S)*%
X154560000Y-58500000D03*
D31*
%TO.P,Q1,2,G_2*%
%TO.N,Net-(Q1-G)*%
X152280000Y-64800000D03*
D30*
%TO.P,Q1,3,D_3*%
%TO.N,Cell 3-*%
X150000000Y-58500000D03*
%TD*%
D33*
%TO.P,R4,1*%
%TO.N,Net-(Q2-G)*%
X172500000Y-62500000D03*
%TO.P,R4,2*%
%TO.N,Net-(Q1-S)*%
X169575000Y-62500000D03*
%TD*%
D16*
%TO.P,TP9,1,1_1*%
%TO.N,V_mppt_i*%
X148500000Y-44500000D03*
%TD*%
D30*
%TO.P,Q6,1,S_1*%
%TO.N,Net-(IC2-TS)*%
X182060000Y-78000000D03*
D31*
%TO.P,Q6,2,G_2*%
%TO.N,Net-(IC2-TGDN)*%
X179780000Y-84300000D03*
D30*
%TO.P,Q6,3,D_3*%
%TO.N,Net-(IC1-TS)*%
X177500000Y-78000000D03*
%TD*%
D34*
%TO.P,C10,1*%
%TO.N,UNREG*%
X158500000Y-65225000D03*
%TO.P,C10,2*%
%TO.N,Net-(IC5-BST)*%
X158500000Y-66775000D03*
%TD*%
D35*
%TO.P,D5,1,K_1*%
%TO.N,LOW_SIDE_PWR*%
X145550000Y-65000000D03*
%TO.P,D5,2,A_2*%
%TO.N,Net-(D5-A)*%
X143450000Y-65000000D03*
%TD*%
D23*
%TO.P,R5,1*%
%TO.N,Net-(J5-Pin_2)*%
X151400000Y-83325000D03*
%TO.P,R5,2*%
%TO.N,EN*%
X151400000Y-81675000D03*
%TD*%
D33*
%TO.P,R3,1*%
%TO.N,Net-(Q1-S)*%
X166962500Y-63500000D03*
%TO.P,R3,2*%
%TO.N,Net-(Q1-G)*%
X164037500Y-63500000D03*
%TD*%
D17*
%TO.P,IC5,1,VCC_1*%
%TO.N,HIGH_SIDE_PWR*%
X158999999Y-73184400D03*
%TO.P,IC5,2,VCCUV_2*%
%TO.N,VSS*%
X159500001Y-73184400D03*
%TO.P,IC5,3,GND_1_3*%
X160000000Y-73184400D03*
%TO.P,IC5,4,INP_4*%
%TO.N,Net-(IC5-INP)*%
X160499999Y-73184400D03*
%TO.P,IC5,5,OVLO_5*%
%TO.N,VSS*%
X161000001Y-73184400D03*
%TO.P,IC5,6,TGDN_6*%
%TO.N,Net-(IC5-TGDN)*%
X161000001Y-68815600D03*
%TO.P,IC5,7,TGUP_7*%
X160499999Y-68815600D03*
%TO.P,IC5,8,TS_8*%
%TO.N,UNREG*%
X160000000Y-68815600D03*
%TO.P,IC5,9,BST_9*%
%TO.N,Net-(IC5-BST)*%
X159500001Y-68815600D03*
%TO.P,IC5,10,NC_10*%
%TO.N,unconnected-(IC5-NC-Pad10)*%
X158999999Y-68815600D03*
D18*
%TO.P,IC5,11,GND_2_11*%
%TO.N,VSS*%
X160000000Y-71000000D03*
%TD*%
D36*
%TO.P,D4,1,K_1*%
%TO.N,Net-(D3-K)*%
X132905000Y-73000000D03*
%TO.P,D4,2,A_2*%
%TO.N,Net-(D2-K)*%
X131952500Y-74930400D03*
%TO.P,D4,3*%
%TO.N,N/C*%
X131000000Y-73000000D03*
%TD*%
D16*
%TO.P,TP4,1,1_1*%
%TO.N,Net-(D3-K)*%
X128000000Y-84500000D03*
%TD*%
D28*
%TO.P,R10,1*%
%TO.N,Net-(IC2-TS)*%
X184500000Y-75462500D03*
%TO.P,R10,2*%
%TO.N,Net-(IC2-TGDN)*%
X184500000Y-72537500D03*
%TD*%
D16*
%TO.P,TP8,1,1_1*%
%TO.N,V_mppt_o*%
X143500000Y-44500000D03*
%TD*%
D28*
%TO.P,R11,1*%
%TO.N,UNREG*%
X160500000Y-66962500D03*
%TO.P,R11,2*%
%TO.N,Net-(IC5-TGDN)*%
X160500000Y-64037500D03*
%TD*%
D36*
%TO.P,D2,1,K_1*%
%TO.N,Net-(D2-K)*%
X129000000Y-73000000D03*
%TO.P,D2,2,A_2*%
%TO.N,Cell 1+*%
X128047500Y-74930400D03*
%TO.P,D2,3*%
%TO.N,N/C*%
X127095000Y-73000000D03*
%TD*%
D24*
%TO.P,J6,1,Pin_1_1*%
%TO.N,Net-(J4-Pin_2)*%
X144500000Y-79000000D03*
D20*
%TO.P,J6,2,Pin_2_2*%
%TO.N,Net-(J5-Pin_2)*%
X144500000Y-81000000D03*
%TO.P,J6,3,Pin_3_3*%
%TO.N,Net-(J4-Pin_2)*%
X146500000Y-79000000D03*
%TO.P,J6,4,Pin_4_4*%
%TO.N,Net-(J5-Pin_2)*%
X146500000Y-81000000D03*
%TD*%
D12*
%TO.P,R8,1*%
%TO.N,Net-(IC3-TS)*%
X161094999Y-47428100D03*
%TO.P,R8,2*%
%TO.N,Net-(IC3-TGDN)*%
X161094999Y-50353100D03*
%TD*%
D16*
%TO.P,TP5,1,1_1*%
%TO.N,UNREG*%
X131750000Y-44750000D03*
%TD*%
D10*
%TO.P,H2,1,1_1*%
%TO.N,VSS*%
X186000000Y-42500000D03*
D11*
X186000000Y-42500000D03*
%TD*%
D37*
%TO.P,J10,1,Pin_1_1*%
%TO.N,Cell 1+*%
X129250000Y-50750000D03*
D38*
%TO.P,J10,2,Pin_2_2*%
%TO.N,UNREG*%
X131750000Y-50750000D03*
%TO.P,J10,3,Pin_3_3*%
%TO.N,Cell 3-*%
X134250000Y-50750000D03*
%TO.P,J10,4,Pin_4_4*%
%TO.N,VSS*%
X136750000Y-50750000D03*
%TD*%
D29*
%TO.P,C6,1*%
%TO.N,Net-(IC1-TS)*%
X173550000Y-77359721D03*
%TO.P,C6,2*%
%TO.N,Net-(IC1-BST)*%
X172000000Y-77359721D03*
%TD*%
D16*
%TO.P,GSE,1,1_1*%
%TO.N,Net-(IC2-TS)*%
X187500000Y-76000000D03*
%TD*%
D17*
%TO.P,IC3,1,VCC_1*%
%TO.N,HIGH_SIDE_PWR*%
X158595000Y-57443800D03*
%TO.P,IC3,2,VCCUV_2*%
%TO.N,VSS*%
X159095002Y-57443800D03*
%TO.P,IC3,3,GND_1_3*%
X159595001Y-57443800D03*
%TO.P,IC3,4,INP_4*%
%TO.N,EN*%
X160095000Y-57443800D03*
%TO.P,IC3,5,OVLO_5*%
%TO.N,VSS*%
X160595002Y-57443800D03*
%TO.P,IC3,6,TGDN_6*%
%TO.N,Net-(IC3-TGDN)*%
X160595002Y-53075000D03*
%TO.P,IC3,7,TGUP_7*%
X160095000Y-53075000D03*
%TO.P,IC3,8,TS_8*%
%TO.N,Net-(IC3-TS)*%
X159595001Y-53075000D03*
%TO.P,IC3,9,BST_9*%
%TO.N,Net-(IC3-BST)*%
X159095002Y-53075000D03*
%TO.P,IC3,10,NC_10*%
%TO.N,unconnected-(IC3-NC-Pad10)*%
X158595000Y-53075000D03*
D18*
%TO.P,IC3,11,GND_2_11*%
%TO.N,VSS*%
X159595001Y-55259400D03*
%TD*%
D24*
%TO.P,J3,1,Pin_1_1*%
%TO.N,Net-(J1-Pin_2)*%
X144000000Y-87500000D03*
D20*
%TO.P,J3,2,Pin_2_2*%
%TO.N,Net-(J3-Pin_2)*%
X144000000Y-89500000D03*
%TO.P,J3,3,Pin_3_3*%
%TO.N,Net-(J1-Pin_2)*%
X146000000Y-87500000D03*
%TO.P,J3,4,Pin_4_4*%
%TO.N,Net-(J3-Pin_2)*%
X146000000Y-89500000D03*
%TD*%
D39*
%TO.P,IC4,1,VCC_1*%
%TO.N,HIGH_SIDE_PWR*%
X177315600Y-60499999D03*
%TO.P,IC4,2,VCCUV_2*%
%TO.N,VSS*%
X177315600Y-61000001D03*
%TO.P,IC4,3,GND_1_3*%
X177315600Y-61500000D03*
%TO.P,IC4,4,INP_4*%
%TO.N,EN*%
X177315600Y-61999999D03*
%TO.P,IC4,5,OVLO_5*%
%TO.N,VSS*%
X177315600Y-62500001D03*
%TO.P,IC4,6,TGDN_6*%
%TO.N,Net-(IC4-TGDN)*%
X181684400Y-62500001D03*
%TO.P,IC4,7,TGUP_7*%
X181684400Y-61999999D03*
%TO.P,IC4,8,TS_8*%
%TO.N,V_mppt_o*%
X181684400Y-61500000D03*
%TO.P,IC4,9,BST_9*%
%TO.N,Net-(IC4-BST)*%
X181684400Y-61000001D03*
%TO.P,IC4,10,NC_10*%
%TO.N,unconnected-(IC4-NC-Pad10)*%
X181684400Y-60499999D03*
D40*
%TO.P,IC4,11,GND_2_11*%
%TO.N,VSS*%
X179500000Y-61500000D03*
%TD*%
D19*
%TO.P,J1,1,Pin_1_1*%
%TO.N,Net-(D3-K)*%
X139000000Y-89500000D03*
D20*
%TO.P,J1,2,Pin_2_2*%
%TO.N,Net-(J1-Pin_2)*%
X139000000Y-87500000D03*
%TO.P,J1,3,Pin_3_3*%
%TO.N,Net-(D3-K)*%
X137000000Y-89500000D03*
%TO.P,J1,4,Pin_4_4*%
%TO.N,Net-(J1-Pin_2)*%
X137000000Y-87500000D03*
%TD*%
D30*
%TO.P,Q3,1,S_1*%
%TO.N,Cell 1+*%
X178805000Y-66375000D03*
D31*
%TO.P,Q3,2,G_2*%
%TO.N,Net-(IC1-TGDN)*%
X176525000Y-72675000D03*
D30*
%TO.P,Q3,3,D_3*%
%TO.N,Net-(IC1-TS)*%
X174245000Y-66375000D03*
%TD*%
D41*
%TO.P,R1,1*%
%TO.N,EN*%
X144825000Y-74500000D03*
%TO.P,R1,2*%
%TO.N,Net-(D5-A)*%
X143175000Y-74500000D03*
%TD*%
D19*
%TO.P,J4,1,Pin_1_1*%
%TO.N,Net-(J2-Pin_2)*%
X139500000Y-81000000D03*
D20*
%TO.P,J4,2,Pin_2_2*%
%TO.N,Net-(J4-Pin_2)*%
X139500000Y-79000000D03*
%TO.P,J4,3,Pin_3_3*%
%TO.N,Net-(J2-Pin_2)*%
X137500000Y-81000000D03*
%TO.P,J4,4,Pin_4_4*%
%TO.N,Net-(J4-Pin_2)*%
X137500000Y-79000000D03*
%TD*%
D42*
%TO.P,C7,1*%
%TO.N,Net-(IC2-TS)*%
X186725000Y-72500000D03*
%TO.P,C7,2*%
%TO.N,Net-(IC2-BST)*%
X188275000Y-72500000D03*
%TD*%
D43*
%TO.P,C5,1*%
%TO.N,VSS*%
X158000000Y-86050000D03*
%TO.P,C5,2*%
%TO.N,EN*%
X158000000Y-87950000D03*
%TD*%
D32*
%TO.P,D1,1,K_1*%
%TO.N,Net-(D1-K)*%
X137400000Y-57905000D03*
%TO.P,D1,2,A_2*%
%TO.N,V_mppt_i*%
X135469600Y-56952500D03*
%TO.P,D1,3*%
%TO.N,N/C*%
X137400000Y-56000000D03*
%TD*%
D44*
%TO.P,Q7,1,S_1*%
%TO.N,UNREG*%
X164720000Y-87300000D03*
D45*
%TO.P,Q7,2,G_2*%
%TO.N,Net-(IC5-TGDN)*%
X167000000Y-81000000D03*
D44*
%TO.P,Q7,3,D_3*%
%TO.N,Net-(IC2-TS)*%
X169280000Y-87300000D03*
%TD*%
D46*
%TO.P,D6,1,K_1*%
%TO.N,LOW_SIDE_PWR*%
X155000000Y-73450000D03*
%TO.P,D6,2,A_2*%
%TO.N,Net-(D6-A)*%
X155000000Y-75550000D03*
%TD*%
D21*
%TO.P,J7,1,Pin_1_1*%
%TO.N,EN*%
X157000000Y-81500000D03*
D22*
%TO.P,J7,2,Pin_2_2*%
%TO.N,Net-(IC5-INP)*%
X159000000Y-81500000D03*
%TO.P,J7,3,Pin_3_3*%
%TO.N,EN*%
X157000000Y-79500000D03*
%TO.P,J7,4,Pin_4_4*%
%TO.N,Net-(IC5-INP)*%
X159000000Y-79500000D03*
%TD*%
D21*
%TO.P,J8,1,Pin_1_1*%
%TO.N,Cell 1+*%
X129400000Y-68800000D03*
D22*
%TO.P,J8,2,Pin_2_2*%
%TO.N,LOW_SIDE_PWR*%
X131400000Y-68800000D03*
%TO.P,J8,3,Pin_3_3*%
%TO.N,Cell 1+*%
X129400000Y-66800000D03*
%TO.P,J8,4,Pin_4_4*%
%TO.N,LOW_SIDE_PWR*%
X131400000Y-66800000D03*
%TD*%
D47*
%TO.P,C3,1*%
%TO.N,LOW_SIDE_PWR*%
X140950000Y-63000000D03*
%TO.P,C3,2*%
%TO.N,VSS*%
X139050000Y-63000000D03*
%TD*%
D16*
%TO.P,TP7,1,1_1*%
%TO.N,VSS*%
X143500000Y-94000000D03*
%TD*%
D13*
%TO.P,C1,1*%
%TO.N,LOW_SIDE_PWR*%
X145000000Y-60275000D03*
%TO.P,C1,2*%
%TO.N,VSS*%
X145000000Y-58725000D03*
%TD*%
D30*
%TO.P,Q2,1,S_1*%
%TO.N,Net-(Q1-S)*%
X169560000Y-67000000D03*
D31*
%TO.P,Q2,2,G_2*%
%TO.N,Net-(Q2-G)*%
X167280000Y-73300000D03*
D30*
%TO.P,Q2,3,D_3*%
%TO.N,VSS*%
X165000000Y-67000000D03*
%TD*%
%TO.P,Q4,1,S_1*%
%TO.N,Net-(IC3-TS)*%
X171280000Y-48700000D03*
D31*
%TO.P,Q4,2,G_2*%
%TO.N,Net-(IC3-TGDN)*%
X169000000Y-55000000D03*
D30*
%TO.P,Q4,3,D_3*%
%TO.N,V_mppt_i*%
X166720000Y-48700000D03*
%TD*%
D48*
%TO.N,VSS*%
X171500000Y-71000000D03*
X161500000Y-55500000D03*
X174200000Y-54400000D03*
X175500000Y-61000001D03*
X161500000Y-71500000D03*
X181000000Y-80000000D03*
X157000000Y-74000000D03*
X164280000Y-85000000D03*
X172001317Y-80958221D03*
X142500000Y-70500000D03*
X153500000Y-84500000D03*
X167000000Y-66500000D03*
X135800000Y-83800000D03*
X174000000Y-52000000D03*
X184000000Y-79000000D03*
X179500000Y-77000000D03*
X147500000Y-64500000D03*
X141500000Y-66000000D03*
X154000000Y-82500000D03*
X172001317Y-81899721D03*
X158000000Y-54500000D03*
X157000000Y-76000000D03*
X161500000Y-54500000D03*
X180000000Y-59600000D03*
X179800000Y-48800000D03*
X147500000Y-84500000D03*
X185000000Y-49000000D03*
X171500000Y-79000000D03*
X133500000Y-86500000D03*
X164000000Y-56000000D03*
X149500000Y-55000000D03*
X142500000Y-68500000D03*
X149500000Y-51500000D03*
X169000000Y-50000000D03*
X153000000Y-81000000D03*
X178250000Y-63750000D03*
X138500000Y-93500000D03*
X154000000Y-78500000D03*
X141600000Y-83600000D03*
X156000000Y-88000000D03*
X171500000Y-75000000D03*
X179000000Y-60000000D03*
X158500000Y-76000000D03*
X144000000Y-55000000D03*
X156500000Y-55500000D03*
X175044121Y-80455878D03*
X188000000Y-51500000D03*
X181000000Y-73500000D03*
X180200000Y-50400000D03*
X139200000Y-74000000D03*
X182500000Y-69000000D03*
X133500000Y-92000000D03*
X180000000Y-64000000D03*
X166500000Y-87000000D03*
X182500000Y-65500000D03*
X150000000Y-72500000D03*
X167000000Y-68500000D03*
X143500000Y-62000000D03*
X187000000Y-79000000D03*
X155500000Y-56000000D03*
X165000000Y-51000000D03*
X162000000Y-84500000D03*
X142000000Y-76000000D03*
X182500000Y-65500000D03*
X153500000Y-69000000D03*
X152500000Y-73500000D03*
X174000000Y-68500000D03*
X188500000Y-69000000D03*
X157000000Y-69500000D03*
X131600000Y-83600000D03*
X139400000Y-83800000D03*
X146000000Y-66500000D03*
X175400000Y-57400000D03*
X139500000Y-60000000D03*
X142000000Y-81400000D03*
X152000000Y-60000000D03*
%TO.N,V_mppt_o*%
X146000000Y-46500000D03*
X174000000Y-46500000D03*
%TO.N,V_mppt_i*%
X142500000Y-54500000D03*
X148000000Y-53500000D03*
X164500000Y-48700000D03*
%TO.N,HIGH_SIDE_PWR*%
X133000000Y-60500000D03*
X158500000Y-60000000D03*
X159449999Y-74550001D03*
X186500000Y-63500000D03*
X162500000Y-81500000D03*
X161500000Y-76500000D03*
X166000000Y-85500000D03*
X157500000Y-66000000D03*
X175500000Y-63000000D03*
%TO.N,EN*%
X172500000Y-87500000D03*
X172500000Y-59000000D03*
X181000000Y-65500000D03*
X174000000Y-85400000D03*
X175500000Y-62000000D03*
%TO.N,Net-(IC2-TGDN)*%
X181000000Y-76500000D03*
X180000000Y-79000000D03*
%TO.N,Cell 1+*%
X176185000Y-65775000D03*
X132000000Y-56000000D03*
%TO.N,Net-(IC1-TGDN)*%
X176000000Y-76500000D03*
X175500000Y-79000000D03*
%TO.N,LOW_SIDE_PWR*%
X137760000Y-66190000D03*
X134050000Y-66200000D03*
%TO.N,Net-(Q2-G)*%
X167675000Y-61325000D03*
X157000000Y-67500000D03*
%TO.N,UNREG*%
X147000000Y-62000000D03*
X133500000Y-54000000D03*
X145000000Y-56500000D03*
X156500000Y-63000000D03*
X163000000Y-78000000D03*
X156500000Y-63000000D03*
%TD*%
%TO.N,VSS*%
D49*
X179500000Y-60500000D02*
X179500000Y-61500000D01*
X173955878Y-81544121D02*
X175044121Y-80455878D01*
X172356917Y-81544121D02*
X172001317Y-81899721D01*
X173101319Y-83728521D02*
X173101319Y-84393362D01*
X158085900Y-55259400D02*
X159595001Y-55259400D01*
X184815600Y-67684400D02*
X185999999Y-67684400D01*
X161000001Y-72000001D02*
X160000000Y-71000000D01*
X160000000Y-73184400D02*
X160000000Y-71000000D01*
X160595002Y-55095002D02*
X160500000Y-55000000D01*
X182500000Y-65500000D02*
X184684400Y-67684400D01*
X179500000Y-62500000D02*
X179500000Y-61500000D01*
X184999998Y-65500000D02*
X184999998Y-66684399D01*
D50*
X161000000Y-85500000D02*
X162000000Y-84500000D01*
D49*
X173601318Y-81499722D02*
X173501317Y-81399721D01*
X135500000Y-94000000D02*
X133500000Y-92000000D01*
X159500001Y-73184400D02*
X159500001Y-71499999D01*
X175500000Y-61000001D02*
X177315600Y-61000001D01*
X159595001Y-55259400D02*
X160740600Y-55259400D01*
X173601318Y-81544121D02*
X173955878Y-81544121D01*
X179500000Y-61500000D02*
X177315600Y-61500000D01*
X186499998Y-65500000D02*
X186499998Y-67184401D01*
X182500000Y-69000000D02*
X183500000Y-69000000D01*
D51*
X167000000Y-68500000D02*
X166500000Y-68500000D01*
D49*
X180000000Y-63500000D02*
X179500000Y-63000000D01*
X173101319Y-83728521D02*
X173101319Y-81999723D01*
X159500001Y-71499999D02*
X160000000Y-71000000D01*
X155000000Y-69500000D02*
X154000000Y-69500000D01*
X179500000Y-60500000D02*
X179000000Y-60000000D01*
X161500000Y-71500000D02*
X160500000Y-71500000D01*
X184684400Y-67684400D02*
X185999999Y-67684400D01*
X158759400Y-55259400D02*
X158000000Y-54500000D01*
X187184400Y-67684400D02*
X188500000Y-69000000D01*
X152270000Y-73730000D02*
X152500000Y-73500000D01*
D50*
X160987500Y-86050000D02*
X161000000Y-86037500D01*
X158000000Y-86050000D02*
X160987500Y-86050000D01*
D49*
X161259400Y-55259400D02*
X161500000Y-55500000D01*
D51*
X166500000Y-67000000D02*
X165000000Y-67000000D01*
D49*
X159095002Y-57443800D02*
X159095002Y-55595002D01*
X157845300Y-55500000D02*
X158085900Y-55259400D01*
X173601318Y-83728521D02*
X173601318Y-81499722D01*
X183500000Y-69000000D02*
X184815600Y-67684400D01*
X173601318Y-81544121D02*
X172587217Y-81544121D01*
X174601319Y-82544122D02*
X173601318Y-81544121D01*
X180000000Y-64000000D02*
X180000000Y-63500000D01*
X178499999Y-62500001D02*
X179500000Y-61500000D01*
X138000000Y-94000000D02*
X138500000Y-93500000D01*
X172587217Y-81544121D02*
X172001317Y-80958221D01*
X174601319Y-83728521D02*
X174830117Y-83728521D01*
X159595001Y-55259400D02*
X158759400Y-55259400D01*
X160500000Y-71500000D02*
X160000000Y-71000000D01*
X174601319Y-83728521D02*
X174601319Y-82544122D01*
X139275850Y-71905000D02*
X139275850Y-73924150D01*
X177315600Y-62500001D02*
X178499999Y-62500001D01*
X132500000Y-94000000D02*
X135500000Y-94000000D01*
X177499999Y-61000001D02*
X177500000Y-61000000D01*
X151000000Y-75448300D02*
X152270000Y-75448300D01*
X159595001Y-57443800D02*
X159595001Y-55595001D01*
X177315600Y-61000001D02*
X179500000Y-61000000D01*
X131000000Y-92500000D02*
X132500000Y-94000000D01*
X180000000Y-59600000D02*
X179500000Y-60100000D01*
X177315600Y-61000001D02*
X177499999Y-61000001D01*
D51*
X166500000Y-68500000D02*
X165000000Y-67000000D01*
D49*
X135500000Y-94000000D02*
X138000000Y-94000000D01*
X159095002Y-55595002D02*
X159000000Y-55500000D01*
X129500000Y-92500000D02*
X131000000Y-92500000D01*
X186499998Y-67184401D02*
X185999999Y-67684400D01*
X151000000Y-75448300D02*
X151000000Y-73500000D01*
D50*
X161000000Y-86037500D02*
X161000000Y-85500000D01*
D49*
X173601318Y-81544121D02*
X172356917Y-81544121D01*
X160740600Y-55259400D02*
X161500000Y-54500000D01*
X173101319Y-81999723D02*
X173001317Y-81899721D01*
X139275850Y-73924150D02*
X139200000Y-74000000D01*
X184999998Y-66684399D02*
X185999999Y-67684400D01*
X139275850Y-70635000D02*
X139275850Y-71905000D01*
X156500000Y-55500000D02*
X157845300Y-55500000D01*
X161000001Y-73184400D02*
X161000001Y-72000001D01*
X160595002Y-57443800D02*
X160595002Y-55095002D01*
X154000000Y-69500000D02*
X153500000Y-69000000D01*
X178250000Y-63750000D02*
X179500000Y-62500000D01*
X179500000Y-63000000D02*
X179500000Y-61500000D01*
X179500000Y-60100000D02*
X179500000Y-61500000D01*
D51*
X167000000Y-66500000D02*
X166500000Y-67000000D01*
D49*
X152270000Y-75448300D02*
X152270000Y-73730000D01*
X159595001Y-55259400D02*
X161259400Y-55259400D01*
X151000000Y-73500000D02*
X150000000Y-72500000D01*
X159595001Y-55595001D02*
X159500000Y-55500000D01*
X185999999Y-67684400D02*
X187184400Y-67684400D01*
X185999999Y-65500000D02*
X185999999Y-67684400D01*
%TO.N,V_mppt_o*%
D52*
X182280000Y-48700000D02*
X185500000Y-51920000D01*
D49*
X185500000Y-59775000D02*
X183500000Y-61775000D01*
D52*
X143500000Y-50750000D02*
X143500000Y-44500000D01*
X180080000Y-46500000D02*
X182280000Y-48700000D01*
D49*
X185500000Y-59037500D02*
X185500000Y-59775000D01*
X183500000Y-61775000D02*
X183225000Y-61500000D01*
D52*
X146000000Y-46500000D02*
X145500000Y-46500000D01*
X145500000Y-46500000D02*
X143500000Y-44500000D01*
X174000000Y-46500000D02*
X180080000Y-46500000D01*
D49*
X183225000Y-61500000D02*
X181684400Y-61500000D01*
D52*
X185500000Y-51920000D02*
X185500000Y-59037500D01*
%TO.N,Net-(IC4-TGDN)*%
D49*
X183000000Y-62525000D02*
X182209401Y-62525000D01*
X181709399Y-62525000D02*
X181684400Y-62500001D01*
X183000000Y-62525000D02*
X181709399Y-62525000D01*
X180000000Y-55000000D02*
X180037500Y-55000000D01*
X180685900Y-61939700D02*
X180685900Y-55685900D01*
X185500000Y-61962500D02*
X184937500Y-62525000D01*
X180685900Y-55685900D02*
X180000000Y-55000000D01*
X180746199Y-61999999D02*
X181684400Y-61999999D01*
X184937500Y-62525000D02*
X183000000Y-62525000D01*
X180685900Y-61939700D02*
X180746199Y-61999999D01*
X182209401Y-62525000D02*
X181684400Y-61999999D01*
%TO.N,Net-(IC4-BST)*%
X182724999Y-61000001D02*
X181684400Y-61000001D01*
X183500000Y-60225000D02*
X182724999Y-61000001D01*
%TO.N,V_mppt_i*%
D52*
X148500000Y-44500000D02*
X148500000Y-46250000D01*
D50*
X140047500Y-56952500D02*
X142500000Y-54500000D01*
X135469600Y-56952500D02*
X140047500Y-56952500D01*
D52*
X164500000Y-48700000D02*
X166720000Y-48700000D01*
X146000000Y-50750000D02*
X148250000Y-48500000D01*
X148500000Y-46250000D02*
X150750000Y-48500000D01*
X148000000Y-53500000D02*
X146000000Y-51500000D01*
X146000000Y-51500000D02*
X146000000Y-50750000D01*
X148250000Y-48500000D02*
X150750000Y-48500000D01*
%TO.N,HIGH_SIDE_PWR*%
D49*
X158595000Y-57443800D02*
X158595000Y-58381998D01*
X158595000Y-58381998D02*
X160388002Y-60175000D01*
X172601316Y-83728521D02*
X170829837Y-85500000D01*
X176990601Y-60175000D02*
X177315600Y-60499999D01*
X159449999Y-74550001D02*
X158999999Y-74100001D01*
X132100000Y-59600000D02*
X133000000Y-60500000D01*
X187000000Y-64000000D02*
X186500000Y-63500000D01*
X157500000Y-66000000D02*
X157600000Y-66100000D01*
X160388002Y-60175000D02*
X172000000Y-60175000D01*
X131400000Y-59600000D02*
X132100000Y-59600000D01*
X158999999Y-74100001D02*
X158999999Y-73184400D01*
X158595000Y-59905000D02*
X158595000Y-58381998D01*
X157600000Y-71784401D02*
X158999999Y-73184400D01*
X175500000Y-63000000D02*
X174825000Y-63000000D01*
X161500000Y-80500000D02*
X161500000Y-76500000D01*
X131400000Y-59600000D02*
X131400000Y-61600000D01*
X170829837Y-85500000D02*
X166000000Y-85500000D01*
X162500000Y-81500000D02*
X161500000Y-80500000D01*
X157600000Y-66100000D02*
X157600000Y-71784401D01*
X172000000Y-60175000D02*
X176990601Y-60175000D01*
X174825000Y-63000000D02*
X172000000Y-60175000D01*
X158500000Y-60000000D02*
X158595000Y-59905000D01*
X187000000Y-65500000D02*
X187000000Y-64000000D01*
%TO.N,EN*%
X180900000Y-64600000D02*
X178100000Y-64600000D01*
X181000000Y-65500000D02*
X182500000Y-64000000D01*
X174101316Y-85298684D02*
X174101316Y-83728521D01*
X151950000Y-94000000D02*
X158000000Y-87950000D01*
X185500000Y-65500000D02*
X185500000Y-64561802D01*
X161000000Y-88962500D02*
X171037500Y-88962500D01*
X151000000Y-94000000D02*
X151950000Y-94000000D01*
X151400000Y-79750000D02*
X151500000Y-79650000D01*
X160095000Y-58381998D02*
X160095000Y-57443800D01*
X155150000Y-79650000D02*
X157000000Y-81500000D01*
X156500000Y-86450000D02*
X158000000Y-87950000D01*
X175500000Y-62000000D02*
X178100000Y-64600000D01*
X144825000Y-74500000D02*
X149975000Y-79650000D01*
X151400000Y-81675000D02*
X151400000Y-79750000D01*
X151500000Y-79650000D02*
X155150000Y-79650000D01*
X157000000Y-79500000D02*
X157000000Y-81500000D01*
X185500000Y-64561802D02*
X184938198Y-64000000D01*
X172500000Y-59000000D02*
X160713002Y-59000000D01*
X159012500Y-88962500D02*
X158000000Y-87950000D01*
X156500000Y-82000000D02*
X156500000Y-86450000D01*
X160713002Y-59000000D02*
X160095000Y-58381998D01*
X182500000Y-64000000D02*
X181500000Y-64000000D01*
X184938198Y-64000000D02*
X182500000Y-64000000D01*
X157000000Y-81500000D02*
X156500000Y-82000000D01*
X171037500Y-88962500D02*
X172500000Y-87500000D01*
X174000000Y-85400000D02*
X174101316Y-85298684D01*
X161000000Y-88962500D02*
X159012500Y-88962500D01*
X177315600Y-61999999D02*
X175500000Y-62000000D01*
X181500000Y-64000000D02*
X180900000Y-64600000D01*
X149975000Y-79650000D02*
X151500000Y-79650000D01*
%TO.N,Net-(IC2-TGDN)*%
X184999998Y-71500002D02*
X184999998Y-70368802D01*
X185500000Y-69868800D02*
X184999998Y-70368802D01*
X184999998Y-70368802D02*
X184999998Y-69868800D01*
X179780000Y-84300000D02*
X179780000Y-79220000D01*
X184500000Y-72000000D02*
X184999998Y-71500002D01*
X181000000Y-76500000D02*
X181000000Y-76037500D01*
X179780000Y-79220000D02*
X180000000Y-79000000D01*
X184500000Y-72537500D02*
X184500000Y-72000000D01*
X181000000Y-76037500D02*
X184500000Y-72537500D01*
%TO.N,Net-(IC2-TS)*%
D50*
X179000000Y-78500000D02*
X179000000Y-79000000D01*
X178000000Y-80000000D02*
X177000000Y-80000000D01*
X184500000Y-75462500D02*
X184500000Y-74725000D01*
D53*
X185999999Y-71774999D02*
X186725000Y-72500000D01*
D50*
X184500000Y-74725000D02*
X186725000Y-72500000D01*
X170080000Y-86500000D02*
X169280000Y-87300000D01*
X179500000Y-78000000D02*
X179000000Y-78500000D01*
X176000000Y-84479045D02*
X173979045Y-86500000D01*
X186962500Y-75462500D02*
X187500000Y-76000000D01*
X184500000Y-75462500D02*
X184500000Y-75560000D01*
X184500000Y-75462500D02*
X186962500Y-75462500D01*
X176000000Y-81000000D02*
X176000000Y-84479045D01*
X173979045Y-86500000D02*
X170080000Y-86500000D01*
X179000000Y-79000000D02*
X178000000Y-80000000D01*
X184500000Y-75560000D02*
X182060000Y-78000000D01*
X177000000Y-80000000D02*
X176000000Y-81000000D01*
X182060000Y-78000000D02*
X179500000Y-78000000D01*
D53*
X185999999Y-69868800D02*
X185999999Y-71774999D01*
%TO.N,Net-(IC2-BST)*%
D49*
X186499998Y-70724998D02*
X188275000Y-72500000D01*
X186499998Y-69868800D02*
X186499998Y-70724998D01*
X186500000Y-69868802D02*
X186499998Y-69868800D01*
%TO.N,Net-(J3-Pin_2)*%
D52*
X146000000Y-89500000D02*
X144000000Y-89500000D01*
X151000000Y-89500000D02*
X146000000Y-89500000D01*
X153000000Y-89500000D02*
X151000000Y-89500000D01*
%TO.N,Net-(J5-Pin_2)*%
X153000000Y-87500000D02*
X151000000Y-87500000D01*
X153000000Y-87500000D02*
X146500000Y-81000000D01*
X146500000Y-81000000D02*
X148825000Y-83325000D01*
X148825000Y-83325000D02*
X151400000Y-83325000D01*
X146500000Y-81000000D02*
X144500000Y-81000000D01*
%TO.N,Cell 1+*%
D54*
X132000000Y-56000000D02*
X129250000Y-53250000D01*
X129400000Y-59600000D02*
X129400000Y-66800000D01*
X129400000Y-61600000D02*
X129400000Y-68800000D01*
X178205000Y-65775000D02*
X178805000Y-66375000D01*
X129469600Y-68869600D02*
X129400000Y-68800000D01*
D50*
X128047500Y-70152500D02*
X129400000Y-68800000D01*
D54*
X129250000Y-53250000D02*
X129250000Y-50750000D01*
X129400000Y-59600000D02*
X129400000Y-61600000D01*
X129400000Y-59600000D02*
X129400000Y-50900000D01*
X129250000Y-50750000D02*
X129200000Y-50800000D01*
D50*
X128047500Y-74930400D02*
X128047500Y-70152500D01*
D54*
X129400000Y-50900000D02*
X129250000Y-50750000D01*
X176185000Y-65775000D02*
X178205000Y-65775000D01*
%TO.N,Net-(D6-A)*%
D49*
X152550000Y-78000000D02*
X155000000Y-75550000D01*
X149730000Y-76230000D02*
X149730000Y-75448300D01*
X151500000Y-78000000D02*
X152550000Y-78000000D01*
X151500000Y-78000000D02*
X149730000Y-76230000D01*
%TO.N,Net-(D3-K)*%
D52*
X137000000Y-89500000D02*
X139000000Y-89500000D01*
D54*
X133000000Y-89500000D02*
X137000000Y-89500000D01*
X128000000Y-80900000D02*
X128000000Y-84500000D01*
X130500000Y-79000000D02*
X129900000Y-79000000D01*
X132500000Y-79000000D02*
X130500000Y-79000000D01*
X136110000Y-63295000D02*
X137000000Y-62405000D01*
X129900000Y-79000000D02*
X128000000Y-80900000D01*
X136110000Y-69500000D02*
X136110000Y-69795000D01*
X136110000Y-69795000D02*
X132905000Y-73000000D01*
X132500000Y-79000000D02*
X136110000Y-75390000D01*
X128000000Y-84500000D02*
X133000000Y-89500000D01*
X136110000Y-69500000D02*
X136110000Y-63295000D01*
X136110000Y-75390000D02*
X136110000Y-69500000D01*
%TO.N,Net-(J2-Pin_2)*%
D52*
X132500000Y-81000000D02*
X137500000Y-81000000D01*
X137500000Y-81000000D02*
X139500000Y-81000000D01*
D49*
X138000000Y-81000000D02*
X138000000Y-80500000D01*
D52*
X130500000Y-81000000D02*
X132500000Y-81000000D01*
%TO.N,Net-(IC1-TGDN)*%
D49*
X174101316Y-79359721D02*
X174601318Y-79359721D01*
D52*
X176525000Y-72675000D02*
X179450000Y-72675000D01*
D49*
X175500000Y-79000000D02*
X174961039Y-79000000D01*
X177526500Y-73676500D02*
X176525000Y-72675000D01*
D52*
X179450000Y-72675000D02*
X181525000Y-70600000D01*
D49*
X176525000Y-75975000D02*
X176000000Y-76500000D01*
X176525000Y-72675000D02*
X176525000Y-75975000D01*
X174961039Y-79000000D02*
X174601318Y-79359721D01*
%TO.N,Net-(IC1-TS)*%
D52*
X174245000Y-66375000D02*
X176145000Y-68275000D01*
D51*
X173000000Y-76809721D02*
X173000000Y-67620000D01*
X174190279Y-78000000D02*
X173550000Y-77359721D01*
D53*
X173601317Y-77411038D02*
X173550000Y-77359721D01*
D51*
X173000000Y-67620000D02*
X174245000Y-66375000D01*
D53*
X173601317Y-79359721D02*
X173601317Y-77411038D01*
D52*
X176145000Y-68275000D02*
X180925000Y-68275000D01*
D51*
X173550000Y-77359721D02*
X173000000Y-76809721D01*
D52*
X180925000Y-68275000D02*
X181525000Y-67675000D01*
D49*
X173601319Y-79359721D02*
X173661618Y-79359721D01*
X181525000Y-67675000D02*
X180962500Y-68237500D01*
D51*
X177500000Y-78000000D02*
X174190279Y-78000000D01*
%TO.N,Net-(IC1-BST)*%
D49*
X172000000Y-77359721D02*
X173101318Y-78461039D01*
X173101318Y-78461039D02*
X173101318Y-79359721D01*
%TO.N,LOW_SIDE_PWR*%
X150433300Y-71030250D02*
X151000000Y-70463550D01*
D52*
X143000000Y-60275000D02*
X145000000Y-60275000D01*
D49*
X144724150Y-70635000D02*
X144260600Y-70635000D01*
X144260600Y-70635000D02*
X143693900Y-70068300D01*
X143693900Y-70068300D02*
X143693900Y-66856100D01*
D52*
X140950000Y-62325000D02*
X143000000Y-60275000D01*
X139310000Y-66190000D02*
X140950000Y-64550000D01*
D49*
X143693900Y-66856100D02*
X145550000Y-65000000D01*
D52*
X134050000Y-66200000D02*
X132000000Y-66200000D01*
D49*
X144724150Y-70635000D02*
X145119400Y-71030250D01*
D52*
X139310000Y-66190000D02*
X137760000Y-66190000D01*
D49*
X151936450Y-71400000D02*
X155000000Y-71400000D01*
X155000000Y-73450000D02*
X155000000Y-71400000D01*
D52*
X140950000Y-64550000D02*
X140950000Y-63000000D01*
X132000000Y-66200000D02*
X131400000Y-66800000D01*
D54*
X131400000Y-66800000D02*
X131400000Y-68800000D01*
D49*
X151000000Y-70463550D02*
X151936450Y-71400000D01*
X145119400Y-71030250D02*
X150433300Y-71030250D01*
D52*
X140950000Y-63000000D02*
X140950000Y-62325000D01*
X145000000Y-60275000D02*
X145000000Y-64450000D01*
X145000000Y-64450000D02*
X145550000Y-65000000D01*
D49*
X151000000Y-70463550D02*
X151000000Y-70000000D01*
%TO.N,Cell 3-*%
D52*
X135600000Y-53100000D02*
X134250000Y-51750000D01*
X150000000Y-58500000D02*
X144600000Y-53100000D01*
X153500000Y-44500000D02*
X153500000Y-55000000D01*
X153500000Y-55000000D02*
X150000000Y-58500000D01*
X144600000Y-53100000D02*
X135600000Y-53100000D01*
X134250000Y-51750000D02*
X134250000Y-50750000D01*
%TO.N,Net-(D5-A)*%
D49*
X143175000Y-74500000D02*
X143175000Y-72937200D01*
X143450000Y-65000000D02*
X143450000Y-65654400D01*
X139602800Y-69365000D02*
X139275850Y-69365000D01*
X143450000Y-65654400D02*
X139739400Y-69365000D01*
X139739400Y-69365000D02*
X139275850Y-69365000D01*
X143175000Y-72937200D02*
X139602800Y-69365000D01*
%TO.N,Net-(Q1-G)*%
X155405000Y-61675000D02*
X152280000Y-64800000D01*
X164037500Y-63500000D02*
X162212500Y-61675000D01*
X162212500Y-61675000D02*
X155405000Y-61675000D01*
X149752700Y-64800000D02*
X152280000Y-64800000D01*
X144724150Y-69365000D02*
X145187700Y-69365000D01*
X145187700Y-69365000D02*
X149752700Y-64800000D01*
%TO.N,Net-(Q2-G)*%
X149730000Y-69673050D02*
X149730000Y-70000000D01*
X157000000Y-67500000D02*
X156100000Y-68400000D01*
X171325000Y-61325000D02*
X172500000Y-62500000D01*
X151003050Y-68400000D02*
X149730000Y-69673050D01*
X167675000Y-61325000D02*
X171325000Y-61325000D01*
D50*
X167280000Y-73300000D02*
X167280000Y-72133676D01*
X172500000Y-66913676D02*
X172500000Y-62500000D01*
D49*
X156100000Y-68400000D02*
X151003050Y-68400000D01*
D50*
X167280000Y-72133676D02*
X172500000Y-66913676D01*
%TO.N,Net-(IC3-TS)*%
D54*
X171280000Y-48700000D02*
X169130000Y-46550000D01*
D49*
X159595001Y-53075000D02*
X159595001Y-52136799D01*
X159595001Y-52136799D02*
X158869999Y-51411797D01*
D54*
X161094999Y-47428100D02*
X158869999Y-49653100D01*
X169130000Y-46550000D02*
X161973099Y-46550000D01*
X161973099Y-46550000D02*
X161094999Y-47428100D01*
D49*
X158869999Y-51411797D02*
X158869999Y-50390600D01*
D54*
X171280000Y-48700000D02*
X177720000Y-48700000D01*
X158869999Y-49653100D02*
X158869999Y-50390600D01*
%TO.N,Net-(IC3-BST)*%
D49*
X157319999Y-50466946D02*
X157319999Y-50390600D01*
X159095002Y-52241949D02*
X157319999Y-50466946D01*
X159095002Y-53075000D02*
X159095002Y-52241949D01*
%TO.N,Net-(D1-K)*%
D50*
X137400000Y-57905000D02*
X135352443Y-59952557D01*
X135352443Y-59952557D02*
X135352443Y-61169657D01*
%TO.N,Net-(Q1-S)*%
D51*
X169560000Y-67000000D02*
X169560000Y-62515000D01*
X157045000Y-60985000D02*
X154560000Y-58500000D01*
D49*
X169560000Y-62515000D02*
X169575000Y-62500000D01*
D51*
X164447500Y-60985000D02*
X157045000Y-60985000D01*
X166962500Y-63500000D02*
X168575000Y-63500000D01*
X166962500Y-63500000D02*
X164447500Y-60985000D01*
X168575000Y-63500000D02*
X169575000Y-62500000D01*
%TO.N,UNREG*%
D52*
X160500000Y-66750000D02*
X160500000Y-66962500D01*
D53*
X160500000Y-66962500D02*
X160000000Y-67462500D01*
D52*
X131750000Y-52250000D02*
X133500000Y-54000000D01*
D51*
X163390000Y-85970000D02*
X163390000Y-78390000D01*
D52*
X147000000Y-62000000D02*
X147000000Y-58500000D01*
X156500000Y-63225000D02*
X158500000Y-65225000D01*
D51*
X158975000Y-65225000D02*
X160500000Y-66750000D01*
X164720000Y-87300000D02*
X163390000Y-85970000D01*
D52*
X156500000Y-63000000D02*
X156500000Y-63225000D01*
D53*
X160000000Y-67462500D02*
X160000000Y-68815600D01*
D52*
X147000000Y-58500000D02*
X145000000Y-56500000D01*
D51*
X163390000Y-78390000D02*
X163000000Y-78000000D01*
D52*
X131750000Y-50750000D02*
X131750000Y-52250000D01*
D51*
X158500000Y-65225000D02*
X158975000Y-65225000D01*
D52*
X131750000Y-50750000D02*
X131750000Y-44750000D01*
%TO.N,Net-(IC5-BST)*%
D53*
X158500000Y-66775000D02*
X159500001Y-67775001D01*
X159500001Y-67775001D02*
X159500001Y-68815600D01*
%TO.N,Net-(IC5-INP)*%
D49*
X160499999Y-78000001D02*
X159000000Y-79500000D01*
X160499999Y-73184400D02*
X160499999Y-78000001D01*
X159000000Y-81500000D02*
X159000000Y-79500000D01*
%TO.N,Net-(IC5-TGDN)*%
D53*
X161725194Y-65262694D02*
X161725194Y-68090407D01*
D49*
X162500000Y-70315599D02*
X161000001Y-68815600D01*
D53*
X160500000Y-64037500D02*
X161725194Y-65262694D01*
D49*
X162500000Y-76500000D02*
X162500000Y-70315599D01*
X161000000Y-68315599D02*
X160499999Y-68815600D01*
D53*
X161725194Y-68090407D02*
X161000001Y-68815600D01*
D49*
X167000000Y-81000000D02*
X162500000Y-76500000D01*
D53*
X161000001Y-68462499D02*
X161000001Y-68815600D01*
%TO.N,Net-(D2-K)*%
D50*
X129000000Y-73000000D02*
X130930400Y-74930400D01*
X130930400Y-74930400D02*
X131952500Y-74930400D01*
%TO.N,Net-(J4-Pin_2)*%
D52*
X137500000Y-79000000D02*
X139500000Y-79000000D01*
X139500000Y-79000000D02*
X144500000Y-79000000D01*
X144500000Y-79000000D02*
X146500000Y-79000000D01*
%TO.N,Net-(IC3-TGDN)*%
D54*
X169000000Y-55000000D02*
X165741899Y-55000000D01*
X162870950Y-52129050D02*
X161540952Y-52129050D01*
X162870950Y-52129050D02*
X161094999Y-50353100D01*
X161540952Y-52129050D02*
X160784701Y-52885301D01*
X160784701Y-52885301D02*
X160784701Y-53075000D01*
X165741899Y-55000000D02*
X162870950Y-52129050D01*
%TO.N,Net-(J1-Pin_2)*%
D52*
X139000000Y-87500000D02*
X144000000Y-87500000D01*
X136950000Y-87650000D02*
X137000000Y-87700000D01*
X137000000Y-87500000D02*
X139000000Y-87500000D01*
X144000000Y-87500000D02*
X146000000Y-87500000D01*
%TD*%
%TA.AperFunction,Conductor*%
%TO.N,VSS*%
G36*
X143473244Y-80120185D02*
G01*
X143518999Y-80172989D01*
X143528943Y-80242147D01*
X143516690Y-80280794D01*
X143480129Y-80352549D01*
X143426597Y-80517302D01*
X143399500Y-80688389D01*
X143399500Y-81311610D01*
X143422906Y-81459395D01*
X143426598Y-81482701D01*
X143480127Y-81647445D01*
X143558768Y-81801788D01*
X143660586Y-81941928D01*
X143783072Y-82064414D01*
X143923212Y-82166232D01*
X144077555Y-82244873D01*
X144242299Y-82298402D01*
X144413389Y-82325500D01*
X144413390Y-82325500D01*
X144586610Y-82325500D01*
X144586611Y-82325500D01*
X144757701Y-82298402D01*
X144922445Y-82244873D01*
X145076788Y-82166232D01*
X145103092Y-82147120D01*
X145134666Y-82124182D01*
X145200472Y-82100702D01*
X145207551Y-82100500D01*
X145792449Y-82100500D01*
X145859488Y-82120185D01*
X145865334Y-82124182D01*
X145918174Y-82162571D01*
X145923212Y-82166232D01*
X146077555Y-82244873D01*
X146077557Y-82244873D01*
X146077560Y-82244875D01*
X146154073Y-82269735D01*
X146213630Y-82289086D01*
X146262994Y-82319336D01*
X150243476Y-86299818D01*
X150276961Y-86361141D01*
X150271977Y-86430833D01*
X150243477Y-86475179D01*
X150160589Y-86558068D01*
X150160588Y-86558070D01*
X150160586Y-86558072D01*
X150116859Y-86618256D01*
X150058768Y-86698211D01*
X149980128Y-86852552D01*
X149926597Y-87017302D01*
X149899500Y-87188389D01*
X149899500Y-87811610D01*
X149923823Y-87965185D01*
X149926598Y-87982701D01*
X149950833Y-88057289D01*
X149980129Y-88147450D01*
X150016690Y-88219206D01*
X150029586Y-88287875D01*
X150003309Y-88352615D01*
X149946203Y-88392872D01*
X149906205Y-88399500D01*
X147093795Y-88399500D01*
X147026756Y-88379815D01*
X146981001Y-88327011D01*
X146971057Y-88257853D01*
X146983310Y-88219206D01*
X147019870Y-88147450D01*
X147019873Y-88147445D01*
X147073402Y-87982701D01*
X147100500Y-87811611D01*
X147100500Y-87188389D01*
X147073402Y-87017299D01*
X147019873Y-86852555D01*
X146941232Y-86698212D01*
X146839414Y-86558072D01*
X146716928Y-86435586D01*
X146576788Y-86333768D01*
X146510157Y-86299818D01*
X146422447Y-86255128D01*
X146422446Y-86255127D01*
X146422445Y-86255127D01*
X146257701Y-86201598D01*
X146257699Y-86201597D01*
X146257698Y-86201597D01*
X146125516Y-86180662D01*
X146086611Y-86174500D01*
X145913389Y-86174500D01*
X145874484Y-86180662D01*
X145742302Y-86201597D01*
X145577552Y-86255128D01*
X145423208Y-86333770D01*
X145365334Y-86375818D01*
X145299528Y-86399298D01*
X145292449Y-86399500D01*
X144937230Y-86399500D01*
X144870191Y-86379815D01*
X144849549Y-86363181D01*
X144818657Y-86332289D01*
X144818656Y-86332288D01*
X144693559Y-86255128D01*
X144669336Y-86240187D01*
X144669331Y-86240185D01*
X144637813Y-86229741D01*
X144502797Y-86185001D01*
X144502795Y-86185000D01*
X144400010Y-86174500D01*
X143599998Y-86174500D01*
X143599980Y-86174501D01*
X143497203Y-86185000D01*
X143497200Y-86185001D01*
X143330668Y-86240185D01*
X143330663Y-86240187D01*
X143181342Y-86332289D01*
X143150451Y-86363181D01*
X143089128Y-86396666D01*
X143062770Y-86399500D01*
X139707551Y-86399500D01*
X139640512Y-86379815D01*
X139634666Y-86375818D01*
X139576791Y-86333770D01*
X139576790Y-86333769D01*
X139576788Y-86333768D01*
X139422445Y-86255127D01*
X139257701Y-86201598D01*
X139257699Y-86201597D01*
X139257698Y-86201597D01*
X139125516Y-86180662D01*
X139086611Y-86174500D01*
X138913389Y-86174500D01*
X138874484Y-86180662D01*
X138742302Y-86201597D01*
X138577552Y-86255128D01*
X138423208Y-86333770D01*
X138365334Y-86375818D01*
X138299528Y-86399298D01*
X138292449Y-86399500D01*
X137707551Y-86399500D01*
X137640512Y-86379815D01*
X137634666Y-86375818D01*
X137576791Y-86333770D01*
X137576790Y-86333769D01*
X137576788Y-86333768D01*
X137422445Y-86255127D01*
X137257701Y-86201598D01*
X137257699Y-86201597D01*
X137257698Y-86201597D01*
X137125516Y-86180662D01*
X137086611Y-86174500D01*
X136913389Y-86174500D01*
X136874484Y-86180662D01*
X136742302Y-86201597D01*
X136577552Y-86255128D01*
X136423211Y-86333768D01*
X136372045Y-86370943D01*
X136283072Y-86435586D01*
X136283070Y-86435588D01*
X136283069Y-86435588D01*
X136160588Y-86558069D01*
X136160588Y-86558070D01*
X136160586Y-86558072D01*
X136116859Y-86618256D01*
X136058768Y-86698211D01*
X135980128Y-86852552D01*
X135926597Y-87017302D01*
X135899500Y-87188389D01*
X135899500Y-87302173D01*
X135893431Y-87340491D01*
X135876598Y-87392294D01*
X135876598Y-87392297D01*
X135849500Y-87563389D01*
X135849500Y-87736610D01*
X135876597Y-87907698D01*
X135902423Y-87987182D01*
X135904418Y-88057023D01*
X135868337Y-88116856D01*
X135805636Y-88147684D01*
X135784492Y-88149500D01*
X133610757Y-88149500D01*
X133543718Y-88129815D01*
X133523076Y-88113181D01*
X129386819Y-83976924D01*
X129353334Y-83915601D01*
X129350500Y-83889243D01*
X129350500Y-81896764D01*
X129370185Y-81829725D01*
X129422989Y-81783970D01*
X129492147Y-81774026D01*
X129555703Y-81803051D01*
X129574815Y-81823874D01*
X129660586Y-81941928D01*
X129783072Y-82064414D01*
X129923212Y-82166232D01*
X130077555Y-82244873D01*
X130242299Y-82298402D01*
X130413389Y-82325500D01*
X130413390Y-82325500D01*
X130586610Y-82325500D01*
X130586611Y-82325500D01*
X130757701Y-82298402D01*
X130922445Y-82244873D01*
X131076788Y-82166232D01*
X131103092Y-82147120D01*
X131134666Y-82124182D01*
X131200472Y-82100702D01*
X131207551Y-82100500D01*
X131792449Y-82100500D01*
X131859488Y-82120185D01*
X131865334Y-82124182D01*
X131918174Y-82162571D01*
X131923212Y-82166232D01*
X132077555Y-82244873D01*
X132242299Y-82298402D01*
X132413389Y-82325500D01*
X132413390Y-82325500D01*
X132586610Y-82325500D01*
X132586611Y-82325500D01*
X132757701Y-82298402D01*
X132922445Y-82244873D01*
X133076788Y-82166232D01*
X133103092Y-82147120D01*
X133134666Y-82124182D01*
X133200472Y-82100702D01*
X133207551Y-82100500D01*
X136792449Y-82100500D01*
X136859488Y-82120185D01*
X136865334Y-82124182D01*
X136918174Y-82162571D01*
X136923212Y-82166232D01*
X137077555Y-82244873D01*
X137242299Y-82298402D01*
X137413389Y-82325500D01*
X137413390Y-82325500D01*
X137586610Y-82325500D01*
X137586611Y-82325500D01*
X137757701Y-82298402D01*
X137922445Y-82244873D01*
X138076788Y-82166232D01*
X138103092Y-82147120D01*
X138134666Y-82124182D01*
X138200472Y-82100702D01*
X138207551Y-82100500D01*
X138562770Y-82100500D01*
X138629809Y-82120185D01*
X138650451Y-82136819D01*
X138681344Y-82167712D01*
X138830666Y-82259814D01*
X138997203Y-82314999D01*
X139099991Y-82325500D01*
X139900008Y-82325499D01*
X139900016Y-82325498D01*
X139900019Y-82325498D01*
X139966997Y-82318656D01*
X140002797Y-82314999D01*
X140169334Y-82259814D01*
X140318656Y-82167712D01*
X140442712Y-82043656D01*
X140534814Y-81894334D01*
X140589999Y-81727797D01*
X140600500Y-81625009D01*
X140600500Y-81006287D01*
X140600500Y-80913389D01*
X140600500Y-80905794D01*
X140600499Y-80905776D01*
X140600499Y-80374998D01*
X140600498Y-80374981D01*
X140589999Y-80272203D01*
X140587116Y-80263502D01*
X140584716Y-80193674D01*
X140620448Y-80133632D01*
X140682969Y-80102441D01*
X140704823Y-80100500D01*
X143406205Y-80100500D01*
X143473244Y-80120185D01*
G37*
%TD.AperFunction*%
%TA.AperFunction,Conductor*%
G36*
X160818834Y-78632914D02*
G01*
X160874767Y-78674786D01*
X160899184Y-78740250D01*
X160899500Y-78749096D01*
X160899500Y-80413330D01*
X160899499Y-80413348D01*
X160899499Y-80579054D01*
X160899498Y-80579054D01*
X160940423Y-80731785D01*
X160966702Y-80777302D01*
X160968788Y-80780914D01*
X161012223Y-80856146D01*
X161019479Y-80868714D01*
X161019481Y-80868717D01*
X161138349Y-80987585D01*
X161138355Y-80987590D01*
X161665425Y-81514660D01*
X161698910Y-81575983D01*
X161699361Y-81578149D01*
X161730261Y-81733491D01*
X161730264Y-81733501D01*
X161790602Y-81879172D01*
X161790609Y-81879185D01*
X161878210Y-82010288D01*
X161878213Y-82010292D01*
X161989707Y-82121786D01*
X161989711Y-82121789D01*
X162120814Y-82209390D01*
X162120827Y-82209397D01*
X162266498Y-82269735D01*
X162266503Y-82269737D01*
X162376987Y-82291713D01*
X162399691Y-82296230D01*
X162461602Y-82328615D01*
X162496176Y-82389330D01*
X162499500Y-82417847D01*
X162499500Y-85877157D01*
X162499499Y-85877183D01*
X162499499Y-85882293D01*
X162499499Y-86057707D01*
X162499499Y-86057709D01*
X162499498Y-86057709D01*
X162524820Y-86185001D01*
X162524820Y-86185002D01*
X162533719Y-86229741D01*
X162533721Y-86229749D01*
X162600849Y-86391812D01*
X162698299Y-86537656D01*
X162698305Y-86537664D01*
X162826658Y-86666017D01*
X162826680Y-86666037D01*
X163583181Y-87422538D01*
X163616666Y-87483861D01*
X163619500Y-87510219D01*
X163619500Y-88200001D01*
X163619501Y-88200014D01*
X163620459Y-88209390D01*
X163622094Y-88225396D01*
X163622095Y-88225397D01*
X163609326Y-88294090D01*
X163561446Y-88344975D01*
X163498737Y-88362000D01*
X162398348Y-88362000D01*
X162331309Y-88342315D01*
X162292809Y-88303097D01*
X162292624Y-88302797D01*
X162217712Y-88181344D01*
X162093656Y-88057288D01*
X161984561Y-87989998D01*
X161944336Y-87965187D01*
X161944331Y-87965185D01*
X161942862Y-87964698D01*
X161777797Y-87910001D01*
X161777795Y-87910000D01*
X161675010Y-87899500D01*
X160324998Y-87899500D01*
X160324981Y-87899501D01*
X160222203Y-87910000D01*
X160222200Y-87910001D01*
X160055668Y-87965185D01*
X160055663Y-87965187D01*
X159906342Y-88057289D01*
X159782289Y-88181342D01*
X159782288Y-88181344D01*
X159707997Y-88301791D01*
X159707191Y-88303097D01*
X159655243Y-88349821D01*
X159601652Y-88362000D01*
X159349500Y-88362000D01*
X159282461Y-88342315D01*
X159236706Y-88289511D01*
X159225500Y-88238000D01*
X159225499Y-87649998D01*
X159225498Y-87649980D01*
X159214999Y-87547203D01*
X159214998Y-87547200D01*
X159194499Y-87485339D01*
X159159814Y-87380666D01*
X159067712Y-87231344D01*
X158943656Y-87107288D01*
X158794334Y-87015186D01*
X158627797Y-86960001D01*
X158627795Y-86960000D01*
X158525016Y-86949500D01*
X158525009Y-86949500D01*
X157900097Y-86949500D01*
X157833058Y-86929815D01*
X157812416Y-86913181D01*
X157136819Y-86237584D01*
X157103334Y-86176261D01*
X157100500Y-86149903D01*
X157100500Y-82724499D01*
X157120185Y-82657460D01*
X157172989Y-82611705D01*
X157224500Y-82600499D01*
X157625002Y-82600499D01*
X157625008Y-82600499D01*
X157727797Y-82589999D01*
X157894334Y-82534814D01*
X158043656Y-82442712D01*
X158043667Y-82442700D01*
X158044898Y-82441729D01*
X158045912Y-82441319D01*
X158049803Y-82438920D01*
X158050213Y-82439584D01*
X158109694Y-82415588D01*
X158178336Y-82428628D01*
X158194699Y-82438680D01*
X158198202Y-82441225D01*
X158198212Y-82441232D01*
X158352555Y-82519873D01*
X158517299Y-82573402D01*
X158688389Y-82600500D01*
X158688390Y-82600500D01*
X159311610Y-82600500D01*
X159311611Y-82600500D01*
X159482701Y-82573402D01*
X159647445Y-82519873D01*
X159801788Y-82441232D01*
X159941928Y-82339414D01*
X160064414Y-82216928D01*
X160166232Y-82076788D01*
X160244873Y-81922445D01*
X160298402Y-81757701D01*
X160325500Y-81586611D01*
X160325500Y-81413389D01*
X160298402Y-81242299D01*
X160244873Y-81077555D01*
X160166232Y-80923212D01*
X160064414Y-80783072D01*
X159941928Y-80660586D01*
X159858975Y-80600317D01*
X159816311Y-80544988D01*
X159810332Y-80475374D01*
X159842938Y-80413579D01*
X159858976Y-80399682D01*
X159866472Y-80394236D01*
X159941928Y-80339414D01*
X160064414Y-80216928D01*
X160166232Y-80076788D01*
X160244873Y-79922445D01*
X160298402Y-79757701D01*
X160325500Y-79586611D01*
X160325500Y-79413389D01*
X160298402Y-79242299D01*
X160274927Y-79170053D01*
X160272933Y-79100213D01*
X160305176Y-79044057D01*
X160687819Y-78661415D01*
X160749142Y-78627930D01*
X160818834Y-78632914D01*
G37*
%TD.AperFunction*%
%TA.AperFunction,Conductor*%
G36*
X168110785Y-86108523D02*
G01*
X168138820Y-86113543D01*
X168143878Y-86118240D01*
X168150501Y-86120185D01*
X168169148Y-86141704D01*
X168190020Y-86161086D01*
X168191736Y-86167772D01*
X168196256Y-86172989D01*
X168200308Y-86201174D01*
X168207389Y-86228762D01*
X168205662Y-86238406D01*
X168206200Y-86242147D01*
X168201168Y-86263501D01*
X168190001Y-86297203D01*
X168190000Y-86297204D01*
X168179500Y-86399983D01*
X168179500Y-88200001D01*
X168179501Y-88200013D01*
X168180459Y-88209390D01*
X168182094Y-88225396D01*
X168182095Y-88225397D01*
X168169326Y-88294090D01*
X168121446Y-88344975D01*
X168058737Y-88362000D01*
X165941264Y-88362000D01*
X165874225Y-88342315D01*
X165828470Y-88289511D01*
X165817906Y-88225396D01*
X165820500Y-88200009D01*
X165820499Y-86424499D01*
X165840184Y-86357461D01*
X165892987Y-86311706D01*
X165944499Y-86300500D01*
X166078844Y-86300500D01*
X166078845Y-86300499D01*
X166233497Y-86269737D01*
X166379179Y-86209394D01*
X166379185Y-86209390D01*
X166510875Y-86121398D01*
X166577553Y-86100520D01*
X166579766Y-86100500D01*
X168083462Y-86100500D01*
X168110785Y-86108523D01*
G37*
%TD.AperFunction*%
%TA.AperFunction,Conductor*%
G36*
X165435098Y-84720185D02*
G01*
X165480853Y-84772989D01*
X165490797Y-84842147D01*
X165461772Y-84905703D01*
X165455740Y-84912181D01*
X165378213Y-84989707D01*
X165378210Y-84989711D01*
X165290609Y-85120814D01*
X165290602Y-85120827D01*
X165230264Y-85266498D01*
X165230261Y-85266510D01*
X165199500Y-85421153D01*
X165199500Y-85575500D01*
X165179815Y-85642539D01*
X165127011Y-85688294D01*
X165075500Y-85699500D01*
X164430219Y-85699500D01*
X164400778Y-85690855D01*
X164370792Y-85684332D01*
X164365776Y-85680577D01*
X164363180Y-85679815D01*
X164342538Y-85663181D01*
X164316819Y-85637462D01*
X164283334Y-85576139D01*
X164280500Y-85549781D01*
X164280500Y-84824500D01*
X164300185Y-84757461D01*
X164352989Y-84711706D01*
X164404500Y-84700500D01*
X165368059Y-84700500D01*
X165435098Y-84720185D01*
G37*
%TD.AperFunction*%
%TA.AperFunction,Conductor*%
G36*
X161979442Y-62295185D02*
G01*
X162000084Y-62311819D01*
X162938181Y-63249916D01*
X162971666Y-63311239D01*
X162974500Y-63337597D01*
X162974500Y-64175001D01*
X162974501Y-64175019D01*
X162985000Y-64277796D01*
X162985001Y-64277799D01*
X163040185Y-64444331D01*
X163040187Y-64444336D01*
X163048463Y-64457753D01*
X163132288Y-64593656D01*
X163256344Y-64717712D01*
X163405666Y-64809814D01*
X163572203Y-64864999D01*
X163674991Y-64875500D01*
X164400008Y-64875499D01*
X164400016Y-64875498D01*
X164400019Y-64875498D01*
X164456302Y-64869748D01*
X164502797Y-64864999D01*
X164669334Y-64809814D01*
X164818656Y-64717712D01*
X164942712Y-64593656D01*
X165034814Y-64444334D01*
X165089999Y-64277797D01*
X165100500Y-64175009D01*
X165100499Y-63196717D01*
X165120183Y-63129679D01*
X165172987Y-63083924D01*
X165242146Y-63073980D01*
X165305702Y-63103005D01*
X165312180Y-63109037D01*
X165863181Y-63660038D01*
X165896666Y-63721361D01*
X165899500Y-63747719D01*
X165899500Y-64175001D01*
X165899501Y-64175019D01*
X165910000Y-64277796D01*
X165910001Y-64277799D01*
X165965185Y-64444331D01*
X165965187Y-64444336D01*
X165973463Y-64457753D01*
X166057288Y-64593656D01*
X166181344Y-64717712D01*
X166330666Y-64809814D01*
X166497203Y-64864999D01*
X166599991Y-64875500D01*
X167325008Y-64875499D01*
X167325016Y-64875498D01*
X167325019Y-64875498D01*
X167381302Y-64869748D01*
X167427797Y-64864999D01*
X167594334Y-64809814D01*
X167743656Y-64717712D01*
X167867712Y-64593656D01*
X167956687Y-64449402D01*
X168008635Y-64402679D01*
X168062226Y-64390500D01*
X168481161Y-64390500D01*
X168487288Y-64390500D01*
X168487293Y-64390501D01*
X168545502Y-64390501D01*
X168584872Y-64402061D01*
X168612539Y-64410186D01*
X168612541Y-64410187D01*
X168658295Y-64462991D01*
X168658296Y-64463001D01*
X168669500Y-64514501D01*
X168669500Y-65577770D01*
X168649815Y-65644809D01*
X168633181Y-65665451D01*
X168617289Y-65681342D01*
X168525187Y-65830663D01*
X168525186Y-65830666D01*
X168470001Y-65997203D01*
X168470001Y-65997204D01*
X168470000Y-65997204D01*
X168459500Y-66099983D01*
X168459500Y-67900001D01*
X168459501Y-67900018D01*
X168470000Y-68002796D01*
X168470001Y-68002799D01*
X168502045Y-68099499D01*
X168525186Y-68169334D01*
X168617288Y-68318656D01*
X168741344Y-68442712D01*
X168890666Y-68534814D01*
X169057203Y-68589999D01*
X169159991Y-68600500D01*
X169434062Y-68600499D01*
X169501100Y-68620183D01*
X169546855Y-68672987D01*
X169556799Y-68742146D01*
X169527774Y-68805701D01*
X169521742Y-68812180D01*
X168770743Y-69563181D01*
X168709420Y-69596666D01*
X168683062Y-69599500D01*
X164579980Y-69599500D01*
X164477198Y-69610001D01*
X164310666Y-69665184D01*
X164310655Y-69665189D01*
X164161346Y-69757285D01*
X164161342Y-69757288D01*
X164037288Y-69881342D01*
X164037285Y-69881346D01*
X163945189Y-70030655D01*
X163945184Y-70030666D01*
X163890001Y-70197198D01*
X163879500Y-70299980D01*
X163879500Y-76300019D01*
X163890001Y-76402801D01*
X163945184Y-76569333D01*
X163945189Y-76569344D01*
X164037285Y-76718653D01*
X164037288Y-76718657D01*
X164161342Y-76842711D01*
X164161346Y-76842714D01*
X164310655Y-76934810D01*
X164310658Y-76934811D01*
X164310664Y-76934815D01*
X164477200Y-76989999D01*
X164579988Y-77000500D01*
X164579993Y-77000500D01*
X169980007Y-77000500D01*
X169980012Y-77000500D01*
X170082800Y-76989999D01*
X170249336Y-76934815D01*
X170398657Y-76842712D01*
X170522712Y-76718657D01*
X170614815Y-76569336D01*
X170669999Y-76402800D01*
X170680500Y-76300012D01*
X170680500Y-70299988D01*
X170669999Y-70197200D01*
X170614815Y-70030664D01*
X170614814Y-70030662D01*
X170614813Y-70030659D01*
X170608279Y-70020066D01*
X170589839Y-69952673D01*
X170610762Y-69886010D01*
X170626132Y-69867294D01*
X171897820Y-68595606D01*
X171959142Y-68562123D01*
X172028834Y-68567107D01*
X172084767Y-68608979D01*
X172109184Y-68674443D01*
X172109500Y-68683289D01*
X172109500Y-76260221D01*
X172089815Y-76327260D01*
X172037011Y-76373015D01*
X171985500Y-76384221D01*
X171726663Y-76384221D01*
X171726644Y-76384222D01*
X171627292Y-76394371D01*
X171627289Y-76394372D01*
X171466305Y-76447717D01*
X171466294Y-76447722D01*
X171321959Y-76536750D01*
X171321955Y-76536753D01*
X171202032Y-76656676D01*
X171202029Y-76656680D01*
X171113001Y-76801015D01*
X171112996Y-76801026D01*
X171059651Y-76962011D01*
X171049500Y-77061368D01*
X171049500Y-77658058D01*
X171049501Y-77658076D01*
X171059650Y-77757428D01*
X171059651Y-77757431D01*
X171112996Y-77918415D01*
X171113001Y-77918426D01*
X171202029Y-78062761D01*
X171202032Y-78062765D01*
X171321955Y-78182688D01*
X171321959Y-78182691D01*
X171466294Y-78271719D01*
X171466297Y-78271720D01*
X171466303Y-78271724D01*
X171627292Y-78325070D01*
X171726655Y-78335221D01*
X171870434Y-78335220D01*
X171937472Y-78354904D01*
X171983227Y-78407708D01*
X171993171Y-78476866D01*
X171986615Y-78502552D01*
X171967525Y-78553735D01*
X171967524Y-78553737D01*
X171961117Y-78613337D01*
X171961116Y-78613356D01*
X171961116Y-80106091D01*
X171961117Y-80106097D01*
X171967524Y-80165704D01*
X172017818Y-80300549D01*
X172017822Y-80300556D01*
X172104068Y-80415765D01*
X172104071Y-80415768D01*
X172219280Y-80502014D01*
X172219287Y-80502018D01*
X172259306Y-80516944D01*
X172354133Y-80552312D01*
X172413743Y-80558721D01*
X172788888Y-80558720D01*
X172838070Y-80553433D01*
X172864570Y-80553433D01*
X172913745Y-80558721D01*
X173288890Y-80558720D01*
X173288893Y-80558719D01*
X173288905Y-80558719D01*
X173323097Y-80555042D01*
X173338063Y-80553434D01*
X173364570Y-80553434D01*
X173413744Y-80558721D01*
X173788889Y-80558720D01*
X173788892Y-80558719D01*
X173788904Y-80558719D01*
X173823096Y-80555042D01*
X173838062Y-80553434D01*
X173864569Y-80553434D01*
X173913743Y-80558721D01*
X174288888Y-80558720D01*
X174338070Y-80553433D01*
X174364570Y-80553433D01*
X174413745Y-80558721D01*
X174788890Y-80558720D01*
X174848501Y-80552312D01*
X174983349Y-80502017D01*
X175098564Y-80415767D01*
X175184814Y-80300552D01*
X175235109Y-80165704D01*
X175241518Y-80106094D01*
X175241517Y-79915860D01*
X175261201Y-79848822D01*
X175314005Y-79803067D01*
X175383163Y-79793123D01*
X175389683Y-79794239D01*
X175421158Y-79800500D01*
X175578844Y-79800500D01*
X175578845Y-79800499D01*
X175733497Y-79769737D01*
X175869448Y-79713424D01*
X175938914Y-79705956D01*
X176001394Y-79737231D01*
X176037046Y-79797320D01*
X176034552Y-79867145D01*
X176004579Y-79915667D01*
X175635063Y-80285185D01*
X175513297Y-80406951D01*
X175483627Y-80436621D01*
X175406949Y-80513298D01*
X175323398Y-80638340D01*
X175323391Y-80638353D01*
X175265842Y-80777290D01*
X175265839Y-80777302D01*
X175236500Y-80924797D01*
X175236500Y-84111431D01*
X175216815Y-84178470D01*
X175200181Y-84199112D01*
X174953196Y-84446096D01*
X174891873Y-84479581D01*
X174822181Y-84474597D01*
X174766248Y-84432725D01*
X174741831Y-84367261D01*
X174741515Y-84358440D01*
X174741515Y-82982149D01*
X174735107Y-82922538D01*
X174684812Y-82787690D01*
X174684811Y-82787689D01*
X174684809Y-82787685D01*
X174598563Y-82672476D01*
X174598560Y-82672473D01*
X174483351Y-82586227D01*
X174483344Y-82586223D01*
X174348502Y-82535931D01*
X174348501Y-82535930D01*
X174348499Y-82535930D01*
X174288889Y-82529521D01*
X174288879Y-82529521D01*
X173913746Y-82529521D01*
X173913739Y-82529522D01*
X173854132Y-82535929D01*
X173719287Y-82586223D01*
X173719280Y-82586227D01*
X173604071Y-82672473D01*
X173604068Y-82672476D01*
X173517822Y-82787685D01*
X173517818Y-82787692D01*
X173467498Y-82922609D01*
X173425627Y-82978543D01*
X173360163Y-83002960D01*
X173291890Y-82988108D01*
X173242484Y-82938703D01*
X173235134Y-82922609D01*
X173184813Y-82787692D01*
X173184809Y-82787685D01*
X173098563Y-82672476D01*
X173098560Y-82672473D01*
X172983351Y-82586227D01*
X172983344Y-82586223D01*
X172848502Y-82535931D01*
X172848501Y-82535930D01*
X172848499Y-82535930D01*
X172788889Y-82529521D01*
X172788879Y-82529521D01*
X172413746Y-82529521D01*
X172413739Y-82529522D01*
X172354132Y-82535929D01*
X172219287Y-82586223D01*
X172219280Y-82586227D01*
X172104071Y-82672473D01*
X172104068Y-82672476D01*
X172017822Y-82787685D01*
X172017818Y-82787692D01*
X171967524Y-82922538D01*
X171961117Y-82982137D01*
X171961117Y-82982144D01*
X171961116Y-82982156D01*
X171961116Y-83468122D01*
X171941431Y-83535161D01*
X171924796Y-83555803D01*
X170937888Y-84542714D01*
X170617421Y-84863181D01*
X170556098Y-84896666D01*
X170529740Y-84899500D01*
X169938993Y-84899500D01*
X169871954Y-84879815D01*
X169826199Y-84827011D01*
X169816255Y-84757853D01*
X169845280Y-84694297D01*
X169899989Y-84657794D01*
X169969336Y-84634815D01*
X170118657Y-84542712D01*
X170242712Y-84418657D01*
X170334815Y-84269336D01*
X170389999Y-84102800D01*
X170400500Y-84000012D01*
X170400500Y-77999988D01*
X170389999Y-77897200D01*
X170334815Y-77730664D01*
X170334811Y-77730658D01*
X170334810Y-77730655D01*
X170242714Y-77581346D01*
X170242711Y-77581342D01*
X170118657Y-77457288D01*
X170118653Y-77457285D01*
X169969344Y-77365189D01*
X169969338Y-77365186D01*
X169969336Y-77365185D01*
X169968219Y-77364815D01*
X169802801Y-77310001D01*
X169700019Y-77299500D01*
X169700012Y-77299500D01*
X164299988Y-77299500D01*
X164299978Y-77299500D01*
X164221372Y-77307531D01*
X164152679Y-77294761D01*
X164121089Y-77271854D01*
X163136819Y-76287584D01*
X163103334Y-76226261D01*
X163100500Y-76199903D01*
X163100500Y-70404658D01*
X163100501Y-70404645D01*
X163100501Y-70236544D01*
X163100501Y-70236542D01*
X163059577Y-70083814D01*
X163033354Y-70038396D01*
X163019615Y-70014598D01*
X163019614Y-70014597D01*
X162980521Y-69946885D01*
X162980520Y-69946883D01*
X162868716Y-69835079D01*
X162868715Y-69835078D01*
X162864385Y-69830748D01*
X162864374Y-69830738D01*
X161972408Y-68938772D01*
X161938923Y-68877449D01*
X161943907Y-68807757D01*
X161972405Y-68763413D01*
X162230621Y-68505199D01*
X162301831Y-68398625D01*
X162330563Y-68329257D01*
X162350881Y-68280207D01*
X162375887Y-68154495D01*
X162375887Y-65198606D01*
X162375887Y-65198603D01*
X162350882Y-65072899D01*
X162350881Y-65072898D01*
X162350881Y-65072894D01*
X162301830Y-64954475D01*
X162287005Y-64932288D01*
X162230621Y-64847902D01*
X162230619Y-64847900D01*
X162230617Y-64847897D01*
X162230616Y-64847896D01*
X161908566Y-64525847D01*
X161875081Y-64464524D01*
X161872889Y-64425561D01*
X161875500Y-64400009D01*
X161875499Y-63674992D01*
X161873971Y-63660038D01*
X161864999Y-63572203D01*
X161864998Y-63572200D01*
X161855936Y-63544852D01*
X161809814Y-63405666D01*
X161717712Y-63256344D01*
X161593656Y-63132288D01*
X161498186Y-63073402D01*
X161444336Y-63040187D01*
X161444331Y-63040185D01*
X161442862Y-63039698D01*
X161277797Y-62985001D01*
X161277795Y-62985000D01*
X161175010Y-62974500D01*
X159824998Y-62974500D01*
X159824981Y-62974501D01*
X159722203Y-62985000D01*
X159722200Y-62985001D01*
X159555668Y-63040185D01*
X159555663Y-63040187D01*
X159406342Y-63132289D01*
X159282289Y-63256342D01*
X159190187Y-63405663D01*
X159190185Y-63405668D01*
X159177372Y-63444336D01*
X159135001Y-63572203D01*
X159135001Y-63572204D01*
X159135000Y-63572204D01*
X159124500Y-63674983D01*
X159124500Y-63993796D01*
X159104815Y-64060835D01*
X159052011Y-64106590D01*
X158982853Y-64116534D01*
X158919297Y-64087509D01*
X158912819Y-64081477D01*
X157594336Y-62762994D01*
X157564086Y-62713630D01*
X157519875Y-62577560D01*
X157519870Y-62577549D01*
X157457834Y-62455794D01*
X157444938Y-62387125D01*
X157471215Y-62322385D01*
X157528321Y-62282128D01*
X157568319Y-62275500D01*
X161912403Y-62275500D01*
X161979442Y-62295185D01*
G37*
%TD.AperFunction*%
%TA.AperFunction,Conductor*%
G36*
X137603777Y-67279474D02*
G01*
X137673389Y-67290500D01*
X137673391Y-67290500D01*
X138075270Y-67290500D01*
X138142309Y-67310185D01*
X138188064Y-67362989D01*
X138198008Y-67432147D01*
X138174536Y-67488811D01*
X138101806Y-67585964D01*
X138101802Y-67585971D01*
X138069185Y-67673424D01*
X138051509Y-67720817D01*
X138045100Y-67780427D01*
X138045100Y-67780434D01*
X138045100Y-67780435D01*
X138045100Y-68409570D01*
X138045101Y-68409576D01*
X138051508Y-68469183D01*
X138101802Y-68604028D01*
X138101804Y-68604031D01*
X138140475Y-68655689D01*
X138164892Y-68721154D01*
X138150040Y-68789427D01*
X138140475Y-68804311D01*
X138101804Y-68855968D01*
X138101802Y-68855971D01*
X138051510Y-68990813D01*
X138051509Y-68990817D01*
X138045100Y-69050427D01*
X138045100Y-69050434D01*
X138045100Y-69050435D01*
X138045100Y-69679570D01*
X138045101Y-69679576D01*
X138051508Y-69739183D01*
X138101802Y-69874028D01*
X138101806Y-69874035D01*
X138188052Y-69989244D01*
X138188055Y-69989247D01*
X138303264Y-70075493D01*
X138303271Y-70075497D01*
X138438117Y-70125791D01*
X138438116Y-70125791D01*
X138445044Y-70126535D01*
X138497727Y-70132200D01*
X139469402Y-70132199D01*
X139536441Y-70151883D01*
X139557083Y-70168518D01*
X142538181Y-73149616D01*
X142571666Y-73210939D01*
X142574500Y-73237297D01*
X142574500Y-73583480D01*
X142554815Y-73650519D01*
X142538181Y-73671161D01*
X142419531Y-73789810D01*
X142419530Y-73789811D01*
X142331522Y-73935393D01*
X142280913Y-74097807D01*
X142274500Y-74168386D01*
X142274500Y-74831613D01*
X142280913Y-74902192D01*
X142280913Y-74902194D01*
X142280914Y-74902196D01*
X142331522Y-75064606D01*
X142396315Y-75171787D01*
X142419530Y-75210188D01*
X142539811Y-75330469D01*
X142539813Y-75330470D01*
X142539815Y-75330472D01*
X142685394Y-75418478D01*
X142847804Y-75469086D01*
X142918384Y-75475500D01*
X142918387Y-75475500D01*
X143431613Y-75475500D01*
X143431616Y-75475500D01*
X143502196Y-75469086D01*
X143664606Y-75418478D01*
X143810185Y-75330472D01*
X143846842Y-75293815D01*
X143912319Y-75228339D01*
X143973642Y-75194854D01*
X144043334Y-75199838D01*
X144087681Y-75228339D01*
X144189811Y-75330469D01*
X144189813Y-75330470D01*
X144189815Y-75330472D01*
X144335394Y-75418478D01*
X144497804Y-75469086D01*
X144568384Y-75475500D01*
X144899903Y-75475500D01*
X144966942Y-75495185D01*
X144987584Y-75511819D01*
X147014131Y-77538366D01*
X147047616Y-77599689D01*
X147042632Y-77669381D01*
X147000760Y-77725314D01*
X146935296Y-77749731D01*
X146888132Y-77743978D01*
X146876458Y-77740185D01*
X146757701Y-77701598D01*
X146757698Y-77701597D01*
X146626271Y-77680781D01*
X146586611Y-77674500D01*
X146413389Y-77674500D01*
X146373728Y-77680781D01*
X146242302Y-77701597D01*
X146077552Y-77755128D01*
X145923208Y-77833770D01*
X145865334Y-77875818D01*
X145799528Y-77899298D01*
X145792449Y-77899500D01*
X145437230Y-77899500D01*
X145370191Y-77879815D01*
X145349549Y-77863181D01*
X145318657Y-77832289D01*
X145318656Y-77832288D01*
X145193559Y-77755128D01*
X145169336Y-77740187D01*
X145169331Y-77740185D01*
X145167862Y-77739698D01*
X145002797Y-77685001D01*
X145002795Y-77685000D01*
X144900010Y-77674500D01*
X144099998Y-77674500D01*
X144099980Y-77674501D01*
X143997203Y-77685000D01*
X143997200Y-77685001D01*
X143830668Y-77740185D01*
X143830663Y-77740187D01*
X143681342Y-77832289D01*
X143650451Y-77863181D01*
X143589128Y-77896666D01*
X143562770Y-77899500D01*
X140207551Y-77899500D01*
X140140512Y-77879815D01*
X140134666Y-77875818D01*
X140076791Y-77833770D01*
X140076790Y-77833769D01*
X140076788Y-77833768D01*
X139922445Y-77755127D01*
X139757701Y-77701598D01*
X139757699Y-77701597D01*
X139757698Y-77701597D01*
X139626271Y-77680781D01*
X139586611Y-77674500D01*
X139413389Y-77674500D01*
X139373728Y-77680781D01*
X139242302Y-77701597D01*
X139077552Y-77755128D01*
X138923208Y-77833770D01*
X138865334Y-77875818D01*
X138799528Y-77899298D01*
X138792449Y-77899500D01*
X138207551Y-77899500D01*
X138140512Y-77879815D01*
X138134666Y-77875818D01*
X138076791Y-77833770D01*
X138076790Y-77833769D01*
X138076788Y-77833768D01*
X137922445Y-77755127D01*
X137757701Y-77701598D01*
X137757699Y-77701597D01*
X137757698Y-77701597D01*
X137626271Y-77680781D01*
X137586611Y-77674500D01*
X137413389Y-77674500D01*
X137373728Y-77680781D01*
X137242302Y-77701597D01*
X137077552Y-77755128D01*
X136923211Y-77833768D01*
X136868202Y-77873735D01*
X136783072Y-77935586D01*
X136783070Y-77935588D01*
X136783069Y-77935588D01*
X136660588Y-78058069D01*
X136660588Y-78058070D01*
X136660586Y-78058072D01*
X136639055Y-78087707D01*
X136558768Y-78198211D01*
X136480128Y-78352552D01*
X136426597Y-78517302D01*
X136399500Y-78688389D01*
X136399500Y-79311611D01*
X136426598Y-79482701D01*
X136471790Y-79621787D01*
X136480129Y-79647450D01*
X136516690Y-79719206D01*
X136529586Y-79787875D01*
X136503309Y-79852615D01*
X136446203Y-79892872D01*
X136406205Y-79899500D01*
X133809756Y-79899500D01*
X133742717Y-79879815D01*
X133696962Y-79827011D01*
X133687018Y-79757853D01*
X133716043Y-79694297D01*
X133722075Y-79687819D01*
X135351825Y-78058069D01*
X136982723Y-76427171D01*
X136982730Y-76427165D01*
X136989790Y-76420105D01*
X136989792Y-76420104D01*
X137140104Y-76269792D01*
X137140106Y-76269788D01*
X137140109Y-76269786D01*
X137265048Y-76097820D01*
X137265047Y-76097820D01*
X137265051Y-76097816D01*
X137361557Y-75908412D01*
X137427246Y-75706243D01*
X137460500Y-75496287D01*
X137460500Y-69393713D01*
X137460500Y-67401966D01*
X137480185Y-67334927D01*
X137532989Y-67289172D01*
X137602147Y-67279228D01*
X137603777Y-67279474D01*
G37*
%TD.AperFunction*%
%TA.AperFunction,Conductor*%
G36*
X156918834Y-68532914D02*
G01*
X156974767Y-68574786D01*
X156999184Y-68640250D01*
X156999500Y-68649096D01*
X156999500Y-71697731D01*
X156999499Y-71697749D01*
X156999499Y-71863455D01*
X156999498Y-71863455D01*
X157040423Y-72016186D01*
X157055387Y-72042104D01*
X157055386Y-72042104D01*
X157055387Y-72042105D01*
X157119475Y-72153110D01*
X157119481Y-72153118D01*
X157238349Y-72271986D01*
X157238355Y-72271991D01*
X158323480Y-73357117D01*
X158356965Y-73418440D01*
X158359799Y-73444798D01*
X158359799Y-73930770D01*
X158359800Y-73930776D01*
X158366207Y-73990383D01*
X158391680Y-74058677D01*
X158399498Y-74102010D01*
X158399498Y-74179055D01*
X158399497Y-74179055D01*
X158440422Y-74331786D01*
X158456860Y-74360257D01*
X158456859Y-74360257D01*
X158456860Y-74360258D01*
X158519474Y-74468710D01*
X158519480Y-74468718D01*
X158615425Y-74564663D01*
X158648910Y-74625986D01*
X158649361Y-74628152D01*
X158680260Y-74783492D01*
X158680263Y-74783502D01*
X158740601Y-74929173D01*
X158740608Y-74929186D01*
X158828209Y-75060289D01*
X158828212Y-75060293D01*
X158939706Y-75171787D01*
X158939710Y-75171790D01*
X159070813Y-75259391D01*
X159070826Y-75259398D01*
X159216497Y-75319736D01*
X159216502Y-75319738D01*
X159371152Y-75350500D01*
X159371155Y-75350501D01*
X159371157Y-75350501D01*
X159528843Y-75350501D01*
X159528844Y-75350500D01*
X159683496Y-75319738D01*
X159728049Y-75301283D01*
X159797514Y-75293815D01*
X159859994Y-75325089D01*
X159895647Y-75385178D01*
X159899499Y-75415845D01*
X159899499Y-77699904D01*
X159879814Y-77766943D01*
X159863180Y-77787585D01*
X159287584Y-78363181D01*
X159226261Y-78396666D01*
X159199903Y-78399500D01*
X158688389Y-78399500D01*
X158648728Y-78405781D01*
X158517302Y-78426597D01*
X158352552Y-78480128D01*
X158198211Y-78558768D01*
X158072886Y-78649823D01*
X158007079Y-78673303D01*
X157939025Y-78657478D01*
X157927114Y-78649823D01*
X157801788Y-78558768D01*
X157647447Y-78480128D01*
X157647446Y-78480127D01*
X157647445Y-78480127D01*
X157482701Y-78426598D01*
X157482699Y-78426597D01*
X157482698Y-78426597D01*
X157351271Y-78405781D01*
X157311611Y-78399500D01*
X156688389Y-78399500D01*
X156648728Y-78405781D01*
X156517302Y-78426597D01*
X156352552Y-78480128D01*
X156198211Y-78558768D01*
X156136872Y-78603334D01*
X156058072Y-78660586D01*
X156058070Y-78660588D01*
X156058069Y-78660588D01*
X155935588Y-78783069D01*
X155935588Y-78783070D01*
X155935586Y-78783072D01*
X155892791Y-78841974D01*
X155833768Y-78923211D01*
X155755128Y-79077550D01*
X155737136Y-79132926D01*
X155697698Y-79190601D01*
X155633339Y-79217799D01*
X155564493Y-79205884D01*
X155551852Y-79198720D01*
X155540817Y-79191581D01*
X155518716Y-79169480D01*
X155409260Y-79106286D01*
X155406550Y-79104721D01*
X155406534Y-79104711D01*
X155388595Y-79094355D01*
X155381785Y-79090423D01*
X155229057Y-79049499D01*
X155070943Y-79049499D01*
X155063347Y-79049499D01*
X155063331Y-79049500D01*
X152416520Y-79049500D01*
X152387079Y-79040855D01*
X152357093Y-79034332D01*
X152352077Y-79030577D01*
X152349481Y-79029815D01*
X152328839Y-79013181D01*
X152228339Y-78912681D01*
X152194854Y-78851358D01*
X152199838Y-78781666D01*
X152228339Y-78737319D01*
X152328839Y-78636819D01*
X152390162Y-78603334D01*
X152416520Y-78600500D01*
X152463331Y-78600500D01*
X152463347Y-78600501D01*
X152470943Y-78600501D01*
X152629054Y-78600501D01*
X152629057Y-78600501D01*
X152781785Y-78559577D01*
X152851233Y-78519481D01*
X152918716Y-78480520D01*
X153030520Y-78368716D01*
X153030520Y-78368714D01*
X153040724Y-78358511D01*
X153040728Y-78358506D01*
X155012416Y-76386818D01*
X155073739Y-76353333D01*
X155100097Y-76350499D01*
X155174394Y-76350499D01*
X155174404Y-76350499D01*
X155209156Y-76347765D01*
X155357887Y-76304555D01*
X155491198Y-76225715D01*
X155600715Y-76116198D01*
X155679555Y-75982887D01*
X155722765Y-75834156D01*
X155725500Y-75799405D01*
X155725499Y-75300596D01*
X155722765Y-75265844D01*
X155679555Y-75117113D01*
X155600715Y-74983802D01*
X155600713Y-74983800D01*
X155600710Y-74983796D01*
X155491203Y-74874289D01*
X155491194Y-74874282D01*
X155410111Y-74826330D01*
X155357887Y-74795445D01*
X155209156Y-74752235D01*
X155209153Y-74752234D01*
X155209151Y-74752234D01*
X155178395Y-74749814D01*
X155174405Y-74749500D01*
X155174404Y-74749500D01*
X154825606Y-74749500D01*
X154825584Y-74749501D01*
X154790847Y-74752234D01*
X154790844Y-74752235D01*
X154642113Y-74795445D01*
X154642111Y-74795445D01*
X154642111Y-74795446D01*
X154508805Y-74874282D01*
X154508796Y-74874289D01*
X154399289Y-74983796D01*
X154399282Y-74983805D01*
X154330571Y-75099991D01*
X154320445Y-75117113D01*
X154292760Y-75212407D01*
X154277234Y-75265847D01*
X154277234Y-75265849D01*
X154274500Y-75300589D01*
X154274500Y-75374902D01*
X154254815Y-75441941D01*
X154238181Y-75462583D01*
X152420892Y-77279872D01*
X152359569Y-77313357D01*
X152289877Y-77308373D01*
X152245530Y-77279872D01*
X152210188Y-77244530D01*
X152152066Y-77209394D01*
X152064606Y-77156522D01*
X151902196Y-77105914D01*
X151902194Y-77105913D01*
X151902192Y-77105913D01*
X151852778Y-77101423D01*
X151831616Y-77099500D01*
X151831613Y-77099500D01*
X151500097Y-77099500D01*
X151433058Y-77079815D01*
X151412416Y-77063181D01*
X150533518Y-76184283D01*
X150500033Y-76122960D01*
X150497199Y-76096602D01*
X150497199Y-74670179D01*
X150497198Y-74670173D01*
X150497197Y-74670166D01*
X150490791Y-74610567D01*
X150486378Y-74598736D01*
X150440497Y-74475721D01*
X150440493Y-74475714D01*
X150354247Y-74360505D01*
X150354244Y-74360502D01*
X150239035Y-74274256D01*
X150239028Y-74274252D01*
X150104186Y-74223960D01*
X150104185Y-74223959D01*
X150104183Y-74223959D01*
X150044573Y-74217550D01*
X150044563Y-74217550D01*
X149415429Y-74217550D01*
X149415423Y-74217551D01*
X149355816Y-74223958D01*
X149220971Y-74274252D01*
X149220968Y-74274254D01*
X149169311Y-74312925D01*
X149103846Y-74337342D01*
X149035573Y-74322490D01*
X149020689Y-74312925D01*
X148969031Y-74274254D01*
X148969028Y-74274252D01*
X148834186Y-74223960D01*
X148834185Y-74223959D01*
X148834183Y-74223959D01*
X148774573Y-74217550D01*
X148774563Y-74217550D01*
X148145429Y-74217550D01*
X148145423Y-74217551D01*
X148085816Y-74223958D01*
X147950971Y-74274252D01*
X147950964Y-74274256D01*
X147835755Y-74360502D01*
X147835752Y-74360505D01*
X147749506Y-74475714D01*
X147749502Y-74475721D01*
X147699208Y-74610567D01*
X147692801Y-74670166D01*
X147692801Y-74670173D01*
X147692800Y-74670185D01*
X147692800Y-76219203D01*
X147673115Y-76286242D01*
X147620311Y-76331997D01*
X147551153Y-76341941D01*
X147487597Y-76312916D01*
X147481119Y-76306884D01*
X145761819Y-74587584D01*
X145728334Y-74526261D01*
X145725500Y-74499903D01*
X145725500Y-74168386D01*
X145722189Y-74131951D01*
X145719086Y-74097804D01*
X145668478Y-73935394D01*
X145580472Y-73789815D01*
X145580470Y-73789813D01*
X145580469Y-73789811D01*
X145460188Y-73669530D01*
X145457392Y-73667840D01*
X145314606Y-73581522D01*
X145152196Y-73530914D01*
X145152194Y-73530913D01*
X145152192Y-73530913D01*
X145102778Y-73526423D01*
X145081616Y-73524500D01*
X144568384Y-73524500D01*
X144549145Y-73526248D01*
X144497807Y-73530913D01*
X144335393Y-73581522D01*
X144189811Y-73669530D01*
X144189810Y-73669531D01*
X144087681Y-73771661D01*
X144079735Y-73775999D01*
X144074310Y-73783247D01*
X144049550Y-73792481D01*
X144026358Y-73805146D01*
X144017328Y-73804500D01*
X144008846Y-73807664D01*
X143983025Y-73802047D01*
X143956666Y-73800162D01*
X143947612Y-73794343D01*
X143940573Y-73792812D01*
X143912319Y-73771661D01*
X143811819Y-73671161D01*
X143778334Y-73609838D01*
X143775500Y-73583480D01*
X143775500Y-73026260D01*
X143775501Y-73026247D01*
X143775501Y-72858144D01*
X143775501Y-72858143D01*
X143765957Y-72822525D01*
X143767618Y-72752677D01*
X143806780Y-72694813D01*
X143871008Y-72667308D01*
X143898982Y-72667142D01*
X143946027Y-72672200D01*
X145502272Y-72672199D01*
X145561883Y-72665791D01*
X145696731Y-72615496D01*
X145811946Y-72529246D01*
X145898196Y-72414031D01*
X145948491Y-72279183D01*
X145954900Y-72219573D01*
X145954899Y-71754749D01*
X145974583Y-71687711D01*
X146027387Y-71641956D01*
X146078899Y-71630750D01*
X150346631Y-71630750D01*
X150346647Y-71630751D01*
X150354243Y-71630751D01*
X150512354Y-71630751D01*
X150512357Y-71630751D01*
X150665085Y-71589827D01*
X150729536Y-71552616D01*
X150802016Y-71510770D01*
X150912322Y-71400463D01*
X150973641Y-71366981D01*
X151043333Y-71371965D01*
X151087681Y-71400466D01*
X151451589Y-71764374D01*
X151451599Y-71764385D01*
X151455929Y-71768715D01*
X151455930Y-71768716D01*
X151567734Y-71880520D01*
X151611293Y-71905668D01*
X151654545Y-71930639D01*
X151654547Y-71930641D01*
X151704663Y-71959576D01*
X151704665Y-71959577D01*
X151857392Y-72000500D01*
X151857393Y-72000500D01*
X153790202Y-72000500D01*
X153857241Y-72020185D01*
X153895739Y-72059401D01*
X153932288Y-72118656D01*
X154056344Y-72242712D01*
X154205666Y-72334814D01*
X154314505Y-72370879D01*
X154371949Y-72410652D01*
X154398772Y-72475167D01*
X154399500Y-72488585D01*
X154399500Y-72849515D01*
X154382232Y-72912636D01*
X154320949Y-73016261D01*
X154320445Y-73017113D01*
X154308365Y-73058694D01*
X154277234Y-73165847D01*
X154277234Y-73165849D01*
X154274500Y-73200589D01*
X154274500Y-73699393D01*
X154274501Y-73699415D01*
X154277234Y-73734152D01*
X154277234Y-73734155D01*
X154277235Y-73734156D01*
X154320445Y-73882887D01*
X154348759Y-73930764D01*
X154399282Y-74016194D01*
X154399289Y-74016203D01*
X154508796Y-74125710D01*
X154508800Y-74125713D01*
X154508802Y-74125715D01*
X154642113Y-74204555D01*
X154790844Y-74247765D01*
X154825595Y-74250500D01*
X155174404Y-74250499D01*
X155209156Y-74247765D01*
X155357887Y-74204555D01*
X155491198Y-74125715D01*
X155600715Y-74016198D01*
X155679555Y-73882887D01*
X155722765Y-73734156D01*
X155725500Y-73699405D01*
X155725499Y-73200596D01*
X155722765Y-73165844D01*
X155679555Y-73017113D01*
X155642100Y-72953780D01*
X155617768Y-72912636D01*
X155600500Y-72849515D01*
X155600500Y-72488585D01*
X155620185Y-72421546D01*
X155672989Y-72375791D01*
X155685489Y-72370881D01*
X155794334Y-72334814D01*
X155943656Y-72242712D01*
X156067712Y-72118656D01*
X156159814Y-71969334D01*
X156214999Y-71802797D01*
X156225500Y-71700009D01*
X156225499Y-71099992D01*
X156214999Y-70997203D01*
X156159814Y-70830666D01*
X156067712Y-70681344D01*
X155943656Y-70557288D01*
X155850888Y-70500069D01*
X155794336Y-70465187D01*
X155794331Y-70465185D01*
X155757782Y-70453074D01*
X155627797Y-70410001D01*
X155627795Y-70410000D01*
X155525010Y-70399500D01*
X154474998Y-70399500D01*
X154474980Y-70399501D01*
X154372203Y-70410000D01*
X154372200Y-70410001D01*
X154205668Y-70465185D01*
X154205663Y-70465187D01*
X154056342Y-70557289D01*
X153932289Y-70681342D01*
X153932288Y-70681344D01*
X153904121Y-70727011D01*
X153895741Y-70740597D01*
X153843793Y-70787321D01*
X153790202Y-70799500D01*
X153161200Y-70799500D01*
X153094161Y-70779815D01*
X153048406Y-70727011D01*
X153037200Y-70675500D01*
X153037199Y-69221879D01*
X153037198Y-69221873D01*
X153037198Y-69221866D01*
X153030791Y-69162267D01*
X153030790Y-69162265D01*
X153030790Y-69162262D01*
X153029008Y-69154719D01*
X153031882Y-69154039D01*
X153027880Y-69098154D01*
X153061359Y-69036827D01*
X153122679Y-69003336D01*
X153149049Y-69000500D01*
X156013331Y-69000500D01*
X156013347Y-69000501D01*
X156020943Y-69000501D01*
X156179054Y-69000501D01*
X156179057Y-69000501D01*
X156331785Y-68959577D01*
X156413837Y-68912204D01*
X156468716Y-68880520D01*
X156580520Y-68768716D01*
X156580520Y-68768714D01*
X156590724Y-68758511D01*
X156590727Y-68758506D01*
X156787820Y-68561414D01*
X156849142Y-68527930D01*
X156918834Y-68532914D01*
G37*
%TD.AperFunction*%
%TA.AperFunction,Conductor*%
G36*
X158405703Y-69746732D02*
G01*
X158423766Y-69766134D01*
X158502751Y-69871644D01*
X158502754Y-69871647D01*
X158617963Y-69957893D01*
X158617970Y-69957897D01*
X158662917Y-69974661D01*
X158752816Y-70008191D01*
X158812426Y-70014600D01*
X159187571Y-70014599D01*
X159236753Y-70009312D01*
X159263253Y-70009312D01*
X159312428Y-70014600D01*
X159687573Y-70014599D01*
X159687576Y-70014598D01*
X159687588Y-70014598D01*
X159723341Y-70010754D01*
X159736746Y-70009313D01*
X159763253Y-70009313D01*
X159812427Y-70014600D01*
X160187572Y-70014599D01*
X160187575Y-70014598D01*
X160187587Y-70014598D01*
X160223340Y-70010754D01*
X160236745Y-70009313D01*
X160263252Y-70009313D01*
X160312426Y-70014600D01*
X160687571Y-70014599D01*
X160736753Y-70009312D01*
X160763253Y-70009312D01*
X160812428Y-70014600D01*
X161187573Y-70014599D01*
X161247184Y-70008191D01*
X161247186Y-70008190D01*
X161247188Y-70008190D01*
X161254732Y-70006408D01*
X161255345Y-70009003D01*
X161312233Y-70004924D01*
X161373560Y-70038394D01*
X161373580Y-70038414D01*
X161863181Y-70528015D01*
X161896666Y-70589338D01*
X161899500Y-70615696D01*
X161899500Y-75613444D01*
X161879815Y-75680483D01*
X161827011Y-75726238D01*
X161757853Y-75736182D01*
X161739575Y-75731202D01*
X161739324Y-75732031D01*
X161733500Y-75730264D01*
X161733497Y-75730263D01*
X161733492Y-75730262D01*
X161733489Y-75730261D01*
X161578845Y-75699500D01*
X161578842Y-75699500D01*
X161421158Y-75699500D01*
X161421155Y-75699500D01*
X161266510Y-75730261D01*
X161260676Y-75732031D01*
X161259854Y-75729322D01*
X161202398Y-75735460D01*
X161139941Y-75704142D01*
X161104330Y-75644028D01*
X161100499Y-75613445D01*
X161100499Y-74102012D01*
X161108317Y-74058678D01*
X161133790Y-73990383D01*
X161140199Y-73930773D01*
X161140198Y-72438028D01*
X161133790Y-72378417D01*
X161117526Y-72334812D01*
X161083496Y-72243571D01*
X161083492Y-72243564D01*
X160997246Y-72128355D01*
X160997243Y-72128352D01*
X160882034Y-72042106D01*
X160882027Y-72042102D01*
X160747185Y-71991810D01*
X160747184Y-71991809D01*
X160747182Y-71991809D01*
X160687572Y-71985400D01*
X160687562Y-71985400D01*
X160312429Y-71985400D01*
X160312422Y-71985401D01*
X160252815Y-71991808D01*
X160117970Y-72042102D01*
X160117963Y-72042106D01*
X160002754Y-72128352D01*
X160002751Y-72128355D01*
X159916505Y-72243564D01*
X159916501Y-72243571D01*
X159866181Y-72378488D01*
X159824310Y-72434422D01*
X159758846Y-72458839D01*
X159690573Y-72443987D01*
X159641167Y-72394582D01*
X159633817Y-72378488D01*
X159583496Y-72243571D01*
X159583492Y-72243564D01*
X159497246Y-72128355D01*
X159497243Y-72128352D01*
X159382034Y-72042106D01*
X159382027Y-72042102D01*
X159247185Y-71991810D01*
X159247184Y-71991809D01*
X159247182Y-71991809D01*
X159187572Y-71985400D01*
X159187562Y-71985400D01*
X158812429Y-71985400D01*
X158812422Y-71985401D01*
X158752814Y-71991809D01*
X158745270Y-71993592D01*
X158744658Y-71991005D01*
X158687712Y-71995063D01*
X158626420Y-71961585D01*
X158236819Y-71571984D01*
X158203334Y-71510661D01*
X158200500Y-71484303D01*
X158200500Y-69840445D01*
X158220185Y-69773406D01*
X158272989Y-69727651D01*
X158342147Y-69717707D01*
X158405703Y-69746732D01*
G37*
%TD.AperFunction*%
%TA.AperFunction,Conductor*%
G36*
X143012734Y-67043414D02*
G01*
X143068667Y-67085286D01*
X143093084Y-67150750D01*
X143093400Y-67159596D01*
X143093400Y-69981630D01*
X143093399Y-69981648D01*
X143093399Y-70147354D01*
X143093398Y-70147354D01*
X143106762Y-70197228D01*
X143134323Y-70300085D01*
X143146068Y-70320428D01*
X143158694Y-70342295D01*
X143158695Y-70342299D01*
X143158696Y-70342299D01*
X143210733Y-70432432D01*
X143213379Y-70437014D01*
X143213381Y-70437017D01*
X143332249Y-70555885D01*
X143332255Y-70555890D01*
X143457081Y-70680716D01*
X143490566Y-70742039D01*
X143493400Y-70768396D01*
X143493400Y-70949569D01*
X143493401Y-70949576D01*
X143499808Y-71009183D01*
X143550102Y-71144028D01*
X143550104Y-71144031D01*
X143588775Y-71195689D01*
X143613192Y-71261154D01*
X143598340Y-71329427D01*
X143588775Y-71344311D01*
X143550104Y-71395968D01*
X143550102Y-71395971D01*
X143502165Y-71524500D01*
X143499809Y-71530817D01*
X143493400Y-71590427D01*
X143493400Y-71590434D01*
X143493400Y-71590435D01*
X143493400Y-72107002D01*
X143473715Y-72174041D01*
X143420911Y-72219796D01*
X143351753Y-72229740D01*
X143288197Y-72200715D01*
X143281719Y-72194683D01*
X140608016Y-69520980D01*
X140574531Y-69459657D01*
X140579515Y-69389965D01*
X140608016Y-69345618D01*
X141799139Y-68154495D01*
X142881721Y-67071913D01*
X142943042Y-67038430D01*
X143012734Y-67043414D01*
G37*
%TD.AperFunction*%
%TA.AperFunction,Conductor*%
G36*
X174304834Y-67995184D02*
G01*
X174325476Y-68011818D01*
X175076477Y-68762819D01*
X175109962Y-68824142D01*
X175104978Y-68893834D01*
X175063106Y-68949767D01*
X174997642Y-68974184D01*
X174988796Y-68974500D01*
X174014500Y-68974500D01*
X173947461Y-68954815D01*
X173901706Y-68902011D01*
X173890500Y-68850500D01*
X173890500Y-68099499D01*
X173893050Y-68090813D01*
X173891762Y-68081852D01*
X173902740Y-68057811D01*
X173910185Y-68032460D01*
X173917025Y-68026532D01*
X173920787Y-68018296D01*
X173943021Y-68004006D01*
X173962989Y-67986705D01*
X173973503Y-67984417D01*
X173979565Y-67980522D01*
X174014500Y-67975499D01*
X174237795Y-67975499D01*
X174304834Y-67995184D01*
G37*
%TD.AperFunction*%
%TA.AperFunction,Conductor*%
G36*
X143842539Y-61395185D02*
G01*
X143888294Y-61447989D01*
X143899500Y-61499500D01*
X143899500Y-64160119D01*
X143879815Y-64227158D01*
X143827011Y-64272913D01*
X143757853Y-64282857D01*
X143740910Y-64279197D01*
X143736087Y-64277796D01*
X143734156Y-64277235D01*
X143734153Y-64277234D01*
X143734150Y-64277234D01*
X143703912Y-64274854D01*
X143699405Y-64274500D01*
X143699404Y-64274500D01*
X143200606Y-64274500D01*
X143200584Y-64274501D01*
X143165847Y-64277234D01*
X143145753Y-64283072D01*
X143017113Y-64320445D01*
X143017111Y-64320445D01*
X143017111Y-64320446D01*
X142883805Y-64399282D01*
X142883796Y-64399289D01*
X142774289Y-64508796D01*
X142774282Y-64508805D01*
X142695446Y-64642111D01*
X142652234Y-64790847D01*
X142652234Y-64790849D01*
X142649500Y-64825589D01*
X142649500Y-65174393D01*
X142649501Y-65174415D01*
X142652234Y-65209152D01*
X142652234Y-65209155D01*
X142652235Y-65209156D01*
X142669020Y-65266930D01*
X142695445Y-65357887D01*
X142721489Y-65401925D01*
X142738671Y-65469649D01*
X142716510Y-65535911D01*
X142702437Y-65552726D01*
X140644478Y-67610685D01*
X140583155Y-67644170D01*
X140513463Y-67639186D01*
X140457530Y-67597314D01*
X140452307Y-67589189D01*
X140363647Y-67470755D01*
X140363644Y-67470752D01*
X140248435Y-67384506D01*
X140248428Y-67384502D01*
X140113582Y-67334208D01*
X140113583Y-67334208D01*
X140053983Y-67327801D01*
X140053981Y-67327800D01*
X140053973Y-67327800D01*
X140053965Y-67327800D01*
X139997868Y-67327800D01*
X139930829Y-67308115D01*
X139885074Y-67255311D01*
X139875130Y-67186153D01*
X139904155Y-67122597D01*
X139924982Y-67103482D01*
X140026928Y-67029414D01*
X141789414Y-65266928D01*
X141891232Y-65126788D01*
X141969873Y-64972446D01*
X142023402Y-64807701D01*
X142050500Y-64636611D01*
X142050500Y-64463389D01*
X142050500Y-62913389D01*
X142050500Y-62832204D01*
X142070185Y-62765165D01*
X142086819Y-62744523D01*
X143419523Y-61411819D01*
X143480846Y-61378334D01*
X143507204Y-61375500D01*
X143775500Y-61375500D01*
X143842539Y-61395185D01*
G37*
%TD.AperFunction*%
%TA.AperFunction,Conductor*%
G36*
X144159835Y-54220185D02*
G01*
X144180477Y-54236819D01*
X145131477Y-55187819D01*
X145164962Y-55249142D01*
X145159978Y-55318834D01*
X145118106Y-55374767D01*
X145052642Y-55399184D01*
X145043796Y-55399500D01*
X144913389Y-55399500D01*
X144873728Y-55405781D01*
X144742302Y-55426597D01*
X144577552Y-55480128D01*
X144423211Y-55558768D01*
X144348409Y-55613116D01*
X144283072Y-55660586D01*
X144283070Y-55660588D01*
X144283069Y-55660588D01*
X144160588Y-55783069D01*
X144160588Y-55783070D01*
X144160586Y-55783072D01*
X144116859Y-55843256D01*
X144058768Y-55923211D01*
X143980128Y-56077552D01*
X143926597Y-56242302D01*
X143899500Y-56413389D01*
X143899500Y-56586610D01*
X143917995Y-56703387D01*
X143926598Y-56757701D01*
X143980127Y-56922445D01*
X144058768Y-57076788D01*
X144160586Y-57216928D01*
X144160588Y-57216930D01*
X145863181Y-58919523D01*
X145896666Y-58980846D01*
X145899500Y-59007204D01*
X145899500Y-59324868D01*
X145879815Y-59391907D01*
X145827011Y-59437662D01*
X145757853Y-59447606D01*
X145702615Y-59425186D01*
X145576791Y-59333770D01*
X145576790Y-59333769D01*
X145576788Y-59333768D01*
X145422445Y-59255127D01*
X145257701Y-59201598D01*
X145257699Y-59201597D01*
X145257698Y-59201597D01*
X145126271Y-59180781D01*
X145086611Y-59174500D01*
X143086611Y-59174500D01*
X142913389Y-59174500D01*
X142873728Y-59180781D01*
X142742302Y-59201597D01*
X142742299Y-59201598D01*
X142577574Y-59255121D01*
X142577552Y-59255128D01*
X142423211Y-59333768D01*
X142361527Y-59378585D01*
X142283072Y-59435586D01*
X142283070Y-59435588D01*
X142283069Y-59435588D01*
X140110588Y-61608069D01*
X140110588Y-61608070D01*
X140110586Y-61608072D01*
X140101319Y-61620827D01*
X140008768Y-61748211D01*
X139930128Y-61902552D01*
X139876597Y-62067302D01*
X139849500Y-62238389D01*
X139849500Y-64042796D01*
X139829815Y-64109835D01*
X139813181Y-64130477D01*
X138890477Y-65053181D01*
X138829154Y-65086666D01*
X138802796Y-65089500D01*
X137673389Y-65089500D01*
X137603897Y-65100506D01*
X137534604Y-65091551D01*
X137481152Y-65046555D01*
X137460513Y-64979803D01*
X137460500Y-64978033D01*
X137460500Y-63905757D01*
X137480185Y-63838718D01*
X137496819Y-63818076D01*
X137755319Y-63559576D01*
X138030104Y-63284791D01*
X138155051Y-63112816D01*
X138251557Y-62923412D01*
X138317246Y-62721243D01*
X138350500Y-62511287D01*
X138350500Y-62298713D01*
X138317246Y-62088757D01*
X138251557Y-61886588D01*
X138155051Y-61697184D01*
X138030104Y-61525209D01*
X137924842Y-61419947D01*
X137891357Y-61358624D01*
X137896341Y-61288932D01*
X137938213Y-61232999D01*
X137953095Y-61223434D01*
X137953526Y-61223197D01*
X137953531Y-61223196D01*
X138068746Y-61136946D01*
X138154996Y-61021731D01*
X138205291Y-60886883D01*
X138211700Y-60827273D01*
X138211699Y-60172728D01*
X138205813Y-60117970D01*
X138205291Y-60113116D01*
X138154997Y-59978271D01*
X138154993Y-59978264D01*
X138068747Y-59863055D01*
X138068744Y-59863052D01*
X137953535Y-59776806D01*
X137953528Y-59776802D01*
X137818682Y-59726508D01*
X137818683Y-59726508D01*
X137759083Y-59720101D01*
X137759081Y-59720100D01*
X137759073Y-59720100D01*
X137759065Y-59720100D01*
X136964013Y-59720100D01*
X136896974Y-59700415D01*
X136851219Y-59647611D01*
X136841275Y-59578453D01*
X136870300Y-59514897D01*
X136876332Y-59508419D01*
X137663533Y-58721218D01*
X137724856Y-58687733D01*
X137751214Y-58684899D01*
X138159071Y-58684899D01*
X138159072Y-58684899D01*
X138218683Y-58678491D01*
X138353531Y-58628196D01*
X138468746Y-58541946D01*
X138554996Y-58426731D01*
X138605291Y-58291883D01*
X138611700Y-58232273D01*
X138611699Y-57839999D01*
X138631383Y-57772961D01*
X138684187Y-57727206D01*
X138735699Y-57716000D01*
X140122700Y-57716000D01*
X140122701Y-57715999D01*
X140270205Y-57686659D01*
X140409153Y-57629105D01*
X140534203Y-57545549D01*
X142847223Y-55232527D01*
X142876460Y-55210846D01*
X142879168Y-55209398D01*
X142879179Y-55209394D01*
X143010289Y-55121789D01*
X143121789Y-55010289D01*
X143209394Y-54879179D01*
X143269737Y-54733497D01*
X143300500Y-54578842D01*
X143300500Y-54421158D01*
X143300500Y-54421155D01*
X143300499Y-54421153D01*
X143286086Y-54348691D01*
X143292313Y-54279100D01*
X143335176Y-54223922D01*
X143401066Y-54200678D01*
X143407703Y-54200500D01*
X144092796Y-54200500D01*
X144159835Y-54220185D01*
G37*
%TD.AperFunction*%
%TA.AperFunction,Conductor*%
G36*
X179639835Y-47620185D02*
G01*
X179660477Y-47636819D01*
X181143181Y-49119523D01*
X181176666Y-49180846D01*
X181179500Y-49207204D01*
X181179500Y-49600001D01*
X181179501Y-49600019D01*
X181190000Y-49702796D01*
X181190001Y-49702799D01*
X181245185Y-49869331D01*
X181245187Y-49869336D01*
X181246956Y-49872204D01*
X181337288Y-50018656D01*
X181461344Y-50142712D01*
X181610666Y-50234814D01*
X181777203Y-50289999D01*
X181879991Y-50300500D01*
X182272795Y-50300499D01*
X182339834Y-50320183D01*
X182360476Y-50336818D01*
X184363181Y-52339523D01*
X184396666Y-52400846D01*
X184399500Y-52427204D01*
X184399500Y-58087770D01*
X184379815Y-58154809D01*
X184363181Y-58175451D01*
X184282289Y-58256342D01*
X184190187Y-58405663D01*
X184190185Y-58405668D01*
X184162349Y-58489670D01*
X184135001Y-58572203D01*
X184135001Y-58572204D01*
X184135000Y-58572204D01*
X184124500Y-58674983D01*
X184124500Y-59188082D01*
X184104815Y-59255121D01*
X184052011Y-59300876D01*
X183982853Y-59310820D01*
X183961496Y-59305788D01*
X183897709Y-59284651D01*
X183798346Y-59274500D01*
X183201662Y-59274500D01*
X183201644Y-59274501D01*
X183102292Y-59284650D01*
X183102289Y-59284651D01*
X182941305Y-59337996D01*
X182941294Y-59338001D01*
X182796959Y-59427029D01*
X182796955Y-59427032D01*
X182677032Y-59546955D01*
X182677029Y-59546959D01*
X182588001Y-59691294D01*
X182587996Y-59691305D01*
X182560149Y-59775343D01*
X182520376Y-59832788D01*
X182455860Y-59859611D01*
X182434099Y-59859628D01*
X182434094Y-59859734D01*
X182434094Y-59859799D01*
X182434091Y-59859799D01*
X182434081Y-59859977D01*
X182430780Y-59859799D01*
X182430773Y-59859799D01*
X182430765Y-59859799D01*
X181410400Y-59859799D01*
X181343361Y-59840114D01*
X181297606Y-59787310D01*
X181286400Y-59735799D01*
X181286400Y-58824500D01*
X181306085Y-58757461D01*
X181358889Y-58711706D01*
X181410400Y-58700500D01*
X182700007Y-58700500D01*
X182700012Y-58700500D01*
X182802800Y-58689999D01*
X182969336Y-58634815D01*
X183118657Y-58542712D01*
X183242712Y-58418657D01*
X183334815Y-58269336D01*
X183389999Y-58102800D01*
X183400500Y-58000012D01*
X183400500Y-51999988D01*
X183389999Y-51897200D01*
X183334815Y-51730664D01*
X183334811Y-51730658D01*
X183334810Y-51730655D01*
X183242714Y-51581346D01*
X183242711Y-51581342D01*
X183118657Y-51457288D01*
X183118653Y-51457285D01*
X182969344Y-51365189D01*
X182969338Y-51365186D01*
X182969336Y-51365185D01*
X182924760Y-51350414D01*
X182802801Y-51310001D01*
X182700019Y-51299500D01*
X182700012Y-51299500D01*
X177299988Y-51299500D01*
X177299980Y-51299500D01*
X177197198Y-51310001D01*
X177030666Y-51365184D01*
X177030655Y-51365189D01*
X176881346Y-51457285D01*
X176881342Y-51457288D01*
X176757288Y-51581342D01*
X176757285Y-51581346D01*
X176665189Y-51730655D01*
X176665184Y-51730666D01*
X176610001Y-51897198D01*
X176599500Y-51999980D01*
X176599500Y-58000019D01*
X176610001Y-58102801D01*
X176665184Y-58269333D01*
X176665189Y-58269344D01*
X176757285Y-58418653D01*
X176757288Y-58418657D01*
X176881342Y-58542711D01*
X176881346Y-58542714D01*
X177030655Y-58634810D01*
X177030658Y-58634811D01*
X177030664Y-58634815D01*
X177197200Y-58689999D01*
X177299988Y-58700500D01*
X179961400Y-58700500D01*
X180028439Y-58720185D01*
X180074194Y-58772989D01*
X180085400Y-58824500D01*
X180085400Y-61853030D01*
X180085399Y-61853048D01*
X180085399Y-62018754D01*
X180085398Y-62018754D01*
X180113733Y-62124500D01*
X180126323Y-62171485D01*
X180146058Y-62205666D01*
X180175071Y-62255919D01*
X180203342Y-62304887D01*
X180205380Y-62308416D01*
X180265679Y-62368715D01*
X180296464Y-62399500D01*
X180377483Y-62480519D01*
X180423399Y-62507028D01*
X180471615Y-62557595D01*
X180485400Y-62614414D01*
X180485400Y-62687570D01*
X180485401Y-62687577D01*
X180491808Y-62747184D01*
X180542102Y-62882029D01*
X180542106Y-62882036D01*
X180628352Y-62997245D01*
X180628355Y-62997248D01*
X180743564Y-63083494D01*
X180743571Y-63083498D01*
X180878417Y-63133792D01*
X180878416Y-63133792D01*
X180885344Y-63134536D01*
X180938027Y-63140201D01*
X182430772Y-63140200D01*
X182490383Y-63133792D01*
X182491652Y-63133319D01*
X182494761Y-63132757D01*
X182497931Y-63132009D01*
X182497971Y-63132178D01*
X182534987Y-63125500D01*
X182920943Y-63125500D01*
X184850831Y-63125500D01*
X184850839Y-63125502D01*
X184850839Y-63125501D01*
X185016554Y-63125501D01*
X185016557Y-63125501D01*
X185169285Y-63084577D01*
X185171156Y-63083497D01*
X185188639Y-63073402D01*
X185219404Y-63055639D01*
X185237513Y-63045184D01*
X185242842Y-63042108D01*
X185242907Y-63042092D01*
X185304835Y-63025499D01*
X185644511Y-63025499D01*
X185711550Y-63045184D01*
X185757305Y-63097988D01*
X185767249Y-63167146D01*
X185759072Y-63196952D01*
X185730263Y-63266502D01*
X185730261Y-63266510D01*
X185699500Y-63421153D01*
X185699500Y-63578842D01*
X185702493Y-63593891D01*
X185699472Y-63627630D01*
X185697057Y-63661414D01*
X185696366Y-63662336D01*
X185696264Y-63663482D01*
X185675488Y-63690225D01*
X185655185Y-63717347D01*
X185654106Y-63717749D01*
X185653400Y-63718659D01*
X185621454Y-63729927D01*
X185589721Y-63741764D01*
X185588595Y-63741519D01*
X185587510Y-63741902D01*
X185554552Y-63734113D01*
X185521448Y-63726912D01*
X185520234Y-63726003D01*
X185519513Y-63725833D01*
X185493194Y-63705761D01*
X185425788Y-63638355D01*
X185425786Y-63638352D01*
X185306914Y-63519480D01*
X185306912Y-63519479D01*
X185306909Y-63519477D01*
X185205387Y-63460864D01*
X185205386Y-63460863D01*
X185169981Y-63440422D01*
X185108745Y-63424014D01*
X185017255Y-63399499D01*
X184859141Y-63399499D01*
X184851545Y-63399499D01*
X184851529Y-63399500D01*
X182579057Y-63399500D01*
X181579057Y-63399500D01*
X181420943Y-63399500D01*
X181268215Y-63440423D01*
X181240292Y-63456544D01*
X181232809Y-63460865D01*
X181232808Y-63460864D01*
X181131287Y-63519477D01*
X181131284Y-63519480D01*
X181019480Y-63631284D01*
X181019478Y-63631286D01*
X180850265Y-63800500D01*
X180687584Y-63963181D01*
X180626261Y-63996666D01*
X180599903Y-63999500D01*
X178400097Y-63999500D01*
X178333058Y-63979815D01*
X178312416Y-63963181D01*
X177201114Y-62851879D01*
X177167629Y-62790556D01*
X177172613Y-62720864D01*
X177214485Y-62664931D01*
X177279949Y-62640514D01*
X177288795Y-62640198D01*
X178061971Y-62640198D01*
X178061972Y-62640198D01*
X178121583Y-62633790D01*
X178256431Y-62583495D01*
X178371646Y-62497245D01*
X178457896Y-62382030D01*
X178508191Y-62247182D01*
X178514600Y-62187572D01*
X178514599Y-61812427D01*
X178508191Y-61752816D01*
X178506473Y-61748211D01*
X178457897Y-61617970D01*
X178457893Y-61617963D01*
X178371647Y-61502754D01*
X178371644Y-61502751D01*
X178256435Y-61416505D01*
X178256428Y-61416501D01*
X178121511Y-61366181D01*
X178065577Y-61324310D01*
X178041160Y-61258846D01*
X178056011Y-61190573D01*
X178105416Y-61141167D01*
X178121511Y-61133817D01*
X178213519Y-61099500D01*
X178256431Y-61083495D01*
X178371646Y-60997245D01*
X178457896Y-60882030D01*
X178508191Y-60747182D01*
X178514600Y-60687572D01*
X178514599Y-60312427D01*
X178508191Y-60252816D01*
X178478318Y-60172723D01*
X178457897Y-60117970D01*
X178457893Y-60117963D01*
X178371647Y-60002754D01*
X178371644Y-60002751D01*
X178256435Y-59916505D01*
X178256428Y-59916501D01*
X178121582Y-59866207D01*
X178121583Y-59866207D01*
X178061983Y-59859800D01*
X178061981Y-59859799D01*
X178061973Y-59859799D01*
X178061965Y-59859799D01*
X177575997Y-59859799D01*
X177546556Y-59851154D01*
X177516570Y-59844631D01*
X177511554Y-59840876D01*
X177508958Y-59840114D01*
X177488316Y-59823480D01*
X177478191Y-59813355D01*
X177478189Y-59813352D01*
X177359318Y-59694481D01*
X177359317Y-59694480D01*
X177272505Y-59644360D01*
X177272505Y-59644359D01*
X177272501Y-59644358D01*
X177222386Y-59615423D01*
X177069658Y-59574499D01*
X176911544Y-59574499D01*
X176903948Y-59574499D01*
X176903932Y-59574500D01*
X173310873Y-59574500D01*
X173243834Y-59554815D01*
X173198079Y-59502011D01*
X173188135Y-59432853D01*
X173206621Y-59384607D01*
X173206521Y-59384554D01*
X173206950Y-59383750D01*
X173207771Y-59381609D01*
X173209390Y-59379185D01*
X173209390Y-59379184D01*
X173209394Y-59379179D01*
X173211121Y-59375011D01*
X173248549Y-59284650D01*
X173269737Y-59233497D01*
X173300500Y-59078842D01*
X173300500Y-58921158D01*
X173300500Y-58921155D01*
X173300499Y-58921153D01*
X173292924Y-58883070D01*
X173269737Y-58766503D01*
X173265992Y-58757461D01*
X173209397Y-58620827D01*
X173209390Y-58620814D01*
X173121789Y-58489711D01*
X173121786Y-58489707D01*
X173010292Y-58378213D01*
X173010288Y-58378210D01*
X172879185Y-58290609D01*
X172879172Y-58290602D01*
X172733501Y-58230264D01*
X172733489Y-58230261D01*
X172578845Y-58199500D01*
X172578842Y-58199500D01*
X172517434Y-58199500D01*
X172450395Y-58179815D01*
X172404640Y-58127011D01*
X172394076Y-58062898D01*
X172400499Y-58000021D01*
X172400500Y-58000006D01*
X172400500Y-51999993D01*
X172400499Y-51999980D01*
X172399908Y-51994197D01*
X172389999Y-51897200D01*
X172334815Y-51730664D01*
X172334811Y-51730658D01*
X172334810Y-51730655D01*
X172242714Y-51581346D01*
X172242711Y-51581342D01*
X172118657Y-51457288D01*
X172118653Y-51457285D01*
X171969344Y-51365189D01*
X171969338Y-51365186D01*
X171969336Y-51365185D01*
X171924760Y-51350414D01*
X171802801Y-51310001D01*
X171700019Y-51299500D01*
X171700012Y-51299500D01*
X166299988Y-51299500D01*
X166299980Y-51299500D01*
X166197198Y-51310001D01*
X166030666Y-51365184D01*
X166030655Y-51365189D01*
X165881346Y-51457285D01*
X165881342Y-51457288D01*
X165757288Y-51581342D01*
X165757285Y-51581346D01*
X165665189Y-51730655D01*
X165665184Y-51730666D01*
X165610001Y-51897198D01*
X165599500Y-51999980D01*
X165599500Y-52648342D01*
X165579815Y-52715381D01*
X165527011Y-52761136D01*
X165457853Y-52771080D01*
X165394297Y-52742055D01*
X165387819Y-52736023D01*
X163750741Y-51098945D01*
X162441329Y-49789534D01*
X162411304Y-49740856D01*
X162404814Y-49721270D01*
X162404813Y-49721266D01*
X162312711Y-49571944D01*
X162188655Y-49447888D01*
X162039333Y-49355786D01*
X162039332Y-49355785D01*
X162039331Y-49355785D01*
X162019656Y-49349265D01*
X161978130Y-49325849D01*
X161974793Y-49322998D01*
X161802815Y-49198049D01*
X161613415Y-49101545D01*
X161613412Y-49101544D01*
X161613410Y-49101543D01*
X161593038Y-49094923D01*
X161535365Y-49055486D01*
X161508168Y-48991127D01*
X161520083Y-48922281D01*
X161543675Y-48889317D01*
X161971064Y-48461929D01*
X162019740Y-48431906D01*
X162039333Y-48425414D01*
X162188655Y-48333312D01*
X162312711Y-48209256D01*
X162404813Y-48059934D01*
X162411303Y-48040344D01*
X162418149Y-48029246D01*
X162420179Y-48019916D01*
X162441326Y-47991666D01*
X162496177Y-47936817D01*
X162557501Y-47903333D01*
X162583857Y-47900500D01*
X163477214Y-47900500D01*
X163544253Y-47920185D01*
X163590008Y-47972989D01*
X163599952Y-48042147D01*
X163577532Y-48097386D01*
X163558768Y-48123211D01*
X163480128Y-48277552D01*
X163426597Y-48442302D01*
X163399500Y-48613389D01*
X163399500Y-48786610D01*
X163424630Y-48945279D01*
X163426598Y-48957701D01*
X163480127Y-49122445D01*
X163558768Y-49276788D01*
X163660586Y-49416928D01*
X163783072Y-49539414D01*
X163923212Y-49641232D01*
X164077555Y-49719873D01*
X164242299Y-49773402D01*
X164413389Y-49800500D01*
X165574092Y-49800500D01*
X165641131Y-49820185D01*
X165679636Y-49864271D01*
X165681395Y-49863187D01*
X165685185Y-49869331D01*
X165685186Y-49869334D01*
X165777288Y-50018656D01*
X165901344Y-50142712D01*
X166050666Y-50234814D01*
X166217203Y-50289999D01*
X166319991Y-50300500D01*
X167120008Y-50300499D01*
X167120016Y-50300498D01*
X167120019Y-50300498D01*
X167176302Y-50294748D01*
X167222797Y-50289999D01*
X167389334Y-50234814D01*
X167538656Y-50142712D01*
X167662712Y-50018656D01*
X167754814Y-49869334D01*
X167809999Y-49702797D01*
X167820500Y-49600009D01*
X167820500Y-48745346D01*
X167820500Y-48613389D01*
X167820500Y-48605794D01*
X167820499Y-48605776D01*
X167820499Y-48024500D01*
X167840184Y-47957461D01*
X167892988Y-47911706D01*
X167944499Y-47900500D01*
X168519243Y-47900500D01*
X168586282Y-47920185D01*
X168606924Y-47936819D01*
X170143181Y-49473077D01*
X170176666Y-49534400D01*
X170179500Y-49560755D01*
X170179500Y-49599999D01*
X170179501Y-49600019D01*
X170190000Y-49702796D01*
X170190001Y-49702799D01*
X170245185Y-49869331D01*
X170245187Y-49869336D01*
X170246956Y-49872204D01*
X170337288Y-50018656D01*
X170461344Y-50142712D01*
X170610666Y-50234814D01*
X170777203Y-50289999D01*
X170879991Y-50300500D01*
X171680008Y-50300499D01*
X171680016Y-50300498D01*
X171680019Y-50300498D01*
X171736302Y-50294748D01*
X171782797Y-50289999D01*
X171949334Y-50234814D01*
X172098656Y-50142712D01*
X172154549Y-50086819D01*
X172215872Y-50053334D01*
X172242230Y-50050500D01*
X176757770Y-50050500D01*
X176824809Y-50070185D01*
X176845451Y-50086819D01*
X176901344Y-50142712D01*
X177050666Y-50234814D01*
X177217203Y-50289999D01*
X177319991Y-50300500D01*
X178120008Y-50300499D01*
X178120016Y-50300498D01*
X178120019Y-50300498D01*
X178176302Y-50294748D01*
X178222797Y-50289999D01*
X178389334Y-50234814D01*
X178538656Y-50142712D01*
X178662712Y-50018656D01*
X178754814Y-49869334D01*
X178809999Y-49702797D01*
X178820500Y-49600009D01*
X178820499Y-49523188D01*
X178840183Y-49456150D01*
X178844167Y-49450323D01*
X178875051Y-49407816D01*
X178971557Y-49218412D01*
X179037246Y-49016243D01*
X179070500Y-48806287D01*
X179070500Y-48593713D01*
X179037246Y-48383757D01*
X178971557Y-48181588D01*
X178875051Y-47992184D01*
X178861105Y-47972989D01*
X178844181Y-47949694D01*
X178837970Y-47932287D01*
X178827269Y-47917220D01*
X178822555Y-47889086D01*
X178820701Y-47883888D01*
X178820632Y-47882555D01*
X178820499Y-47879688D01*
X178820499Y-47799992D01*
X178813725Y-47733682D01*
X178813566Y-47730246D01*
X178821063Y-47699509D01*
X178826845Y-47668408D01*
X178829280Y-47665819D01*
X178830123Y-47662367D01*
X178853041Y-47640568D01*
X178874726Y-47617524D01*
X178878286Y-47616557D01*
X178880750Y-47614214D01*
X178901673Y-47610208D01*
X178937433Y-47600500D01*
X179572796Y-47600500D01*
X179639835Y-47620185D01*
G37*
%TD.AperFunction*%
%TA.AperFunction,Conductor*%
G36*
X176114514Y-60795185D02*
G01*
X176160269Y-60847989D01*
X176163657Y-60856166D01*
X176173303Y-60882028D01*
X176173306Y-60882034D01*
X176259552Y-60997243D01*
X176259555Y-60997246D01*
X176374764Y-61083492D01*
X176374771Y-61083496D01*
X176509689Y-61133817D01*
X176530846Y-61149655D01*
X176554038Y-61162319D01*
X176558375Y-61170262D01*
X176565623Y-61175688D01*
X176574859Y-61200451D01*
X176587522Y-61223642D01*
X176586876Y-61232669D01*
X176590040Y-61241152D01*
X176584422Y-61266978D01*
X176582537Y-61293334D01*
X176577113Y-61300579D01*
X176575189Y-61309425D01*
X176556502Y-61328111D01*
X176540666Y-61349267D01*
X176528951Y-61355663D01*
X176525784Y-61358831D01*
X176509689Y-61366181D01*
X176441319Y-61391681D01*
X176397986Y-61399499D01*
X176079764Y-61399499D01*
X176012725Y-61379814D01*
X176010873Y-61378601D01*
X175879185Y-61290609D01*
X175879172Y-61290602D01*
X175733501Y-61230264D01*
X175733489Y-61230261D01*
X175578845Y-61199500D01*
X175578842Y-61199500D01*
X175421158Y-61199500D01*
X175421155Y-61199500D01*
X175266510Y-61230261D01*
X175266498Y-61230264D01*
X175120827Y-61290602D01*
X175120814Y-61290609D01*
X174989711Y-61378210D01*
X174989707Y-61378213D01*
X174878213Y-61489707D01*
X174878210Y-61489711D01*
X174790609Y-61620814D01*
X174790602Y-61620827D01*
X174730264Y-61766498D01*
X174730260Y-61766512D01*
X174727484Y-61780467D01*
X174695097Y-61842377D01*
X174634379Y-61876949D01*
X174564610Y-61873206D01*
X174518187Y-61843952D01*
X173661416Y-60987181D01*
X173627931Y-60925858D01*
X173632915Y-60856166D01*
X173674787Y-60800233D01*
X173740251Y-60775816D01*
X173749097Y-60775500D01*
X176047475Y-60775500D01*
X176114514Y-60795185D01*
G37*
%TD.AperFunction*%
%TA.AperFunction,Conductor*%
G36*
X188004418Y-39000816D02*
G01*
X188204561Y-39015130D01*
X188222063Y-39017647D01*
X188413795Y-39059355D01*
X188430760Y-39064336D01*
X188614611Y-39132909D01*
X188630694Y-39140253D01*
X188747495Y-39204032D01*
X188802908Y-39234290D01*
X188817791Y-39243855D01*
X188974864Y-39361438D01*
X188988235Y-39373024D01*
X189126975Y-39511764D01*
X189138561Y-39525135D01*
X189256144Y-39682208D01*
X189265709Y-39697091D01*
X189359743Y-39869300D01*
X189367093Y-39885394D01*
X189435661Y-40069234D01*
X189440645Y-40086209D01*
X189482351Y-40277931D01*
X189484869Y-40295442D01*
X189499184Y-40495580D01*
X189499500Y-40504427D01*
X189499500Y-94495572D01*
X189499184Y-94504419D01*
X189484869Y-94704557D01*
X189482351Y-94722068D01*
X189440645Y-94913790D01*
X189435661Y-94930765D01*
X189367093Y-95114605D01*
X189359743Y-95130699D01*
X189265709Y-95302908D01*
X189256144Y-95317791D01*
X189138561Y-95474864D01*
X189126975Y-95488235D01*
X188988235Y-95626975D01*
X188974864Y-95638561D01*
X188817791Y-95756144D01*
X188802908Y-95765709D01*
X188630699Y-95859743D01*
X188614605Y-95867093D01*
X188430765Y-95935661D01*
X188413790Y-95940645D01*
X188222068Y-95982351D01*
X188204557Y-95984869D01*
X188023779Y-95997799D01*
X188004417Y-95999184D01*
X187995572Y-95999500D01*
X127004428Y-95999500D01*
X126995582Y-95999184D01*
X126973622Y-95997613D01*
X126795442Y-95984869D01*
X126777931Y-95982351D01*
X126586209Y-95940645D01*
X126569234Y-95935661D01*
X126385394Y-95867093D01*
X126369300Y-95859743D01*
X126197091Y-95765709D01*
X126182208Y-95756144D01*
X126025135Y-95638561D01*
X126011764Y-95626975D01*
X125873024Y-95488235D01*
X125861438Y-95474864D01*
X125743855Y-95317791D01*
X125734290Y-95302908D01*
X125640256Y-95130699D01*
X125632909Y-95114611D01*
X125564336Y-94930760D01*
X125559354Y-94913790D01*
X125553446Y-94886632D01*
X125517647Y-94722063D01*
X125515130Y-94704556D01*
X125510354Y-94637785D01*
X125500816Y-94504418D01*
X125500500Y-94495572D01*
X125500500Y-72240935D01*
X126315100Y-72240935D01*
X126315100Y-73759070D01*
X126315101Y-73759076D01*
X126321508Y-73818683D01*
X126371802Y-73953528D01*
X126371806Y-73953535D01*
X126458052Y-74068744D01*
X126458055Y-74068747D01*
X126573264Y-74154993D01*
X126573271Y-74154997D01*
X126573416Y-74155051D01*
X126708117Y-74205291D01*
X126767727Y-74211700D01*
X127143600Y-74211699D01*
X127210639Y-74231383D01*
X127256394Y-74284187D01*
X127267600Y-74335699D01*
X127267600Y-75689470D01*
X127267601Y-75689476D01*
X127274008Y-75749083D01*
X127324302Y-75883928D01*
X127324306Y-75883935D01*
X127410552Y-75999144D01*
X127410555Y-75999147D01*
X127525764Y-76085393D01*
X127525771Y-76085397D01*
X127561018Y-76098543D01*
X127660617Y-76135691D01*
X127720227Y-76142100D01*
X128374772Y-76142099D01*
X128434383Y-76135691D01*
X128569231Y-76085396D01*
X128684446Y-75999146D01*
X128770696Y-75883931D01*
X128820991Y-75749083D01*
X128827400Y-75689473D01*
X128827399Y-74335698D01*
X128829949Y-74327013D01*
X128828661Y-74318052D01*
X128839639Y-74294011D01*
X128847084Y-74268660D01*
X128853924Y-74262732D01*
X128857686Y-74254496D01*
X128879918Y-74240208D01*
X128899887Y-74222905D01*
X128910402Y-74220617D01*
X128916464Y-74216722D01*
X128951399Y-74211699D01*
X129080585Y-74211699D01*
X129147624Y-74231384D01*
X129168266Y-74248018D01*
X130337351Y-75417103D01*
X130395748Y-75475500D01*
X130443698Y-75523450D01*
X130568740Y-75607001D01*
X130568753Y-75607008D01*
X130707690Y-75664557D01*
X130707695Y-75664559D01*
X130855197Y-75693899D01*
X130855200Y-75693900D01*
X130855202Y-75693900D01*
X131072332Y-75693900D01*
X131139371Y-75713585D01*
X131185126Y-75766389D01*
X131188514Y-75774567D01*
X131229302Y-75883928D01*
X131229306Y-75883935D01*
X131315552Y-75999144D01*
X131315555Y-75999147D01*
X131430764Y-76085393D01*
X131430771Y-76085397D01*
X131466018Y-76098543D01*
X131565617Y-76135691D01*
X131625227Y-76142100D01*
X132279772Y-76142099D01*
X132339383Y-76135691D01*
X132474231Y-76085396D01*
X132589446Y-75999146D01*
X132675696Y-75883931D01*
X132725991Y-75749083D01*
X132732400Y-75689473D01*
X132732399Y-74474499D01*
X132752084Y-74407461D01*
X132804887Y-74361706D01*
X132856399Y-74350500D01*
X133011286Y-74350500D01*
X133011287Y-74350500D01*
X133221243Y-74317246D01*
X133423412Y-74251557D01*
X133612816Y-74155051D01*
X133784791Y-74030104D01*
X134547819Y-73267076D01*
X134609142Y-73233591D01*
X134678834Y-73238575D01*
X134734767Y-73280447D01*
X134759184Y-73345911D01*
X134759500Y-73354757D01*
X134759500Y-74779243D01*
X134739815Y-74846282D01*
X134723181Y-74866924D01*
X131976924Y-77613181D01*
X131915601Y-77646666D01*
X131889243Y-77649500D01*
X130011422Y-77649500D01*
X130011398Y-77649499D01*
X130006287Y-77649499D01*
X129793714Y-77649499D01*
X129745041Y-77657208D01*
X129583760Y-77682753D01*
X129381585Y-77748444D01*
X129192179Y-77844951D01*
X129020213Y-77969890D01*
X126969890Y-80020213D01*
X126844951Y-80192179D01*
X126748444Y-80381585D01*
X126748443Y-80381587D01*
X126748443Y-80381588D01*
X126738129Y-80413330D01*
X126682753Y-80583760D01*
X126655270Y-80757285D01*
X126649500Y-80793713D01*
X126649500Y-84606287D01*
X126655811Y-84646133D01*
X126680723Y-84803424D01*
X126682754Y-84816243D01*
X126739117Y-84989711D01*
X126748444Y-85018414D01*
X126844951Y-85207820D01*
X126969889Y-85379784D01*
X126969893Y-85379788D01*
X126969896Y-85379792D01*
X127059917Y-85469813D01*
X127124538Y-85534434D01*
X127124549Y-85534444D01*
X131966770Y-90376665D01*
X131966784Y-90376680D01*
X131969895Y-90379791D01*
X131969896Y-90379792D01*
X132120208Y-90530104D01*
X132120211Y-90530106D01*
X132120215Y-90530110D01*
X132292179Y-90655048D01*
X132292181Y-90655049D01*
X132292184Y-90655051D01*
X132481588Y-90751557D01*
X132683757Y-90817246D01*
X132893713Y-90850501D01*
X132893714Y-90850501D01*
X133111398Y-90850501D01*
X133111422Y-90850500D01*
X137106286Y-90850500D01*
X137106287Y-90850500D01*
X137316243Y-90817246D01*
X137518412Y-90751557D01*
X137707816Y-90655051D01*
X137738493Y-90632762D01*
X137750306Y-90624181D01*
X137770350Y-90617029D01*
X137788255Y-90605523D01*
X137812284Y-90602068D01*
X137816113Y-90600702D01*
X137823190Y-90600500D01*
X138062770Y-90600500D01*
X138129809Y-90620185D01*
X138150451Y-90636819D01*
X138181344Y-90667712D01*
X138330666Y-90759814D01*
X138497203Y-90814999D01*
X138599991Y-90825500D01*
X139400008Y-90825499D01*
X139400016Y-90825498D01*
X139400019Y-90825498D01*
X139480800Y-90817246D01*
X139502797Y-90814999D01*
X139669334Y-90759814D01*
X139818656Y-90667712D01*
X139942712Y-90543656D01*
X140034814Y-90394334D01*
X140089999Y-90227797D01*
X140100500Y-90125009D01*
X140100500Y-89522077D01*
X140100500Y-89413389D01*
X140100500Y-89405794D01*
X140100499Y-89405776D01*
X140100499Y-88874998D01*
X140100498Y-88874981D01*
X140089999Y-88772203D01*
X140087116Y-88763502D01*
X140084716Y-88693674D01*
X140120448Y-88633632D01*
X140182969Y-88602441D01*
X140204823Y-88600500D01*
X142906205Y-88600500D01*
X142973244Y-88620185D01*
X143018999Y-88672989D01*
X143028943Y-88742147D01*
X143016690Y-88780794D01*
X142980129Y-88852549D01*
X142926597Y-89017302D01*
X142899500Y-89188389D01*
X142899500Y-89811610D01*
X142922972Y-89959812D01*
X142926598Y-89982701D01*
X142980127Y-90147445D01*
X143058768Y-90301788D01*
X143160586Y-90441928D01*
X143283072Y-90564414D01*
X143423212Y-90666232D01*
X143577555Y-90744873D01*
X143742299Y-90798402D01*
X143913389Y-90825500D01*
X143913390Y-90825500D01*
X144086610Y-90825500D01*
X144086611Y-90825500D01*
X144257701Y-90798402D01*
X144422445Y-90744873D01*
X144576788Y-90666232D01*
X144603092Y-90647120D01*
X144634666Y-90624182D01*
X144700472Y-90600702D01*
X144707551Y-90600500D01*
X145292449Y-90600500D01*
X145359488Y-90620185D01*
X145365334Y-90624182D01*
X145418174Y-90662571D01*
X145423212Y-90666232D01*
X145577555Y-90744873D01*
X145742299Y-90798402D01*
X145913389Y-90825500D01*
X145913390Y-90825500D01*
X146086610Y-90825500D01*
X146086611Y-90825500D01*
X146257701Y-90798402D01*
X146422445Y-90744873D01*
X146576788Y-90666232D01*
X146603092Y-90647120D01*
X146634666Y-90624182D01*
X146700472Y-90600702D01*
X146707551Y-90600500D01*
X150292449Y-90600500D01*
X150359488Y-90620185D01*
X150365334Y-90624182D01*
X150418174Y-90662571D01*
X150423212Y-90666232D01*
X150577555Y-90744873D01*
X150742299Y-90798402D01*
X150913389Y-90825500D01*
X150913390Y-90825500D01*
X151086610Y-90825500D01*
X151086611Y-90825500D01*
X151257701Y-90798402D01*
X151422445Y-90744873D01*
X151576788Y-90666232D01*
X151603092Y-90647120D01*
X151634666Y-90624182D01*
X151700472Y-90600702D01*
X151707551Y-90600500D01*
X152062770Y-90600500D01*
X152129809Y-90620185D01*
X152150451Y-90636819D01*
X152181344Y-90667712D01*
X152330666Y-90759814D01*
X152497203Y-90814999D01*
X152599991Y-90825500D01*
X153400008Y-90825499D01*
X153400016Y-90825498D01*
X153400019Y-90825498D01*
X153480800Y-90817246D01*
X153502797Y-90814999D01*
X153669334Y-90759814D01*
X153818656Y-90667712D01*
X153942712Y-90543656D01*
X154034814Y-90394334D01*
X154089999Y-90227797D01*
X154100500Y-90125009D01*
X154100500Y-89522077D01*
X154100500Y-89413389D01*
X154100500Y-89405794D01*
X154100499Y-89405776D01*
X154100499Y-88874998D01*
X154100498Y-88874981D01*
X154089999Y-88772203D01*
X154089998Y-88772200D01*
X154080039Y-88742147D01*
X154034814Y-88605666D01*
X153942712Y-88456344D01*
X153942704Y-88456336D01*
X153941729Y-88455102D01*
X153941319Y-88454087D01*
X153938920Y-88450197D01*
X153939584Y-88449786D01*
X153915588Y-88390306D01*
X153928628Y-88321664D01*
X153938680Y-88305301D01*
X153941230Y-88301791D01*
X153941588Y-88301089D01*
X154019873Y-88147445D01*
X154073402Y-87982701D01*
X154100500Y-87811611D01*
X154100500Y-87188389D01*
X154073402Y-87017299D01*
X154019873Y-86852555D01*
X153941232Y-86698212D01*
X153839414Y-86558072D01*
X153716928Y-86435586D01*
X153576788Y-86333768D01*
X153533489Y-86311706D01*
X153422449Y-86255128D01*
X153286366Y-86210912D01*
X153237004Y-86180662D01*
X151647598Y-84591256D01*
X151614113Y-84529933D01*
X151619097Y-84460241D01*
X151660969Y-84404308D01*
X151696955Y-84385647D01*
X151822445Y-84344873D01*
X151976788Y-84266232D01*
X152116928Y-84164414D01*
X152239414Y-84041928D01*
X152341232Y-83901788D01*
X152419873Y-83747445D01*
X152473402Y-83582701D01*
X152500500Y-83411611D01*
X152500500Y-83238389D01*
X152473402Y-83067299D01*
X152419873Y-82902555D01*
X152341232Y-82748212D01*
X152239414Y-82608072D01*
X152173680Y-82542338D01*
X152140195Y-82481015D01*
X152145179Y-82411323D01*
X152173677Y-82366979D01*
X152230472Y-82310185D01*
X152318478Y-82164606D01*
X152369086Y-82002196D01*
X152375500Y-81931616D01*
X152375500Y-81418384D01*
X152369086Y-81347804D01*
X152318478Y-81185394D01*
X152230472Y-81039815D01*
X152230470Y-81039813D01*
X152230469Y-81039811D01*
X152110188Y-80919530D01*
X152087466Y-80905794D01*
X152060347Y-80889399D01*
X152053082Y-80881465D01*
X152043297Y-80876997D01*
X152029897Y-80856146D01*
X152013162Y-80837871D01*
X152010343Y-80825719D01*
X152005523Y-80818219D01*
X152000500Y-80783284D01*
X152000500Y-80602167D01*
X152020185Y-80535128D01*
X152060350Y-80496050D01*
X152064603Y-80493478D01*
X152064606Y-80493478D01*
X152210185Y-80405472D01*
X152264755Y-80350902D01*
X152328839Y-80286819D01*
X152390162Y-80253334D01*
X152416520Y-80250500D01*
X154849903Y-80250500D01*
X154916942Y-80270185D01*
X154937584Y-80286819D01*
X155639902Y-80989137D01*
X155673387Y-81050460D01*
X155675580Y-81089414D01*
X155674500Y-81099986D01*
X155674500Y-81900001D01*
X155674501Y-81900019D01*
X155685000Y-82002796D01*
X155685001Y-82002799D01*
X155738619Y-82164606D01*
X155740186Y-82169334D01*
X155830032Y-82314999D01*
X155832289Y-82318657D01*
X155863181Y-82349549D01*
X155896666Y-82410872D01*
X155899500Y-82437230D01*
X155899500Y-86363330D01*
X155899499Y-86363348D01*
X155899499Y-86529054D01*
X155899498Y-86529054D01*
X155940424Y-86681789D01*
X155940425Y-86681790D01*
X155968411Y-86730262D01*
X155968413Y-86730264D01*
X156019479Y-86818714D01*
X156019481Y-86818717D01*
X156138349Y-86937585D01*
X156138355Y-86937590D01*
X156739902Y-87539137D01*
X156773387Y-87600460D01*
X156775580Y-87639414D01*
X156774500Y-87649986D01*
X156774500Y-88250000D01*
X156774501Y-88250011D01*
X156775581Y-88260583D01*
X156762808Y-88329275D01*
X156739903Y-88360860D01*
X151845524Y-93255240D01*
X151784201Y-93288725D01*
X151714509Y-93283741D01*
X151670162Y-93255240D01*
X151637785Y-93222863D01*
X151637781Y-93222860D01*
X151473920Y-93113371D01*
X151473907Y-93113364D01*
X151291839Y-93037950D01*
X151291829Y-93037947D01*
X151098543Y-92999500D01*
X151098541Y-92999500D01*
X150901459Y-92999500D01*
X150901457Y-92999500D01*
X150708170Y-93037947D01*
X150708160Y-93037950D01*
X150526092Y-93113364D01*
X150526079Y-93113371D01*
X150362218Y-93222860D01*
X150362214Y-93222863D01*
X150222863Y-93362214D01*
X150222860Y-93362218D01*
X150113371Y-93526079D01*
X150113364Y-93526092D01*
X150037950Y-93708160D01*
X150037947Y-93708170D01*
X149999500Y-93901456D01*
X149999500Y-93901459D01*
X149999500Y-94098541D01*
X149999500Y-94098543D01*
X149999499Y-94098543D01*
X150037947Y-94291829D01*
X150037950Y-94291839D01*
X150113364Y-94473907D01*
X150113371Y-94473920D01*
X150222860Y-94637781D01*
X150222863Y-94637785D01*
X150362214Y-94777136D01*
X150362218Y-94777139D01*
X150526079Y-94886628D01*
X150526092Y-94886635D01*
X150708160Y-94962049D01*
X150708165Y-94962051D01*
X150708169Y-94962051D01*
X150708170Y-94962052D01*
X150901456Y-95000500D01*
X150901459Y-95000500D01*
X151098543Y-95000500D01*
X151228582Y-94974632D01*
X151291835Y-94962051D01*
X151473914Y-94886632D01*
X151637782Y-94777139D01*
X151701520Y-94713401D01*
X151778102Y-94636820D01*
X151839425Y-94603335D01*
X151865783Y-94600501D01*
X152029054Y-94600501D01*
X152029057Y-94600501D01*
X152181785Y-94559577D01*
X152231904Y-94530639D01*
X152318716Y-94480520D01*
X152430520Y-94368716D01*
X152430520Y-94368714D01*
X152440728Y-94358507D01*
X152440730Y-94358504D01*
X157812416Y-88986818D01*
X157839343Y-88972114D01*
X157865162Y-88955522D01*
X157871362Y-88954630D01*
X157873739Y-88953333D01*
X157900097Y-88950499D01*
X158099902Y-88950499D01*
X158166941Y-88970184D01*
X158187583Y-88986818D01*
X158527639Y-89326874D01*
X158527649Y-89326885D01*
X158531979Y-89331215D01*
X158531980Y-89331216D01*
X158643784Y-89443020D01*
X158730595Y-89493139D01*
X158730597Y-89493141D01*
X158780713Y-89522076D01*
X158780715Y-89522077D01*
X158933442Y-89563000D01*
X158933443Y-89563000D01*
X159601652Y-89563000D01*
X159668691Y-89582685D01*
X159707189Y-89621901D01*
X159782288Y-89743656D01*
X159906344Y-89867712D01*
X160055666Y-89959814D01*
X160222203Y-90014999D01*
X160324991Y-90025500D01*
X161675008Y-90025499D01*
X161777797Y-90014999D01*
X161944334Y-89959814D01*
X162093656Y-89867712D01*
X162217712Y-89743656D01*
X162292809Y-89621902D01*
X162344757Y-89575179D01*
X162398348Y-89563000D01*
X170950831Y-89563000D01*
X170950847Y-89563001D01*
X170958443Y-89563001D01*
X171116554Y-89563001D01*
X171116557Y-89563001D01*
X171269285Y-89522077D01*
X171319404Y-89493139D01*
X171406216Y-89443020D01*
X171518020Y-89331216D01*
X171518020Y-89331214D01*
X171528228Y-89321007D01*
X171528229Y-89321004D01*
X172514662Y-88334572D01*
X172575983Y-88301089D01*
X172578150Y-88300638D01*
X172642312Y-88287875D01*
X172733497Y-88269737D01*
X172879179Y-88209394D01*
X173010289Y-88121789D01*
X173121789Y-88010289D01*
X173209394Y-87879179D01*
X173269737Y-87733497D01*
X173300500Y-87578842D01*
X173300500Y-87421158D01*
X173300500Y-87421155D01*
X173298617Y-87411688D01*
X173304846Y-87342097D01*
X173347711Y-87286920D01*
X173413601Y-87263678D01*
X173420235Y-87263500D01*
X174054245Y-87263500D01*
X174054246Y-87263499D01*
X174201750Y-87234159D01*
X174340698Y-87176605D01*
X174465748Y-87093049D01*
X176167819Y-85390978D01*
X176229142Y-85357493D01*
X176298834Y-85362477D01*
X176354767Y-85404349D01*
X176379184Y-85469813D01*
X176379500Y-85478659D01*
X176379500Y-87300019D01*
X176390001Y-87402801D01*
X176445184Y-87569333D01*
X176445189Y-87569344D01*
X176537285Y-87718653D01*
X176537288Y-87718657D01*
X176661342Y-87842711D01*
X176661346Y-87842714D01*
X176810655Y-87934810D01*
X176810658Y-87934811D01*
X176810664Y-87934815D01*
X176977200Y-87989999D01*
X177079988Y-88000500D01*
X177079993Y-88000500D01*
X182480007Y-88000500D01*
X182480012Y-88000500D01*
X182582800Y-87989999D01*
X182749336Y-87934815D01*
X182898657Y-87842712D01*
X183022712Y-87718657D01*
X183114815Y-87569336D01*
X183169999Y-87402800D01*
X183180500Y-87300012D01*
X183180500Y-81299988D01*
X183169999Y-81197200D01*
X183114815Y-81030664D01*
X183114811Y-81030658D01*
X183114810Y-81030655D01*
X183022714Y-80881346D01*
X183022711Y-80881342D01*
X182898657Y-80757288D01*
X182898653Y-80757285D01*
X182749344Y-80665189D01*
X182749338Y-80665186D01*
X182749336Y-80665185D01*
X182668362Y-80638353D01*
X182582801Y-80610001D01*
X182480019Y-80599500D01*
X182480012Y-80599500D01*
X180504500Y-80599500D01*
X180437461Y-80579815D01*
X180391706Y-80527011D01*
X180380500Y-80475500D01*
X180380500Y-79774790D01*
X180400185Y-79707751D01*
X180435607Y-79671689D01*
X180510289Y-79621789D01*
X180621789Y-79510289D01*
X180709394Y-79379179D01*
X180769737Y-79233497D01*
X180781920Y-79172245D01*
X180814304Y-79110338D01*
X180875019Y-79075763D01*
X180944789Y-79079502D01*
X181001461Y-79120368D01*
X181021242Y-79157432D01*
X181025184Y-79169329D01*
X181025187Y-79169336D01*
X181043311Y-79198720D01*
X181117288Y-79318656D01*
X181241344Y-79442712D01*
X181390666Y-79534814D01*
X181557203Y-79589999D01*
X181659991Y-79600500D01*
X182460008Y-79600499D01*
X182460016Y-79600498D01*
X182460019Y-79600498D01*
X182516302Y-79594748D01*
X182562797Y-79589999D01*
X182729334Y-79534814D01*
X182878656Y-79442712D01*
X183002712Y-79318656D01*
X183094814Y-79169334D01*
X183149999Y-79002797D01*
X183160500Y-78900009D01*
X183160499Y-78030612D01*
X183180183Y-77963574D01*
X183196813Y-77942937D01*
X184577933Y-76561818D01*
X184639256Y-76528333D01*
X184665614Y-76525499D01*
X185175002Y-76525499D01*
X185175008Y-76525499D01*
X185277797Y-76514999D01*
X185444334Y-76459814D01*
X185593656Y-76367712D01*
X185699049Y-76262319D01*
X185760372Y-76228834D01*
X185786730Y-76226000D01*
X186427825Y-76226000D01*
X186494864Y-76245685D01*
X186540619Y-76298489D01*
X186542386Y-76302548D01*
X186613364Y-76473907D01*
X186613371Y-76473920D01*
X186722860Y-76637781D01*
X186722863Y-76637785D01*
X186862214Y-76777136D01*
X186862218Y-76777139D01*
X187026079Y-76886628D01*
X187026092Y-76886635D01*
X187208066Y-76962010D01*
X187208165Y-76962051D01*
X187208169Y-76962051D01*
X187208170Y-76962052D01*
X187401456Y-77000500D01*
X187401459Y-77000500D01*
X187598543Y-77000500D01*
X187728582Y-76974632D01*
X187791835Y-76962051D01*
X187932655Y-76903721D01*
X187973907Y-76886635D01*
X187973907Y-76886634D01*
X187973914Y-76886632D01*
X188137782Y-76777139D01*
X188277139Y-76637782D01*
X188386632Y-76473914D01*
X188462051Y-76291835D01*
X188490669Y-76147964D01*
X188500500Y-76098543D01*
X188500500Y-75901456D01*
X188462052Y-75708170D01*
X188462051Y-75708169D01*
X188462051Y-75708165D01*
X188448316Y-75675006D01*
X188386635Y-75526092D01*
X188386628Y-75526079D01*
X188277139Y-75362218D01*
X188277136Y-75362214D01*
X188137785Y-75222863D01*
X188137781Y-75222860D01*
X187973920Y-75113371D01*
X187973907Y-75113364D01*
X187791839Y-75037950D01*
X187791829Y-75037947D01*
X187611353Y-75002048D01*
X187549442Y-74969663D01*
X187547919Y-74968167D01*
X187449203Y-74869451D01*
X187449202Y-74869450D01*
X187449201Y-74869449D01*
X187324159Y-74785898D01*
X187324146Y-74785891D01*
X187185209Y-74728342D01*
X187185197Y-74728339D01*
X187037701Y-74699000D01*
X187037698Y-74699000D01*
X185905114Y-74699000D01*
X185838075Y-74679315D01*
X185792320Y-74626511D01*
X185782376Y-74557353D01*
X185811401Y-74493797D01*
X185817433Y-74487319D01*
X186792933Y-73511818D01*
X186854256Y-73478333D01*
X186880614Y-73475499D01*
X186998338Y-73475499D01*
X186998344Y-73475499D01*
X186998352Y-73475498D01*
X186998355Y-73475498D01*
X187052760Y-73469940D01*
X187097708Y-73465349D01*
X187258697Y-73412003D01*
X187403044Y-73322968D01*
X187412319Y-73313693D01*
X187473642Y-73280208D01*
X187543334Y-73285192D01*
X187587681Y-73313693D01*
X187596955Y-73322967D01*
X187596959Y-73322970D01*
X187741294Y-73411998D01*
X187741297Y-73411999D01*
X187741303Y-73412003D01*
X187902292Y-73465349D01*
X188001655Y-73475500D01*
X188548344Y-73475499D01*
X188548352Y-73475498D01*
X188548355Y-73475498D01*
X188602760Y-73469940D01*
X188647708Y-73465349D01*
X188808697Y-73412003D01*
X188953044Y-73322968D01*
X189072968Y-73203044D01*
X189162003Y-73058697D01*
X189215349Y-72897708D01*
X189225500Y-72798345D01*
X189225499Y-72201656D01*
X189223421Y-72181317D01*
X189215349Y-72102292D01*
X189215348Y-72102289D01*
X189205379Y-72072204D01*
X189162003Y-71941303D01*
X189161999Y-71941297D01*
X189161998Y-71941294D01*
X189072970Y-71796959D01*
X189072967Y-71796955D01*
X188953044Y-71677032D01*
X188953040Y-71677029D01*
X188808705Y-71588001D01*
X188808699Y-71587998D01*
X188808697Y-71587997D01*
X188760373Y-71571984D01*
X188647709Y-71534651D01*
X188548352Y-71524500D01*
X188548345Y-71524500D01*
X188200097Y-71524500D01*
X188133058Y-71504815D01*
X188112416Y-71488181D01*
X187595413Y-70971178D01*
X187561928Y-70909855D01*
X187566912Y-70840163D01*
X187579317Y-70817447D01*
X187579248Y-70817409D01*
X187583491Y-70809636D01*
X187583496Y-70809631D01*
X187633791Y-70674783D01*
X187640200Y-70615173D01*
X187640199Y-69122428D01*
X187633791Y-69062817D01*
X187630931Y-69055150D01*
X187583497Y-68927971D01*
X187583493Y-68927964D01*
X187497247Y-68812755D01*
X187497244Y-68812752D01*
X187382035Y-68726506D01*
X187382028Y-68726502D01*
X187247186Y-68676210D01*
X187247185Y-68676209D01*
X187247183Y-68676209D01*
X187187573Y-68669800D01*
X187187563Y-68669800D01*
X186812430Y-68669800D01*
X186812420Y-68669801D01*
X186763248Y-68675087D01*
X186736745Y-68675087D01*
X186687571Y-68669800D01*
X186687562Y-68669800D01*
X186312428Y-68669800D01*
X186312423Y-68669801D01*
X186282788Y-68672987D01*
X186263253Y-68675087D01*
X186236747Y-68675087D01*
X186230756Y-68674443D01*
X186187572Y-68669800D01*
X186187565Y-68669800D01*
X185812429Y-68669800D01*
X185812424Y-68669801D01*
X185782789Y-68672987D01*
X185763254Y-68675087D01*
X185736748Y-68675087D01*
X185730757Y-68674443D01*
X185687573Y-68669800D01*
X185687566Y-68669800D01*
X185312430Y-68669800D01*
X185312420Y-68669801D01*
X185263248Y-68675087D01*
X185236745Y-68675087D01*
X185187571Y-68669800D01*
X185187562Y-68669800D01*
X184812428Y-68669800D01*
X184812421Y-68669801D01*
X184752814Y-68676208D01*
X184617969Y-68726502D01*
X184617962Y-68726506D01*
X184502753Y-68812752D01*
X184502750Y-68812755D01*
X184416504Y-68927964D01*
X184416500Y-68927971D01*
X184366206Y-69062817D01*
X184360463Y-69116239D01*
X184359799Y-69122423D01*
X184359798Y-69122435D01*
X184359798Y-70615170D01*
X184359799Y-70615176D01*
X184366206Y-70674781D01*
X184366207Y-70674783D01*
X184390754Y-70740597D01*
X184391680Y-70743078D01*
X184399498Y-70786412D01*
X184399498Y-71199904D01*
X184390853Y-71229344D01*
X184384330Y-71259331D01*
X184380575Y-71264346D01*
X184379813Y-71266943D01*
X184363179Y-71287585D01*
X184212583Y-71438181D01*
X184151260Y-71471666D01*
X184124902Y-71474500D01*
X183824999Y-71474500D01*
X183824980Y-71474501D01*
X183722203Y-71485000D01*
X183722200Y-71485001D01*
X183555668Y-71540185D01*
X183555663Y-71540187D01*
X183406342Y-71632289D01*
X183282289Y-71756342D01*
X183190187Y-71905663D01*
X183190185Y-71905668D01*
X183178380Y-71941294D01*
X183135001Y-72072203D01*
X183135001Y-72072204D01*
X183135000Y-72072204D01*
X183124500Y-72174983D01*
X183124500Y-72900001D01*
X183124501Y-72900019D01*
X183133690Y-72989968D01*
X183120920Y-73058661D01*
X183098013Y-73090250D01*
X180631286Y-75556978D01*
X180519481Y-75668782D01*
X180519475Y-75668790D01*
X180481702Y-75734216D01*
X180481699Y-75734223D01*
X180476508Y-75743215D01*
X180440423Y-75805715D01*
X180402794Y-75946144D01*
X180400742Y-75951657D01*
X180393813Y-75960923D01*
X180380398Y-75987045D01*
X180378211Y-75989710D01*
X180290609Y-76120814D01*
X180290602Y-76120827D01*
X180230264Y-76266498D01*
X180230261Y-76266510D01*
X180199500Y-76421153D01*
X180199500Y-76578846D01*
X180230261Y-76733489D01*
X180230264Y-76733501D01*
X180290602Y-76879172D01*
X180290609Y-76879185D01*
X180378210Y-77010288D01*
X180378213Y-77010292D01*
X180392740Y-77024819D01*
X180426225Y-77086142D01*
X180421241Y-77155834D01*
X180379369Y-77211767D01*
X180313905Y-77236184D01*
X180305059Y-77236500D01*
X179424799Y-77236500D01*
X179277302Y-77265839D01*
X179277290Y-77265842D01*
X179138353Y-77323391D01*
X179138340Y-77323398D01*
X179024450Y-77399497D01*
X179024451Y-77399498D01*
X179013295Y-77406952D01*
X178812180Y-77608067D01*
X178750857Y-77641552D01*
X178681165Y-77636568D01*
X178625232Y-77594696D01*
X178600815Y-77529232D01*
X178600499Y-77520386D01*
X178600499Y-77099998D01*
X178600498Y-77099981D01*
X178589999Y-76997203D01*
X178589998Y-76997200D01*
X178587611Y-76989998D01*
X178534814Y-76830666D01*
X178442712Y-76681344D01*
X178348549Y-76587181D01*
X178315064Y-76525858D01*
X178320048Y-76456166D01*
X178361920Y-76400233D01*
X178427384Y-76375816D01*
X178436230Y-76375500D01*
X179225007Y-76375500D01*
X179225012Y-76375500D01*
X179327800Y-76364999D01*
X179494336Y-76309815D01*
X179643657Y-76217712D01*
X179767712Y-76093657D01*
X179859815Y-75944336D01*
X179914999Y-75777800D01*
X179925500Y-75675012D01*
X179925500Y-73743827D01*
X179945185Y-73676788D01*
X179993204Y-73633343D01*
X180026788Y-73616232D01*
X180166928Y-73514414D01*
X181982023Y-71699317D01*
X182043346Y-71665833D01*
X182069704Y-71662999D01*
X182200002Y-71662999D01*
X182200008Y-71662999D01*
X182302797Y-71652499D01*
X182469334Y-71597314D01*
X182618656Y-71505212D01*
X182742712Y-71381156D01*
X182834814Y-71231834D01*
X182889999Y-71065297D01*
X182900500Y-70962509D01*
X182900499Y-70237492D01*
X182898722Y-70220100D01*
X182889999Y-70134703D01*
X182889998Y-70134700D01*
X182887105Y-70125969D01*
X182834814Y-69968166D01*
X182742712Y-69818844D01*
X182618656Y-69694788D01*
X182469334Y-69602686D01*
X182302797Y-69547501D01*
X182302795Y-69547500D01*
X182200016Y-69537000D01*
X182200009Y-69537000D01*
X181834356Y-69537000D01*
X181796037Y-69530931D01*
X181782701Y-69526597D01*
X181635003Y-69503204D01*
X181611611Y-69499500D01*
X181462340Y-69499500D01*
X181395301Y-69479815D01*
X181349546Y-69427011D01*
X181339602Y-69357853D01*
X181368627Y-69294297D01*
X181406045Y-69265015D01*
X181501788Y-69216232D01*
X181641928Y-69114414D01*
X181982023Y-68774317D01*
X182043346Y-68740833D01*
X182069704Y-68737999D01*
X182200002Y-68737999D01*
X182200008Y-68737999D01*
X182302797Y-68727499D01*
X182469334Y-68672314D01*
X182618656Y-68580212D01*
X182742712Y-68456156D01*
X182834814Y-68306834D01*
X182889999Y-68140297D01*
X182900500Y-68037509D01*
X182900499Y-67312492D01*
X182900263Y-67310185D01*
X182889999Y-67209703D01*
X182889998Y-67209700D01*
X182878334Y-67174500D01*
X182834814Y-67043166D01*
X182742712Y-66893844D01*
X182618656Y-66769788D01*
X182503888Y-66698999D01*
X182469336Y-66677687D01*
X182469331Y-66677685D01*
X182467862Y-66677198D01*
X182302797Y-66622501D01*
X182302795Y-66622500D01*
X182200016Y-66612000D01*
X182200009Y-66612000D01*
X181834356Y-66612000D01*
X181796037Y-66605931D01*
X181782701Y-66601597D01*
X181635003Y-66578204D01*
X181611611Y-66574500D01*
X181438389Y-66574500D01*
X181412575Y-66578588D01*
X181267306Y-66601596D01*
X181267300Y-66601597D01*
X181267299Y-66601598D01*
X181253955Y-66605933D01*
X181215644Y-66612000D01*
X180849998Y-66612000D01*
X180849980Y-66612001D01*
X180747203Y-66622500D01*
X180747200Y-66622501D01*
X180580668Y-66677685D01*
X180580663Y-66677687D01*
X180431342Y-66769789D01*
X180302181Y-66898951D01*
X180300335Y-66897105D01*
X180253234Y-66930440D01*
X180183434Y-66933561D01*
X180123027Y-66898450D01*
X180091192Y-66836254D01*
X180095087Y-66774827D01*
X180122246Y-66691243D01*
X180155500Y-66481287D01*
X180155500Y-66268713D01*
X180121484Y-66053945D01*
X180122978Y-66053708D01*
X180126118Y-65990636D01*
X180166768Y-65933809D01*
X180231688Y-65907980D01*
X180300267Y-65921349D01*
X180346312Y-65962551D01*
X180378208Y-66010286D01*
X180378213Y-66010292D01*
X180489707Y-66121786D01*
X180489711Y-66121789D01*
X180620814Y-66209390D01*
X180620827Y-66209397D01*
X180764031Y-66268713D01*
X180766503Y-66269737D01*
X180921153Y-66300499D01*
X180921156Y-66300500D01*
X180921158Y-66300500D01*
X181078844Y-66300500D01*
X181078845Y-66300499D01*
X181233497Y-66269737D01*
X181379179Y-66209394D01*
X181510289Y-66121789D01*
X181621789Y-66010289D01*
X181709394Y-65879179D01*
X181769737Y-65733497D01*
X181790497Y-65629132D01*
X181800638Y-65578150D01*
X181833023Y-65516239D01*
X181834518Y-65514716D01*
X182712416Y-64636819D01*
X182773739Y-64603334D01*
X182800097Y-64600500D01*
X184638101Y-64600500D01*
X184667541Y-64609144D01*
X184697528Y-64615668D01*
X184702543Y-64619422D01*
X184705140Y-64620185D01*
X184725782Y-64636819D01*
X184823481Y-64734518D01*
X184856966Y-64795841D01*
X184859800Y-64822199D01*
X184859800Y-66246370D01*
X184859801Y-66246376D01*
X184866208Y-66305983D01*
X184916502Y-66440828D01*
X184916506Y-66440835D01*
X185002752Y-66556044D01*
X185002755Y-66556047D01*
X185117964Y-66642293D01*
X185117971Y-66642297D01*
X185162918Y-66659061D01*
X185252817Y-66692591D01*
X185312427Y-66699000D01*
X185687572Y-66698999D01*
X185747183Y-66692591D01*
X185882031Y-66642296D01*
X185997246Y-66556046D01*
X186083496Y-66440831D01*
X186133791Y-66305983D01*
X186133790Y-66305983D01*
X186133818Y-66305911D01*
X186175689Y-66249977D01*
X186241153Y-66225560D01*
X186309426Y-66240411D01*
X186358832Y-66289816D01*
X186366182Y-66305911D01*
X186416502Y-66440828D01*
X186416506Y-66440835D01*
X186502752Y-66556044D01*
X186502755Y-66556047D01*
X186617964Y-66642293D01*
X186617971Y-66642297D01*
X186662918Y-66659061D01*
X186752817Y-66692591D01*
X186812427Y-66699000D01*
X187187572Y-66698999D01*
X187247183Y-66692591D01*
X187382031Y-66642296D01*
X187497246Y-66556046D01*
X187583496Y-66440831D01*
X187633791Y-66305983D01*
X187640200Y-66246373D01*
X187640199Y-64753628D01*
X187633791Y-64694017D01*
X187614431Y-64642111D01*
X187608318Y-64625720D01*
X187600500Y-64582387D01*
X187600500Y-64089060D01*
X187600501Y-64089047D01*
X187600501Y-63920944D01*
X187572937Y-63818076D01*
X187559577Y-63768216D01*
X187536706Y-63728602D01*
X187480524Y-63631290D01*
X187480518Y-63631282D01*
X187334573Y-63485337D01*
X187301088Y-63424014D01*
X187300637Y-63421847D01*
X187296192Y-63399499D01*
X187269737Y-63266503D01*
X187265528Y-63256342D01*
X187209397Y-63120827D01*
X187209390Y-63120814D01*
X187121789Y-62989711D01*
X187121786Y-62989707D01*
X187010292Y-62878213D01*
X187010288Y-62878210D01*
X186879185Y-62790609D01*
X186879180Y-62790607D01*
X186879179Y-62790606D01*
X186862031Y-62783503D01*
X186807628Y-62739661D01*
X186785564Y-62673367D01*
X186802844Y-62605667D01*
X186803916Y-62603896D01*
X186809814Y-62594334D01*
X186864999Y-62427797D01*
X186875500Y-62325009D01*
X186875499Y-61599992D01*
X186871259Y-61558489D01*
X186864999Y-61497203D01*
X186864998Y-61497200D01*
X186862515Y-61489707D01*
X186809814Y-61330666D01*
X186717712Y-61181344D01*
X186593656Y-61057288D01*
X186444334Y-60965186D01*
X186277797Y-60910001D01*
X186277795Y-60910000D01*
X186175016Y-60899500D01*
X186175009Y-60899500D01*
X185524096Y-60899500D01*
X185457057Y-60879815D01*
X185411302Y-60827011D01*
X185401358Y-60757853D01*
X185430383Y-60694297D01*
X185436415Y-60687819D01*
X185579698Y-60544536D01*
X185868713Y-60255521D01*
X185868716Y-60255520D01*
X185980520Y-60143716D01*
X185980868Y-60143112D01*
X185987060Y-60136908D01*
X186010911Y-60123852D01*
X186032871Y-60107814D01*
X186043641Y-60105936D01*
X186048348Y-60103360D01*
X186055519Y-60103865D01*
X186074831Y-60100499D01*
X186175002Y-60100499D01*
X186175008Y-60100499D01*
X186277797Y-60089999D01*
X186444334Y-60034814D01*
X186593656Y-59942712D01*
X186717712Y-59818656D01*
X186809814Y-59669334D01*
X186864999Y-59502797D01*
X186875500Y-59400009D01*
X186875499Y-58674992D01*
X186871394Y-58634810D01*
X186864999Y-58572203D01*
X186864998Y-58572200D01*
X186849887Y-58526598D01*
X186809814Y-58405666D01*
X186717712Y-58256344D01*
X186636819Y-58175451D01*
X186603334Y-58114128D01*
X186600500Y-58087770D01*
X186600500Y-51833389D01*
X186584230Y-51730664D01*
X186573402Y-51662299D01*
X186519873Y-51497555D01*
X186441232Y-51343212D01*
X186339414Y-51203072D01*
X186216928Y-51080586D01*
X183416818Y-48280476D01*
X183383333Y-48219153D01*
X183380499Y-48192795D01*
X183380499Y-47799992D01*
X183380498Y-47799981D01*
X183369999Y-47697203D01*
X183369998Y-47697200D01*
X183358455Y-47662367D01*
X183314814Y-47530666D01*
X183222712Y-47381344D01*
X183098656Y-47257288D01*
X182949334Y-47165186D01*
X182782797Y-47110001D01*
X182782795Y-47110000D01*
X182680016Y-47099500D01*
X182680009Y-47099500D01*
X182287204Y-47099500D01*
X182220165Y-47079815D01*
X182199523Y-47063181D01*
X180796930Y-45660588D01*
X180796928Y-45660586D01*
X180656788Y-45558768D01*
X180502445Y-45480127D01*
X180337701Y-45426598D01*
X180337699Y-45426597D01*
X180337698Y-45426597D01*
X180206271Y-45405781D01*
X180166611Y-45399500D01*
X173913389Y-45399500D01*
X173873728Y-45405781D01*
X173742302Y-45426597D01*
X173577552Y-45480128D01*
X173423211Y-45558768D01*
X173343256Y-45616859D01*
X173283072Y-45660586D01*
X173283070Y-45660588D01*
X173283069Y-45660588D01*
X173160588Y-45783069D01*
X173160588Y-45783070D01*
X173160586Y-45783072D01*
X173152532Y-45794158D01*
X173058768Y-45923211D01*
X172980128Y-46077552D01*
X172926597Y-46242302D01*
X172911660Y-46336611D01*
X172899500Y-46413389D01*
X172899500Y-46586611D01*
X172926598Y-46757701D01*
X172961310Y-46864534D01*
X172980128Y-46922447D01*
X173058770Y-47076791D01*
X173113859Y-47152615D01*
X173137339Y-47218421D01*
X173121514Y-47286475D01*
X173071408Y-47335170D01*
X173013541Y-47349500D01*
X172242230Y-47349500D01*
X172175191Y-47329815D01*
X172154549Y-47313181D01*
X172098657Y-47257289D01*
X172098656Y-47257288D01*
X171949334Y-47165186D01*
X171782797Y-47110001D01*
X171782795Y-47110000D01*
X171680016Y-47099500D01*
X171680009Y-47099500D01*
X171640757Y-47099500D01*
X171573718Y-47079815D01*
X171553076Y-47063181D01*
X170164444Y-45674549D01*
X170164435Y-45674539D01*
X170150482Y-45660586D01*
X170009792Y-45519896D01*
X170009788Y-45519893D01*
X170009784Y-45519889D01*
X169837820Y-45394951D01*
X169648414Y-45298444D01*
X169648413Y-45298443D01*
X169648412Y-45298443D01*
X169446243Y-45232754D01*
X169446241Y-45232753D01*
X169446240Y-45232753D01*
X169284957Y-45207208D01*
X169236287Y-45199500D01*
X161866812Y-45199500D01*
X161818141Y-45207208D01*
X161656859Y-45232753D01*
X161454684Y-45298444D01*
X161265278Y-45394951D01*
X161093312Y-45519890D01*
X161093308Y-45519894D01*
X160942992Y-45670211D01*
X160218933Y-46394269D01*
X160170259Y-46424293D01*
X160150668Y-46430784D01*
X160150662Y-46430787D01*
X160001341Y-46522889D01*
X159877288Y-46646942D01*
X159877287Y-46646944D01*
X159808975Y-46757697D01*
X159785184Y-46796268D01*
X159778691Y-46815861D01*
X159748667Y-46864534D01*
X157990210Y-48622993D01*
X157839893Y-48773309D01*
X157839889Y-48773313D01*
X157714950Y-48945279D01*
X157618443Y-49134685D01*
X157555170Y-49329418D01*
X157515732Y-49387094D01*
X157451374Y-49414292D01*
X157437239Y-49415100D01*
X157046661Y-49415100D01*
X157046643Y-49415101D01*
X156947291Y-49425250D01*
X156947288Y-49425251D01*
X156786304Y-49478596D01*
X156786293Y-49478601D01*
X156641958Y-49567629D01*
X156641954Y-49567632D01*
X156522031Y-49687555D01*
X156522028Y-49687559D01*
X156433000Y-49831894D01*
X156432995Y-49831905D01*
X156379650Y-49992890D01*
X156369499Y-50092247D01*
X156369499Y-50688937D01*
X156369500Y-50688955D01*
X156379649Y-50788307D01*
X156379650Y-50788310D01*
X156432995Y-50949294D01*
X156433000Y-50949305D01*
X156522028Y-51093640D01*
X156522031Y-51093644D01*
X156641954Y-51213567D01*
X156641958Y-51213570D01*
X156786293Y-51302598D01*
X156786296Y-51302599D01*
X156786302Y-51302603D01*
X156947291Y-51355949D01*
X157046654Y-51366100D01*
X157318555Y-51366099D01*
X157385594Y-51385783D01*
X157406236Y-51402418D01*
X157990538Y-51986720D01*
X158024023Y-52048043D01*
X158019039Y-52117735D01*
X158011692Y-52133822D01*
X158011505Y-52134163D01*
X157961208Y-52269017D01*
X157954801Y-52328616D01*
X157954800Y-52328635D01*
X157954800Y-53821370D01*
X157954801Y-53821376D01*
X157961208Y-53880983D01*
X158011502Y-54015828D01*
X158011506Y-54015835D01*
X158097752Y-54131044D01*
X158097755Y-54131047D01*
X158212964Y-54217293D01*
X158212971Y-54217297D01*
X158230734Y-54223922D01*
X158347817Y-54267591D01*
X158407427Y-54274000D01*
X158782572Y-54273999D01*
X158831754Y-54268712D01*
X158858254Y-54268712D01*
X158907429Y-54274000D01*
X159282574Y-54273999D01*
X159282577Y-54273998D01*
X159282589Y-54273998D01*
X159316781Y-54270321D01*
X159331747Y-54268713D01*
X159358254Y-54268713D01*
X159407428Y-54274000D01*
X159782573Y-54273999D01*
X159782576Y-54273998D01*
X159782588Y-54273998D01*
X159816780Y-54270321D01*
X159831746Y-54268713D01*
X159858253Y-54268713D01*
X159907427Y-54274000D01*
X160133366Y-54273999D01*
X160189662Y-54287514D01*
X160222960Y-54304479D01*
X160266289Y-54326557D01*
X160468458Y-54392246D01*
X160678414Y-54425500D01*
X160678415Y-54425500D01*
X160890987Y-54425500D01*
X160890988Y-54425500D01*
X161100944Y-54392246D01*
X161303113Y-54326557D01*
X161492517Y-54230051D01*
X161533191Y-54200500D01*
X161664487Y-54105109D01*
X161664489Y-54105106D01*
X161664493Y-54105104D01*
X161814805Y-53954792D01*
X161814807Y-53954788D01*
X161814810Y-53954786D01*
X161939749Y-53782820D01*
X161939748Y-53782820D01*
X161939752Y-53782816D01*
X162036258Y-53593412D01*
X162045413Y-53565233D01*
X162059363Y-53544830D01*
X162069632Y-53522347D01*
X162078740Y-53516493D01*
X162084850Y-53507558D01*
X162107616Y-53497936D01*
X162128410Y-53484573D01*
X162144816Y-53482214D01*
X162149208Y-53480358D01*
X162163345Y-53479550D01*
X162260193Y-53479550D01*
X162327232Y-53499235D01*
X162347873Y-53515868D01*
X163548932Y-54716928D01*
X164708669Y-55876665D01*
X164708683Y-55876680D01*
X164711794Y-55879791D01*
X164711795Y-55879792D01*
X164862107Y-56030104D01*
X164986969Y-56120821D01*
X165034083Y-56155051D01*
X165223487Y-56251557D01*
X165425656Y-56317246D01*
X165494898Y-56328213D01*
X165558033Y-56358142D01*
X165594964Y-56417454D01*
X165599500Y-56450686D01*
X165599500Y-58000019D01*
X165610001Y-58102801D01*
X165654303Y-58236496D01*
X165656705Y-58306325D01*
X165620973Y-58366366D01*
X165558452Y-58397559D01*
X165536597Y-58399500D01*
X161013099Y-58399500D01*
X160983658Y-58390855D01*
X160953672Y-58384332D01*
X160948656Y-58380577D01*
X160946060Y-58379815D01*
X160925418Y-58363181D01*
X160771518Y-58209281D01*
X160738033Y-58147958D01*
X160735199Y-58121600D01*
X160735199Y-56697429D01*
X160735198Y-56697423D01*
X160735197Y-56697416D01*
X160728791Y-56637817D01*
X160724098Y-56625235D01*
X160678497Y-56502971D01*
X160678493Y-56502964D01*
X160592247Y-56387755D01*
X160592244Y-56387752D01*
X160477035Y-56301506D01*
X160477028Y-56301502D01*
X160342186Y-56251210D01*
X160342185Y-56251209D01*
X160342183Y-56251209D01*
X160282573Y-56244800D01*
X160282563Y-56244800D01*
X159907430Y-56244800D01*
X159907423Y-56244801D01*
X159847816Y-56251208D01*
X159712971Y-56301502D01*
X159712964Y-56301506D01*
X159597755Y-56387752D01*
X159597752Y-56387755D01*
X159511506Y-56502964D01*
X159511502Y-56502971D01*
X159461182Y-56637888D01*
X159419311Y-56693822D01*
X159353847Y-56718239D01*
X159285574Y-56703387D01*
X159236168Y-56653982D01*
X159228818Y-56637888D01*
X159178497Y-56502971D01*
X159178493Y-56502964D01*
X159092247Y-56387755D01*
X159092244Y-56387752D01*
X158977035Y-56301506D01*
X158977028Y-56301502D01*
X158842186Y-56251210D01*
X158842185Y-56251209D01*
X158842183Y-56251209D01*
X158782573Y-56244800D01*
X158782563Y-56244800D01*
X158407430Y-56244800D01*
X158407423Y-56244801D01*
X158347816Y-56251208D01*
X158212971Y-56301502D01*
X158212964Y-56301506D01*
X158097755Y-56387752D01*
X158097752Y-56387755D01*
X158011506Y-56502964D01*
X158011502Y-56502971D01*
X157961208Y-56637817D01*
X157954801Y-56697416D01*
X157954801Y-56697423D01*
X157954800Y-56697435D01*
X157954800Y-58190170D01*
X157954801Y-58190176D01*
X157961208Y-58249783D01*
X157986681Y-58318077D01*
X157987696Y-58323704D01*
X157989476Y-58326474D01*
X157994498Y-58361405D01*
X157994499Y-58361409D01*
X157994499Y-58461055D01*
X157994499Y-58461057D01*
X157994500Y-58471051D01*
X157994500Y-59322059D01*
X157974815Y-59389098D01*
X157958181Y-59409740D01*
X157878213Y-59489707D01*
X157878210Y-59489711D01*
X157790609Y-59620814D01*
X157790602Y-59620827D01*
X157730264Y-59766498D01*
X157730261Y-59766510D01*
X157699500Y-59921153D01*
X157699500Y-59970500D01*
X157696949Y-59979185D01*
X157698238Y-59988147D01*
X157687259Y-60012187D01*
X157679815Y-60037539D01*
X157672974Y-60043466D01*
X157669213Y-60051703D01*
X157646978Y-60065992D01*
X157627011Y-60083294D01*
X157616496Y-60085581D01*
X157610435Y-60089477D01*
X157575500Y-60094500D01*
X157465219Y-60094500D01*
X157398180Y-60074815D01*
X157377538Y-60058181D01*
X155696818Y-58377461D01*
X155663333Y-58316138D01*
X155660499Y-58289780D01*
X155660499Y-57599998D01*
X155660498Y-57599981D01*
X155649999Y-57497203D01*
X155649998Y-57497200D01*
X155601386Y-57350500D01*
X155594814Y-57330666D01*
X155502712Y-57181344D01*
X155378656Y-57057288D01*
X155229334Y-56965186D01*
X155062797Y-56910001D01*
X155062795Y-56910000D01*
X154960010Y-56899500D01*
X154159998Y-56899500D01*
X154159980Y-56899501D01*
X154057203Y-56910000D01*
X154057200Y-56910001D01*
X153890668Y-56965185D01*
X153890663Y-56965187D01*
X153741342Y-57057289D01*
X153617289Y-57181342D01*
X153525187Y-57330663D01*
X153525185Y-57330668D01*
X153497349Y-57414670D01*
X153470001Y-57497203D01*
X153470001Y-57497204D01*
X153470000Y-57497204D01*
X153459500Y-57599983D01*
X153459500Y-59400001D01*
X153459501Y-59400018D01*
X153470000Y-59502796D01*
X153470001Y-59502799D01*
X153525185Y-59669331D01*
X153525187Y-59669336D01*
X153538738Y-59691305D01*
X153617288Y-59818656D01*
X153741344Y-59942712D01*
X153890666Y-60034814D01*
X154057203Y-60089999D01*
X154159991Y-60100500D01*
X154849780Y-60100499D01*
X154916819Y-60120183D01*
X154937461Y-60136818D01*
X155663462Y-60862819D01*
X155696947Y-60924142D01*
X155691963Y-60993834D01*
X155650091Y-61049767D01*
X155584627Y-61074184D01*
X155575781Y-61074500D01*
X155325941Y-61074500D01*
X155308931Y-61079057D01*
X155308932Y-61079058D01*
X155173216Y-61115423D01*
X155173214Y-61115423D01*
X155168131Y-61116786D01*
X155098281Y-61115123D01*
X155097033Y-61114717D01*
X155082801Y-61110001D01*
X154980019Y-61099500D01*
X154980012Y-61099500D01*
X149579988Y-61099500D01*
X149579980Y-61099500D01*
X149477198Y-61110001D01*
X149310666Y-61165184D01*
X149310655Y-61165189D01*
X149161346Y-61257285D01*
X149161342Y-61257288D01*
X149037288Y-61381342D01*
X149037285Y-61381346D01*
X148945189Y-61530655D01*
X148945184Y-61530666D01*
X148890001Y-61697198D01*
X148879500Y-61799980D01*
X148879500Y-64772602D01*
X148859815Y-64839641D01*
X148843181Y-64860283D01*
X146092778Y-67610685D01*
X146031455Y-67644170D01*
X145961763Y-67639186D01*
X145905830Y-67597314D01*
X145900607Y-67589189D01*
X145811947Y-67470755D01*
X145811944Y-67470752D01*
X145696735Y-67384506D01*
X145696728Y-67384502D01*
X145561882Y-67334208D01*
X145561883Y-67334208D01*
X145502283Y-67327801D01*
X145502281Y-67327800D01*
X145502273Y-67327800D01*
X145502265Y-67327800D01*
X144418400Y-67327800D01*
X144409714Y-67325249D01*
X144400753Y-67326538D01*
X144376712Y-67315559D01*
X144351361Y-67308115D01*
X144345433Y-67301274D01*
X144337197Y-67297513D01*
X144322907Y-67275278D01*
X144305606Y-67255311D01*
X144303318Y-67244796D01*
X144299423Y-67238735D01*
X144294400Y-67203800D01*
X144294400Y-67156197D01*
X144314085Y-67089158D01*
X144330719Y-67068516D01*
X144801811Y-66597424D01*
X145276574Y-66122660D01*
X145337895Y-66089177D01*
X145383647Y-66087870D01*
X145463389Y-66100500D01*
X145463391Y-66100500D01*
X145636609Y-66100500D01*
X145636610Y-66100500D01*
X145807700Y-66073402D01*
X145972445Y-66019873D01*
X146126787Y-65941232D01*
X146266927Y-65839414D01*
X146389414Y-65716927D01*
X146491232Y-65576787D01*
X146569873Y-65422445D01*
X146623402Y-65257700D01*
X146650500Y-65086610D01*
X146650500Y-64913389D01*
X146623402Y-64742299D01*
X146569873Y-64577554D01*
X146569871Y-64577551D01*
X146569871Y-64577549D01*
X146522298Y-64484182D01*
X146491232Y-64423212D01*
X146389414Y-64283072D01*
X146136819Y-64030477D01*
X146103334Y-63969154D01*
X146100500Y-63942796D01*
X146100500Y-62950131D01*
X146120185Y-62883092D01*
X146172989Y-62837337D01*
X146242147Y-62827393D01*
X146297383Y-62849812D01*
X146423212Y-62941232D01*
X146577555Y-63019873D01*
X146742299Y-63073402D01*
X146913389Y-63100500D01*
X146913390Y-63100500D01*
X147086610Y-63100500D01*
X147086611Y-63100500D01*
X147257701Y-63073402D01*
X147422445Y-63019873D01*
X147576788Y-62941232D01*
X147716928Y-62839414D01*
X147839414Y-62716928D01*
X147941232Y-62576788D01*
X148019873Y-62422445D01*
X148073402Y-62257701D01*
X148100500Y-62086611D01*
X148100500Y-58456204D01*
X148120185Y-58389165D01*
X148172989Y-58343410D01*
X148242147Y-58333466D01*
X148305703Y-58362491D01*
X148312181Y-58368523D01*
X148863181Y-58919523D01*
X148896666Y-58980846D01*
X148899500Y-59007204D01*
X148899500Y-59400001D01*
X148899501Y-59400019D01*
X148910000Y-59502796D01*
X148910001Y-59502799D01*
X148965185Y-59669331D01*
X148965187Y-59669336D01*
X148978738Y-59691305D01*
X149057288Y-59818656D01*
X149181344Y-59942712D01*
X149330666Y-60034814D01*
X149497203Y-60089999D01*
X149599991Y-60100500D01*
X150400008Y-60100499D01*
X150400016Y-60100498D01*
X150400019Y-60100498D01*
X150458735Y-60094500D01*
X150502797Y-60089999D01*
X150669334Y-60034814D01*
X150818656Y-59942712D01*
X150942712Y-59818656D01*
X151034814Y-59669334D01*
X151089999Y-59502797D01*
X151100500Y-59400009D01*
X151100499Y-59007202D01*
X151120183Y-58940164D01*
X151136813Y-58919527D01*
X154339414Y-55716928D01*
X154441232Y-55576788D01*
X154519873Y-55422446D01*
X154573402Y-55257701D01*
X154600500Y-55086611D01*
X154600500Y-54913390D01*
X154600500Y-44413389D01*
X154573402Y-44242299D01*
X154519873Y-44077555D01*
X154441232Y-43923212D01*
X154339414Y-43783072D01*
X154216928Y-43660586D01*
X154076788Y-43558768D01*
X153922445Y-43480127D01*
X153757701Y-43426598D01*
X153757699Y-43426597D01*
X153757698Y-43426597D01*
X153626271Y-43405781D01*
X153586611Y-43399500D01*
X153413389Y-43399500D01*
X153373728Y-43405781D01*
X153242302Y-43426597D01*
X153077552Y-43480128D01*
X152923211Y-43558768D01*
X152843256Y-43616859D01*
X152783072Y-43660586D01*
X152783070Y-43660588D01*
X152783069Y-43660588D01*
X152660588Y-43783069D01*
X152660588Y-43783070D01*
X152660586Y-43783072D01*
X152641917Y-43808768D01*
X152558768Y-43923211D01*
X152480128Y-44077552D01*
X152426597Y-44242302D01*
X152399500Y-44413389D01*
X152399500Y-54492795D01*
X152379815Y-54559834D01*
X152363181Y-54580476D01*
X150087680Y-56855976D01*
X150026357Y-56889461D01*
X149956665Y-56884477D01*
X149912318Y-56855976D01*
X147868523Y-54812181D01*
X147835038Y-54750858D01*
X147840022Y-54681166D01*
X147881894Y-54625233D01*
X147947358Y-54600816D01*
X147956204Y-54600500D01*
X148086610Y-54600500D01*
X148086611Y-54600500D01*
X148257701Y-54573402D01*
X148422445Y-54519873D01*
X148576788Y-54441232D01*
X148716928Y-54339414D01*
X148839414Y-54216928D01*
X148941232Y-54076788D01*
X149019873Y-53922445D01*
X149073402Y-53757701D01*
X149100500Y-53586611D01*
X149100500Y-53413389D01*
X149073402Y-53242299D01*
X149019873Y-53077555D01*
X148941232Y-52923212D01*
X148839414Y-52783072D01*
X147355815Y-51299473D01*
X147353395Y-51295041D01*
X147349169Y-51292280D01*
X147336819Y-51264685D01*
X147322330Y-51238150D01*
X147322129Y-51231860D01*
X147320628Y-51228506D01*
X147320983Y-51195967D01*
X147320896Y-51193213D01*
X147320948Y-51192865D01*
X147350500Y-51006287D01*
X147350500Y-50997863D01*
X147351900Y-50988625D01*
X147362868Y-50965082D01*
X147370185Y-50940165D01*
X147380359Y-50927538D01*
X147381407Y-50925291D01*
X147382963Y-50924307D01*
X147386819Y-50919523D01*
X148669523Y-49636819D01*
X148730846Y-49603334D01*
X148757204Y-49600500D01*
X150836615Y-49600500D01*
X150905047Y-49589661D01*
X151007701Y-49573403D01*
X151172446Y-49519873D01*
X151326788Y-49441232D01*
X151348784Y-49425251D01*
X151466922Y-49339420D01*
X151466924Y-49339417D01*
X151466928Y-49339415D01*
X151589415Y-49216928D01*
X151589417Y-49216924D01*
X151589420Y-49216922D01*
X151691229Y-49076792D01*
X151691228Y-49076792D01*
X151691232Y-49076788D01*
X151769873Y-48922446D01*
X151823403Y-48757701D01*
X151839661Y-48655047D01*
X151850500Y-48586615D01*
X151850500Y-48413385D01*
X151829449Y-48280476D01*
X151823403Y-48242300D01*
X151769873Y-48077555D01*
X151760894Y-48059934D01*
X151755578Y-48049500D01*
X151755577Y-48049498D01*
X151726372Y-47992180D01*
X151691232Y-47923212D01*
X151601707Y-47799992D01*
X151589415Y-47783073D01*
X151589412Y-47783070D01*
X151589410Y-47783067D01*
X149636819Y-45830476D01*
X149603334Y-45769153D01*
X149600500Y-45742795D01*
X149600500Y-44413389D01*
X149573402Y-44242302D01*
X149573402Y-44242299D01*
X149519873Y-44077555D01*
X149441232Y-43923212D01*
X149339414Y-43783072D01*
X149216928Y-43660586D01*
X149076788Y-43558768D01*
X148922445Y-43480127D01*
X148757701Y-43426598D01*
X148757699Y-43426597D01*
X148757698Y-43426597D01*
X148626271Y-43405781D01*
X148586611Y-43399500D01*
X148413389Y-43399500D01*
X148373728Y-43405781D01*
X148242302Y-43426597D01*
X148077552Y-43480128D01*
X147923211Y-43558768D01*
X147843256Y-43616859D01*
X147783072Y-43660586D01*
X147783070Y-43660588D01*
X147783069Y-43660588D01*
X147660588Y-43783069D01*
X147660588Y-43783070D01*
X147660586Y-43783072D01*
X147641917Y-43808768D01*
X147558768Y-43923211D01*
X147480128Y-44077552D01*
X147426597Y-44242302D01*
X147399500Y-44413389D01*
X147399500Y-46336610D01*
X147414415Y-46430784D01*
X147426598Y-46507701D01*
X147480127Y-46672445D01*
X147558768Y-46826788D01*
X147660586Y-46966928D01*
X147660588Y-46966930D01*
X147945793Y-47252135D01*
X147979278Y-47313458D01*
X147974294Y-47383150D01*
X147932422Y-47439083D01*
X147896432Y-47457746D01*
X147827554Y-47480126D01*
X147673208Y-47558770D01*
X147615772Y-47600499D01*
X147615773Y-47600500D01*
X147533073Y-47660585D01*
X147533071Y-47660587D01*
X147533070Y-47660587D01*
X145980477Y-49213181D01*
X145919154Y-49246666D01*
X145898557Y-49248880D01*
X145898576Y-49249117D01*
X145893715Y-49249499D01*
X145683760Y-49282753D01*
X145481585Y-49348444D01*
X145292179Y-49444951D01*
X145120215Y-49569889D01*
X144981398Y-49708706D01*
X144920075Y-49742190D01*
X144850383Y-49737206D01*
X144794450Y-49695334D01*
X144788178Y-49686120D01*
X144735367Y-49600500D01*
X144692712Y-49531344D01*
X144636819Y-49475451D01*
X144603334Y-49414128D01*
X144600500Y-49387770D01*
X144600500Y-47450131D01*
X144620185Y-47383092D01*
X144672989Y-47337337D01*
X144742147Y-47327393D01*
X144797383Y-47349812D01*
X144923212Y-47441232D01*
X145077555Y-47519873D01*
X145242299Y-47573402D01*
X145413389Y-47600500D01*
X145413390Y-47600500D01*
X146086610Y-47600500D01*
X146086611Y-47600500D01*
X146257701Y-47573402D01*
X146422445Y-47519873D01*
X146576788Y-47441232D01*
X146716928Y-47339414D01*
X146839414Y-47216928D01*
X146941232Y-47076788D01*
X147019873Y-46922445D01*
X147073402Y-46757701D01*
X147100500Y-46586611D01*
X147100500Y-46413389D01*
X147073402Y-46242299D01*
X147019873Y-46077555D01*
X146941232Y-45923212D01*
X146839414Y-45783072D01*
X146716928Y-45660586D01*
X146576788Y-45558768D01*
X146422445Y-45480127D01*
X146257701Y-45426598D01*
X146257699Y-45426597D01*
X146257698Y-45426597D01*
X146126271Y-45405781D01*
X146086611Y-45399500D01*
X146086610Y-45399500D01*
X146007204Y-45399500D01*
X145940165Y-45379815D01*
X145919523Y-45363181D01*
X144216930Y-43660588D01*
X144216928Y-43660586D01*
X144076788Y-43558768D01*
X143922445Y-43480127D01*
X143757701Y-43426598D01*
X143757699Y-43426597D01*
X143757698Y-43426597D01*
X143626271Y-43405781D01*
X143586611Y-43399500D01*
X143413389Y-43399500D01*
X143373728Y-43405781D01*
X143242302Y-43426597D01*
X143077552Y-43480128D01*
X142923211Y-43558768D01*
X142843256Y-43616859D01*
X142783072Y-43660586D01*
X142783070Y-43660588D01*
X142783069Y-43660588D01*
X142660588Y-43783069D01*
X142660588Y-43783070D01*
X142660586Y-43783072D01*
X142641917Y-43808768D01*
X142558768Y-43923211D01*
X142480128Y-44077552D01*
X142426597Y-44242302D01*
X142399500Y-44413389D01*
X142399500Y-49387770D01*
X142379815Y-49454809D01*
X142363181Y-49475451D01*
X142307289Y-49531342D01*
X142215187Y-49680663D01*
X142215185Y-49680668D01*
X142193797Y-49745213D01*
X142160001Y-49847203D01*
X142160001Y-49847204D01*
X142160000Y-49847204D01*
X142149500Y-49949983D01*
X142149500Y-51550001D01*
X142149501Y-51550018D01*
X142160000Y-51652796D01*
X142160001Y-51652799D01*
X142215186Y-51819334D01*
X142216941Y-51823097D01*
X142217370Y-51825924D01*
X142217458Y-51826189D01*
X142217412Y-51826203D01*
X142227432Y-51892175D01*
X142198911Y-51955958D01*
X142140433Y-51994197D01*
X142104558Y-51999500D01*
X136107204Y-51999500D01*
X136040165Y-51979815D01*
X136019523Y-51963181D01*
X135542583Y-51486241D01*
X135509098Y-51424918D01*
X135512332Y-51360248D01*
X135567246Y-51191243D01*
X135600500Y-50981287D01*
X135600500Y-50518713D01*
X135567246Y-50308757D01*
X135501557Y-50106588D01*
X135405051Y-49917184D01*
X135405049Y-49917181D01*
X135405048Y-49917179D01*
X135280109Y-49745213D01*
X135129786Y-49594890D01*
X134957820Y-49469951D01*
X134768414Y-49373444D01*
X134768413Y-49373443D01*
X134768412Y-49373443D01*
X134566243Y-49307754D01*
X134566241Y-49307753D01*
X134566240Y-49307753D01*
X134404957Y-49282208D01*
X134356287Y-49274500D01*
X134143713Y-49274500D01*
X134095042Y-49282208D01*
X133933760Y-49307753D01*
X133933757Y-49307754D01*
X133785934Y-49355785D01*
X133731585Y-49373444D01*
X133542179Y-49469951D01*
X133370213Y-49594890D01*
X133219894Y-49745209D01*
X133219890Y-49745214D01*
X133100317Y-49909793D01*
X133078038Y-49926972D01*
X133057863Y-49946579D01*
X133050741Y-49948021D01*
X133044987Y-49952459D01*
X133016959Y-49954866D01*
X132989385Y-49960453D01*
X132982613Y-49957816D01*
X132975374Y-49958438D01*
X132950495Y-49945310D01*
X132924276Y-49935102D01*
X132917044Y-49927660D01*
X132913579Y-49925832D01*
X132899681Y-49909793D01*
X132874180Y-49874693D01*
X132850702Y-49808886D01*
X132850500Y-49801810D01*
X132850500Y-44663389D01*
X132823402Y-44492302D01*
X132823402Y-44492299D01*
X132769873Y-44327555D01*
X132691232Y-44173212D01*
X132589414Y-44033072D01*
X132466928Y-43910586D01*
X132326788Y-43808768D01*
X132172445Y-43730127D01*
X132007701Y-43676598D01*
X132007699Y-43676597D01*
X132007698Y-43676597D01*
X131876271Y-43655781D01*
X131836611Y-43649500D01*
X131663389Y-43649500D01*
X131623728Y-43655781D01*
X131492302Y-43676597D01*
X131327552Y-43730128D01*
X131173211Y-43808768D01*
X131093256Y-43866859D01*
X131033072Y-43910586D01*
X131033070Y-43910588D01*
X131033069Y-43910588D01*
X130910588Y-44033069D01*
X130910588Y-44033070D01*
X130910586Y-44033072D01*
X130878269Y-44077552D01*
X130808768Y-44173211D01*
X130730128Y-44327552D01*
X130676597Y-44492302D01*
X130649500Y-44663389D01*
X130649500Y-49463770D01*
X130629815Y-49530809D01*
X130577011Y-49576564D01*
X130507853Y-49586508D01*
X130444297Y-49557483D01*
X130437819Y-49551451D01*
X130318657Y-49432289D01*
X130318656Y-49432288D01*
X130194624Y-49355785D01*
X130169336Y-49340187D01*
X130169331Y-49340185D01*
X130136838Y-49329418D01*
X130002797Y-49285001D01*
X130002795Y-49285000D01*
X129900010Y-49274500D01*
X128599998Y-49274500D01*
X128599981Y-49274501D01*
X128497203Y-49285000D01*
X128497200Y-49285001D01*
X128330668Y-49340185D01*
X128330663Y-49340187D01*
X128181342Y-49432289D01*
X128057289Y-49556342D01*
X127965187Y-49705663D01*
X127965185Y-49705668D01*
X127953525Y-49740856D01*
X127910001Y-49872203D01*
X127910001Y-49872204D01*
X127910000Y-49872204D01*
X127899500Y-49974983D01*
X127899500Y-50412578D01*
X127893431Y-50450895D01*
X127882754Y-50483757D01*
X127849500Y-50693713D01*
X127849500Y-50906287D01*
X127852354Y-50924307D01*
X127882753Y-51116240D01*
X127882754Y-51116244D01*
X127893431Y-51149104D01*
X127899500Y-51187421D01*
X127899500Y-53356286D01*
X127925801Y-53522347D01*
X127932754Y-53566243D01*
X127998443Y-53768412D01*
X128025427Y-53821372D01*
X128035985Y-53842092D01*
X128049500Y-53898387D01*
X128049500Y-68906292D01*
X128062102Y-68985857D01*
X128053148Y-69055150D01*
X128027310Y-69092936D01*
X127673213Y-69447035D01*
X127560797Y-69559451D01*
X127523582Y-69596666D01*
X127454449Y-69665798D01*
X127370898Y-69790840D01*
X127370891Y-69790853D01*
X127313342Y-69929790D01*
X127313339Y-69929802D01*
X127284000Y-70077297D01*
X127284000Y-71664300D01*
X127264315Y-71731339D01*
X127211511Y-71777094D01*
X127160000Y-71788300D01*
X126767729Y-71788300D01*
X126767723Y-71788301D01*
X126708116Y-71794708D01*
X126573271Y-71845002D01*
X126573264Y-71845006D01*
X126458055Y-71931252D01*
X126458052Y-71931255D01*
X126371806Y-72046464D01*
X126371802Y-72046471D01*
X126321508Y-72181317D01*
X126315101Y-72240916D01*
X126315101Y-72240923D01*
X126315100Y-72240935D01*
X125500500Y-72240935D01*
X125500500Y-40504427D01*
X125500816Y-40495581D01*
X125515130Y-40295443D01*
X125515131Y-40295434D01*
X125517646Y-40277938D01*
X125559356Y-40086200D01*
X125564335Y-40069242D01*
X125632911Y-39885382D01*
X125640251Y-39869310D01*
X125734294Y-39697083D01*
X125743850Y-39682214D01*
X125861443Y-39525128D01*
X125873017Y-39511771D01*
X126011771Y-39373017D01*
X126025128Y-39361443D01*
X126182214Y-39243850D01*
X126197083Y-39234294D01*
X126369310Y-39140251D01*
X126385382Y-39132911D01*
X126569242Y-39064335D01*
X126586200Y-39059356D01*
X126777938Y-39017646D01*
X126795436Y-39015130D01*
X126995582Y-39000816D01*
X127004428Y-39000500D01*
X127065892Y-39000500D01*
X187934108Y-39000500D01*
X187995572Y-39000500D01*
X188004418Y-39000816D01*
G37*
%TD.AperFunction*%
%TD*%
M02*
