%TF.GenerationSoftware,KiCad,Pcbnew,10.0.3*%
%TF.CreationDate,2026-08-07T21:25:25-07:00*%
%TF.ProjectId,BMS_Board_Prototype,424d535f-426f-4617-9264-5f50726f746f,rev?*%
%TF.SameCoordinates,Original*%
%TF.FileFunction,Copper,L1,Top*%
%TF.FilePolarity,Positive*%
%FSLAX46Y46*%
G04 Gerber Fmt 4.6, Leading zero omitted, Abs format (unit mm)*
G04 Created by KiCad (PCBNEW 10.0.3) date 2026-08-07 21:25:25*
%MOMM*%
%LPD*%
G01*
G04 APERTURE LIST*
G04 Aperture macros list*
%AMRoundRect*
0 Rectangle with rounded corners*
0 $1 Rounding radius*
0 $2 $3 $4 $5 $6 $7 $8 $9 X,Y pos of 4 corners*
0 Add a 4 corners polygon primitive as box body*
4,1,4,$2,$3,$4,$5,$6,$7,$8,$9,$2,$3,0*
0 Add four circle primitives for the rounded corners*
1,1,$1+$1,$2,$3*
1,1,$1+$1,$4,$5*
1,1,$1+$1,$6,$7*
1,1,$1+$1,$8,$9*
0 Add four rect primitives between the rounded corners*
20,1,$1+$1,$2,$3,$4,$5,0*
20,1,$1+$1,$4,$5,$6,$7,0*
20,1,$1+$1,$6,$7,$8,$9,0*
20,1,$1+$1,$8,$9,$2,$3,0*%
%AMRotRect*
0 Rectangle, with rotation*
0 The origin of the aperture is its center*
0 $1 length*
0 $2 width*
0 $3 Rotation angle, in degrees counterclockwise*
0 Add horizontal line*
21,1,$1,$2,0,0,$3*%
G04 Aperture macros list end*
%TA.AperFunction,ComponentPad*%
%ADD10C,1.000000*%
%TD*%
%TA.AperFunction,SMDPad,CuDef*%
%ADD11RoundRect,0.250000X0.325000X0.650000X-0.325000X0.650000X-0.325000X-0.650000X0.325000X-0.650000X0*%
%TD*%
%TA.AperFunction,SMDPad,CuDef*%
%ADD12R,1.200000X3.700000*%
%TD*%
%TA.AperFunction,SMDPad,CuDef*%
%ADD13RoundRect,0.250000X0.312500X0.625000X-0.312500X0.625000X-0.312500X-0.625000X0.312500X-0.625000X0*%
%TD*%
%TA.AperFunction,SMDPad,CuDef*%
%ADD14RoundRect,0.250000X-0.312500X-0.625000X0.312500X-0.625000X0.312500X0.625000X-0.312500X0.625000X0*%
%TD*%
%TA.AperFunction,SMDPad,CuDef*%
%ADD15RoundRect,0.200000X-0.275000X0.200000X-0.275000X-0.200000X0.275000X-0.200000X0.275000X0.200000X0*%
%TD*%
%TA.AperFunction,SMDPad,CuDef*%
%ADD16RoundRect,0.093750X0.093750X0.106250X-0.093750X0.106250X-0.093750X-0.106250X0.093750X-0.106250X0*%
%TD*%
%TA.AperFunction,HeatsinkPad*%
%ADD17R,1.000000X1.600000*%
%TD*%
%TA.AperFunction,SMDPad,CuDef*%
%ADD18RoundRect,0.225000X-0.250000X0.225000X-0.250000X-0.225000X0.250000X-0.225000X0.250000X0.225000X0*%
%TD*%
%TA.AperFunction,SMDPad,CuDef*%
%ADD19RoundRect,0.250000X0.262500X0.450000X-0.262500X0.450000X-0.262500X-0.450000X0.262500X-0.450000X0*%
%TD*%
%TA.AperFunction,SMDPad,CuDef*%
%ADD20R,0.750000X0.300000*%
%TD*%
%TA.AperFunction,SMDPad,CuDef*%
%ADD21R,0.300000X0.750000*%
%TD*%
%TA.AperFunction,SMDPad,CuDef*%
%ADD22R,1.800000X4.850000*%
%TD*%
%TA.AperFunction,SMDPad,CuDef*%
%ADD23RoundRect,0.250000X0.625000X-0.312500X0.625000X0.312500X-0.625000X0.312500X-0.625000X-0.312500X0*%
%TD*%
%TA.AperFunction,SMDPad,CuDef*%
%ADD24RoundRect,0.250000X-1.000000X-0.650000X1.000000X-0.650000X1.000000X0.650000X-1.000000X0.650000X0*%
%TD*%
%TA.AperFunction,SMDPad,CuDef*%
%ADD25RoundRect,0.250000X-0.250000X-0.475000X0.250000X-0.475000X0.250000X0.475000X-0.250000X0.475000X0*%
%TD*%
%TA.AperFunction,ComponentPad*%
%ADD26RoundRect,0.250001X1.149999X1.149999X-1.149999X1.149999X-1.149999X-1.149999X1.149999X-1.149999X0*%
%TD*%
%TA.AperFunction,ComponentPad*%
%ADD27C,2.800000*%
%TD*%
%TA.AperFunction,SMDPad,CuDef*%
%ADD28RoundRect,0.237500X0.237500X-0.250000X0.237500X0.250000X-0.237500X0.250000X-0.237500X-0.250000X0*%
%TD*%
%TA.AperFunction,ComponentPad*%
%ADD29RoundRect,0.249999X0.850001X-0.850001X0.850001X0.850001X-0.850001X0.850001X-0.850001X-0.850001X0*%
%TD*%
%TA.AperFunction,ComponentPad*%
%ADD30C,2.200000*%
%TD*%
%TA.AperFunction,SMDPad,CuDef*%
%ADD31RoundRect,0.250000X1.075000X-0.312500X1.075000X0.312500X-1.075000X0.312500X-1.075000X-0.312500X0*%
%TD*%
%TA.AperFunction,SMDPad,CuDef*%
%ADD32R,3.700000X1.200000*%
%TD*%
%TA.AperFunction,SMDPad,CuDef*%
%ADD33R,1.473200X0.355600*%
%TD*%
%TA.AperFunction,SMDPad,CuDef*%
%ADD34RoundRect,0.250000X-0.262500X-0.450000X0.262500X-0.450000X0.262500X0.450000X-0.262500X0.450000X0*%
%TD*%
%TA.AperFunction,SMDPad,CuDef*%
%ADD35RotRect,0.304800X0.762000X225.000000*%
%TD*%
%TA.AperFunction,SMDPad,CuDef*%
%ADD36RotRect,0.304800X0.762000X135.000000*%
%TD*%
%TA.AperFunction,SMDPad,CuDef*%
%ADD37RotRect,3.352800X3.352800X135.000000*%
%TD*%
%TA.AperFunction,SMDPad,CuDef*%
%ADD38RoundRect,0.140000X0.219203X0.021213X0.021213X0.219203X-0.219203X-0.021213X-0.021213X-0.219203X0*%
%TD*%
%TA.AperFunction,SMDPad,CuDef*%
%ADD39RoundRect,0.150000X-0.150000X0.587500X-0.150000X-0.587500X0.150000X-0.587500X0.150000X0.587500X0*%
%TD*%
%TA.AperFunction,SMDPad,CuDef*%
%ADD40RoundRect,0.140000X0.170000X-0.140000X0.170000X0.140000X-0.170000X0.140000X-0.170000X-0.140000X0*%
%TD*%
%TA.AperFunction,SMDPad,CuDef*%
%ADD41RoundRect,0.147500X-0.147500X-0.172500X0.147500X-0.172500X0.147500X0.172500X-0.147500X0.172500X0*%
%TD*%
%TA.AperFunction,ComponentPad*%
%ADD42RoundRect,0.250000X-0.600000X-0.750000X0.600000X-0.750000X0.600000X0.750000X-0.600000X0.750000X0*%
%TD*%
%TA.AperFunction,ComponentPad*%
%ADD43O,1.700000X2.000000*%
%TD*%
%TA.AperFunction,SMDPad,CuDef*%
%ADD44RoundRect,0.250000X-0.325000X-0.650000X0.325000X-0.650000X0.325000X0.650000X-0.325000X0.650000X0*%
%TD*%
%TA.AperFunction,ComponentPad*%
%ADD45RoundRect,0.250000X0.600000X0.725000X-0.600000X0.725000X-0.600000X-0.725000X0.600000X-0.725000X0*%
%TD*%
%TA.AperFunction,ComponentPad*%
%ADD46O,1.700000X1.950000*%
%TD*%
%TA.AperFunction,SMDPad,CuDef*%
%ADD47RoundRect,0.250000X-0.475000X0.250000X-0.475000X-0.250000X0.475000X-0.250000X0.475000X0.250000X0*%
%TD*%
%TA.AperFunction,SMDPad,CuDef*%
%ADD48RoundRect,0.160000X0.197500X0.160000X-0.197500X0.160000X-0.197500X-0.160000X0.197500X-0.160000X0*%
%TD*%
%TA.AperFunction,SMDPad,CuDef*%
%ADD49RoundRect,0.250000X-1.425000X0.362500X-1.425000X-0.362500X1.425000X-0.362500X1.425000X0.362500X0*%
%TD*%
%TA.AperFunction,SMDPad,CuDef*%
%ADD50RoundRect,0.225000X0.250000X-0.225000X0.250000X0.225000X-0.250000X0.225000X-0.250000X-0.225000X0*%
%TD*%
%TA.AperFunction,SMDPad,CuDef*%
%ADD51RoundRect,0.150000X0.700000X-0.150000X0.700000X0.150000X-0.700000X0.150000X-0.700000X-0.150000X0*%
%TD*%
%TA.AperFunction,SMDPad,CuDef*%
%ADD52RoundRect,0.250000X1.100000X-0.250000X1.100000X0.250000X-1.100000X0.250000X-1.100000X-0.250000X0*%
%TD*%
%TA.AperFunction,ComponentPad*%
%ADD53R,2.800000X2.800000*%
%TD*%
%TA.AperFunction,ComponentPad*%
%ADD54RoundRect,0.250000X-0.600000X-0.725000X0.600000X-0.725000X0.600000X0.725000X-0.600000X0.725000X0*%
%TD*%
%TA.AperFunction,SMDPad,CuDef*%
%ADD55R,2.489200X0.939800*%
%TD*%
%TA.AperFunction,SMDPad,CuDef*%
%ADD56R,5.918200X5.511800*%
%TD*%
%TA.AperFunction,SMDPad,CuDef*%
%ADD57RoundRect,0.140000X0.140000X0.170000X-0.140000X0.170000X-0.140000X-0.170000X0.140000X-0.170000X0*%
%TD*%
%TA.AperFunction,SMDPad,CuDef*%
%ADD58RoundRect,0.250000X1.425000X-0.362500X1.425000X0.362500X-1.425000X0.362500X-1.425000X-0.362500X0*%
%TD*%
%TA.AperFunction,SMDPad,CuDef*%
%ADD59RoundRect,0.150000X0.575000X-0.150000X0.575000X0.150000X-0.575000X0.150000X-0.575000X-0.150000X0*%
%TD*%
%TA.AperFunction,SMDPad,CuDef*%
%ADD60RoundRect,0.075000X0.650000X-0.075000X0.650000X0.075000X-0.650000X0.075000X-0.650000X-0.075000X0*%
%TD*%
%TA.AperFunction,ComponentPad*%
%ADD61O,2.100000X1.000000*%
%TD*%
%TA.AperFunction,ComponentPad*%
%ADD62O,1.600000X1.000000*%
%TD*%
%TA.AperFunction,SMDPad,CuDef*%
%ADD63RoundRect,0.250000X-0.325000X-1.100000X0.325000X-1.100000X0.325000X1.100000X-0.325000X1.100000X0*%
%TD*%
%TA.AperFunction,SMDPad,CuDef*%
%ADD64R,1.981200X0.558800*%
%TD*%
%TA.AperFunction,ComponentPad*%
%ADD65RoundRect,0.250001X1.099999X1.099999X-1.099999X1.099999X-1.099999X-1.099999X1.099999X-1.099999X0*%
%TD*%
%TA.AperFunction,ComponentPad*%
%ADD66C,2.700000*%
%TD*%
%TA.AperFunction,SMDPad,CuDef*%
%ADD67RoundRect,0.200000X0.200000X0.275000X-0.200000X0.275000X-0.200000X-0.275000X0.200000X-0.275000X0*%
%TD*%
%TA.AperFunction,SMDPad,CuDef*%
%ADD68R,4.200000X1.400000*%
%TD*%
%TA.AperFunction,SMDPad,CuDef*%
%ADD69R,6.299200X5.562600*%
%TD*%
%TA.AperFunction,ComponentPad*%
%ADD70C,3.600000*%
%TD*%
%TA.AperFunction,ConnectorPad*%
%ADD71C,5.600000*%
%TD*%
%TA.AperFunction,SMDPad,CuDef*%
%ADD72R,2.700000X3.600000*%
%TD*%
%TA.AperFunction,SMDPad,CuDef*%
%ADD73RoundRect,0.135000X0.185000X-0.135000X0.185000X0.135000X-0.185000X0.135000X-0.185000X-0.135000X0*%
%TD*%
%TA.AperFunction,SMDPad,CuDef*%
%ADD74RoundRect,0.200000X0.275000X-0.200000X0.275000X0.200000X-0.275000X0.200000X-0.275000X-0.200000X0*%
%TD*%
%TA.AperFunction,SMDPad,CuDef*%
%ADD75RoundRect,0.250000X-0.625000X0.312500X-0.625000X-0.312500X0.625000X-0.312500X0.625000X0.312500X0*%
%TD*%
%TA.AperFunction,SMDPad,CuDef*%
%ADD76RoundRect,0.147500X0.147500X0.172500X-0.147500X0.172500X-0.147500X-0.172500X0.147500X-0.172500X0*%
%TD*%
%TA.AperFunction,SMDPad,CuDef*%
%ADD77RoundRect,0.250000X0.325000X1.100000X-0.325000X1.100000X-0.325000X-1.100000X0.325000X-1.100000X0*%
%TD*%
%TA.AperFunction,SMDPad,CuDef*%
%ADD78RoundRect,0.237500X-0.237500X0.250000X-0.237500X-0.250000X0.237500X-0.250000X0.237500X0.250000X0*%
%TD*%
%TA.AperFunction,SMDPad,CuDef*%
%ADD79RoundRect,0.250000X0.650000X2.450000X-0.650000X2.450000X-0.650000X-2.450000X0.650000X-2.450000X0*%
%TD*%
%TA.AperFunction,SMDPad,CuDef*%
%ADD80RoundRect,0.140000X-0.140000X-0.170000X0.140000X-0.170000X0.140000X0.170000X-0.140000X0.170000X0*%
%TD*%
%TA.AperFunction,SMDPad,CuDef*%
%ADD81RoundRect,0.250000X0.475000X-0.250000X0.475000X0.250000X-0.475000X0.250000X-0.475000X-0.250000X0*%
%TD*%
%TA.AperFunction,SMDPad,CuDef*%
%ADD82R,0.431800X1.333500*%
%TD*%
%TA.AperFunction,SMDPad,CuDef*%
%ADD83R,2.946400X1.752600*%
%TD*%
%TA.AperFunction,ComponentPad*%
%ADD84RoundRect,0.250000X0.750000X-0.600000X0.750000X0.600000X-0.750000X0.600000X-0.750000X-0.600000X0*%
%TD*%
%TA.AperFunction,ComponentPad*%
%ADD85O,2.000000X1.700000*%
%TD*%
%TA.AperFunction,SMDPad,CuDef*%
%ADD86RoundRect,0.250000X-0.362500X-1.425000X0.362500X-1.425000X0.362500X1.425000X-0.362500X1.425000X0*%
%TD*%
%TA.AperFunction,SMDPad,CuDef*%
%ADD87RoundRect,0.062500X-0.282843X0.194454X0.194454X-0.282843X0.282843X-0.194454X-0.194454X0.282843X0*%
%TD*%
%TA.AperFunction,SMDPad,CuDef*%
%ADD88RoundRect,0.062500X-0.282843X-0.194454X-0.194454X-0.282843X0.282843X0.194454X0.194454X0.282843X0*%
%TD*%
%TA.AperFunction,HeatsinkPad*%
%ADD89RotRect,2.750000X2.750000X315.000000*%
%TD*%
%TA.AperFunction,SMDPad,CuDef*%
%ADD90RoundRect,0.250000X-1.100000X0.325000X-1.100000X-0.325000X1.100000X-0.325000X1.100000X0.325000X0*%
%TD*%
%TA.AperFunction,SMDPad,CuDef*%
%ADD91RoundRect,0.225000X0.375000X-0.225000X0.375000X0.225000X-0.375000X0.225000X-0.375000X-0.225000X0*%
%TD*%
%TA.AperFunction,SMDPad,CuDef*%
%ADD92RoundRect,0.200000X-0.200000X-0.275000X0.200000X-0.275000X0.200000X0.275000X-0.200000X0.275000X0*%
%TD*%
%TA.AperFunction,ComponentPad*%
%ADD93RoundRect,0.250001X-1.099999X-1.099999X1.099999X-1.099999X1.099999X1.099999X-1.099999X1.099999X0*%
%TD*%
%TA.AperFunction,SMDPad,CuDef*%
%ADD94RoundRect,0.150000X-0.150000X0.512500X-0.150000X-0.512500X0.150000X-0.512500X0.150000X0.512500X0*%
%TD*%
%TA.AperFunction,SMDPad,CuDef*%
%ADD95RoundRect,0.225000X-0.375000X0.225000X-0.375000X-0.225000X0.375000X-0.225000X0.375000X0.225000X0*%
%TD*%
%TA.AperFunction,SMDPad,CuDef*%
%ADD96RoundRect,0.150000X-0.587500X-0.150000X0.587500X-0.150000X0.587500X0.150000X-0.587500X0.150000X0*%
%TD*%
%TA.AperFunction,ViaPad*%
%ADD97C,0.600000*%
%TD*%
%TA.AperFunction,Conductor*%
%ADD98C,0.781437*%
%TD*%
%TA.AperFunction,Conductor*%
%ADD99C,0.200000*%
%TD*%
%TA.AperFunction,Conductor*%
%ADD100C,1.270000*%
%TD*%
%TA.AperFunction,Conductor*%
%ADD101C,0.508000*%
%TD*%
%TA.AperFunction,Conductor*%
%ADD102C,2.000000*%
%TD*%
%TA.AperFunction,Conductor*%
%ADD103C,2.540000*%
%TD*%
G04 APERTURE END LIST*
D10*
%TO.P,C1+,1,1_1*%
%TO.N,Cell 1+*%
X27500000Y-85500000D03*
%TD*%
%TO.P,C3-,1,1_1*%
%TO.N,Cell 3-*%
X34000000Y-91000000D03*
%TD*%
%TO.P,C3+,1,1_1*%
%TO.N,Cell 3+*%
X34000000Y-96000000D03*
%TD*%
%TO.P,C2+,1,1_1*%
%TO.N,Cell 2+*%
X30500000Y-85500000D03*
%TD*%
D11*
%TO.P,C1,1*%
%TO.N,Net-(U2-EN{slash}UV)*%
X38587500Y-97887500D03*
%TO.P,C1,2*%
%TO.N,Solar1-*%
X35637500Y-97887500D03*
%TD*%
D12*
%TO.P,L5,1,1_1*%
%TO.N,UNREG*%
X47412500Y-104137500D03*
%TO.P,L5,2,2_2*%
%TO.N,Net-(L5-Pad2)*%
X44612500Y-104137500D03*
%TD*%
D13*
%TO.P,R22,1*%
%TO.N,/Sensors/Serial Data*%
X95373649Y-103270000D03*
%TO.P,R22,2*%
%TO.N,Net-(D9-K)*%
X92448649Y-103270000D03*
%TD*%
D14*
%TO.P,R18,1*%
%TO.N,Net-(Q1-G)*%
X104494400Y-112219999D03*
%TO.P,R18,2*%
%TO.N,/Sensors/Voltage Divider Enable*%
X107419400Y-112219999D03*
%TD*%
D15*
%TO.P,R72,1*%
%TO.N,VDDD*%
X100012652Y-26223941D03*
%TO.P,R72,2*%
%TO.N,Net-(U11-VBUS_MAX)*%
X100012652Y-27873941D03*
%TD*%
D16*
%TO.P,U1,1,GND_1*%
%TO.N,Solar1-*%
X76036900Y-49514000D03*
%TO.P,U1,2,GND_2*%
X76036900Y-48864000D03*
%TO.P,U1,3,GND_3*%
X76036900Y-48214000D03*
%TO.P,U1,4,IN_4*%
%TO.N,Net-(D18-K)*%
X74261900Y-48214000D03*
%TO.P,U1,5,IN_5*%
X74261900Y-48864000D03*
%TO.P,U1,6,IN_6*%
X74261900Y-49514000D03*
D17*
%TO.P,U1,7,GND_7*%
%TO.N,Solar1-*%
X75149400Y-48864000D03*
%TD*%
D18*
%TO.P,C18,1*%
%TO.N,Solar1-*%
X96956900Y-110444999D03*
%TO.P,C18,2*%
%TO.N,/Sensors/Voltage Divider*%
X96956900Y-111994999D03*
%TD*%
D19*
%TO.P,R45,1*%
%TO.N,+3.3V*%
X78894814Y-91116068D03*
%TO.P,R45,2*%
%TO.N,HS_I2C1_SCL*%
X77069814Y-91116068D03*
%TD*%
D20*
%TO.P,U2,1,SYNC_1*%
%TO.N,Net-(U2-INTVCC)*%
X41193750Y-94862500D03*
%TO.P,U2,2,TR/SS_2*%
%TO.N,Net-(U2-TR{slash}SS)*%
X41193750Y-95362500D03*
%TO.P,U2,3,RT_3*%
%TO.N,Net-(U2-RT)*%
X41193750Y-95862500D03*
%TO.P,U2,4,EN/UV_4*%
%TO.N,Net-(U2-EN{slash}UV)*%
X41193750Y-96362500D03*
%TO.P,U2,5,VIN_5*%
X41193750Y-96862500D03*
%TO.P,U2,6,VIN_6*%
X41193750Y-97362500D03*
%TO.P,U2,7,VIN_7*%
X41193750Y-97862500D03*
%TO.P,U2,8,PGND_8*%
%TO.N,Solar1-*%
X41193750Y-98362500D03*
%TO.P,U2,9,PGND_9*%
X41193750Y-98862500D03*
%TO.P,U2,10,PGND_10*%
X41193750Y-99362500D03*
D21*
%TO.P,U2,11,GND_11*%
X41943750Y-100112500D03*
%TO.P,U2,12,GND_12*%
X42443750Y-100112500D03*
%TO.P,U2,13,GND_13*%
X42943750Y-100112500D03*
%TO.P,U2,14,GND_14*%
X43443750Y-100112500D03*
D20*
%TO.P,U2,15,SW_15*%
%TO.N,/Power/3v3 SW*%
X44193750Y-99362500D03*
%TO.P,U2,16,SW_16*%
X44193750Y-98862500D03*
%TO.P,U2,17,SW_17*%
X44193750Y-98362500D03*
%TO.P,U2,18,SW_18*%
X44193750Y-97862500D03*
%TO.P,U2,19,SW_19*%
X44193750Y-97362500D03*
%TO.P,U2,20,BST_20*%
%TO.N,Net-(U2-BST)*%
X44193750Y-96862500D03*
%TO.P,U2,21,INTVCC_21*%
%TO.N,Net-(U2-INTVCC)*%
X44193750Y-96362500D03*
%TO.P,U2,22,BIAS_22*%
%TO.N,+3.3V*%
X44193750Y-95862500D03*
%TO.P,U2,23,PG_23*%
%TO.N,3V3 Power Good*%
X44193750Y-95362500D03*
%TO.P,U2,24,FB_24*%
%TO.N,/Power/3v3 Feedback*%
X44193750Y-94862500D03*
D21*
%TO.P,U2,25,NC_25*%
%TO.N,unconnected-(U2-NC-Pad25)*%
X43443750Y-94112500D03*
%TO.P,U2,26,NC_26*%
%TO.N,unconnected-(U2-NC-Pad26)*%
X42943750Y-94112500D03*
%TO.P,U2,27,NC_27*%
%TO.N,unconnected-(U2-NC-Pad27)*%
X42443750Y-94112500D03*
%TO.P,U2,28,NC_28*%
%TO.N,unconnected-(U2-NC-Pad28)*%
X41943750Y-94112500D03*
D22*
%TO.P,U2,29,GND_29*%
%TO.N,Solar1-*%
X42693750Y-97112500D03*
%TD*%
D23*
%TO.P,R27,1*%
%TO.N,Net-(U4-SRP)*%
X96206900Y-94144999D03*
%TO.P,R27,2*%
%TO.N,Cell 3-*%
X96206900Y-91219999D03*
%TD*%
D24*
%TO.P,D21,1,K_1*%
%TO.N,Net-(D18-K)*%
X82000000Y-49000000D03*
%TO.P,D21,2,A_2*%
%TO.N,USB PWR*%
X86000000Y-49000000D03*
%TD*%
D25*
%TO.P,C4,1*%
%TO.N,Net-(D18-K)*%
X74361900Y-46264000D03*
%TO.P,C4,2*%
%TO.N,Solar1-*%
X76261900Y-46264000D03*
%TD*%
D26*
%TO.P,J1,1,Pin_1_1*%
%TO.N,Net-(J1-Pin_1)*%
X116500000Y-75000000D03*
D27*
%TO.P,J1,2,Pin_2_2*%
%TO.N,Net-(J1-Pin_2)*%
X111500000Y-75000000D03*
%TD*%
D15*
%TO.P,R73,1*%
%TO.N,Net-(Q27-S)*%
X97512652Y-33723941D03*
%TO.P,R73,2*%
%TO.N,Net-(Q27-G)*%
X97512652Y-35373941D03*
%TD*%
D28*
%TO.P,R70,1*%
%TO.N,VDDD*%
X103512652Y-27461441D03*
%TO.P,R70,2*%
%TO.N,Net-(U11-ISNK_COARSE)*%
X103512652Y-25636441D03*
%TD*%
D29*
%TO.P,D3,1,K_1*%
%TO.N,Cell 1+*%
X36500000Y-39850000D03*
D30*
%TO.P,D3,2,A_2*%
%TO.N,Net-(D3-A)*%
X36500000Y-27150000D03*
%TD*%
D31*
%TO.P,R15,1*%
%TO.N,Cell 1+*%
X56500000Y-25962500D03*
%TO.P,R15,2*%
%TO.N,Net-(D6-A)*%
X56500000Y-23037500D03*
%TD*%
D10*
%TO.P,TP5,1,1_1*%
%TO.N,UNREG*%
X75000000Y-105719999D03*
%TD*%
D32*
%TO.P,L2,1,1_1*%
%TO.N,/Power/3v3 SW*%
X49293750Y-97662500D03*
%TO.P,L2,2,2_2*%
%TO.N,+3.3V*%
X49293750Y-94862500D03*
%TD*%
D10*
%TO.P,TP15,1,1_1*%
%TO.N,Solar Power*%
X119500000Y-59750000D03*
%TD*%
D33*
%TO.P,U4,1,P2_1*%
%TO.N,Solar1-*%
X103582149Y-102470001D03*
%TO.P,U4,2,VEN_2*%
%TO.N,Net-(Q3-G)*%
X103582149Y-101820000D03*
%TO.P,U4,3,P1_3*%
%TO.N,Net-(Q4-G)*%
X103582149Y-101169999D03*
%TO.P,U4,4,BAT_4*%
%TO.N,/Sensors/Voltage Divider*%
X103582149Y-100520000D03*
%TO.P,U4,5,CE_5*%
%TO.N,/Sensors/REGIN*%
X103582149Y-99870001D03*
%TO.P,U4,6,REGIN_6*%
X103582149Y-99220000D03*
%TO.P,U4,7,REG25_7*%
%TO.N,REG25*%
X103582149Y-98570001D03*
%TO.P,U4,8,VSS_8*%
%TO.N,Solar1-*%
X97740149Y-98569999D03*
%TO.P,U4,9,SRP_9*%
%TO.N,Net-(U4-SRP)*%
X97740149Y-99220000D03*
%TO.P,U4,10,SRN_10*%
%TO.N,Net-(U4-SRN)*%
X97740149Y-99869999D03*
%TO.P,U4,11,P6/TS_11*%
%TO.N,Net-(J21-Pin_1)*%
X97740149Y-100520000D03*
%TO.P,U4,12,P5/HDQ_12*%
%TO.N,unconnected-(U4-P5{slash}HDQ-Pad12)*%
X97740149Y-101169999D03*
%TO.P,U4,13,P4/SCL_13*%
%TO.N,/Sensors/Serial Clock*%
X97740149Y-101820000D03*
%TO.P,U4,14,P3/SDA_14*%
%TO.N,/Sensors/Serial Data*%
X97740149Y-102469999D03*
%TD*%
D34*
%TO.P,R44,1*%
%TO.N,+3.3V*%
X71319814Y-90866068D03*
%TO.P,R44,2*%
%TO.N,HS_I2C1_SDA*%
X73144814Y-90866068D03*
%TD*%
D35*
%TO.P,U5,1,GND_1*%
%TO.N,Solar1-*%
X89688375Y-88526853D03*
%TO.P,U5,2,VIN+_2*%
%TO.N,Net-(J1-Pin_2)*%
X90147995Y-88067233D03*
%TO.P,U5,3,GND_3*%
%TO.N,Solar1-*%
X90607614Y-87607614D03*
%TO.P,U5,4,VIN-_4*%
%TO.N,Net-(J1-Pin_1)*%
X91067233Y-87147995D03*
%TO.P,U5,5,GND_5*%
%TO.N,Solar1-*%
X91526853Y-86688375D03*
D36*
%TO.P,U5,6,GND_6*%
X91526853Y-85096395D03*
%TO.P,U5,7,GND_7*%
X91067233Y-84636775D03*
%TO.P,U5,8,VDD_8*%
%TO.N,+3.3V*%
X90607614Y-84177156D03*
%TO.P,U5,9,GND_9*%
%TO.N,Solar1-*%
X90147995Y-83717537D03*
%TO.P,U5,10,GND_10*%
X89688375Y-83257917D03*
D35*
%TO.P,U5,11,ALERT_1_11*%
%TO.N,unconnected-(U5-ALERT_1-Pad11)*%
X88096395Y-83257917D03*
%TO.P,U5,12,ALERT_2_12*%
%TO.N,unconnected-(U5-ALERT_2-Pad12)*%
X87636775Y-83717537D03*
%TO.P,U5,13,GND_13*%
%TO.N,Solar1-*%
X87177156Y-84177156D03*
%TO.P,U5,14,ALERT_3_14*%
%TO.N,unconnected-(U5-ALERT_3-Pad14)*%
X86717537Y-84636775D03*
%TO.P,U5,15,ALERT_4_15*%
%TO.N,unconnected-(U5-ALERT_4-Pad15)*%
X86257917Y-85096395D03*
D36*
%TO.P,U5,16,ADDR_16*%
%TO.N,Solar1-*%
X86257917Y-86688375D03*
%TO.P,U5,17,GND_17*%
X86717537Y-87147995D03*
%TO.P,U5,18,GND_18*%
X87177156Y-87607614D03*
%TO.P,U5,19,SCL_19*%
%TO.N,HS_I2C1_SCL*%
X87636775Y-88067233D03*
%TO.P,U5,20,SDA_20*%
%TO.N,HS_I2C1_SDA*%
X88096395Y-88526853D03*
D37*
%TO.P,U5,21,EXP_21*%
%TO.N,Solar1-*%
X88892385Y-85892385D03*
%TD*%
D38*
%TO.P,C20,1*%
%TO.N,Solar1-*%
X92306096Y-83981796D03*
%TO.P,C20,2*%
%TO.N,+3.3V*%
X91627274Y-83302974D03*
%TD*%
D39*
%TO.P,Q27,1,D_1*%
%TO.N,VBUS*%
X103962652Y-36111441D03*
%TO.P,Q27,2,G_2*%
%TO.N,Net-(Q27-G)*%
X102062652Y-36111441D03*
%TO.P,Q27,3,S_3*%
%TO.N,Net-(Q27-S)*%
X103012652Y-37986441D03*
%TD*%
D34*
%TO.P,R42,1*%
%TO.N,+3.3V*%
X72319814Y-82366068D03*
%TO.P,R42,2*%
%TO.N,HS_I2C1_LDA*%
X74144814Y-82366068D03*
%TD*%
D40*
%TO.P,C8,1*%
%TO.N,/Power/3v3 SW*%
X45743750Y-97842500D03*
%TO.P,C8,2*%
%TO.N,Net-(U2-BST)*%
X45743750Y-96882500D03*
%TD*%
D41*
%TO.P,D6,1,K_1*%
%TO.N,Solar1-*%
X53265000Y-21500000D03*
%TO.P,D6,2,A_2*%
%TO.N,Net-(D6-A)*%
X54235000Y-21500000D03*
%TD*%
D13*
%TO.P,R23,1*%
%TO.N,/Sensors/Serial Clock*%
X95373649Y-100520000D03*
%TO.P,R23,2*%
%TO.N,Net-(D15-K)*%
X92448649Y-100520000D03*
%TD*%
D23*
%TO.P,R9,1*%
%TO.N,/Power/3v3 Feedback*%
X44693750Y-92050000D03*
%TO.P,R9,2*%
%TO.N,Solar1-*%
X44693750Y-89125000D03*
%TD*%
D42*
%TO.P,J28,1,Pin_1_1*%
%TO.N,V_mppt_o*%
X60250000Y-34975000D03*
D43*
%TO.P,J28,2,Pin_2_2*%
%TO.N,V_mppt_i*%
X62750000Y-34975000D03*
%TD*%
D10*
%TO.P,TP2,1,1_1*%
%TO.N,V_mppt_o*%
X35500000Y-52000000D03*
%TD*%
D42*
%TO.P,J12,1,Pin_1_1*%
%TO.N,UNREG*%
X44500000Y-113250000D03*
D43*
%TO.P,J12,2,Pin_2_2*%
%TO.N,Solar1-*%
X47000000Y-113250000D03*
%TD*%
D24*
%TO.P,D18,1,K_1*%
%TO.N,Net-(D18-K)*%
X82000000Y-36500000D03*
%TO.P,D18,2,A_2*%
%TO.N,TEST_PWR*%
X86000000Y-36500000D03*
%TD*%
D44*
%TO.P,C41,1*%
%TO.N,UNREG*%
X49637500Y-104287500D03*
%TO.P,C41,2*%
%TO.N,Solar1-*%
X52587500Y-104287500D03*
%TD*%
D45*
%TO.P,J10,1,Pin_1_1*%
%TO.N,+3.3V*%
X114900000Y-66025000D03*
D46*
%TO.P,J10,2,Pin_2_2*%
%TO.N,Solar Power*%
X112400000Y-66025000D03*
%TO.P,J10,3,Pin_3_3*%
X109900000Y-66025000D03*
%TO.P,J10,4,Pin_4_4*%
%TO.N,Solar1-*%
X107400000Y-66025000D03*
%TO.P,J10,5,Pin_5_5*%
X104900000Y-66025000D03*
%TO.P,J10,6,Pin_6_6*%
X102400000Y-66025000D03*
%TO.P,J10,7,Pin_7_7*%
%TO.N,HS_I2C1_LCL*%
X99900000Y-66025000D03*
%TO.P,J10,8,Pin_8_8*%
%TO.N,HS_I2C1_LDA*%
X97400000Y-66025000D03*
%TD*%
D10*
%TO.P,TP6,1,1_1*%
%TO.N,Solar1-*%
X101500000Y-106750000D03*
%TD*%
D47*
%TO.P,C55,1*%
%TO.N,VBUS*%
X109512652Y-35598941D03*
%TO.P,C55,2*%
%TO.N,Solar1-*%
X109512652Y-37498941D03*
%TD*%
D48*
%TO.P,R3,1*%
%TO.N,V_mppt_o*%
X39347500Y-51500000D03*
%TO.P,R3,2*%
%TO.N,Net-(U3-VIN_REG)*%
X38152500Y-51500000D03*
%TD*%
D49*
%TO.P,R14,1*%
%TO.N,Net-(U3-SENSE)*%
X53750000Y-38287500D03*
%TO.P,R14,2*%
%TO.N,Cell 1+*%
X53750000Y-44212500D03*
%TD*%
D50*
%TO.P,C61,1*%
%TO.N,VDDD*%
X108012652Y-27323941D03*
%TO.P,C61,2*%
%TO.N,Solar1-*%
X108012652Y-25773941D03*
%TD*%
D10*
%TO.P,TP18,1,1_1*%
%TO.N,HS_I2C1_LCL*%
X69232314Y-75116068D03*
%TD*%
D51*
%TO.P,J20,1,Pin_1_1*%
%TO.N,NTC*%
X116150000Y-51125000D03*
%TO.P,J20,2,Pin_2_2*%
%TO.N,Solar1-*%
X116150000Y-49875000D03*
D52*
%TO.P,J20,MP*%
%TO.N,N/C*%
X119350000Y-52975000D03*
X119350000Y-48025000D03*
%TD*%
D53*
%TO.P,J14,1,Pin_1_1*%
%TO.N,Cell 1+*%
X29000000Y-106120000D03*
D27*
%TO.P,J14,2,Pin_2_2*%
%TO.N,Cell 2+*%
X29000000Y-101040000D03*
%TO.P,J14,3,Pin_3_3*%
%TO.N,Cell 3+*%
X29000000Y-95960000D03*
%TO.P,J14,4,Pin_4_4*%
%TO.N,Cell 3-*%
X29000000Y-90880000D03*
%TD*%
D54*
%TO.P,J9,1,Pin_1_1*%
%TO.N,UNREG*%
X56500000Y-71475000D03*
D46*
%TO.P,J9,2,Pin_2_2*%
%TO.N,Solar1-*%
X59000000Y-71475000D03*
%TO.P,J9,3,Pin_3_3*%
%TO.N,+3.3V*%
X61500000Y-71475000D03*
%TO.P,J9,4,Pin_4_4*%
%TO.N,Solar1-*%
X64000000Y-71475000D03*
%TD*%
D55*
%TO.P,Q3,1,G_1*%
%TO.N,Net-(Q3-G)*%
X115210700Y-109750000D03*
%TO.P,Q3,2,S_2*%
%TO.N,Solar1-*%
X115210700Y-105189998D03*
D56*
%TO.P,Q3,3,D_3*%
%TO.N,/Sensors/Voltage Divider Enable*%
X106917600Y-107469999D03*
%TD*%
D57*
%TO.P,C22,1*%
%TO.N,Solar1-*%
X100936900Y-96719999D03*
%TO.P,C22,2*%
%TO.N,Net-(U4-SRN)*%
X99976900Y-96719999D03*
%TD*%
D58*
%TO.P,R6,1*%
%TO.N,/Power/3v3 Feedback*%
X48943750Y-93078568D03*
%TO.P,R6,2*%
%TO.N,+3.3V*%
X48943750Y-87153568D03*
%TD*%
D47*
%TO.P,C58,1*%
%TO.N,VDC_OUT*%
X95012652Y-33098941D03*
%TO.P,C58,2*%
%TO.N,Net-(Q27-G)*%
X95012652Y-34998941D03*
%TD*%
D59*
%TO.P,J27,A1,GND_A1*%
%TO.N,Solar1-*%
X112955000Y-37250000D03*
%TO.P,J27,A4,VBUS_A4*%
%TO.N,VBUS*%
X112955000Y-36450000D03*
D60*
%TO.P,J27,A5,CC1_A5*%
%TO.N,CC1*%
X112955000Y-35250000D03*
%TO.P,J27,A6,D+_A6*%
%TO.N,unconnected-(J27-D+-PadA6)*%
X112955000Y-34250000D03*
%TO.P,J27,A7,D-_A7*%
%TO.N,unconnected-(J27-D--PadA7)*%
X112955000Y-33750000D03*
%TO.P,J27,A8,SBU1_A8*%
%TO.N,unconnected-(J27-SBU1-PadA8)*%
X112955000Y-32750000D03*
D59*
%TO.P,J27,A9,VBUS_A9*%
%TO.N,VBUS*%
X112955000Y-31550000D03*
%TO.P,J27,A12,GND_A12*%
%TO.N,Solar1-*%
X112955000Y-30750000D03*
%TO.P,J27,B1,GND_B1*%
X112955000Y-30750000D03*
%TO.P,J27,B4,VBUS_B4*%
%TO.N,VBUS*%
X112955000Y-31550000D03*
D60*
%TO.P,J27,B5,CC2_B5*%
%TO.N,CC2*%
X112955000Y-32250000D03*
%TO.P,J27,B6,D+_B6*%
%TO.N,unconnected-(J27-D+-PadB6)*%
X112955000Y-33250000D03*
%TO.P,J27,B7,D-_B7*%
%TO.N,unconnected-(J27-D--PadB7)*%
X112955000Y-34750000D03*
%TO.P,J27,B8,SBU2_B8*%
%TO.N,unconnected-(J27-SBU2-PadB8)*%
X112955000Y-35750000D03*
D59*
%TO.P,J27,B9,VBUS_B9*%
%TO.N,VBUS*%
X112955000Y-36450000D03*
%TO.P,J27,B12,GND_B12*%
%TO.N,Solar1-*%
X112955000Y-37250000D03*
D61*
%TO.P,J27,SH,SHIELD_SH*%
X113870000Y-38320000D03*
D62*
X118050000Y-38320000D03*
D61*
X113870000Y-29680000D03*
D62*
X118050000Y-29680000D03*
%TD*%
D40*
%TO.P,C17,1*%
%TO.N,/Sensors/REGIN*%
X105456900Y-99199999D03*
%TO.P,C17,2*%
%TO.N,Solar1-*%
X105456900Y-98239999D03*
%TD*%
D24*
%TO.P,D19,1,K_1*%
%TO.N,Net-(D18-K)*%
X82000000Y-45000000D03*
%TO.P,D19,2,A_2*%
%TO.N,Solar Power*%
X86000000Y-45000000D03*
%TD*%
D63*
%TO.P,C5,1*%
%TO.N,Net-(D18-K)*%
X73936900Y-42664000D03*
%TO.P,C5,2*%
%TO.N,Solar1-*%
X76886900Y-42664000D03*
%TD*%
D64*
%TO.P,U7,1,NC_1*%
%TO.N,unconnected-(U7-NC-Pad1)*%
X72768514Y-84711068D03*
%TO.P,U7,2,Lx_2*%
%TO.N,HS_I2C1_LDA*%
X72768514Y-85981068D03*
%TO.P,U7,3,Sx_3*%
%TO.N,HS_I2C1_SDA*%
X72768514Y-87251068D03*
%TO.P,U7,4,GND_4*%
%TO.N,Solar1-*%
X72768514Y-88521068D03*
%TO.P,U7,5,NC_5*%
%TO.N,unconnected-(U7-NC-Pad5)*%
X77696114Y-88521068D03*
%TO.P,U7,6,Sy_6*%
%TO.N,HS_I2C1_SCL*%
X77696114Y-87251068D03*
%TO.P,U7,7,Ly_7*%
%TO.N,HS_I2C1_LCL*%
X77696114Y-85981068D03*
%TO.P,U7,8,Vcc_8*%
%TO.N,+3.3V*%
X77696114Y-84711068D03*
%TD*%
D65*
%TO.P,J30,1,Pin_1_1*%
%TO.N,TEST_PWR*%
X84500000Y-28500000D03*
D66*
%TO.P,J30,2,Pin_2_2*%
%TO.N,Solar1-*%
X79500000Y-28500000D03*
%TD*%
D67*
%TO.P,R49,1*%
%TO.N,Net-(R12-Pad2)*%
X54325000Y-53000000D03*
%TO.P,R49,2*%
%TO.N,Net-(R49-Pad2)*%
X52675000Y-53000000D03*
%TD*%
D68*
%TO.P,L1,1,1_1*%
%TO.N,Net-(D18-K)*%
X69361900Y-45964000D03*
%TO.P,L1,2,2_2*%
%TO.N,Net-(L1-Pad2)*%
X69361900Y-42264000D03*
%TD*%
D10*
%TO.P,TP3,1,1_1*%
%TO.N,+3.3V*%
X57732314Y-101116068D03*
%TD*%
D54*
%TO.P,J31,1,Pin_1_1*%
%TO.N,Cell 1+*%
X51500000Y-59000000D03*
D46*
%TO.P,J31,2,Pin_2_2*%
%TO.N,UNREG*%
X54000000Y-59000000D03*
%TO.P,J31,3,Pin_3_3*%
%TO.N,Cell 3-*%
X56500000Y-59000000D03*
%TO.P,J31,4,Pin_4_4*%
%TO.N,Solar1-*%
X59000000Y-59000000D03*
%TD*%
D14*
%TO.P,R10,1*%
%TO.N,+3.3V*%
X60519814Y-100866068D03*
%TO.P,R10,2*%
%TO.N,Net-(D2-A)*%
X63444814Y-100866068D03*
%TD*%
D47*
%TO.P,C19,1*%
%TO.N,Solar1-*%
X103456900Y-94819999D03*
%TO.P,C19,2*%
%TO.N,REG25*%
X103456900Y-96719999D03*
%TD*%
D44*
%TO.P,C6,1*%
%TO.N,V_mppt_i*%
X69525000Y-31500000D03*
%TO.P,C6,2*%
%TO.N,Solar1-*%
X72475000Y-31500000D03*
%TD*%
D55*
%TO.P,D5,1,A_1*%
%TO.N,Solar1-*%
X28470800Y-44714000D03*
X28470800Y-49286000D03*
D69*
%TO.P,D5,2,K_2*%
%TO.N,Net-(D5-K)*%
X36624200Y-47000000D03*
%TD*%
D70*
%TO.P,J6,1,1_1*%
%TO.N,Net-(C43-Pad1)*%
X118500000Y-113500000D03*
D71*
X118500000Y-113500000D03*
%TD*%
D31*
%TO.P,R8,1*%
%TO.N,+3.3V*%
X42124400Y-59828650D03*
%TO.P,R8,2*%
%TO.N,CHG'*%
X42124400Y-56903650D03*
%TD*%
D55*
%TO.P,D4,1,A_1*%
%TO.N,Net-(D3-A)*%
X50779200Y-30536000D03*
X50779200Y-25964000D03*
D69*
%TO.P,D4,2,K_2*%
%TO.N,Net-(D4-K)*%
X42625800Y-28250000D03*
%TD*%
D10*
%TO.P,TP13,1,1_1*%
%TO.N,Solar Power*%
X68350000Y-58750000D03*
%TD*%
D13*
%TO.P,R25,1*%
%TO.N,Net-(D15-K)*%
X87623649Y-100270000D03*
%TO.P,R25,2*%
%TO.N,HS_I2C1_SCL*%
X84698649Y-100270000D03*
%TD*%
D31*
%TO.P,R5,1*%
%TO.N,+3.3V*%
X38624400Y-59878650D03*
%TO.P,R5,2*%
%TO.N,SHDN'*%
X38624400Y-56953650D03*
%TD*%
D72*
%TO.P,L3,1,1_1*%
%TO.N,Net-(D5-K)*%
X41850000Y-39500000D03*
%TO.P,L3,2,2_2*%
%TO.N,Net-(U3-SENSE)*%
X50150000Y-39500000D03*
%TD*%
D45*
%TO.P,J3,1,Pin_1_1*%
%TO.N,+3.3V*%
X91250000Y-66000000D03*
D46*
%TO.P,J3,2,Pin_2_2*%
%TO.N,Solar Power*%
X88750000Y-66000000D03*
%TO.P,J3,3,Pin_3_3*%
X86250000Y-66000000D03*
%TO.P,J3,4,Pin_4_4*%
%TO.N,Solar1-*%
X83750000Y-66000000D03*
%TO.P,J3,5,Pin_5_5*%
X81250000Y-66000000D03*
%TO.P,J3,6,Pin_6_6*%
X78750000Y-66000000D03*
%TO.P,J3,7,Pin_7_7*%
%TO.N,HS_I2C1_LCL*%
X76250000Y-66000000D03*
%TO.P,J3,8,Pin_8_8*%
%TO.N,HS_I2C1_LDA*%
X73750000Y-66000000D03*
%TD*%
D73*
%TO.P,R21,1*%
%TO.N,/Sensors/REGIN*%
X106706900Y-99229999D03*
%TO.P,R21,2*%
%TO.N,Net-(D8-A)*%
X106706900Y-98209999D03*
%TD*%
D74*
%TO.P,R71,1*%
%TO.N,Net-(U11-ISNK_COARSE)*%
X103512652Y-24048941D03*
%TO.P,R71,2*%
%TO.N,Solar1-*%
X103512652Y-22398941D03*
%TD*%
D75*
%TO.P,R13,1*%
%TO.N,Net-(U3-VFB)*%
X47500000Y-50787500D03*
%TO.P,R13,2*%
%TO.N,Solar1-*%
X47500000Y-53712500D03*
%TD*%
D10*
%TO.P,TP11,1,1_1*%
%TO.N,Solar Power*%
X119500000Y-63000000D03*
%TD*%
D70*
%TO.P,J7,1,1_1*%
%TO.N,Net-(C43-Pad1)*%
X118500000Y-23500000D03*
D71*
X118500000Y-23500000D03*
%TD*%
D11*
%TO.P,C42,1*%
%TO.N,Net-(U2-EN{slash}UV)*%
X38787500Y-101837500D03*
%TO.P,C42,2*%
%TO.N,Solar1-*%
X35837500Y-101837500D03*
%TD*%
D47*
%TO.P,C56,1*%
%TO.N,VBUS*%
X107512652Y-35598941D03*
%TO.P,C56,2*%
%TO.N,Net-(Q27-G)*%
X107512652Y-37498941D03*
%TD*%
D76*
%TO.P,D8,1,K_1*%
%TO.N,Net-(D8-K)*%
X109206900Y-95469999D03*
%TO.P,D8,2,A_2*%
%TO.N,Net-(D8-A)*%
X108236900Y-95469999D03*
%TD*%
D10*
%TO.P,TP19,1,1_1*%
%TO.N,HS_I2C1_SDA*%
X76000000Y-97250000D03*
%TD*%
D15*
%TO.P,R12,1*%
%TO.N,Cell 1+*%
X53500000Y-49675000D03*
%TO.P,R12,2*%
%TO.N,Net-(R12-Pad2)*%
X53500000Y-51325000D03*
%TD*%
D77*
%TO.P,C13,1*%
%TO.N,Cell 1+*%
X53475000Y-47250000D03*
%TO.P,C13,2*%
%TO.N,Solar1-*%
X50525000Y-47250000D03*
%TD*%
D15*
%TO.P,C31,1*%
%TO.N,+3.3V*%
X82232314Y-84216068D03*
%TO.P,C31,2*%
%TO.N,Solar1-*%
X82232314Y-85866068D03*
%TD*%
D31*
%TO.P,R20,1*%
%TO.N,/Sensors/Voltage Divider*%
X93956900Y-112432499D03*
%TO.P,R20,2*%
%TO.N,Solar1-*%
X93956900Y-109507499D03*
%TD*%
D78*
%TO.P,R69,1*%
%TO.N,VBUS*%
X105512652Y-35636441D03*
%TO.P,R69,2*%
%TO.N,Net-(Q27-G)*%
X105512652Y-37461441D03*
%TD*%
D79*
%TO.P,C9,1*%
%TO.N,Solar1-*%
X64300000Y-89750000D03*
%TO.P,C9,2*%
%TO.N,+3.3V*%
X59200000Y-89750000D03*
%TD*%
D24*
%TO.P,D7,1,K_1*%
%TO.N,Net-(D7-K)*%
X82456900Y-107719999D03*
%TO.P,D7,2,A_2*%
%TO.N,Solar1-*%
X86456900Y-107719999D03*
%TD*%
D80*
%TO.P,C23,1*%
%TO.N,Solar1-*%
X94726900Y-96719999D03*
%TO.P,C23,2*%
%TO.N,Net-(U4-SRP)*%
X95686900Y-96719999D03*
%TD*%
D10*
%TO.P,TP7,1,1_1*%
%TO.N,+3.3V*%
X69250000Y-79500000D03*
%TD*%
D74*
%TO.P,R50,1*%
%TO.N,Net-(R49-Pad2)*%
X51000000Y-52325000D03*
%TO.P,R50,2*%
%TO.N,Net-(U3-VFB)*%
X51000000Y-50675000D03*
%TD*%
D79*
%TO.P,C11,1*%
%TO.N,Solar1-*%
X64300000Y-95750000D03*
%TO.P,C11,2*%
%TO.N,+3.3V*%
X59200000Y-95750000D03*
%TD*%
D81*
%TO.P,C59,1*%
%TO.N,VDDD*%
X111512652Y-27498941D03*
%TO.P,C59,2*%
%TO.N,Solar1-*%
X111512652Y-25598941D03*
%TD*%
D10*
%TO.P,TP10,1,1_1*%
%TO.N,Solar Power*%
X68500000Y-62000000D03*
%TD*%
D45*
%TO.P,J15,1,Pin_1_1*%
%TO.N,+3.3V*%
X115000000Y-58775000D03*
D46*
%TO.P,J15,2,Pin_2_2*%
%TO.N,Solar Power*%
X112500000Y-58775000D03*
%TO.P,J15,3,Pin_3_3*%
X110000000Y-58775000D03*
%TO.P,J15,4,Pin_4_4*%
%TO.N,Solar1-*%
X107500000Y-58775000D03*
%TO.P,J15,5,Pin_5_5*%
X105000000Y-58775000D03*
%TO.P,J15,6,Pin_6_6*%
X102500000Y-58775000D03*
%TO.P,J15,7,Pin_7_7*%
%TO.N,HS_I2C1_LCL*%
X100000000Y-58775000D03*
%TO.P,J15,8,Pin_8_8*%
%TO.N,HS_I2C1_LDA*%
X97500000Y-58775000D03*
%TD*%
D58*
%TO.P,R2,1*%
%TO.N,Net-(L1-Pad2)*%
X69611900Y-39464000D03*
%TO.P,R2,2*%
%TO.N,V_mppt_i*%
X69611900Y-33539000D03*
%TD*%
D82*
%TO.P,U3,1,VIN_1*%
%TO.N,V_mppt_o*%
X41624400Y-54216150D03*
%TO.P,U3,2,VIN_REG_2*%
%TO.N,Net-(U3-VIN_REG)*%
X42274640Y-54216150D03*
%TO.P,U3,3,~{SHDN}_3*%
%TO.N,SHDN'*%
X42924880Y-54216150D03*
%TO.P,U3,4,~{CHRG}_4*%
%TO.N,CHG'*%
X43575120Y-54216150D03*
%TO.P,U3,5,~{FAULT}_5*%
%TO.N,FAULT'*%
X44225360Y-54216150D03*
%TO.P,U3,6,TIMER_6*%
%TO.N,Solar1-*%
X44875600Y-54216150D03*
%TO.P,U3,7,VFB_7*%
%TO.N,Net-(U3-VFB)*%
X44875600Y-49783850D03*
%TO.P,U3,8,NTC_8*%
%TO.N,Net-(U3-NTC)*%
X44225360Y-49783850D03*
%TO.P,U3,9,BAT_9*%
%TO.N,Cell 1+*%
X43575120Y-49783850D03*
%TO.P,U3,10,SENSE_10*%
%TO.N,Net-(U3-SENSE)*%
X42924880Y-49783850D03*
%TO.P,U3,11,BOOST_11*%
%TO.N,Net-(D4-K)*%
X42274640Y-49783850D03*
%TO.P,U3,12,SW_12*%
%TO.N,Net-(D5-K)*%
X41624400Y-49783850D03*
D83*
%TO.P,U3,13,GND_13*%
%TO.N,Solar1-*%
X43250000Y-52000000D03*
%TD*%
D70*
%TO.P,J8,1,1_1*%
%TO.N,Net-(C43-Pad1)*%
X28500000Y-23500000D03*
D71*
X28500000Y-23500000D03*
%TD*%
D14*
%TO.P,R57,1*%
%TO.N,Net-(R17-Pad2)*%
X76994400Y-107969999D03*
%TO.P,R57,2*%
%TO.N,Net-(D7-K)*%
X79919400Y-107969999D03*
%TD*%
D84*
%TO.P,J4,1,Pin_1_1*%
%TO.N,Cell 1+*%
X28750000Y-34500000D03*
D85*
%TO.P,J4,2,Pin_2_2*%
%TO.N,Solar1-*%
X28750000Y-32000000D03*
%TD*%
D51*
%TO.P,J21,1,Pin_1_1*%
%TO.N,Net-(J21-Pin_1)*%
X115900000Y-93875000D03*
%TO.P,J21,2,Pin_2_2*%
%TO.N,REG25*%
X115900000Y-92625000D03*
D52*
%TO.P,J21,MP*%
%TO.N,N/C*%
X119100000Y-95725000D03*
X119100000Y-90775000D03*
%TD*%
D86*
%TO.P,R28,1*%
%TO.N,Cell 3+*%
X104494400Y-91219999D03*
%TO.P,R28,2*%
%TO.N,Cell 3-*%
X110419400Y-91219999D03*
%TD*%
D25*
%TO.P,C2,1*%
%TO.N,Solar1-*%
X37131250Y-94237500D03*
%TO.P,C2,2*%
%TO.N,Net-(U2-TR{slash}SS)*%
X39031250Y-94237500D03*
%TD*%
D23*
%TO.P,R16,1*%
%TO.N,UNREG*%
X102206900Y-115932499D03*
%TO.P,R16,2*%
%TO.N,Net-(Q1-G)*%
X102206900Y-113007499D03*
%TD*%
D87*
%TO.P,U11,1,VBUS_MIN_1*%
%TO.N,Net-(U11-VBUS_MAX)*%
X104487348Y-29195388D03*
%TO.P,U11,2,VBUS_MAX_2*%
X104133794Y-29548941D03*
%TO.P,U11,3,VBUS_FET_EN_3*%
%TO.N,VBUS_EN*%
X103780241Y-29902494D03*
%TO.P,U11,4,SAFE_PWR_EN_4*%
%TO.N,unconnected-(U11-SAFE_PWR_EN-Pad4)*%
X103426687Y-30256048D03*
%TO.P,U11,5,ISNK_COARSE_5*%
%TO.N,Net-(U11-ISNK_COARSE)*%
X103073134Y-30609601D03*
%TO.P,U11,6,ISNK_FINE_6*%
%TO.N,Solar1-*%
X102719581Y-30963155D03*
D88*
%TO.P,U11,7,~{HPI_INT}_7*%
%TO.N,unconnected-(U11-~{HPI_INT}-Pad7)*%
X102719581Y-31988459D03*
%TO.P,U11,8,GPIO_1_8*%
%TO.N,unconnected-(U11-GPIO_1-Pad8)*%
X103073134Y-32342013D03*
%TO.P,U11,9,FAULT_9*%
%TO.N,unconnected-(U11-FAULT-Pad9)*%
X103426687Y-32695566D03*
%TO.P,U11,10,FLIP_10*%
%TO.N,Net-(U11-FLIP)*%
X103780241Y-33049120D03*
%TO.P,U11,11,VDC_OUT_11*%
%TO.N,VDC_OUT*%
X104133794Y-33402673D03*
%TO.P,U11,12,HPI_SDA_12*%
%TO.N,unconnected-(U11-HPI_SDA-Pad12)*%
X104487348Y-33756226D03*
D87*
%TO.P,U11,13,HPI_SCL_13*%
%TO.N,unconnected-(U11-HPI_SCL-Pad13)*%
X105512652Y-33756226D03*
%TO.P,U11,14,CC2_14*%
%TO.N,CC2*%
X105866206Y-33402673D03*
%TO.P,U11,15,CC1_15*%
%TO.N,CC1*%
X106219759Y-33049120D03*
%TO.P,U11,16,NC_16*%
%TO.N,unconnected-(U11-NC-Pad16)*%
X106573313Y-32695566D03*
%TO.P,U11,17,NC_17*%
%TO.N,unconnected-(U11-NC-Pad17)*%
X106926866Y-32342013D03*
%TO.P,U11,18,VBUS_IN_18*%
%TO.N,VBUS*%
X107280419Y-31988459D03*
D88*
%TO.P,U11,19,GND_19*%
%TO.N,Solar1-*%
X107280419Y-30963155D03*
%TO.P,U11,20,NC_20*%
%TO.N,unconnected-(U11-NC-Pad20)*%
X106926866Y-30609601D03*
%TO.P,U11,21,NC_21*%
%TO.N,unconnected-(U11-NC-Pad21)*%
X106573313Y-30256048D03*
%TO.P,U11,22,GND_22*%
%TO.N,Solar1-*%
X106219759Y-29902494D03*
%TO.P,U11,23,VDDD_23*%
%TO.N,VDDD*%
X105866206Y-29548941D03*
%TO.P,U11,24,VCCD_24*%
%TO.N,Net-(U11-VCCD)*%
X105512652Y-29195388D03*
D89*
%TO.P,U11,25,GND_25*%
%TO.N,Solar1-*%
X105000000Y-31475807D03*
%TD*%
D10*
%TO.P,TP17,1,1_1*%
%TO.N,HS_I2C1_LDA*%
X69232314Y-77366068D03*
%TD*%
D25*
%TO.P,C3,1*%
%TO.N,Solar1-*%
X37181250Y-92237500D03*
%TO.P,C3,2*%
%TO.N,Net-(U2-INTVCC)*%
X39081250Y-92237500D03*
%TD*%
D23*
%TO.P,R58,1*%
%TO.N,Net-(L5-Pad2)*%
X41562500Y-105500000D03*
%TO.P,R58,2*%
%TO.N,Net-(U2-EN{slash}UV)*%
X41562500Y-102575000D03*
%TD*%
D90*
%TO.P,C7,1*%
%TO.N,V_mppt_o*%
X34000000Y-56525000D03*
%TO.P,C7,2*%
%TO.N,Solar1-*%
X34000000Y-59475000D03*
%TD*%
D10*
%TO.P,TP14,1,1_1*%
%TO.N,Solar1-*%
X68250000Y-55500000D03*
%TD*%
%TO.P,TP9,1,1_1*%
%TO.N,Solar1-*%
X68500000Y-65250000D03*
%TD*%
D91*
%TO.P,D15,1,K_1*%
%TO.N,Net-(D15-K)*%
X90161149Y-100520000D03*
%TO.P,D15,2,A_2*%
%TO.N,Solar1-*%
X90161149Y-97220000D03*
%TD*%
D10*
%TO.P,TP4,1,1_1*%
%TO.N,Cell 1+*%
X57337100Y-29050000D03*
%TD*%
D23*
%TO.P,R26,1*%
%TO.N,Net-(U4-SRN)*%
X99750000Y-94212500D03*
%TO.P,R26,2*%
%TO.N,Cell 3+*%
X99750000Y-91287500D03*
%TD*%
D92*
%TO.P,R11,1*%
%TO.N,Net-(U3-NTC)*%
X46175000Y-49000000D03*
%TO.P,R11,2*%
%TO.N,NTC*%
X47825000Y-49000000D03*
%TD*%
D47*
%TO.P,C57,1*%
%TO.N,Solar1-*%
X106012652Y-25598941D03*
%TO.P,C57,2*%
%TO.N,Net-(U11-VCCD)*%
X106012652Y-27498941D03*
%TD*%
D15*
%TO.P,C32,1*%
%TO.N,+3.3V*%
X79982314Y-84216068D03*
%TO.P,C32,2*%
%TO.N,Solar1-*%
X79982314Y-85866068D03*
%TD*%
D50*
%TO.P,C60,1*%
%TO.N,VDDD*%
X109512652Y-27323941D03*
%TO.P,C60,2*%
%TO.N,Solar1-*%
X109512652Y-25773941D03*
%TD*%
D93*
%TO.P,J29,1,Pin_1_1*%
%TO.N,USB PWR*%
X98722500Y-47450000D03*
D66*
%TO.P,J29,2,Pin_2_2*%
%TO.N,Solar1-*%
X103722500Y-47450000D03*
%TD*%
D13*
%TO.P,R4,1*%
%TO.N,Net-(U3-VIN_REG)*%
X39962500Y-54500000D03*
%TO.P,R4,2*%
%TO.N,Solar1-*%
X37037500Y-54500000D03*
%TD*%
D92*
%TO.P,R75,1*%
%TO.N,+3.3V*%
X98675000Y-31500000D03*
%TO.P,R75,2*%
%TO.N,Net-(U11-FLIP)*%
X100325000Y-31500000D03*
%TD*%
D94*
%TO.P,Q1,1,G_1*%
%TO.N,Net-(Q1-G)*%
X101156900Y-109832499D03*
%TO.P,Q1,2,S_2*%
%TO.N,UNREG*%
X99256900Y-109832499D03*
%TO.P,Q1,3,D_3*%
%TO.N,Net-(Q1-D)*%
X100206900Y-112107499D03*
%TD*%
D95*
%TO.P,D9,1,K_1*%
%TO.N,Net-(D9-K)*%
X90161149Y-103370000D03*
%TO.P,D9,2,A_2*%
%TO.N,Solar1-*%
X90161149Y-106670000D03*
%TD*%
D24*
%TO.P,D20,1,K_1*%
%TO.N,Net-(D18-K)*%
X82000000Y-41000000D03*
%TO.P,D20,2,A_2*%
%TO.N,VDC_OUT*%
X86000000Y-41000000D03*
%TD*%
D55*
%TO.P,Q2,1,G_1*%
%TO.N,Net-(D7-K)*%
X74206900Y-114780001D03*
%TO.P,Q2,2,S_2*%
%TO.N,/Sensors/REGIN*%
X74206900Y-110219999D03*
D56*
%TO.P,Q2,3,D_3*%
%TO.N,UNREG*%
X65913800Y-112500000D03*
%TD*%
D10*
%TO.P,TP16,1,1_1*%
%TO.N,Solar1-*%
X119250000Y-56500000D03*
%TD*%
D45*
%TO.P,J11,1,Pin_1_1*%
%TO.N,3V3 Power Good*%
X86232314Y-77616068D03*
D46*
%TO.P,J11,2,Pin_2_2*%
%TO.N,SHDN'*%
X83732314Y-77616068D03*
%TO.P,J11,3,Pin_3_3*%
%TO.N,FAULT'*%
X81232314Y-77616068D03*
%TO.P,J11,4,Pin_4_4*%
%TO.N,CHG'*%
X78732314Y-77616068D03*
%TO.P,J11,5,Pin_5_5*%
%TO.N,HS_I2C1_LCL*%
X76232314Y-77616068D03*
%TO.P,J11,6,Pin_6_6*%
%TO.N,HS_I2C1_LDA*%
X73732314Y-77616068D03*
%TD*%
D76*
%TO.P,D2,1,K_1*%
%TO.N,Solar1-*%
X66534814Y-100866068D03*
%TO.P,D2,2,A_2*%
%TO.N,Net-(D2-A)*%
X65564814Y-100866068D03*
%TD*%
D70*
%TO.P,J5,1,1_1*%
%TO.N,Net-(C43-Pad1)*%
X28750000Y-113500000D03*
D71*
X28750000Y-113500000D03*
%TD*%
D13*
%TO.P,R19,1*%
%TO.N,Net-(Q1-D)*%
X97169400Y-114969999D03*
%TO.P,R19,2*%
%TO.N,/Sensors/Voltage Divider*%
X94244400Y-114969999D03*
%TD*%
D31*
%TO.P,R7,1*%
%TO.N,+3.3V*%
X45724400Y-59828650D03*
%TO.P,R7,2*%
%TO.N,FAULT'*%
X45724400Y-56903650D03*
%TD*%
D57*
%TO.P,C21,1*%
%TO.N,Net-(U4-SRN)*%
X98186900Y-96719999D03*
%TO.P,C21,2*%
%TO.N,Net-(U4-SRP)*%
X97226900Y-96719999D03*
%TD*%
D45*
%TO.P,J13,1,Pin_1_1*%
%TO.N,+3.3V*%
X91200000Y-58800000D03*
D46*
%TO.P,J13,2,Pin_2_2*%
%TO.N,Solar Power*%
X88700000Y-58800000D03*
%TO.P,J13,3,Pin_3_3*%
X86200000Y-58800000D03*
%TO.P,J13,4,Pin_4_4*%
%TO.N,Solar1-*%
X83700000Y-58800000D03*
%TO.P,J13,5,Pin_5_5*%
X81200000Y-58800000D03*
%TO.P,J13,6,Pin_6_6*%
X78700000Y-58800000D03*
%TO.P,J13,7,Pin_7_7*%
%TO.N,HS_I2C1_LCL*%
X76200000Y-58800000D03*
%TO.P,J13,8,Pin_8_8*%
%TO.N,HS_I2C1_LDA*%
X73700000Y-58800000D03*
%TD*%
D10*
%TO.P,TP1,1,1_1*%
%TO.N,UNREG*%
X48500000Y-109000000D03*
%TD*%
D92*
%TO.P,R74,1*%
%TO.N,Net-(Q27-G)*%
X98687652Y-29548941D03*
%TO.P,R74,2*%
%TO.N,VBUS_EN*%
X100337652Y-29548941D03*
%TD*%
D42*
%TO.P,J2,1,Pin_1_1*%
%TO.N,UNREG*%
X56500000Y-113250000D03*
D43*
%TO.P,J2,2,Pin_2_2*%
%TO.N,Solar1-*%
X59000000Y-113250000D03*
%TD*%
D50*
%TO.P,C10,1*%
%TO.N,/Power/3v3 Feedback*%
X52443750Y-92787500D03*
%TO.P,C10,2*%
%TO.N,+3.3V*%
X52443750Y-91237500D03*
%TD*%
D19*
%TO.P,R43,1*%
%TO.N,+3.3V*%
X78057314Y-82366068D03*
%TO.P,R43,2*%
%TO.N,HS_I2C1_LCL*%
X76232314Y-82366068D03*
%TD*%
D55*
%TO.P,Q4,1,G_1*%
%TO.N,Net-(Q4-G)*%
X109706900Y-98219999D03*
%TO.P,Q4,2,S_2*%
%TO.N,Solar1-*%
X109706900Y-102780001D03*
D56*
%TO.P,Q4,3,D_3*%
%TO.N,Net-(D8-K)*%
X118000000Y-100500000D03*
%TD*%
D14*
%TO.P,R17,1*%
%TO.N,UNREG*%
X76994400Y-112469999D03*
%TO.P,R17,2*%
%TO.N,Net-(R17-Pad2)*%
X79919400Y-112469999D03*
%TD*%
D74*
%TO.P,R1,1*%
%TO.N,Net-(U2-RT)*%
X40693750Y-91150000D03*
%TO.P,R1,2*%
%TO.N,Solar1-*%
X40693750Y-89500000D03*
%TD*%
D10*
%TO.P,TP20,1,1_1*%
%TO.N,HS_I2C1_SCL*%
X82500000Y-96000000D03*
%TD*%
D96*
%TO.P,Q28,1,D_1*%
%TO.N,VDC_OUT*%
X99575152Y-33098941D03*
%TO.P,Q28,2,G_2*%
%TO.N,Net-(Q27-G)*%
X99575152Y-34998941D03*
%TO.P,Q28,3,S_3*%
%TO.N,Net-(Q27-S)*%
X101450152Y-34048941D03*
%TD*%
D25*
%TO.P,C12,1*%
%TO.N,Net-(D5-K)*%
X41300000Y-47250000D03*
%TO.P,C12,2*%
%TO.N,Net-(D4-K)*%
X43200000Y-47250000D03*
%TD*%
D13*
%TO.P,R24,1*%
%TO.N,Net-(D9-K)*%
X87623649Y-103270000D03*
%TO.P,R24,2*%
%TO.N,HS_I2C1_SDA*%
X84698649Y-103270000D03*
%TD*%
D10*
%TO.P,TP12,1,1_1*%
%TO.N,Solar1-*%
X119500000Y-66250000D03*
%TD*%
%TO.P,TP8,1,1_1*%
%TO.N,UNREG*%
X72000000Y-99500000D03*
%TD*%
D97*
%TO.N,Cell 2+*%
X37500000Y-89000000D03*
%TO.N,Solar1-*%
X36250000Y-54500000D03*
X108000000Y-24500000D03*
X97000000Y-109500000D03*
X111000000Y-101750000D03*
X111012652Y-37548941D03*
X43000000Y-90000000D03*
X101500000Y-30972178D03*
X71000000Y-86500000D03*
X40706250Y-88187500D03*
X35931250Y-94237500D03*
X28300508Y-66976494D03*
X117000000Y-105250000D03*
X105750000Y-97500000D03*
X72500000Y-29500000D03*
X79500000Y-81500000D03*
X52500000Y-21500000D03*
X28300508Y-66226494D03*
X108500000Y-31000000D03*
X67500000Y-100866068D03*
X105000000Y-23500000D03*
X92716685Y-86642385D03*
X52500000Y-102430001D03*
X26500000Y-62000000D03*
X26493747Y-61208684D03*
X65788564Y-95753568D03*
X91454249Y-97300001D03*
X79500000Y-97250000D03*
X28300508Y-67726494D03*
X93000000Y-88500000D03*
X77000000Y-48000000D03*
X78500000Y-43000000D03*
X84000000Y-86000000D03*
X91250000Y-106000000D03*
X107500000Y-29500000D03*
X76986000Y-50000000D03*
X94000000Y-96750000D03*
X74000000Y-98500000D03*
X87250000Y-105250000D03*
X34000000Y-61000000D03*
X68000000Y-94250000D03*
X46000000Y-53750000D03*
X35750000Y-100250000D03*
X92966685Y-84392385D03*
X77361900Y-46314000D03*
X102250000Y-94000000D03*
X28500000Y-48500000D03*
X36000000Y-93000000D03*
X45250000Y-52000000D03*
X84000000Y-87000000D03*
X109500000Y-24500000D03*
X49087100Y-46550000D03*
X35750000Y-99250000D03*
X26500000Y-62750000D03*
X88000000Y-82255902D03*
X93500000Y-111000000D03*
X28500000Y-45750000D03*
X40262500Y-98787500D03*
X111500000Y-24500000D03*
X104000000Y-103500000D03*
X88250000Y-108000000D03*
X84981085Y-89381085D03*
X106000000Y-24500000D03*
X41500000Y-52000000D03*
X114000000Y-49500000D03*
X72232313Y-90038897D03*
X101750000Y-96750000D03*
X97704249Y-98050001D03*
X65788564Y-89753568D03*
X40500000Y-100000000D03*
X85200000Y-88000000D03*
X85000000Y-83500000D03*
%TO.N,UNREG*%
X75500000Y-113000000D03*
X100500000Y-116000000D03*
X100000000Y-108750000D03*
X100000000Y-110750000D03*
X69500000Y-113500000D03*
X70500000Y-113500000D03*
X77000000Y-111000000D03*
X69500000Y-111500000D03*
X104000000Y-115000000D03*
X98500000Y-110750000D03*
X69500000Y-112500000D03*
X104000000Y-116000000D03*
X70500000Y-111500000D03*
X75500000Y-112000000D03*
X100500000Y-115000000D03*
X70500000Y-112500000D03*
X77000000Y-114000000D03*
%TO.N,Net-(D18-K)*%
X74000000Y-39500000D03*
X77500000Y-36000000D03*
%TO.N,+3.3V*%
X70500000Y-83250000D03*
X71549265Y-80799265D03*
X97500000Y-31500000D03*
X77750000Y-81000000D03*
%TO.N,HS_I2C1_SCL*%
X80500000Y-96000000D03*
X81815857Y-91933543D03*
X77250097Y-92750000D03*
%TO.N,Net-(U2-INTVCC)*%
X42500000Y-92244098D03*
X47919802Y-96500000D03*
%TO.N,Net-(U2-RT)*%
X39594326Y-95649106D03*
X40693750Y-92000000D03*
%TO.N,3V3 Power Good*%
X57750000Y-86500000D03*
X51000000Y-89000000D03*
%TO.N,/Power/3v3 Feedback*%
X48500000Y-91850000D03*
X45000000Y-90650000D03*
%TO.N,Cell 3-*%
X59000000Y-102000000D03*
X97750000Y-91250000D03*
X112000000Y-91000000D03*
X48000000Y-71000000D03*
X45340463Y-79500000D03*
X54500000Y-105500000D03*
%TO.N,USB PWR*%
X91000000Y-49000000D03*
%TO.N,Net-(Q27-G)*%
X96000000Y-36500000D03*
X95000000Y-31500000D03*
%TO.N,Cell 1+*%
X46000000Y-70000000D03*
X45496374Y-41996374D03*
X52000000Y-49500000D03*
X49500000Y-80500000D03*
X38996374Y-41996374D03*
%TO.N,Solar Power*%
X75500000Y-62000000D03*
X82500000Y-52000000D03*
%TO.N,/Sensors/REGIN*%
X102000000Y-99500000D03*
X96750000Y-104750000D03*
%TO.N,Net-(J21-Pin_1)*%
X115000000Y-95000000D03*
X99250000Y-100250000D03*
%TO.N,HS_I2C1_SDA*%
X86000000Y-92250000D03*
X76625000Y-95625000D03*
X84000000Y-94500000D03*
X73750000Y-92750000D03*
%TO.N,HS_I2C1_LDA*%
X74232314Y-81116068D03*
%TO.N,V_mppt_o*%
X40750000Y-50000000D03*
X60750000Y-30250000D03*
%TO.N,HS_I2C1_LCL*%
X90500000Y-61500000D03*
X76232314Y-81116068D03*
%TO.N,NTC*%
X47825000Y-47550000D03*
X55000000Y-46500000D03*
%TO.N,Cell 2+*%
X55250000Y-94750000D03*
X49750000Y-90750000D03*
%TO.N,Cell 3+*%
X58000000Y-99250000D03*
X55750000Y-102000000D03*
X33890718Y-103000000D03*
X55750000Y-104250000D03*
X37861899Y-103000000D03*
%TO.N,CC2*%
X111500000Y-32500000D03*
X108500000Y-34100000D03*
%TO.N,Net-(C43-Pad1)*%
X33000000Y-103750000D03*
X32750000Y-87250000D03*
%TO.N,CHG'*%
X42212100Y-62175000D03*
X42087100Y-58300000D03*
%TO.N,SHDN'*%
X38500000Y-58500000D03*
%TO.N,Net-(IC1-COUT)*%
X87500000Y-92750000D03*
X93000000Y-92750000D03*
X71117906Y-89404494D03*
%TO.N,Net-(IC1-VC2)*%
X57250000Y-91500000D03*
X60750000Y-90500000D03*
X57250000Y-93500000D03*
X62900000Y-85750000D03*
%TO.N,Net-(Q7-S)*%
X81000000Y-90150000D03*
X95875000Y-89625000D03*
%TO.N,DRAIN*%
X67250000Y-93500000D03*
X75000000Y-102250000D03*
%TO.N,Net-(IC1-DOUT)*%
X68125000Y-91875000D03*
X73950735Y-93799265D03*
%TO.N,CB3*%
X61000000Y-104028218D03*
X62500000Y-98500000D03*
%TO.N,Net-(Q5-D)*%
X90000000Y-99250000D03*
X88500000Y-96250000D03*
%TD*%
%TO.N,Net-(C43-Pad1)*%
D98*
X32500000Y-103250000D02*
X32500000Y-87500000D01*
X32500000Y-87500000D02*
X32750000Y-87250000D01*
X33000000Y-103750000D02*
X32500000Y-103250000D01*
%TO.N,Cell 1+*%
X26500000Y-86500000D02*
X32500000Y-80500000D01*
X32500000Y-80500000D02*
X36982908Y-80500000D01*
X26500000Y-103327500D02*
X26500000Y-86500000D01*
X29200000Y-106027500D02*
X26500000Y-103327500D01*
%TO.N,Net-(U2-RT)*%
D99*
X40693750Y-91150000D02*
X40693750Y-92000000D01*
%TO.N,Net-(U2-EN{slash}UV)*%
D100*
X38587500Y-97887500D02*
X39627500Y-96847500D01*
D99*
X38787500Y-98087500D02*
X38587500Y-97887500D01*
D100*
X38587500Y-97887500D02*
X39112500Y-97362500D01*
X39627500Y-96847500D02*
X40958750Y-96847500D01*
D99*
X41562500Y-102575000D02*
X39525000Y-102575000D01*
X38787500Y-101837500D02*
X38787500Y-98087500D01*
X41193750Y-97862500D02*
X41193750Y-96862500D01*
D100*
X39112500Y-97362500D02*
X40958750Y-97362500D01*
D99*
X39525000Y-102575000D02*
X38787500Y-101837500D01*
%TO.N,Solar1-*%
X91526853Y-86688375D02*
X90730863Y-85892385D01*
X76036900Y-49514000D02*
X76036900Y-48864000D01*
X72232313Y-89057269D02*
X72768514Y-88521068D01*
X42943750Y-100112500D02*
X42943750Y-97912500D01*
D98*
X113045719Y-37340719D02*
X112955000Y-37340719D01*
D99*
X50525000Y-47250000D02*
X49787100Y-47250000D01*
X88000000Y-82255902D02*
X88448108Y-82704010D01*
D101*
X35887500Y-100387500D02*
X35750000Y-100250000D01*
D99*
X97000000Y-110475000D02*
X97000000Y-109500000D01*
D98*
X78700000Y-58800000D02*
X81200000Y-58800000D01*
D99*
X92306096Y-83981796D02*
X91722212Y-83981796D01*
D98*
X106012652Y-24512652D02*
X106000000Y-24500000D01*
D99*
X106219759Y-29902494D02*
X105000000Y-31122253D01*
X86717537Y-87147995D02*
X87636775Y-87147995D01*
D98*
X113870000Y-38320000D02*
X113870000Y-38165000D01*
D99*
X88448108Y-82704010D02*
X89500000Y-82704010D01*
D101*
X43250000Y-52000000D02*
X44000000Y-51250000D01*
D99*
X94000000Y-109537500D02*
X94000000Y-110500000D01*
X40662500Y-99837500D02*
X41012500Y-99837500D01*
X92716685Y-86642385D02*
X92670695Y-86688375D01*
X100980000Y-96750000D02*
X101750000Y-96750000D01*
X91067233Y-84636775D02*
X89811623Y-85892385D01*
X90147995Y-83717537D02*
X89688375Y-83257917D01*
X85846395Y-86688375D02*
X85200000Y-87334770D01*
X91404249Y-97250001D02*
X91454249Y-97300001D01*
X94000000Y-110500000D02*
X93500000Y-111000000D01*
X40262500Y-98787500D02*
X40262500Y-98637500D01*
D101*
X47500000Y-53712500D02*
X46037500Y-53712500D01*
D99*
X97783249Y-98600000D02*
X97783249Y-98129001D01*
X72500000Y-29500000D02*
X72475000Y-29525000D01*
X42443750Y-98912500D02*
X42443750Y-97362500D01*
X91722212Y-83981796D02*
X91067233Y-84636775D01*
X108000000Y-31000000D02*
X107963155Y-30963155D01*
X41012500Y-99837500D02*
X41193750Y-99656250D01*
X43443750Y-100112500D02*
X43443750Y-97862500D01*
X105456900Y-97793100D02*
X105750000Y-97500000D01*
X86500000Y-107750000D02*
X88000000Y-107750000D01*
X41193750Y-98362500D02*
X41818750Y-98362500D01*
X43443750Y-100112500D02*
X41943750Y-100112500D01*
X90607614Y-87607614D02*
X88892385Y-85892385D01*
X40262500Y-98637500D02*
X40537500Y-98362500D01*
X92306096Y-83981796D02*
X92306096Y-84317152D01*
X106219759Y-29902494D02*
X106622253Y-29500000D01*
X88892385Y-85892385D02*
X88096395Y-86688375D01*
X41193750Y-98862500D02*
X42693750Y-97362500D01*
X49787100Y-47250000D02*
X49087100Y-46550000D01*
X42443750Y-100112500D02*
X42443750Y-98912500D01*
X90549999Y-106700001D02*
X90204249Y-106700001D01*
X80517686Y-87000000D02*
X84000000Y-87000000D01*
X80517686Y-87000000D02*
X79982314Y-86464628D01*
X41943750Y-100112500D02*
X41943750Y-97862500D01*
X84000000Y-86000000D02*
X83866068Y-85866068D01*
X42693750Y-97487500D02*
X42693750Y-97112500D01*
D101*
X43818750Y-90000000D02*
X44693750Y-89125000D01*
X37037500Y-54500000D02*
X36250000Y-54500000D01*
D99*
X103500000Y-94850000D02*
X103100000Y-94850000D01*
X92306096Y-84317152D02*
X91526853Y-85096395D01*
D98*
X77900000Y-55500000D02*
X68250000Y-55500000D01*
D99*
X89811623Y-85892385D02*
X88892385Y-85892385D01*
D101*
X36000000Y-93000000D02*
X36762500Y-92237500D01*
X37131250Y-94237500D02*
X35931250Y-94237500D01*
D99*
X40593750Y-98862500D02*
X41193750Y-98862500D01*
D101*
X76261900Y-46264000D02*
X77311900Y-46264000D01*
D99*
X75386900Y-48864000D02*
X76036900Y-48214000D01*
X116969999Y-105219999D02*
X117000000Y-105250000D01*
X105000000Y-23500000D02*
X105000000Y-23211289D01*
X75149400Y-48864000D02*
X75386900Y-48864000D01*
X79982314Y-86464628D02*
X79982314Y-85866068D01*
X103232233Y-31475807D02*
X105000000Y-31475807D01*
X41943750Y-97862500D02*
X42693750Y-97112500D01*
X90730863Y-85892385D02*
X88892385Y-85892385D01*
D101*
X44895260Y-53095400D02*
X44895260Y-54216150D01*
D98*
X82840718Y-67590718D02*
X100834282Y-67590718D01*
D99*
X86000000Y-88500000D02*
X85118915Y-89381085D01*
D98*
X106012652Y-25598941D02*
X111512652Y-25598941D01*
D99*
X41193750Y-99656250D02*
X41193750Y-99362500D01*
X89500000Y-82704010D02*
X89688375Y-82892385D01*
D101*
X65784996Y-89750000D02*
X65788564Y-89753568D01*
X40693750Y-88200000D02*
X40706250Y-88187500D01*
D99*
X85118915Y-89381085D02*
X84981085Y-89381085D01*
X92947261Y-88552739D02*
X93000000Y-88500000D01*
D101*
X36762500Y-92237500D02*
X37181250Y-92237500D01*
D99*
X78164000Y-42664000D02*
X78500000Y-43000000D01*
X76986000Y-50000000D02*
X76500000Y-49514000D01*
X107963155Y-30963155D02*
X107280419Y-30963155D01*
D98*
X109512652Y-25773941D02*
X109512652Y-24512652D01*
D101*
X66534814Y-100866068D02*
X67500000Y-100866068D01*
D99*
X41943750Y-100112500D02*
X40612500Y-100112500D01*
X71000000Y-87500000D02*
X71000000Y-86500000D01*
D98*
X81200000Y-58800000D02*
X77900000Y-55500000D01*
X78700000Y-58800000D02*
X78700000Y-65950000D01*
D99*
X92556096Y-83981796D02*
X92966685Y-84392385D01*
X76036900Y-48214000D02*
X76786000Y-48214000D01*
X106767767Y-31475807D02*
X105000000Y-31475807D01*
X102027822Y-30972178D02*
X102036845Y-30963155D01*
D98*
X113820000Y-29680000D02*
X113000000Y-30500000D01*
D99*
X41193750Y-99362500D02*
X42693750Y-97862500D01*
X43443750Y-97862500D02*
X42693750Y-97112500D01*
X91526853Y-85096395D02*
X89688375Y-85096395D01*
X86540380Y-83494390D02*
X85005610Y-83494390D01*
X87636775Y-87147995D02*
X88892385Y-85892385D01*
D98*
X111512652Y-24512652D02*
X111500000Y-24500000D01*
D99*
X90607614Y-87678322D02*
X91482031Y-88552739D01*
D101*
X34000000Y-59475000D02*
X34000000Y-61000000D01*
D99*
X105000000Y-23211289D02*
X104187652Y-22398941D01*
D98*
X106012652Y-25598941D02*
X106012652Y-24512652D01*
D99*
X86927156Y-87607614D02*
X86034770Y-88500000D01*
D101*
X40693750Y-88962500D02*
X40693750Y-88200000D01*
D99*
X72768514Y-88521068D02*
X72021068Y-88521068D01*
X89688375Y-85096395D02*
X88892385Y-85892385D01*
D101*
X52587500Y-102517501D02*
X52500000Y-102430001D01*
X35750000Y-99250000D02*
X35887500Y-99112500D01*
D99*
X105000000Y-31122253D02*
X105000000Y-31475807D01*
X87177156Y-87607614D02*
X88892385Y-85892385D01*
X86257917Y-86688375D02*
X86717537Y-87147995D01*
X90204249Y-97250001D02*
X91404249Y-97250001D01*
D101*
X46037500Y-53712500D02*
X46000000Y-53750000D01*
X35887500Y-99112500D02*
X35887500Y-97937500D01*
X109939998Y-102810002D02*
X111000000Y-101750000D01*
D98*
X111512652Y-25598941D02*
X111512652Y-24512652D01*
D101*
X28470800Y-44714000D02*
X28470800Y-45720800D01*
D99*
X114000000Y-49500000D02*
X115775000Y-49500000D01*
D101*
X77311900Y-46264000D02*
X77361900Y-46314000D01*
D99*
X72232313Y-90038897D02*
X72232313Y-89057269D01*
X94770000Y-96750000D02*
X94000000Y-96750000D01*
D98*
X113870000Y-29680000D02*
X113820000Y-29680000D01*
X81250000Y-66000000D02*
X82840718Y-67590718D01*
X110962652Y-37498941D02*
X111012652Y-37548941D01*
D99*
X42943750Y-97362500D02*
X42693750Y-97112500D01*
X89688375Y-82892385D02*
X89688375Y-83257917D01*
X41818750Y-98362500D02*
X42693750Y-97487500D01*
X42943750Y-97912500D02*
X42943750Y-97362500D01*
X72475000Y-29525000D02*
X72475000Y-31500000D01*
X88000000Y-107750000D02*
X88250000Y-108000000D01*
X104187652Y-22398941D02*
X103512652Y-22398941D01*
X40500000Y-100000000D02*
X40662500Y-99837500D01*
X105456900Y-98239999D02*
X105456900Y-97793100D01*
X40537500Y-98362500D02*
X41193750Y-98362500D01*
X92306096Y-83981796D02*
X92556096Y-83981796D01*
D101*
X64300000Y-95750000D02*
X65784996Y-95750000D01*
D99*
X83866068Y-85866068D02*
X82232314Y-85866068D01*
D98*
X108012652Y-24512652D02*
X108000000Y-24500000D01*
X100834282Y-67590718D02*
X102400000Y-66025000D01*
D99*
X42693750Y-97862500D02*
X42693750Y-97112500D01*
X87177156Y-87607614D02*
X86927156Y-87607614D01*
X88892385Y-87730863D02*
X88892385Y-85892385D01*
D98*
X78700000Y-65950000D02*
X78750000Y-66000000D01*
D99*
X87177156Y-84177156D02*
X87177156Y-84131166D01*
X86257917Y-86688375D02*
X85846395Y-86688375D01*
X91250000Y-106000000D02*
X90549999Y-106700001D01*
D98*
X109512652Y-24512652D02*
X109500000Y-24500000D01*
D99*
X91482031Y-88552739D02*
X92947261Y-88552739D01*
X97783249Y-98129001D02*
X97704249Y-98050001D01*
X88096395Y-86688375D02*
X86257917Y-86688375D01*
X40518750Y-98787500D02*
X40593750Y-98862500D01*
X104000000Y-103095752D02*
X103625249Y-102721001D01*
X76786000Y-48214000D02*
X77000000Y-48000000D01*
X42443750Y-97362500D02*
X42693750Y-97112500D01*
X86717537Y-87147995D02*
X86636775Y-87147995D01*
X101500000Y-30972178D02*
X102027822Y-30972178D01*
X76500000Y-49514000D02*
X76036900Y-49514000D01*
D101*
X35887500Y-101337500D02*
X35887500Y-100387500D01*
X28470800Y-48529200D02*
X28500000Y-48500000D01*
X28470800Y-49286000D02*
X28470800Y-48529200D01*
D99*
X107280419Y-30963155D02*
X106767767Y-31475807D01*
X76036900Y-49514000D02*
X75799400Y-49514000D01*
D101*
X43250000Y-52000000D02*
X45250000Y-52000000D01*
D99*
X42693750Y-97362500D02*
X42693750Y-97112500D01*
D101*
X65784996Y-95750000D02*
X65788564Y-95753568D01*
D99*
X103100000Y-94850000D02*
X102250000Y-94000000D01*
X75799400Y-49514000D02*
X75149400Y-48864000D01*
X76036900Y-48864000D02*
X76036900Y-48214000D01*
D101*
X109750000Y-102810002D02*
X109939998Y-102810002D01*
D99*
X108500000Y-31000000D02*
X108000000Y-31000000D01*
X85005610Y-83494390D02*
X85000000Y-83500000D01*
D101*
X43000000Y-90000000D02*
X43818750Y-90000000D01*
X53265000Y-21500000D02*
X52500000Y-21500000D01*
D99*
X75149400Y-48864000D02*
X76036900Y-48864000D01*
D98*
X109512652Y-37498941D02*
X110962652Y-37498941D01*
D101*
X28470800Y-45720800D02*
X28500000Y-45750000D01*
X52587500Y-104287500D02*
X52587500Y-102517501D01*
D99*
X76886900Y-42664000D02*
X78164000Y-42664000D01*
X102719581Y-30963155D02*
X103232233Y-31475807D01*
X92670695Y-86688375D02*
X91526853Y-86688375D01*
X40612500Y-100112500D02*
X40500000Y-100000000D01*
D101*
X43799860Y-52000000D02*
X44895260Y-53095400D01*
X43250000Y-52000000D02*
X43799860Y-52000000D01*
D99*
X106622253Y-29500000D02*
X107500000Y-29500000D01*
X90607614Y-87607614D02*
X90607614Y-87678322D01*
X85200000Y-87334770D02*
X85200000Y-88000000D01*
D101*
X64300000Y-89750000D02*
X65784996Y-89750000D01*
D98*
X113870000Y-38165000D02*
X113045719Y-37340719D01*
X108012652Y-25773941D02*
X108012652Y-24512652D01*
D99*
X103625249Y-102721001D02*
X103625249Y-102500002D01*
X40262500Y-98787500D02*
X40518750Y-98787500D01*
D98*
X81200000Y-65950000D02*
X81250000Y-66000000D01*
D99*
X86034770Y-88500000D02*
X86000000Y-88500000D01*
D101*
X43250000Y-52000000D02*
X41500000Y-52000000D01*
X52637500Y-104337500D02*
X52587500Y-104287500D01*
D99*
X115253800Y-105219999D02*
X116969999Y-105219999D01*
X102036845Y-30963155D02*
X102719581Y-30963155D01*
X104000000Y-103500000D02*
X104000000Y-103095752D01*
X115775000Y-49500000D02*
X116150000Y-49875000D01*
D98*
X81200000Y-58800000D02*
X81200000Y-65950000D01*
D99*
X87177156Y-84131166D02*
X86540380Y-83494390D01*
X72021068Y-88521068D02*
X71000000Y-87500000D01*
X91526853Y-85202553D02*
X91526853Y-85096395D01*
X89688375Y-88526853D02*
X88892385Y-87730863D01*
%TO.N,UNREG*%
D98*
X98500000Y-110589399D02*
X99256900Y-109832499D01*
D100*
X47412500Y-104137500D02*
X49487500Y-104137500D01*
D98*
X100000000Y-109089399D02*
X99256900Y-109832499D01*
X98500000Y-110750000D02*
X98500000Y-110589399D01*
D99*
X99256900Y-109832499D02*
X99256900Y-109993100D01*
X99256900Y-109832499D02*
X99256900Y-110006900D01*
D98*
X100000000Y-110750000D02*
X100000000Y-110575599D01*
D100*
X49487500Y-104137500D02*
X49637500Y-104287500D01*
X48482314Y-109000000D02*
X48482314Y-105207314D01*
D99*
X99256900Y-109832499D02*
X99256900Y-109493100D01*
D100*
X48482314Y-105207314D02*
X47412500Y-104137500D01*
D98*
X100000000Y-110575599D02*
X99256900Y-109832499D01*
X100000000Y-108750000D02*
X100000000Y-109089399D01*
%TO.N,Net-(L5-Pad2)*%
D101*
X41562500Y-105500000D02*
X43250000Y-105500000D01*
X43250000Y-105500000D02*
X44612500Y-104137500D01*
%TO.N,/Sensors/Serial Data*%
D99*
X96216750Y-102500000D02*
X95416749Y-103300001D01*
X97783249Y-102500000D02*
X96216750Y-102500000D01*
%TO.N,Net-(D9-K)*%
X87666749Y-103300001D02*
X90104249Y-103300001D01*
X90204249Y-103400001D02*
X92391749Y-103400001D01*
X90104249Y-103300001D02*
X90204249Y-103400001D01*
X92391749Y-103400001D02*
X92491749Y-103300001D01*
%TO.N,Net-(Q1-G)*%
X102250000Y-110750000D02*
X101250000Y-109750000D01*
X103750000Y-113037500D02*
X102250000Y-113037500D01*
X102250000Y-113037500D02*
X102250000Y-110750000D01*
X104537500Y-112250000D02*
X103750000Y-113037500D01*
%TO.N,/Sensors/Voltage Divider Enable*%
X107462500Y-112250000D02*
X107462500Y-108001800D01*
X107462500Y-108001800D02*
X106960700Y-107500000D01*
%TO.N,VDDD*%
X108012652Y-27323941D02*
X107387652Y-26698941D01*
X104275152Y-26698941D02*
X103512652Y-27461441D01*
X100012652Y-26223941D02*
X102275152Y-26223941D01*
X105866206Y-29470387D02*
X108012652Y-27323941D01*
X107387652Y-26698941D02*
X104275152Y-26698941D01*
X105866206Y-29548941D02*
X105866206Y-29470387D01*
X108012652Y-27323941D02*
X111337652Y-27323941D01*
X102275152Y-26223941D02*
X103512652Y-27461441D01*
X111337652Y-27323941D02*
X111512652Y-27498941D01*
%TO.N,Net-(U11-VBUS_MAX)*%
X104487348Y-29195388D02*
X104133794Y-29548941D01*
X100012652Y-27873941D02*
X102458794Y-27873941D01*
X102458794Y-27873941D02*
X104133794Y-29548941D01*
%TO.N,Net-(D18-K)*%
D102*
X73449400Y-47176500D02*
X73449400Y-49500000D01*
X81000000Y-40000000D02*
X81500000Y-40500000D01*
X82000000Y-36500000D02*
X78000000Y-36500000D01*
X73964000Y-45964000D02*
X74000000Y-46000000D01*
X73936900Y-40063100D02*
X74000000Y-40000000D01*
X73936900Y-42664000D02*
X73936900Y-46436900D01*
X73936900Y-42664000D02*
X73936900Y-40063100D01*
X69361900Y-45964000D02*
X73964000Y-45964000D01*
X78000000Y-36500000D02*
X77500000Y-36000000D01*
X74000000Y-40000000D02*
X81000000Y-40000000D01*
X74361900Y-46264000D02*
X73449400Y-47176500D01*
X82000000Y-41000000D02*
X82000000Y-45000000D01*
X82000000Y-45000000D02*
X82000000Y-49000000D01*
%TO.N,/Sensors/Voltage Divider*%
D99*
X94287500Y-112537500D02*
X94250000Y-112500000D01*
X97775000Y-109725000D02*
X97775000Y-111225000D01*
X96500000Y-112750000D02*
X93000000Y-112750000D01*
X97000000Y-112250000D02*
X96500000Y-112750000D01*
X97000000Y-112025000D02*
X97000000Y-112250000D01*
X94287500Y-115000000D02*
X94287500Y-112537500D01*
X99300000Y-108200000D02*
X97775000Y-109725000D01*
X102760848Y-100550001D02*
X99300000Y-104010849D01*
X97775000Y-111225000D02*
X97000000Y-112000000D01*
X103625249Y-100550001D02*
X102760848Y-100550001D01*
X99300000Y-104010849D02*
X99300000Y-108200000D01*
%TO.N,+3.3V*%
D98*
X78057314Y-81307314D02*
X77750000Y-81000000D01*
D99*
X91627274Y-83302974D02*
X89824300Y-81500000D01*
X89824300Y-81500000D02*
X84948382Y-81500000D01*
X82500000Y-90750000D02*
X78750000Y-90750000D01*
D98*
X52443750Y-91237500D02*
X52627177Y-91237500D01*
D99*
X91481796Y-83302974D02*
X90607614Y-84177156D01*
D98*
X71383932Y-82366068D02*
X70500000Y-83250000D01*
D99*
X49293750Y-94862500D02*
X48293750Y-95862500D01*
D98*
X54500000Y-63500000D02*
X61500000Y-70500000D01*
X40000000Y-63500000D02*
X54500000Y-63500000D01*
X79982314Y-84216068D02*
X79907314Y-84216068D01*
X78057314Y-82366068D02*
X78057314Y-81307314D01*
D99*
X91627274Y-83302974D02*
X91481796Y-83302974D01*
D98*
X72319814Y-81569814D02*
X71613411Y-80863411D01*
X48943750Y-84031250D02*
X48943750Y-87153568D01*
X52627177Y-91237500D02*
X53669468Y-92279791D01*
X70091596Y-89637850D02*
X70091596Y-83658404D01*
X52500000Y-91250000D02*
X52487500Y-91237500D01*
X38500000Y-59750000D02*
X38250000Y-60000000D01*
X59200000Y-89750000D02*
X59200000Y-95750000D01*
X48943750Y-84031250D02*
X61500000Y-71475000D01*
X52443750Y-91237500D02*
X52443750Y-88193750D01*
X70091596Y-83658404D02*
X70500000Y-83250000D01*
D101*
X77866114Y-84541068D02*
X77696114Y-84711068D01*
D98*
X53669468Y-92279791D02*
X53669468Y-93295209D01*
X51500000Y-87250000D02*
X48000000Y-87250000D01*
X53669468Y-93295209D02*
X51964677Y-95000000D01*
X38624400Y-59878650D02*
X46371350Y-59878650D01*
X38250000Y-60000000D02*
X38250000Y-61750000D01*
X52443750Y-88193750D02*
X51500000Y-87250000D01*
X57000000Y-100383754D02*
X57000000Y-97950000D01*
X61500000Y-70500000D02*
X61500000Y-71475000D01*
X52487500Y-91237500D02*
X52443750Y-91237500D01*
X79907314Y-84216068D02*
X78057314Y-82366068D01*
X51964677Y-95000000D02*
X48250000Y-95000000D01*
X98675000Y-31500000D02*
X97500000Y-31500000D01*
X57732314Y-101116068D02*
X57000000Y-100383754D01*
D99*
X82266246Y-84250000D02*
X83500000Y-84250000D01*
D98*
X60519814Y-100866068D02*
X57982314Y-100866068D01*
X54000000Y-89750000D02*
X52500000Y-91250000D01*
D99*
X82232314Y-84216068D02*
X82266246Y-84250000D01*
X84948382Y-81500000D02*
X82232314Y-84216068D01*
D98*
X38250000Y-61750000D02*
X40000000Y-63500000D01*
D99*
X44193750Y-95862500D02*
X48293750Y-95862500D01*
D98*
X57000000Y-97950000D02*
X59200000Y-95750000D01*
D99*
X84600000Y-85350000D02*
X84600000Y-88650000D01*
D98*
X72319814Y-82366068D02*
X72319814Y-81569814D01*
D101*
X82232314Y-84541068D02*
X77866114Y-84541068D01*
D98*
X46371350Y-59878650D02*
X46500000Y-59750000D01*
X59200000Y-89750000D02*
X54000000Y-89750000D01*
D99*
X83500000Y-84250000D02*
X84600000Y-85350000D01*
D98*
X71319814Y-90866068D02*
X70091596Y-89637850D01*
X72319814Y-82366068D02*
X71383932Y-82366068D01*
D99*
X84600000Y-88650000D02*
X82500000Y-90750000D01*
D98*
X57982314Y-100866068D02*
X57732314Y-101116068D01*
%TO.N,HS_I2C1_SCL*%
D99*
X77250000Y-92749903D02*
X77250000Y-91000000D01*
X87636775Y-88337827D02*
X83974602Y-92000000D01*
X76405514Y-90451768D02*
X76405514Y-87942868D01*
X84741749Y-100300001D02*
X80500000Y-96058252D01*
X77250097Y-92750000D02*
X77250000Y-92749903D01*
X77069814Y-91116068D02*
X76405514Y-90451768D01*
X76405514Y-87942868D02*
X77097314Y-87251068D01*
X83974602Y-92000000D02*
X81750000Y-92000000D01*
X80500000Y-96058252D02*
X80500000Y-96000000D01*
X87636775Y-88067233D02*
X87636775Y-88337827D01*
X77097314Y-87251068D02*
X77696114Y-87251068D01*
%TO.N,Net-(U2-INTVCC)*%
X47682302Y-96262500D02*
X47919802Y-96500000D01*
X45327616Y-96362500D02*
X44193750Y-96362500D01*
X45427616Y-96262500D02*
X47682302Y-96262500D01*
X40581250Y-93737500D02*
X39081250Y-92237500D01*
X41193750Y-93737500D02*
X40581250Y-93737500D01*
X45427616Y-96262500D02*
X45327616Y-96362500D01*
X42500000Y-92500000D02*
X42500000Y-92244098D01*
X41493750Y-93437500D02*
X41562500Y-93437500D01*
X41562500Y-93437500D02*
X42500000Y-92500000D01*
X41193750Y-93737500D02*
X41493750Y-93437500D01*
X41193750Y-94862500D02*
X41193750Y-93737500D01*
%TO.N,Net-(U2-TR{slash}SS)*%
X39031250Y-94237500D02*
X40156250Y-95362500D01*
X40156250Y-95362500D02*
X41193750Y-95362500D01*
%TO.N,Net-(U2-RT)*%
X41193750Y-95862500D02*
X39807720Y-95862500D01*
X39807720Y-95862500D02*
X39594326Y-95649106D01*
%TO.N,/Power/3v3 SW*%
X44193750Y-99362500D02*
X44193750Y-97362500D01*
D101*
X49113750Y-97842500D02*
X49293750Y-97662500D01*
D99*
X44193750Y-99362500D02*
X44273750Y-99362500D01*
%TO.N,Net-(U2-BST)*%
X44193750Y-96862500D02*
X45763750Y-96862500D01*
%TO.N,3V3 Power Good*%
X84098382Y-79750000D02*
X86232314Y-77616068D01*
X69250000Y-82250000D02*
X71750000Y-79750000D01*
X57750000Y-86500000D02*
X57750000Y-86000000D01*
X46968750Y-93212500D02*
X46968750Y-92058960D01*
X50027710Y-89000000D02*
X51000000Y-89000000D01*
X61500000Y-82250000D02*
X69250000Y-82250000D01*
X46968750Y-92058960D02*
X50027710Y-89000000D01*
X44818750Y-95362500D02*
X46968750Y-93212500D01*
X71750000Y-79750000D02*
X84098382Y-79750000D01*
X57750000Y-86000000D02*
X61500000Y-82250000D01*
X44193750Y-95362500D02*
X44818750Y-95362500D01*
%TO.N,/Power/3v3 Feedback*%
D100*
X49234818Y-92787500D02*
X48943750Y-93078568D01*
X48943750Y-92293750D02*
X48500000Y-91850000D01*
D98*
X44693750Y-92050000D02*
X44693750Y-90956250D01*
X44693750Y-90956250D02*
X45000000Y-90650000D01*
D100*
X52443750Y-92787500D02*
X49234818Y-92787500D01*
X48943750Y-93078568D02*
X48943750Y-92293750D01*
D99*
X44193750Y-94862500D02*
X44193750Y-92550000D01*
%TO.N,Net-(U4-SRP)*%
X96500000Y-98903352D02*
X96500000Y-97520000D01*
X97270000Y-96750000D02*
X95730000Y-96750000D01*
X97783249Y-99250001D02*
X96846649Y-99250001D01*
X96846649Y-99250001D02*
X96500000Y-98903352D01*
X97270000Y-95482500D02*
X97270000Y-96750000D01*
X96250000Y-94462500D02*
X97270000Y-95482500D01*
X96500000Y-97520000D02*
X97270000Y-96750000D01*
%TO.N,Cell 3-*%
X59000000Y-102000000D02*
X57500000Y-103500000D01*
D98*
X46500000Y-78340463D02*
X46500000Y-72500000D01*
D99*
X57500000Y-103500000D02*
X57500000Y-105000000D01*
X57500000Y-105000000D02*
X57000000Y-105500000D01*
D98*
X49500000Y-110500000D02*
X54500000Y-105500000D01*
X31518563Y-104656524D02*
X35913107Y-109051068D01*
X29200000Y-91000000D02*
X31518563Y-93318563D01*
X45340463Y-79500000D02*
X46500000Y-78340463D01*
X46500000Y-72500000D02*
X48000000Y-71000000D01*
X37773176Y-110500000D02*
X49500000Y-110500000D01*
X35913107Y-109051068D02*
X36324244Y-109051068D01*
X111780001Y-91219999D02*
X112000000Y-91000000D01*
D99*
X57000000Y-105500000D02*
X54500000Y-105500000D01*
X97750000Y-91250000D02*
X96250000Y-91250000D01*
D98*
X36324244Y-109051068D02*
X37773176Y-110500000D01*
X31518563Y-93318563D02*
X31518563Y-104656524D01*
X110419400Y-91219999D02*
X111780001Y-91219999D01*
%TO.N,USB PWR*%
X86000000Y-49000000D02*
X91000000Y-49000000D01*
%TO.N,Net-(J1-Pin_1)*%
D99*
X91669238Y-87750000D02*
X93750000Y-87750000D01*
X93750000Y-87750000D02*
X108500000Y-73000000D01*
X108500000Y-73000000D02*
X114500000Y-73000000D01*
X91067233Y-87147995D02*
X91669238Y-87750000D01*
X114500000Y-73000000D02*
X116500000Y-75000000D01*
%TO.N,Net-(J1-Pin_2)*%
X111500000Y-79000000D02*
X111500000Y-75000000D01*
X91233502Y-89152739D02*
X93847261Y-89152739D01*
X100250000Y-82750000D02*
X107750000Y-82750000D01*
X93847261Y-89152739D02*
X100250000Y-82750000D01*
X90147995Y-88067233D02*
X91233502Y-89152739D01*
X107750000Y-82750000D02*
X111500000Y-79000000D01*
%TO.N,Net-(Q27-S)*%
D98*
X97512652Y-33723941D02*
X97778371Y-33989660D01*
X103012652Y-35048941D02*
X103012652Y-37986441D01*
X102396562Y-34432851D02*
X103012652Y-35048941D01*
X101450152Y-34048941D02*
X101834062Y-34432851D01*
X97778371Y-33989660D02*
X101390871Y-33989660D01*
X101834062Y-34432851D02*
X102396562Y-34432851D01*
X101390871Y-33989660D02*
X101450152Y-34048941D01*
%TO.N,Net-(Q27-G)*%
X97137652Y-34998941D02*
X97512652Y-35373941D01*
X98687652Y-29548941D02*
X96951059Y-29548941D01*
X105512652Y-37461441D02*
X107475152Y-37461441D01*
X97512652Y-35373941D02*
X97126059Y-35373941D01*
X99200152Y-35373941D02*
X99575152Y-34998941D01*
X97126059Y-35373941D02*
X96000000Y-36500000D01*
X99575152Y-34998941D02*
X100962652Y-34998941D01*
X105512652Y-37461441D02*
X103659433Y-39314660D01*
X97512652Y-35373941D02*
X99200152Y-35373941D01*
X102031215Y-38794196D02*
X102031215Y-36111441D01*
X103659433Y-39314660D02*
X102551679Y-39314660D01*
X95012652Y-34998941D02*
X97137652Y-34998941D01*
X100962652Y-34998941D02*
X102012652Y-36048941D01*
X96951059Y-29548941D02*
X95000000Y-31500000D01*
X107475152Y-37461441D02*
X107512652Y-37498941D01*
X102551679Y-39314660D02*
X102031215Y-38794196D01*
%TO.N,Net-(U11-ISNK_COARSE)*%
D99*
X100750300Y-30323941D02*
X99925004Y-30323941D01*
X99500000Y-25000000D02*
X102876211Y-25000000D01*
X100757653Y-30316588D02*
X100750300Y-30323941D01*
X99637652Y-30036589D02*
X99637652Y-29061293D01*
X99000000Y-28423641D02*
X99000000Y-25500000D01*
X99000000Y-25500000D02*
X99500000Y-25000000D01*
X103073134Y-30609601D02*
X102780121Y-30316588D01*
X103512652Y-25636441D02*
X103512652Y-24048941D01*
X102876211Y-25000000D02*
X103512652Y-25636441D01*
X99925004Y-30323941D02*
X99637652Y-30036589D01*
X102780121Y-30316588D02*
X100757653Y-30316588D01*
X99637652Y-29061293D02*
X99000000Y-28423641D01*
%TO.N,Cell 1+*%
D100*
X49774281Y-22274281D02*
X36225719Y-22274281D01*
D101*
X53475000Y-47250000D02*
X53475000Y-47512500D01*
D100*
X31500000Y-27000000D02*
X31500000Y-33000000D01*
D98*
X53325000Y-49500000D02*
X53500000Y-49675000D01*
D100*
X54975000Y-28050000D02*
X53750000Y-29275000D01*
X53750000Y-34750000D02*
X56000000Y-37000000D01*
D99*
X43575120Y-48950310D02*
X48525430Y-44000000D01*
D100*
X53892233Y-23500000D02*
X51000000Y-23500000D01*
D101*
X57337100Y-27050000D02*
X56337100Y-26050000D01*
D98*
X45000000Y-71000000D02*
X45000000Y-72482908D01*
D100*
X31500000Y-33000000D02*
X30000000Y-34500000D01*
D98*
X53500000Y-49675000D02*
X53500000Y-47275000D01*
D101*
X46500000Y-39092000D02*
X50842000Y-34750000D01*
D100*
X56500000Y-25962500D02*
X56354733Y-25962500D01*
D99*
X48525430Y-44000000D02*
X53500000Y-44000000D01*
D100*
X30000000Y-34500000D02*
X28750000Y-34500000D01*
D98*
X36982908Y-80500000D02*
X49500000Y-80500000D01*
D100*
X36225719Y-22274281D02*
X31500000Y-27000000D01*
D101*
X53750000Y-44212500D02*
X57750000Y-40212500D01*
D100*
X51000000Y-23500000D02*
X49774281Y-22274281D01*
D98*
X52000000Y-49500000D02*
X53325000Y-49500000D01*
D101*
X57750000Y-38750000D02*
X56000000Y-37000000D01*
X53475000Y-44487500D02*
X53750000Y-44212500D01*
X46500000Y-40992748D02*
X45496374Y-41996374D01*
D98*
X53500000Y-47275000D02*
X53475000Y-47250000D01*
D101*
X57337100Y-29050000D02*
X57337100Y-27050000D01*
D98*
X46000000Y-70000000D02*
X45000000Y-71000000D01*
D100*
X56500000Y-25962500D02*
X56500000Y-27137100D01*
D101*
X46500000Y-40992748D02*
X46500000Y-39092000D01*
X53475000Y-47250000D02*
X53475000Y-44487500D01*
D100*
X55587100Y-28050000D02*
X54975000Y-28050000D01*
X56354733Y-25962500D02*
X53892233Y-23500000D01*
X53750000Y-29275000D02*
X53750000Y-34750000D01*
D99*
X43575120Y-49783850D02*
X43575120Y-48950310D01*
D101*
X50842000Y-34750000D02*
X53750000Y-34750000D01*
X57750000Y-40212500D02*
X57750000Y-38750000D01*
D98*
X38996374Y-41996374D02*
X36500000Y-39500000D01*
D100*
X56500000Y-27137100D02*
X55587100Y-28050000D01*
D98*
X45000000Y-72482908D02*
X36982908Y-80500000D01*
%TO.N,Net-(D3-A)*%
X37337100Y-26312900D02*
X37337100Y-25162900D01*
X37337100Y-25162900D02*
X38500000Y-24000000D01*
X36500000Y-27150000D02*
X37337100Y-26312900D01*
X50779200Y-30536000D02*
X50779200Y-25964000D01*
X38500000Y-24000000D02*
X48815200Y-24000000D01*
X48815200Y-24000000D02*
X50779200Y-25964000D01*
%TO.N,Net-(D6-A)*%
D101*
X54235000Y-21500000D02*
X55485000Y-22750000D01*
X55485000Y-22750000D02*
X56212500Y-22750000D01*
X56212500Y-22750000D02*
X56500000Y-23037500D01*
%TO.N,Solar Power*%
D100*
X88700000Y-56800000D02*
X89500000Y-56000000D01*
D99*
X86200000Y-53700000D02*
X86200000Y-56750000D01*
X86200000Y-56750000D02*
X86200000Y-58800000D01*
D100*
X112400000Y-58875000D02*
X112500000Y-58775000D01*
D99*
X75425000Y-61925000D02*
X75500000Y-62000000D01*
D100*
X107232950Y-56000000D02*
X110000000Y-58767050D01*
X86250000Y-58850000D02*
X86200000Y-58800000D01*
X109900000Y-66025000D02*
X109900000Y-58875000D01*
X89500000Y-56000000D02*
X101000000Y-56000000D01*
D98*
X90000000Y-45000000D02*
X101000000Y-56000000D01*
D99*
X84500000Y-52000000D02*
X86200000Y-53700000D01*
X86200000Y-56750000D02*
X86650000Y-56750000D01*
D100*
X88750000Y-66025000D02*
X88750000Y-58850000D01*
D99*
X68350000Y-61925000D02*
X75425000Y-61925000D01*
D100*
X112500000Y-58775000D02*
X110000000Y-58775000D01*
X86200000Y-58800000D02*
X88700000Y-58800000D01*
X86250000Y-66025000D02*
X86250000Y-58850000D01*
D99*
X86650000Y-56750000D02*
X88700000Y-58800000D01*
D100*
X109900000Y-58875000D02*
X110000000Y-58775000D01*
X88700000Y-58800000D02*
X88700000Y-56800000D01*
X101000000Y-56000000D02*
X107232950Y-56000000D01*
X112400000Y-66025000D02*
X112400000Y-58875000D01*
D99*
X82500000Y-52000000D02*
X84500000Y-52000000D01*
D98*
X86000000Y-45000000D02*
X90000000Y-45000000D01*
D100*
X88750000Y-58850000D02*
X88700000Y-58800000D01*
X110000000Y-58767050D02*
X110000000Y-58775000D01*
%TO.N,Net-(Q3-G)*%
D99*
X115250000Y-109474300D02*
X115250000Y-110000000D01*
X108625498Y-104000000D02*
X109775700Y-104000000D01*
X103625249Y-101850001D02*
X106475499Y-101850001D01*
X109775700Y-104000000D02*
X115250000Y-109474300D01*
X106475499Y-101850001D02*
X108625498Y-104000000D01*
%TO.N,Net-(Q4-G)*%
X103625249Y-101200000D02*
X106550000Y-101200000D01*
X106550000Y-101200000D02*
X109500000Y-98250000D01*
%TO.N,/Sensors/REGIN*%
X102250000Y-99500000D02*
X102650002Y-99900002D01*
X102750000Y-99500000D02*
X102999999Y-99250001D01*
X102999999Y-99250001D02*
X103625249Y-99250001D01*
X102650002Y-99900002D02*
X103625249Y-99900002D01*
X102000000Y-99500000D02*
X102250000Y-99500000D01*
X74250000Y-108250000D02*
X74250000Y-110250000D01*
X76000000Y-106500000D02*
X74250000Y-108250000D01*
X103625249Y-99250001D02*
X106750000Y-99250000D01*
X88250000Y-106500000D02*
X76000000Y-106500000D01*
X96750000Y-104750000D02*
X90000000Y-104750000D01*
X102000000Y-99500000D02*
X102750000Y-99500000D01*
X90000000Y-104750000D02*
X88250000Y-106500000D01*
%TO.N,REG25*%
X103625249Y-98600002D02*
X103644517Y-98600002D01*
X107394520Y-94849999D02*
X104674247Y-97570272D01*
X112723529Y-92625000D02*
X110498530Y-94849999D01*
X110498530Y-94849999D02*
X107394520Y-94849999D01*
X115900000Y-92625000D02*
X112723529Y-92625000D01*
X103644517Y-98600002D02*
X104674247Y-97570272D01*
X103500000Y-96750000D02*
X103853975Y-96750000D01*
X103625249Y-98600002D02*
X103625249Y-96875249D01*
X103625249Y-96875249D02*
X103500000Y-96750000D01*
%TO.N,Net-(U4-SRN)*%
X100020000Y-96750000D02*
X98230000Y-96750000D01*
X99000000Y-99547650D02*
X99000000Y-97000000D01*
X99000000Y-97000000D02*
X98750000Y-96750000D01*
X98750000Y-96750000D02*
X98230000Y-96750000D01*
X98647650Y-99900000D02*
X99000000Y-99547650D01*
X99250000Y-94462500D02*
X98230000Y-95482500D01*
X98230000Y-95482500D02*
X98230000Y-96750000D01*
X97783249Y-99900000D02*
X98647650Y-99900000D01*
%TO.N,Net-(J21-Pin_1)*%
X98650992Y-100500000D02*
X97750000Y-100500000D01*
X115900000Y-94100000D02*
X115000000Y-95000000D01*
X115900000Y-93875000D02*
X115900000Y-94100000D01*
X99250000Y-100250000D02*
X98900992Y-100250000D01*
X98900992Y-100250000D02*
X98650992Y-100500000D01*
%TO.N,/Sensors/Serial Clock*%
X95416749Y-100550001D02*
X95416749Y-101012501D01*
X96254249Y-101850001D02*
X97783249Y-101850001D01*
X95416749Y-101012501D02*
X96254249Y-101850001D01*
%TO.N,HS_I2C1_SDA*%
X88096395Y-90153605D02*
X88096395Y-88526853D01*
X73144814Y-90866068D02*
X73144814Y-92144814D01*
X76625000Y-95625000D02*
X83500000Y-102500000D01*
X73482314Y-90866068D02*
X74059114Y-90289268D01*
X73144814Y-92144814D02*
X73750000Y-92750000D01*
X74059114Y-87830468D02*
X73479714Y-87251068D01*
X83500000Y-102500000D02*
X84750000Y-102500000D01*
X78500000Y-94500000D02*
X77000000Y-96000000D01*
X73144814Y-90866068D02*
X73482314Y-90866068D01*
X73479714Y-87251068D02*
X72768514Y-87251068D01*
X74059114Y-90289268D02*
X74059114Y-87830468D01*
X84000000Y-94500000D02*
X78500000Y-94500000D01*
X86000000Y-92250000D02*
X88096395Y-90153605D01*
%TO.N,VBUS*%
X111550000Y-31550000D02*
X111111541Y-31988459D01*
X113980000Y-35982410D02*
X113980000Y-32017590D01*
X111111541Y-31988459D02*
X107280419Y-31988459D01*
X113512410Y-36450000D02*
X113980000Y-35982410D01*
X103962652Y-36111441D02*
X104475152Y-35598941D01*
X112955000Y-36450000D02*
X113512410Y-36450000D01*
X109512652Y-35598941D02*
X110363711Y-36450000D01*
X112955000Y-31550000D02*
X111550000Y-31550000D01*
X104475152Y-35598941D02*
X109512652Y-35598941D01*
X113980000Y-32017590D02*
X113462410Y-31500000D01*
X110363711Y-36450000D02*
X112955000Y-36450000D01*
%TO.N,HS_I2C1_LDA*%
X73479714Y-85981068D02*
X72768514Y-85981068D01*
X74232314Y-82028568D02*
X74144814Y-82116068D01*
X73482314Y-77366068D02*
X73732314Y-77616068D01*
X74144814Y-85315968D02*
X73479714Y-85981068D01*
X69232314Y-77366068D02*
X73482314Y-77366068D01*
X74144814Y-82116068D02*
X74144814Y-85315968D01*
X74232314Y-81116068D02*
X74232314Y-82028568D01*
%TO.N,Net-(D15-K)*%
X92491749Y-100550001D02*
X90204249Y-100550001D01*
X87666749Y-100300001D02*
X89954249Y-100300001D01*
X89954249Y-100300001D02*
X90204249Y-100550001D01*
%TO.N,V_mppt_o*%
D101*
X34000000Y-56525000D02*
X34000000Y-53250000D01*
D98*
X40750000Y-50097500D02*
X39347500Y-51500000D01*
X40750000Y-50000000D02*
X40750000Y-50097500D01*
D99*
X39347500Y-51500000D02*
X39347500Y-51402500D01*
X39347500Y-51500000D02*
X39750000Y-51500000D01*
X41624400Y-53374400D02*
X41624400Y-54216150D01*
X38597500Y-50750000D02*
X39347500Y-51500000D01*
X39750000Y-51500000D02*
X41624400Y-53374400D01*
D98*
X60250000Y-34975000D02*
X60250000Y-30750000D01*
D99*
X35500000Y-51750000D02*
X36500000Y-50750000D01*
D101*
X34000000Y-53250000D02*
X35500000Y-51750000D01*
D99*
X36500000Y-50750000D02*
X38597500Y-50750000D01*
D98*
X60250000Y-30750000D02*
X60750000Y-30250000D01*
%TO.N,V_mppt_i*%
X66225000Y-31500000D02*
X69525000Y-31500000D01*
X69611900Y-33539000D02*
X69611900Y-31586900D01*
X69611900Y-31586900D02*
X69525000Y-31500000D01*
X62750000Y-34975000D02*
X66225000Y-31500000D01*
%TO.N,TEST_PWR*%
D102*
X84500000Y-35000000D02*
X86000000Y-36500000D01*
X84500000Y-28500000D02*
X84500000Y-35000000D01*
%TO.N,HS_I2C1_LCL*%
D99*
X90500000Y-61500000D02*
X99900000Y-61500000D01*
X76232314Y-66042686D02*
X76250000Y-66025000D01*
X76232314Y-85117268D02*
X77096114Y-85981068D01*
X73732314Y-75116068D02*
X76232314Y-77616068D01*
X99900000Y-66025000D02*
X99900000Y-61500000D01*
X69232314Y-75116068D02*
X73732314Y-75116068D01*
X77096114Y-85981068D02*
X77696114Y-85981068D01*
X76250000Y-66025000D02*
X76250000Y-61750000D01*
X99900000Y-61500000D02*
X99900000Y-58875000D01*
X76250000Y-58850000D02*
X76200000Y-58800000D01*
X76200000Y-61700000D02*
X76200000Y-58800000D01*
X99900000Y-58875000D02*
X100000000Y-58775000D01*
D101*
X77696114Y-85981068D02*
X76788114Y-85981068D01*
D99*
X76232314Y-81116068D02*
X76232314Y-85117268D01*
X76250000Y-61750000D02*
X76200000Y-61700000D01*
%TO.N,Net-(U3-VIN_REG)*%
X42274640Y-55082900D02*
X42274640Y-54216150D01*
D101*
X38152500Y-51500000D02*
X38152500Y-52690000D01*
D99*
X39962500Y-54500000D02*
X40645400Y-55182900D01*
D101*
X38152500Y-52690000D02*
X39962500Y-54500000D01*
D99*
X42174640Y-55182900D02*
X42274640Y-55082900D01*
X40645400Y-55182900D02*
X42174640Y-55182900D01*
%TO.N,Net-(U3-SENSE)*%
X42924880Y-48825120D02*
X42924880Y-49783850D01*
X50150000Y-39500000D02*
X49758806Y-39891194D01*
X44000000Y-47568550D02*
X44000000Y-47959744D01*
X43475000Y-48275000D02*
X42924880Y-48825120D01*
X44000000Y-47959744D02*
X43684744Y-48275000D01*
X49758806Y-39891194D02*
X49758806Y-41809744D01*
X49758806Y-41809744D02*
X44000000Y-47568550D01*
D101*
X53750000Y-38287500D02*
X51362500Y-38287500D01*
D99*
X43684744Y-48275000D02*
X43475000Y-48275000D01*
D101*
X51362500Y-38287500D02*
X50150000Y-39500000D01*
%TO.N,NTC*%
D99*
X84000000Y-42000000D02*
X85500000Y-43500000D01*
X85500000Y-43500000D02*
X104750000Y-43500000D01*
X83029000Y-38529000D02*
X84000000Y-39500000D01*
X112375000Y-51125000D02*
X104750000Y-43500000D01*
X62005744Y-38529000D02*
X83029000Y-38529000D01*
X84000000Y-39500000D02*
X84000000Y-42000000D01*
X116150000Y-51125000D02*
X112375000Y-51125000D01*
D101*
X47825000Y-47550000D02*
X47825000Y-49000000D01*
D99*
X55034744Y-46465256D02*
X55034744Y-45500000D01*
X55000000Y-46500000D02*
X55034744Y-46465256D01*
X55034744Y-45500000D02*
X62005744Y-38529000D01*
%TO.N,Cell 3+*%
X93248529Y-93350000D02*
X92751471Y-93350000D01*
X33928218Y-103037500D02*
X37824399Y-103037500D01*
X92751471Y-93350000D02*
X92601471Y-93500000D01*
X87251471Y-93350000D02*
X87151471Y-93250000D01*
X77498626Y-93350000D02*
X77400000Y-93350000D01*
X33890718Y-103000000D02*
X33928218Y-103037500D01*
X92601471Y-93500000D02*
X87898529Y-93500000D01*
X37824399Y-103037500D02*
X37861899Y-103000000D01*
X77400000Y-93350000D02*
X73000000Y-97750000D01*
X99494400Y-91219999D02*
X97464399Y-93250000D01*
X104494400Y-91219999D02*
X99494400Y-91219999D01*
X97464399Y-93250000D02*
X93348529Y-93250000D01*
X77598626Y-93250000D02*
X77498626Y-93350000D01*
X93348529Y-93250000D02*
X93248529Y-93350000D01*
X73000000Y-97750000D02*
X67250000Y-97750000D01*
X87898529Y-93500000D02*
X87748529Y-93350000D01*
X65750000Y-99250000D02*
X58000000Y-99250000D01*
X87748529Y-93350000D02*
X87251471Y-93350000D01*
X87151471Y-93250000D02*
X77598626Y-93250000D01*
X67250000Y-97750000D02*
X65750000Y-99250000D01*
%TO.N,VDC_OUT*%
D98*
X87500000Y-40500000D02*
X85500000Y-40500000D01*
D99*
X101996966Y-33098941D02*
X99575152Y-33098941D01*
X99575152Y-33098941D02*
X99275153Y-32798942D01*
X104133794Y-33402673D02*
X103794334Y-33742133D01*
D98*
X87500000Y-40500000D02*
X95000000Y-33000000D01*
D99*
X103794334Y-33742133D02*
X102640158Y-33742133D01*
X102640158Y-33742133D02*
X101996966Y-33098941D01*
X99275153Y-32798942D02*
X95312651Y-32798942D01*
X95312651Y-32798942D02*
X95012652Y-33098941D01*
%TO.N,CC1*%
X106219759Y-33049120D02*
X106670639Y-33500000D01*
X106670639Y-33500000D02*
X108923455Y-33500000D01*
X110673455Y-35250000D02*
X112955000Y-35250000D01*
X108923455Y-33500000D02*
X110673455Y-35250000D01*
%TO.N,CC2*%
X106563533Y-34100000D02*
X108500000Y-34100000D01*
X112955000Y-32250000D02*
X111750000Y-32250000D01*
X105866206Y-33402673D02*
X106563533Y-34100000D01*
X111750000Y-32250000D02*
X111500000Y-32500000D01*
%TO.N,Net-(R12-Pad2)*%
D98*
X54325000Y-52150000D02*
X53500000Y-51325000D01*
X54325000Y-53000000D02*
X54325000Y-52150000D01*
%TO.N,Net-(R49-Pad2)*%
X51675000Y-53000000D02*
X51000000Y-52325000D01*
X52675000Y-53000000D02*
X51675000Y-53000000D01*
%TO.N,Net-(L1-Pad2)*%
D100*
X69361900Y-39714000D02*
X69611900Y-39464000D01*
D102*
X69361900Y-42264000D02*
X69361900Y-39829000D01*
%TO.N,Net-(D2-A)*%
D101*
X63444814Y-100866068D02*
X65564814Y-100866068D01*
%TO.N,Net-(D5-K)*%
D99*
X41624400Y-47574400D02*
X41300000Y-47250000D01*
D103*
X41850000Y-39500000D02*
X41850000Y-41774200D01*
D99*
X41624400Y-49783850D02*
X41624400Y-47574400D01*
D101*
X36874200Y-47250000D02*
X36624200Y-47000000D01*
D103*
X41850000Y-41774200D02*
X36624200Y-47000000D01*
D101*
X41300000Y-47250000D02*
X36874200Y-47250000D01*
%TO.N,CHG'*%
D99*
X42124400Y-58262700D02*
X42087100Y-58300000D01*
X42587100Y-62550000D02*
X42212100Y-62175000D01*
X78732314Y-77616068D02*
X63666246Y-62550000D01*
X43575120Y-54216150D02*
X43575120Y-55452930D01*
X63666246Y-62550000D02*
X42587100Y-62550000D01*
X42124400Y-56903650D02*
X42124400Y-58262700D01*
X43575120Y-55452930D02*
X42124400Y-56903650D01*
%TO.N,Net-(D4-K)*%
D98*
X43790719Y-29414919D02*
X43790719Y-46709281D01*
D99*
X42274640Y-48175360D02*
X43200000Y-47250000D01*
D98*
X42625800Y-28250000D02*
X43790719Y-29414919D01*
D99*
X42274640Y-49783850D02*
X42274640Y-48175360D01*
D98*
X43790719Y-46709281D02*
X43500000Y-47000000D01*
%TO.N,SHDN'*%
D99*
X42924880Y-54216150D02*
X42924880Y-55082900D01*
X38624400Y-56953650D02*
X38624400Y-58375600D01*
X39578050Y-56000000D02*
X38624400Y-56953650D01*
X42924880Y-55082900D02*
X42007780Y-56000000D01*
X38624400Y-58375600D02*
X38500000Y-58500000D01*
X42007780Y-56000000D02*
X39578050Y-56000000D01*
%TO.N,Net-(D8-A)*%
X106706900Y-98209999D02*
X106706900Y-96999999D01*
X106706900Y-96999999D02*
X108236900Y-95469999D01*
%TO.N,Net-(U3-VFB)*%
X46496350Y-49783850D02*
X47500000Y-50787500D01*
X44875600Y-49783850D02*
X46496350Y-49783850D01*
D101*
X51250000Y-50787500D02*
X47500000Y-50787500D01*
%TO.N,Net-(D8-K)*%
X112750000Y-95500000D02*
X118500000Y-101250000D01*
X109250000Y-95500000D02*
X112750000Y-95500000D01*
%TO.N,Net-(D7-K)*%
D99*
X82500000Y-107750000D02*
X80212500Y-107750000D01*
X80212500Y-107750000D02*
X79962500Y-108000000D01*
X82456900Y-111654743D02*
X82456900Y-107719999D01*
X74206900Y-114780001D02*
X79331642Y-114780001D01*
X79331642Y-114780001D02*
X82456900Y-111654743D01*
%TO.N,FAULT'*%
X46828050Y-55800000D02*
X45724400Y-56903650D01*
X44225360Y-55404610D02*
X45724400Y-56903650D01*
X44225360Y-54216150D02*
X44225360Y-55404610D01*
X81232314Y-77616068D02*
X81232314Y-76691068D01*
X60341246Y-55800000D02*
X46828050Y-55800000D01*
X81232314Y-76691068D02*
X60341246Y-55800000D01*
%TO.N,Net-(U3-NTC)*%
X45992100Y-48817100D02*
X44325360Y-48817100D01*
X44225360Y-48917100D02*
X44225360Y-49783850D01*
X46175000Y-49000000D02*
X45992100Y-48817100D01*
X44325360Y-48817100D02*
X44225360Y-48917100D01*
%TO.N,Net-(R17-Pad2)*%
X77500000Y-110037500D02*
X77500000Y-107500000D01*
X79962500Y-112500000D02*
X77500000Y-110037500D01*
%TO.N,VBUS_EN*%
X100386593Y-29500000D02*
X103377747Y-29500000D01*
X103377747Y-29500000D02*
X103780241Y-29902494D01*
X100337652Y-29548941D02*
X100386593Y-29500000D01*
%TO.N,Net-(U11-FLIP)*%
X100325000Y-31500000D02*
X100963711Y-31500000D01*
X103487228Y-33342133D02*
X103780241Y-33049120D01*
X102805844Y-33342133D02*
X103487228Y-33342133D01*
X100963711Y-31500000D02*
X102805844Y-33342133D01*
%TO.N,Net-(U11-VCCD)*%
X105512652Y-29195388D02*
X105512652Y-27998941D01*
X105512652Y-27998941D02*
X106012652Y-27498941D01*
%TO.N,Net-(Q1-D)*%
X100250000Y-112137500D02*
X97250000Y-115137500D01*
%TO.N,Net-(IC1-COUT)*%
X93000000Y-92750000D02*
X87500000Y-92750000D01*
%TD*%
%TA.AperFunction,Conductor*%
%TO.N,/Power/3v3 SW*%
G36*
X46889049Y-96882685D02*
G01*
X46934804Y-96935489D01*
X46945300Y-97000255D01*
X46943750Y-97014671D01*
X46943750Y-97412500D01*
X51643750Y-97412500D01*
X51643750Y-97014672D01*
X51643749Y-97014668D01*
X51642488Y-97002937D01*
X51654890Y-96934177D01*
X51702499Y-96883037D01*
X51765880Y-96865676D01*
X52106054Y-96865961D01*
X52173074Y-96885702D01*
X52218784Y-96938544D01*
X52229925Y-96992306D01*
X52152163Y-101103088D01*
X52131214Y-101169743D01*
X52077554Y-101214491D01*
X52027968Y-101224743D01*
X43775124Y-101210294D01*
X43708119Y-101190492D01*
X43662457Y-101137608D01*
X43652634Y-101068432D01*
X43681770Y-101004927D01*
X43732008Y-100970112D01*
X43836081Y-100931296D01*
X43951296Y-100845046D01*
X44037546Y-100729831D01*
X44087841Y-100594983D01*
X44094250Y-100535373D01*
X44094249Y-100012500D01*
X44343750Y-100012500D01*
X44616578Y-100012500D01*
X44616594Y-100012499D01*
X44676122Y-100006098D01*
X44676129Y-100006096D01*
X44810836Y-99955854D01*
X44810843Y-99955850D01*
X44925937Y-99869690D01*
X44925940Y-99869687D01*
X45012100Y-99754593D01*
X45012104Y-99754586D01*
X45062346Y-99619879D01*
X45062348Y-99619872D01*
X45068749Y-99560344D01*
X45068750Y-99560327D01*
X45068750Y-99512500D01*
X44343750Y-99512500D01*
X44343750Y-100012500D01*
X44094249Y-100012500D01*
X44094249Y-99689628D01*
X44094248Y-99689611D01*
X44090070Y-99650753D01*
X44089407Y-99634059D01*
X44089543Y-99629146D01*
X44094250Y-99585373D01*
X44094250Y-99212500D01*
X44343750Y-99212500D01*
X45068750Y-99212500D01*
X45068750Y-99164679D01*
X45068749Y-99164668D01*
X45064565Y-99125758D01*
X45064565Y-99099242D01*
X45068749Y-99060331D01*
X45068750Y-99060321D01*
X45068750Y-99012500D01*
X44343750Y-99012500D01*
X44343750Y-99212500D01*
X44094250Y-99212500D01*
X44094249Y-98712500D01*
X44343750Y-98712500D01*
X45068750Y-98712500D01*
X45068750Y-98664679D01*
X45068749Y-98664670D01*
X45067940Y-98657143D01*
X45080343Y-98588383D01*
X45127952Y-98537244D01*
X45195651Y-98519963D01*
X45254351Y-98537152D01*
X45317556Y-98574532D01*
X45472839Y-98619645D01*
X45493750Y-98621289D01*
X45993750Y-98621289D01*
X46014660Y-98619645D01*
X46169945Y-98574531D01*
X46309124Y-98492221D01*
X46309133Y-98492214D01*
X46423464Y-98377883D01*
X46423471Y-98377874D01*
X46463408Y-98310344D01*
X46943750Y-98310344D01*
X46950151Y-98369872D01*
X46950153Y-98369879D01*
X47000395Y-98504586D01*
X47000399Y-98504593D01*
X47086559Y-98619687D01*
X47086562Y-98619690D01*
X47201656Y-98705850D01*
X47201663Y-98705854D01*
X47336370Y-98756096D01*
X47336377Y-98756098D01*
X47395905Y-98762499D01*
X47395922Y-98762500D01*
X49043750Y-98762500D01*
X49543750Y-98762500D01*
X51191578Y-98762500D01*
X51191594Y-98762499D01*
X51251122Y-98756098D01*
X51251129Y-98756096D01*
X51385836Y-98705854D01*
X51385843Y-98705850D01*
X51500937Y-98619690D01*
X51500940Y-98619687D01*
X51587100Y-98504593D01*
X51587104Y-98504586D01*
X51637346Y-98369879D01*
X51637348Y-98369872D01*
X51643749Y-98310344D01*
X51643750Y-98310327D01*
X51643750Y-97912500D01*
X49543750Y-97912500D01*
X49543750Y-98762500D01*
X49043750Y-98762500D01*
X49043750Y-97912500D01*
X46943750Y-97912500D01*
X46943750Y-98310344D01*
X46463408Y-98310344D01*
X46505781Y-98238695D01*
X46548254Y-98092500D01*
X45993750Y-98092500D01*
X45993750Y-98621289D01*
X45493750Y-98621289D01*
X45493750Y-98092500D01*
X44927750Y-98092500D01*
X44860711Y-98072815D01*
X44838940Y-98047690D01*
X44803750Y-98012500D01*
X44343750Y-98012500D01*
X44343750Y-98712500D01*
X44094249Y-98712500D01*
X44094249Y-98537244D01*
X44094249Y-97961138D01*
X44094249Y-97636999D01*
X44096799Y-97628313D01*
X44095511Y-97619352D01*
X44106489Y-97595311D01*
X44113934Y-97569960D01*
X44120774Y-97564032D01*
X44124536Y-97555796D01*
X44146770Y-97541506D01*
X44166738Y-97524205D01*
X44177252Y-97521917D01*
X44183314Y-97518022D01*
X44218249Y-97512999D01*
X44219750Y-97512999D01*
X44286789Y-97532684D01*
X44332544Y-97585488D01*
X44343750Y-97636999D01*
X44343750Y-97712500D01*
X44803750Y-97712500D01*
X44805412Y-97710837D01*
X44823435Y-97649461D01*
X44876239Y-97603706D01*
X44927750Y-97592500D01*
X45245398Y-97592500D01*
X45308516Y-97609767D01*
X45317355Y-97614994D01*
X45317358Y-97614994D01*
X45317360Y-97614996D01*
X45472752Y-97660142D01*
X45472755Y-97660142D01*
X45472757Y-97660143D01*
X45509060Y-97663000D01*
X45509068Y-97663000D01*
X45978432Y-97663000D01*
X45978440Y-97663000D01*
X46014743Y-97660143D01*
X46014745Y-97660142D01*
X46014747Y-97660142D01*
X46170139Y-97614996D01*
X46170139Y-97614995D01*
X46170145Y-97614994D01*
X46178983Y-97609767D01*
X46242102Y-97592500D01*
X46548254Y-97592500D01*
X46505781Y-97446303D01*
X46493840Y-97426113D01*
X46476656Y-97358389D01*
X46493839Y-97299869D01*
X46506244Y-97278895D01*
X46551393Y-97123493D01*
X46554250Y-97087190D01*
X46554250Y-96987000D01*
X46556800Y-96978314D01*
X46555512Y-96969353D01*
X46566490Y-96945312D01*
X46573935Y-96919961D01*
X46580775Y-96914033D01*
X46584537Y-96905797D01*
X46606771Y-96891507D01*
X46626739Y-96874206D01*
X46637253Y-96871918D01*
X46643315Y-96868023D01*
X46678250Y-96863000D01*
X46822010Y-96863000D01*
X46889049Y-96882685D01*
G37*
%TD.AperFunction*%
%TD*%
%TA.AperFunction,Conductor*%
%TO.N,UNREG*%
G36*
X104693039Y-114269685D02*
G01*
X104738794Y-114322489D01*
X104750000Y-114374000D01*
X104750000Y-116400500D01*
X104730315Y-116467539D01*
X104677511Y-116513294D01*
X104626000Y-116524500D01*
X103695765Y-116524500D01*
X103628726Y-116504815D01*
X103582971Y-116452011D01*
X103572407Y-116387897D01*
X103581899Y-116294985D01*
X103581900Y-116294972D01*
X103581900Y-116182499D01*
X100831901Y-116182499D01*
X100831901Y-116294987D01*
X100841393Y-116387899D01*
X100828623Y-116456591D01*
X100780742Y-116507476D01*
X100718035Y-116524500D01*
X100124000Y-116524500D01*
X100056961Y-116504815D01*
X100011206Y-116452011D01*
X100000000Y-116400500D01*
X100000000Y-115570012D01*
X100831900Y-115570012D01*
X100831900Y-115682499D01*
X101956900Y-115682499D01*
X102456900Y-115682499D01*
X103581899Y-115682499D01*
X103581899Y-115570027D01*
X103581898Y-115570012D01*
X103571405Y-115467301D01*
X103516258Y-115300879D01*
X103516256Y-115300874D01*
X103424215Y-115151653D01*
X103300245Y-115027683D01*
X103151024Y-114935642D01*
X103151019Y-114935640D01*
X102984597Y-114880493D01*
X102984590Y-114880492D01*
X102881886Y-114869999D01*
X102456900Y-114869999D01*
X102456900Y-115682499D01*
X101956900Y-115682499D01*
X101956900Y-114869999D01*
X101531928Y-114869999D01*
X101531912Y-114870000D01*
X101429202Y-114880493D01*
X101262780Y-114935640D01*
X101262775Y-114935642D01*
X101113554Y-115027683D01*
X100989584Y-115151653D01*
X100897543Y-115300874D01*
X100897541Y-115300879D01*
X100842394Y-115467301D01*
X100842393Y-115467308D01*
X100831900Y-115570012D01*
X100000000Y-115570012D01*
X100000000Y-114374000D01*
X100019685Y-114306961D01*
X100072489Y-114261206D01*
X100124000Y-114250000D01*
X104626000Y-114250000D01*
X104693039Y-114269685D01*
G37*
%TD.AperFunction*%
%TD*%
%TA.AperFunction,Conductor*%
%TO.N,UNREG*%
G36*
X71943039Y-108519685D02*
G01*
X71988794Y-108572489D01*
X72000000Y-108624000D01*
X72000000Y-111000000D01*
X72557646Y-111037176D01*
X72623227Y-111061276D01*
X72623708Y-111061634D01*
X72719969Y-111133695D01*
X72719970Y-111133695D01*
X72719971Y-111133696D01*
X72854817Y-111183990D01*
X72854816Y-111183990D01*
X72861744Y-111184734D01*
X72914427Y-111190399D01*
X74851856Y-111190398D01*
X74860092Y-111190672D01*
X75453365Y-111230224D01*
X75749999Y-111250000D01*
X75749999Y-111249999D01*
X75750000Y-111250000D01*
X76440922Y-110098462D01*
X76492292Y-110051105D01*
X76561111Y-110039038D01*
X76602704Y-110051352D01*
X76875354Y-110187677D01*
X76926512Y-110235263D01*
X76930451Y-110242422D01*
X76936321Y-110253976D01*
X76940423Y-110269285D01*
X76969360Y-110319404D01*
X76971023Y-110322284D01*
X77019479Y-110406214D01*
X77019481Y-110406217D01*
X77138349Y-110525085D01*
X77138355Y-110525090D01*
X77501783Y-110888518D01*
X77535268Y-110949841D01*
X77530284Y-111019533D01*
X77488412Y-111075466D01*
X77422948Y-111099883D01*
X77401500Y-111099557D01*
X77356888Y-111094999D01*
X77244400Y-111094999D01*
X77244400Y-113844998D01*
X77356872Y-113844998D01*
X77356886Y-113844997D01*
X77459597Y-113834504D01*
X77626019Y-113779357D01*
X77626024Y-113779355D01*
X77775245Y-113687314D01*
X77788319Y-113674241D01*
X77849642Y-113640756D01*
X77919334Y-113645740D01*
X77975267Y-113687612D01*
X77999684Y-113753076D01*
X78000000Y-113761922D01*
X78000000Y-114055501D01*
X77980315Y-114122540D01*
X77927511Y-114168295D01*
X77876000Y-114179501D01*
X76218585Y-114179501D01*
X76151546Y-114159816D01*
X76132406Y-114144659D01*
X75750000Y-113775000D01*
X75749999Y-113775000D01*
X72500000Y-113775000D01*
X71145093Y-116186735D01*
X71095095Y-116235541D01*
X71036985Y-116250000D01*
X61874000Y-116250000D01*
X61806961Y-116230315D01*
X61761206Y-116177511D01*
X61750000Y-116126000D01*
X61750000Y-115303744D01*
X62454700Y-115303744D01*
X62461101Y-115363272D01*
X62461103Y-115363279D01*
X62511345Y-115497986D01*
X62511349Y-115497993D01*
X62597509Y-115613087D01*
X62597512Y-115613090D01*
X62712606Y-115699250D01*
X62712613Y-115699254D01*
X62847320Y-115749496D01*
X62847327Y-115749498D01*
X62906855Y-115755899D01*
X62906872Y-115755900D01*
X65663800Y-115755900D01*
X66163800Y-115755900D01*
X68920728Y-115755900D01*
X68920744Y-115755899D01*
X68980272Y-115749498D01*
X68980279Y-115749496D01*
X69114986Y-115699254D01*
X69114993Y-115699250D01*
X69230087Y-115613090D01*
X69230090Y-115613087D01*
X69316250Y-115497993D01*
X69316254Y-115497986D01*
X69366496Y-115363279D01*
X69366498Y-115363272D01*
X69372899Y-115303744D01*
X69372900Y-115303727D01*
X69372900Y-113144985D01*
X75931901Y-113144985D01*
X75942394Y-113247696D01*
X75997541Y-113414118D01*
X75997543Y-113414123D01*
X76089584Y-113563344D01*
X76213554Y-113687314D01*
X76362775Y-113779355D01*
X76362780Y-113779357D01*
X76529202Y-113834504D01*
X76529209Y-113834505D01*
X76631919Y-113844998D01*
X76744399Y-113844998D01*
X76744400Y-113844997D01*
X76744400Y-112719999D01*
X75931901Y-112719999D01*
X75931901Y-113144985D01*
X69372900Y-113144985D01*
X69372900Y-112750000D01*
X66163800Y-112750000D01*
X66163800Y-115755900D01*
X65663800Y-115755900D01*
X65663800Y-112750000D01*
X62454700Y-112750000D01*
X62454700Y-115303744D01*
X61750000Y-115303744D01*
X61750000Y-109696255D01*
X62454700Y-109696255D01*
X62454700Y-112250000D01*
X65663800Y-112250000D01*
X66163800Y-112250000D01*
X69372900Y-112250000D01*
X69372900Y-111795012D01*
X75931900Y-111795012D01*
X75931900Y-112219999D01*
X76744400Y-112219999D01*
X76744400Y-111094999D01*
X76631927Y-111094999D01*
X76631912Y-111095000D01*
X76529202Y-111105493D01*
X76362780Y-111160640D01*
X76362775Y-111160642D01*
X76213554Y-111252683D01*
X76089584Y-111376653D01*
X75997543Y-111525874D01*
X75997541Y-111525879D01*
X75942394Y-111692301D01*
X75942393Y-111692308D01*
X75931900Y-111795012D01*
X69372900Y-111795012D01*
X69372900Y-109696272D01*
X69372899Y-109696255D01*
X69366498Y-109636727D01*
X69366496Y-109636720D01*
X69316254Y-109502013D01*
X69316250Y-109502006D01*
X69230090Y-109386912D01*
X69230087Y-109386909D01*
X69114993Y-109300749D01*
X69114986Y-109300745D01*
X68980279Y-109250503D01*
X68980272Y-109250501D01*
X68920744Y-109244100D01*
X66163800Y-109244100D01*
X66163800Y-112250000D01*
X65663800Y-112250000D01*
X65663800Y-109244100D01*
X62906855Y-109244100D01*
X62847327Y-109250501D01*
X62847320Y-109250503D01*
X62712613Y-109300745D01*
X62712606Y-109300749D01*
X62597512Y-109386909D01*
X62597509Y-109386912D01*
X62511349Y-109502006D01*
X62511345Y-109502013D01*
X62461103Y-109636720D01*
X62461101Y-109636727D01*
X62454700Y-109696255D01*
X61750000Y-109696255D01*
X61750000Y-108624000D01*
X61769685Y-108556961D01*
X61822489Y-108511206D01*
X61874000Y-108500000D01*
X71876000Y-108500000D01*
X71943039Y-108519685D01*
G37*
%TD.AperFunction*%
%TD*%
M02*
