M48
; DRILL file KiCad 10.0.3 date 2026-08-08T22:55:49
; FORMAT={-:-/ absolute / inch / decimal}
; #@! TF.CreationDate,2026-08-08T22:55:49-07:00
; #@! TF.GenerationSoftware,Kicad,Pcbnew,10.0.3
; #@! TF.FileFunction,Plated,1,4,PTH
FMAT,2
INCH
; #@! TA.AperFunction,Plated,PTH,ViaDrill
T1C0.0118
; #@! TA.AperFunction,Plated,PTH,ComponentDrill
T2C0.0197
; #@! TA.AperFunction,Plated,PTH,ComponentDrill
T3C0.0236
; #@! TA.AperFunction,Plated,PTH,ComponentDrill
T4C0.0374
; #@! TA.AperFunction,Plated,PTH,ComponentDrill
T5C0.0394
; #@! TA.AperFunction,Plated,PTH,ComponentDrill
T6C0.0433
; #@! TA.AperFunction,Plated,PTH,ComponentDrill
T7C0.0512
; #@! TA.AperFunction,Plated,PTH,ComponentDrill
T8C0.0630
; #@! TA.AperFunction,Plated,PTH,ComponentDrill
T9C0.0748
; #@! TA.AperFunction,Plated,PTH,ComponentDrill
T10C0.1260
%
G90
G05
T1
X1.0431Y-2.4098
X1.0433Y-2.4409
X1.0433Y-2.4705
X1.1142Y-2.6073
X1.1142Y-2.6369
X1.1142Y-2.6664
X1.122Y-1.8012
X1.122Y-1.9094
X1.3091Y-3.3957
X1.3386Y-2.4016
X1.3976Y-4.1732
X1.4146Y-3.7101
X1.4173Y-3.6614
X1.4173Y-4.0945
X1.4272Y-2.1457
X1.437Y-3.9173
X1.4764Y-3.5039
X1.4961Y-3.9961
X1.5157Y-2.3031
X1.53Y-4.0945
X1.5353Y-1.6534
X1.5588Y-3.7657
X1.5851Y-3.8893
X1.5945Y-3.937
X1.6021Y-3.622
X1.6026Y-3.4719
X1.6043Y-1.9685
X1.6339Y-2.0472
X1.657Y-2.2953
X1.6619Y-2.4478
X1.6732Y-3.6317
X1.6929Y-3.5433
X1.7717Y-3.5689
X1.7815Y-2.0472
X1.7851Y-3.1299
X1.7912Y-1.6534
X1.811Y-2.1161
X1.811Y-2.7559
X1.8829Y-1.872
X1.8866Y-3.7992
X1.8898Y-2.7953
X1.9094Y-3.6161
X1.9326Y-1.8327
X1.9488Y-3.1693
X1.9587Y-3.5728
X2.0079Y-3.5039
X2.0472Y-1.9488
X2.0669Y-0.8465
X2.0669Y-4.0327
X2.1457Y-4.1535
X2.1654Y-1.8307
X2.1752Y-3.7303
X2.1949Y-4.0157
X2.1949Y-4.1043
X2.2539Y-3.6024
X2.2539Y-3.6811
X2.2736Y-3.4055
X2.2835Y-3.9075
X2.3228Y-4.0157
X2.3917Y-1.1909
X2.3917Y-3.563
X2.4016Y-4.0956
X2.4606Y-3.878
X2.4764Y-3.376
X2.5901Y-3.5336
X2.5901Y-3.7698
X2.6476Y-3.6811
X2.6575Y-3.9711
X2.6772Y-3.7106
X2.6821Y-3.6171
X2.7362Y-4.3898
X2.7362Y-4.4291
X2.7362Y-4.4685
X2.7756Y-3.2776
X2.7756Y-4.3898
X2.7756Y-4.4291
X2.7756Y-4.4685
X2.7953Y-3.4055
X2.7999Y-3.5199
X2.8169Y-3.1811
X2.8438Y-3.5448
X2.8543Y-1.1614
X2.9035Y-3.6516
X2.9114Y-3.6929
X2.9134Y-1.5551
X2.9134Y-3.878
X2.9225Y-3.1935
X2.9528Y-4.0256
X2.9724Y-2.4409
X2.9724Y-4.4094
X2.9724Y-4.4488
X3.0013Y-3.1935
X3.0167Y-3.7648
X3.0309Y-1.9685
X3.0315Y-1.8898
X3.0315Y-4.3701
X3.0315Y-4.4882
X3.0413Y-3.6516
X3.0457Y-1.8234
X3.0512Y-1.4173
X3.061Y-3.189
X3.0906Y-1.6929
X3.1299Y-3.2087
X3.1299Y-3.8287
X3.1693Y-3.7795
X3.189Y-3.5492
X3.2211Y-3.6194
X3.248Y-2.0472
X3.3071Y-3.3858
X3.3071Y-3.4252
X3.3071Y-3.7205
X3.3457Y-3.5189
X3.3465Y-3.2874
X3.3543Y-3.4646
X3.3858Y-3.6319
X3.435Y-4.1437
X3.4449Y-3.6516
X3.4646Y-3.2384
X3.4744Y-4.252
X3.4843Y-3.7894
X3.5433Y-3.9075
X3.563Y-2.4213
X3.5827Y-1.9291
X3.5925Y-4.1732
X3.6006Y-3.8307
X3.6503Y-3.4111
X3.6601Y-3.3225
X3.6614Y-3.4843
X3.6614Y-3.6516
X3.6811Y-4.3701
X3.7008Y-3.8091
X3.7402Y-1.2402
X3.7746Y-3.5285
X3.7795Y-1.437
X3.8091Y-4.124
X3.8189Y-4.311
X3.8386Y-1.2402
X3.8466Y-3.8602
X3.8484Y-3.5925
X3.878Y-4.3602
X3.9075Y-3.9469
X3.937Y-4.2815
X3.937Y-4.3602
X3.9567Y-4.5276
X3.9567Y-4.5669
X3.9961Y-1.2194
X4.0059Y-3.8091
X4.0157Y-3.9173
X4.0256Y-3.7008
X4.0945Y-4.0748
X4.0945Y-4.5276
X4.0945Y-4.5669
X4.1339Y-0.9252
X4.1634Y-3.8386
X4.1732Y-0.9646
X4.2323Y-1.1614
X4.252Y-0.9646
X4.2717Y-1.2205
X4.2717Y-1.3425
X4.311Y-0.9646
X4.3701Y-4.0059
X4.3706Y-1.4783
X4.3898Y-0.9646
X4.3898Y-1.2795
X4.4094Y-3.5827
X4.4882Y-1.9488
X4.5276Y-3.7402
X4.6063Y-4.1437
T2
X1.3976Y-2.0472
X1.4567Y-3.2874
X1.4567Y-3.3661
X1.5551Y-3.2874
X1.5551Y-3.3661
X1.9094Y-4.2913
X2.2574Y-1.1437
X2.2729Y-3.9809
X2.687Y-2.185
X2.6909Y-2.313
X2.6969Y-2.4409
X2.6969Y-2.5689
X2.7257Y-2.9573
X2.7257Y-3.0459
X2.7264Y-3.1299
X2.8346Y-3.9173
X2.9528Y-4.1622
X2.9921Y-3.8287
X3.248Y-3.7795
X3.9961Y-4.2028
X4.6949Y-2.2244
X4.7047Y-2.3524
X4.7047Y-2.4803
X4.7047Y-2.6083
T4
X2.0276Y-2.3228
X2.126Y-2.3228
X2.2244Y-2.3228
X2.2244Y-2.814
X2.3228Y-2.3228
X2.3228Y-2.814
X2.4213Y-2.814
X2.5197Y-2.814
X2.9016Y-2.315
X2.9028Y-3.0558
X2.9035Y-2.5984
X3.0Y-2.315
X3.0013Y-3.0558
X3.002Y-2.5984
X3.0984Y-2.315
X3.0997Y-3.0558
X3.1004Y-2.5984
X3.1969Y-2.315
X3.1981Y-3.0558
X3.1988Y-2.5984
X3.2953Y-2.315
X3.2965Y-3.0558
X3.2972Y-2.5984
X3.3937Y-2.315
X3.395Y-3.0558
X3.3957Y-2.5984
X3.4921Y-2.315
X3.4941Y-2.5984
X3.5906Y-2.315
X3.5925Y-2.5984
X3.8346Y-2.5994
X3.8386Y-2.314
X3.9331Y-2.5994
X3.937Y-2.314
X4.0315Y-2.5994
X4.0354Y-2.314
X4.1299Y-2.5994
X4.1339Y-2.314
X4.2283Y-2.5994
X4.2323Y-2.314
X4.3268Y-2.5994
X4.3307Y-2.314
X4.4252Y-2.5994
X4.4291Y-2.314
X4.5236Y-2.5994
X4.5276Y-2.314
T5
X1.1319Y-1.2598
X1.1319Y-1.3583
X1.752Y-4.4587
X1.8504Y-4.4587
X2.2244Y-4.4587
X2.3228Y-4.4587
X2.372Y-1.377
X2.4705Y-1.377
T6
X1.437Y-1.0689
X1.437Y-1.5689
T7
X4.3898Y-2.9528
X4.5866Y-2.9528
T8
X1.2008Y-3.4945
X1.2008Y-3.6945
X1.2008Y-3.8945
X1.2008Y-4.0945
T9
X3.1142Y-1.122
X3.3425Y-1.122
X3.8867Y-1.8681
X4.1151Y-1.8681
T10
X1.122Y-0.9252
X1.1319Y-4.4685
X4.6654Y-0.9252
X4.6654Y-4.4685
T3
G00X4.4614Y-1.1685
M15
G01X4.5047Y-1.1685
M16
G05
G00X4.4614Y-1.5087
M15
G01X4.5047Y-1.5087
M16
G05
G00X4.6358Y-1.1685
M15
G01X4.6594Y-1.1685
M16
G05
G00X4.6358Y-1.5087
M15
G01X4.6594Y-1.5087
M16
G05
M30
